solid ASCII
  facet normal 1.000000e+00 0.000000e+00 0.000000e+00
    outer loop
      vertex   3.430446e-02 -4.714058e-02 -2.481433e-02
      vertex   3.430446e-02 3.085942e-02 -2.481433e-02
      vertex   3.430446e-02 -4.714058e-02 1.418567e-02
    endloop
  endfacet
  facet normal 1.000000e+00 -0.000000e+00 0.000000e+00
    outer loop
      vertex   3.430446e-02 -4.714058e-02 1.418567e-02
      vertex   3.430446e-02 3.085942e-02 -2.481433e-02
      vertex   3.430446e-02 3.085942e-02 1.418567e-02
    endloop
  endfacet
  facet normal 0.000000e+00 -1.000000e+00 0.000000e+00
    outer loop
      vertex   -3.269554e-02 -4.714058e-02 -2.481433e-02
      vertex   3.430446e-02 -4.714058e-02 -2.481433e-02
      vertex   -3.269554e-02 -4.714058e-02 1.418567e-02
    endloop
  endfacet
  facet normal 0.000000e+00 -1.000000e+00 0.000000e+00
    outer loop
      vertex   -3.269554e-02 -4.714058e-02 1.418567e-02
      vertex   3.430446e-02 -4.714058e-02 -2.481433e-02
      vertex   3.430446e-02 -4.714058e-02 1.418567e-02
    endloop
  endfacet
  facet normal 0.000000e+00 -0.000000e+00 1.000000e+00
    outer loop
      vertex   -1.010501e-02 -3.205099e-03 1.418567e-02
      vertex   -9.917643e-03 -1.062281e-03 1.418567e-02
      vertex   -1.547843e-02 1.602966e-02 1.418567e-02
    endloop
  endfacet
  facet normal 0.000000e+00 0.000000e+00 1.000000e+00
    outer loop
      vertex   -1.547843e-02 1.602966e-02 1.418567e-02
      vertex   -9.917643e-03 -1.062281e-03 1.418567e-02
      vertex   -9.907188e-03 -9.984186e-04 1.418567e-02
    endloop
  endfacet
  facet normal 0.000000e+00 0.000000e+00 1.000000e+00
    outer loop
      vertex   -1.547843e-02 1.602966e-02 1.418567e-02
      vertex   -9.907188e-03 -9.984186e-04 1.418567e-02
      vertex   -9.583305e-03 2.703574e-03 1.418567e-02
    endloop
  endfacet
  facet normal 0.000000e+00 0.000000e+00 1.000000e+00
    outer loop
      vertex   -9.583305e-03 2.703574e-03 1.418567e-02
      vertex   -9.907188e-03 -9.984186e-04 1.418567e-02
      vertex   -9.886041e-03 -9.372006e-04 1.418567e-02
    endloop
  endfacet
  facet normal 0.000000e+00 0.000000e+00 1.000000e+00
    outer loop
      vertex   -9.583305e-03 2.703574e-03 1.418567e-02
      vertex   -9.886041e-03 -9.372006e-04 1.418567e-02
      vertex   -9.573112e-03 2.639618e-03 1.418567e-02
    endloop
  endfacet
  facet normal 0.000000e+00 0.000000e+00 1.000000e+00
    outer loop
      vertex   -9.573112e-03 2.639618e-03 1.418567e-02
      vertex   -9.886041e-03 -9.372006e-04 1.418567e-02
      vertex   -9.855151e-03 -8.801958e-04 1.418567e-02
    endloop
  endfacet
  facet normal 0.000000e+00 0.000000e+00 1.000000e+00
    outer loop
      vertex   -9.573112e-03 2.639618e-03 1.418567e-02
      vertex   -9.855151e-03 -8.801958e-04 1.418567e-02
      vertex   -9.552591e-03 2.578118e-03 1.418567e-02
    endloop
  endfacet
  facet normal 0.000000e+00 0.000000e+00 1.000000e+00
    outer loop
      vertex   -9.552591e-03 2.578118e-03 1.418567e-02
      vertex   -9.855151e-03 -8.801958e-04 1.418567e-02
      vertex   -9.815325e-03 -8.288972e-04 1.418567e-02
    endloop
  endfacet
  facet normal 0.000000e+00 0.000000e+00 1.000000e+00
    outer loop
      vertex   -9.552591e-03 2.578118e-03 1.418567e-02
      vertex   -9.815325e-03 -8.288972e-04 1.418567e-02
      vertex   -9.522282e-03 2.520686e-03 1.418567e-02
    endloop
  endfacet
  facet normal 0.000000e+00 0.000000e+00 1.000000e+00
    outer loop
      vertex   -9.522282e-03 2.520686e-03 1.418567e-02
      vertex   -9.815325e-03 -8.288972e-04 1.418567e-02
      vertex   -9.767607e-03 -7.846484e-04 1.418567e-02
    endloop
  endfacet
  facet normal 0.000000e+00 0.000000e+00 1.000000e+00
    outer loop
      vertex   -9.522282e-03 2.520686e-03 1.418567e-02
      vertex   -9.767607e-03 -7.846484e-04 1.418567e-02
      vertex   -9.482977e-03 2.468826e-03 1.418567e-02
    endloop
  endfacet
  facet normal 0.000000e+00 0.000000e+00 1.000000e+00
    outer loop
      vertex   -9.482977e-03 2.468826e-03 1.418567e-02
      vertex   -9.767607e-03 -7.846484e-04 1.418567e-02
      vertex   -9.713246e-03 -7.486081e-04 1.418567e-02
    endloop
  endfacet
  facet normal 0.000000e+00 0.000000e+00 1.000000e+00
    outer loop
      vertex   -9.482977e-03 2.468826e-03 1.418567e-02
      vertex   -9.713246e-03 -7.486081e-04 1.418567e-02
      vertex   -9.435707e-03 2.423894e-03 1.418567e-02
    endloop
  endfacet
  facet normal 0.000000e+00 0.000000e+00 1.000000e+00
    outer loop
      vertex   -9.435707e-03 2.423894e-03 1.418567e-02
      vertex   -9.713246e-03 -7.486081e-04 1.418567e-02
      vertex   -9.653667e-03 -7.217204e-04 1.418567e-02
    endloop
  endfacet
  facet normal 0.000000e+00 0.000000e+00 1.000000e+00
    outer loop
      vertex   -9.435707e-03 2.423894e-03 1.418567e-02
      vertex   -9.653667e-03 -7.217204e-04 1.418567e-02
      vertex   -9.381708e-03 2.387068e-03 1.418567e-02
    endloop
  endfacet
  facet normal 0.000000e+00 0.000000e+00 1.000000e+00
    outer loop
      vertex   -9.381708e-03 2.387068e-03 1.418567e-02
      vertex   -9.653667e-03 -7.217204e-04 1.418567e-02
      vertex   -9.590412e-03 -7.047857e-04 1.418567e-02
    endloop
  endfacet
  facet normal 0.000000e+00 0.000000e+00 1.000000e+00
    outer loop
      vertex   -9.381708e-03 2.387068e-03 1.418567e-02
      vertex   -9.590412e-03 -7.047857e-04 1.418567e-02
      vertex   -9.322359e-03 2.359408e-03 1.418567e-02
    endloop
  endfacet
  facet normal 0.000000e+00 0.000000e+00 1.000000e+00
    outer loop
      vertex   -9.322359e-03 2.359408e-03 1.418567e-02
      vertex   -9.590412e-03 -7.047857e-04 1.418567e-02
      vertex   -9.226048e-03 -6.391140e-04 1.418567e-02
    endloop
  endfacet
  facet normal 0.000000e+00 0.000000e+00 1.000000e+00
    outer loop
      vertex   -9.322359e-03 2.359408e-03 1.418567e-02
      vertex   -9.226048e-03 -6.391140e-04 1.418567e-02
      vertex   -8.974903e-03 2.231491e-03 1.418567e-02
    endloop
  endfacet
  facet normal 0.000000e+00 -0.000000e+00 1.000000e+00
    outer loop
      vertex   -9.583305e-03 2.703574e-03 1.418567e-02
      vertex   -9.582513e-03 2.768278e-03 1.418567e-02
      vertex   -1.547843e-02 1.602966e-02 1.418567e-02
    endloop
  endfacet
  facet normal 0.000000e+00 0.000000e+00 1.000000e+00
    outer loop
      vertex   -1.547843e-02 1.602966e-02 1.418567e-02
      vertex   -9.582513e-03 2.768278e-03 1.418567e-02
      vertex   -9.394937e-03 4.911124e-03 1.418567e-02
    endloop
  endfacet
  facet normal 0.000000e+00 0.000000e+00 1.000000e+00
    outer loop
      vertex   -1.547843e-02 1.602966e-02 1.418567e-02
      vertex   -9.394937e-03 4.911124e-03 1.418567e-02
      vertex   -9.386407e-03 4.966684e-03 1.418567e-02
    endloop
  endfacet
  facet normal 0.000000e+00 -0.000000e+00 1.000000e+00
    outer loop
      vertex   -9.386407e-03 4.966684e-03 1.418567e-02
      vertex   -9.369754e-03 5.020392e-03 1.418567e-02
      vertex   -1.547843e-02 1.602966e-02 1.418567e-02
    endloop
  endfacet
  facet normal 0.000000e+00 0.000000e+00 1.000000e+00
    outer loop
      vertex   -1.547843e-02 1.602966e-02 1.418567e-02
      vertex   -9.369754e-03 5.020392e-03 1.418567e-02
      vertex   -9.345610e-03 5.071177e-03 1.418567e-02
    endloop
  endfacet
  facet normal 0.000000e+00 0.000000e+00 1.000000e+00
    outer loop
      vertex   -1.547843e-02 1.602966e-02 1.418567e-02
      vertex   -9.345610e-03 5.071177e-03 1.418567e-02
      vertex   -9.314268e-03 5.117847e-03 1.418567e-02
    endloop
  endfacet
  facet normal 0.000000e+00 -0.000000e+00 1.000000e+00
    outer loop
      vertex   -9.314268e-03 5.117847e-03 1.418567e-02
      vertex   -9.045678e-03 5.452377e-03 1.418567e-02
      vertex   -1.547843e-02 1.602966e-02 1.418567e-02
    endloop
  endfacet
  facet normal 0.000000e+00 0.000000e+00 1.000000e+00
    outer loop
      vertex   -1.547843e-02 1.602966e-02 1.418567e-02
      vertex   -9.045678e-03 5.452377e-03 1.418567e-02
      vertex   -8.764637e-03 5.776898e-03 1.418567e-02
    endloop
  endfacet
  facet normal 0.000000e+00 0.000000e+00 1.000000e+00
    outer loop
      vertex   -1.547843e-02 1.602966e-02 1.418567e-02
      vertex   -8.764637e-03 5.776898e-03 1.418567e-02
      vertex   -8.471894e-03 6.091053e-03 1.418567e-02
    endloop
  endfacet
  facet normal 0.000000e+00 -0.000000e+00 1.000000e+00
    outer loop
      vertex   -8.471894e-03 6.091053e-03 1.418567e-02
      vertex   -8.168747e-03 6.394991e-03 1.418567e-02
      vertex   -1.547843e-02 1.602966e-02 1.418567e-02
    endloop
  endfacet
  facet normal 0.000000e+00 0.000000e+00 1.000000e+00
    outer loop
      vertex   -1.547843e-02 1.602966e-02 1.418567e-02
      vertex   -8.168747e-03 6.394991e-03 1.418567e-02
      vertex   -8.110777e-03 6.443695e-03 1.418567e-02
    endloop
  endfacet
  facet normal 0.000000e+00 0.000000e+00 1.000000e+00
    outer loop
      vertex   -1.547843e-02 1.602966e-02 1.418567e-02
      vertex   -8.110777e-03 6.443695e-03 1.418567e-02
      vertex   -8.045595e-03 6.482719e-03 1.418567e-02
    endloop
  endfacet
  facet normal 0.000000e+00 -0.000000e+00 1.000000e+00
    outer loop
      vertex   -8.045595e-03 6.482719e-03 1.418567e-02
      vertex   -7.975019e-03 6.511511e-03 1.418567e-02
      vertex   -1.547843e-02 1.602966e-02 1.418567e-02
    endloop
  endfacet
  facet normal 0.000000e+00 0.000000e+00 1.000000e+00
    outer loop
      vertex   -1.547843e-02 1.602966e-02 1.418567e-02
      vertex   -7.975019e-03 6.511511e-03 1.418567e-02
      vertex   -7.900634e-03 6.529260e-03 1.418567e-02
    endloop
  endfacet
  facet normal 0.000000e+00 0.000000e+00 1.000000e+00
    outer loop
      vertex   -1.547843e-02 1.602966e-02 1.418567e-02
      vertex   -7.900634e-03 6.529260e-03 1.418567e-02
      vertex   -5.810735e-03 7.486484e-03 1.418567e-02
    endloop
  endfacet
  facet normal 0.000000e+00 0.000000e+00 1.000000e+00
    outer loop
      vertex   -5.810735e-03 7.486484e-03 1.418567e-02
      vertex   -7.900634e-03 6.529260e-03 1.418567e-02
      vertex   -6.159999e-03 7.250227e-03 1.418567e-02
    endloop
  endfacet
  facet normal 0.000000e+00 0.000000e+00 1.000000e+00
    outer loop
      vertex   -6.159999e-03 7.250227e-03 1.418567e-02
      vertex   -7.900634e-03 6.529260e-03 1.418567e-02
      vertex   -6.503077e-03 7.003939e-03 1.418567e-02
    endloop
  endfacet
  facet normal 0.000000e+00 0.000000e+00 1.000000e+00
    outer loop
      vertex   -6.503077e-03 7.003939e-03 1.418567e-02
      vertex   -7.900634e-03 6.529260e-03 1.418567e-02
      vertex   -7.493742e-03 6.591690e-03 1.418567e-02
    endloop
  endfacet
  facet normal 0.000000e+00 0.000000e+00 1.000000e+00
    outer loop
      vertex   -6.503077e-03 7.003939e-03 1.418567e-02
      vertex   -7.493742e-03 6.591690e-03 1.418567e-02
      vertex   -7.085940e-03 6.647436e-03 1.418567e-02
    endloop
  endfacet
  facet normal 0.000000e+00 0.000000e+00 1.000000e+00
    outer loop
      vertex   -6.503077e-03 7.003939e-03 1.418567e-02
      vertex   -7.085940e-03 6.647436e-03 1.418567e-02
      vertex   -6.840048e-03 6.747765e-03 1.418567e-02
    endloop
  endfacet
  facet normal 0.000000e+00 0.000000e+00 1.000000e+00
    outer loop
      vertex   -6.840048e-03 6.747765e-03 1.418567e-02
      vertex   -7.085940e-03 6.647436e-03 1.418567e-02
      vertex   -7.019756e-03 6.660150e-03 1.418567e-02
    endloop
  endfacet
  facet normal 0.000000e+00 0.000000e+00 1.000000e+00
    outer loop
      vertex   -6.840048e-03 6.747765e-03 1.418567e-02
      vertex   -7.019756e-03 6.660150e-03 1.418567e-02
      vertex   -6.955983e-03 6.681413e-03 1.418567e-02
    endloop
  endfacet
  facet normal 0.000000e+00 0.000000e+00 1.000000e+00
    outer loop
      vertex   -6.955983e-03 6.681413e-03 1.418567e-02
      vertex   -6.895736e-03 6.710803e-03 1.418567e-02
      vertex   -6.840048e-03 6.747765e-03 1.418567e-02
    endloop
  endfacet
  facet normal 0.000000e+00 -0.000000e+00 1.000000e+00
    outer loop
      vertex   -5.810735e-03 7.486484e-03 1.418567e-02
      vertex   -5.455236e-03 7.712600e-03 1.418567e-02
      vertex   -1.547843e-02 1.602966e-02 1.418567e-02
    endloop
  endfacet
  facet normal 0.000000e+00 0.000000e+00 1.000000e+00
    outer loop
      vertex   -1.547843e-02 1.602966e-02 1.418567e-02
      vertex   -5.455236e-03 7.712600e-03 1.418567e-02
      vertex   -5.093452e-03 7.928467e-03 1.418567e-02
    endloop
  endfacet
  facet normal 0.000000e+00 0.000000e+00 1.000000e+00
    outer loop
      vertex   -1.547843e-02 1.602966e-02 1.418567e-02
      vertex   -5.093452e-03 7.928467e-03 1.418567e-02
      vertex   -4.725334e-03 8.133975e-03 1.418567e-02
    endloop
  endfacet
  facet normal 0.000000e+00 -0.000000e+00 1.000000e+00
    outer loop
      vertex   -4.725334e-03 8.133975e-03 1.418567e-02
      vertex   -4.350832e-03 8.329017e-03 1.418567e-02
      vertex   -1.547843e-02 1.602966e-02 1.418567e-02
    endloop
  endfacet
  facet normal 0.000000e+00 0.000000e+00 1.000000e+00
    outer loop
      vertex   -1.547843e-02 1.602966e-02 1.418567e-02
      vertex   -4.350832e-03 8.329017e-03 1.418567e-02
      vertex   -3.969897e-03 8.513482e-03 1.418567e-02
    endloop
  endfacet
  facet normal 0.000000e+00 0.000000e+00 1.000000e+00
    outer loop
      vertex   -1.547843e-02 1.602966e-02 1.418567e-02
      vertex   -3.969897e-03 8.513482e-03 1.418567e-02
      vertex   -3.583728e-03 8.686723e-03 1.418567e-02
    endloop
  endfacet
  facet normal 0.000000e+00 -0.000000e+00 1.000000e+00
    outer loop
      vertex   -3.583728e-03 8.686723e-03 1.418567e-02
      vertex   -3.193593e-03 8.848237e-03 1.418567e-02
      vertex   -1.547843e-02 1.602966e-02 1.418567e-02
    endloop
  endfacet
  facet normal 0.000000e+00 0.000000e+00 1.000000e+00
    outer loop
      vertex   -1.547843e-02 1.602966e-02 1.418567e-02
      vertex   -3.193593e-03 8.848237e-03 1.418567e-02
      vertex   -2.799543e-03 8.998134e-03 1.418567e-02
    endloop
  endfacet
  facet normal 0.000000e+00 0.000000e+00 1.000000e+00
    outer loop
      vertex   -1.547843e-02 1.602966e-02 1.418567e-02
      vertex   -2.799543e-03 8.998134e-03 1.418567e-02
      vertex   -2.401629e-03 9.136519e-03 1.418567e-02
    endloop
  endfacet
  facet normal 0.000000e+00 0.000000e+00 1.000000e+00
    outer loop
      vertex   -1.547843e-02 1.602966e-02 1.418567e-02
      vertex   -2.401629e-03 9.136519e-03 1.418567e-02
      vertex   1.210768e-04 1.028353e-02 1.418567e-02
    endloop
  endfacet
  facet normal 0.000000e+00 0.000000e+00 1.000000e+00
    outer loop
      vertex   1.210768e-04 1.028353e-02 1.418567e-02
      vertex   -2.401629e-03 9.136519e-03 1.418567e-02
      vertex   -1.999903e-03 9.263503e-03 1.418567e-02
    endloop
  endfacet
  facet normal 0.000000e+00 0.000000e+00 1.000000e+00
    outer loop
      vertex   1.210768e-04 1.028353e-02 1.418567e-02
      vertex   -1.999903e-03 9.263503e-03 1.418567e-02
      vertex   -1.594418e-03 9.379191e-03 1.418567e-02
    endloop
  endfacet
  facet normal 0.000000e+00 0.000000e+00 1.000000e+00
    outer loop
      vertex   1.210768e-04 1.028353e-02 1.418567e-02
      vertex   -1.594418e-03 9.379191e-03 1.418567e-02
      vertex   7.654314e-05 1.024901e-02 1.418567e-02
    endloop
  endfacet
  facet normal 0.000000e+00 0.000000e+00 1.000000e+00
    outer loop
      vertex   7.654314e-05 1.024901e-02 1.418567e-02
      vertex   -1.594418e-03 9.379191e-03 1.418567e-02
      vertex   -1.185224e-03 9.483693e-03 1.418567e-02
    endloop
  endfacet
  facet normal 0.000000e+00 0.000000e+00 1.000000e+00
    outer loop
      vertex   7.654314e-05 1.024901e-02 1.418567e-02
      vertex   -1.185224e-03 9.483693e-03 1.418567e-02
      vertex   -2.309377e-04 9.979116e-03 1.418567e-02
    endloop
  endfacet
  facet normal 0.000000e+00 0.000000e+00 1.000000e+00
    outer loop
      vertex   -2.309377e-04 9.979116e-03 1.418567e-02
      vertex   -1.185224e-03 9.483693e-03 1.418567e-02
      vertex   -7.723828e-04 9.577163e-03 1.418567e-02
    endloop
  endfacet
  facet normal 0.000000e+00 0.000000e+00 1.000000e+00
    outer loop
      vertex   -2.309377e-04 9.979116e-03 1.418567e-02
      vertex   -7.723828e-04 9.577163e-03 1.418567e-02
      vertex   -5.338840e-04 9.704375e-03 1.418567e-02
    endloop
  endfacet
  facet normal 0.000000e+00 0.000000e+00 1.000000e+00
    outer loop
      vertex   -5.338840e-04 9.704375e-03 1.418567e-02
      vertex   -7.723828e-04 9.577163e-03 1.418567e-02
      vertex   -7.071330e-04 9.596487e-03 1.418567e-02
    endloop
  endfacet
  facet normal 0.000000e+00 0.000000e+00 1.000000e+00
    outer loop
      vertex   -5.338840e-04 9.704375e-03 1.418567e-02
      vertex   -7.071330e-04 9.596487e-03 1.418567e-02
      vertex   -6.448805e-04 9.624467e-03 1.418567e-02
    endloop
  endfacet
  facet normal 0.000000e+00 0.000000e+00 1.000000e+00
    outer loop
      vertex   -6.448805e-04 9.624467e-03 1.418567e-02
      vertex   -5.867708e-04 9.660643e-03 1.418567e-02
      vertex   -5.338840e-04 9.704375e-03 1.418567e-02
    endloop
  endfacet
  facet normal 0.000000e+00 -0.000000e+00 1.000000e+00
    outer loop
      vertex   1.210768e-04 1.028353e-02 1.418567e-02
      vertex   1.642234e-04 1.031010e-02 1.418567e-02
      vertex   -1.547843e-02 1.602966e-02 1.418567e-02
    endloop
  endfacet
  facet normal 0.000000e+00 0.000000e+00 1.000000e+00
    outer loop
      vertex   -1.547843e-02 1.602966e-02 1.418567e-02
      vertex   1.642234e-04 1.031010e-02 1.418567e-02
      vertex   2.049415e-04 1.033004e-02 1.418567e-02
    endloop
  endfacet
  facet normal 0.000000e+00 0.000000e+00 1.000000e+00
    outer loop
      vertex   -1.547843e-02 1.602966e-02 1.418567e-02
      vertex   2.049415e-04 1.033004e-02 1.418567e-02
      vertex   2.422922e-04 1.034456e-02 1.418567e-02
    endloop
  endfacet
  facet normal 0.000000e+00 -0.000000e+00 1.000000e+00
    outer loop
      vertex   2.422922e-04 1.034456e-02 1.418567e-02
      vertex   3.059497e-04 1.036184e-02 1.418567e-02
      vertex   -1.547843e-02 1.602966e-02 1.418567e-02
    endloop
  endfacet
  facet normal 0.000000e+00 0.000000e+00 1.000000e+00
    outer loop
      vertex   -1.547843e-02 1.602966e-02 1.418567e-02
      vertex   3.059497e-04 1.036184e-02 1.418567e-02
      vertex   3.522465e-04 1.036828e-02 1.418567e-02
    endloop
  endfacet
  facet normal -0.000000e+00 -0.000000e+00 1.000000e+00
    outer loop
      vertex   -1.547843e-02 1.602966e-02 1.418567e-02
      vertex   3.522465e-04 1.036828e-02 1.418567e-02
      vertex   -1.587843e-02 1.642966e-02 1.418567e-02
    endloop
  endfacet
  facet normal 0.000000e+00 0.000000e+00 1.000000e+00
    outer loop
      vertex   -1.587843e-02 1.642966e-02 1.418567e-02
      vertex   3.522465e-04 1.036828e-02 1.418567e-02
      vertex   7.798538e-04 1.040512e-02 1.418567e-02
    endloop
  endfacet
  facet normal 0.000000e+00 0.000000e+00 1.000000e+00
    outer loop
      vertex   -1.587843e-02 1.642966e-02 1.418567e-02
      vertex   7.798538e-04 1.040512e-02 1.418567e-02
      vertex   1.208600e-03 1.042742e-02 1.418567e-02
    endloop
  endfacet
  facet normal -0.000000e+00 0.000000e+00 1.000000e+00
    outer loop
      vertex   -1.587843e-02 1.642966e-02 1.418567e-02
      vertex   1.208600e-03 1.042742e-02 1.418567e-02
      vertex   1.592157e-02 1.642966e-02 1.418567e-02
    endloop
  endfacet
  facet normal 0.000000e+00 0.000000e+00 1.000000e+00
    outer loop
      vertex   1.592157e-02 1.642966e-02 1.418567e-02
      vertex   1.208600e-03 1.042742e-02 1.418567e-02
      vertex   1.637765e-03 1.043411e-02 1.418567e-02
    endloop
  endfacet
  facet normal 0.000000e+00 0.000000e+00 1.000000e+00
    outer loop
      vertex   1.592157e-02 1.642966e-02 1.418567e-02
      vertex   1.637765e-03 1.043411e-02 1.418567e-02
      vertex   2.066592e-03 1.042483e-02 1.418567e-02
    endloop
  endfacet
  facet normal 0.000000e+00 0.000000e+00 1.000000e+00
    outer loop
      vertex   1.592157e-02 1.642966e-02 1.418567e-02
      vertex   2.066592e-03 1.042483e-02 1.418567e-02
      vertex   1.552157e-02 1.602966e-02 1.418567e-02
    endloop
  endfacet
  facet normal 0.000000e+00 0.000000e+00 1.000000e+00
    outer loop
      vertex   1.552157e-02 1.602966e-02 1.418567e-02
      vertex   2.066592e-03 1.042483e-02 1.418567e-02
      vertex   2.122490e-03 1.041884e-02 1.418567e-02
    endloop
  endfacet
  facet normal 0.000000e+00 0.000000e+00 1.000000e+00
    outer loop
      vertex   1.552157e-02 1.602966e-02 1.418567e-02
      vertex   2.122490e-03 1.041884e-02 1.418567e-02
      vertex   2.176915e-03 1.040469e-02 1.418567e-02
    endloop
  endfacet
  facet normal -0.000000e+00 0.000000e+00 1.000000e+00
    outer loop
      vertex   2.176915e-03 1.040469e-02 1.418567e-02
      vertex   2.228764e-03 1.038293e-02 1.418567e-02
      vertex   1.552157e-02 1.602966e-02 1.418567e-02
    endloop
  endfacet
  facet normal 0.000000e+00 0.000000e+00 1.000000e+00
    outer loop
      vertex   1.552157e-02 1.602966e-02 1.418567e-02
      vertex   2.228764e-03 1.038293e-02 1.418567e-02
      vertex   2.276810e-03 1.035375e-02 1.418567e-02
    endloop
  endfacet
  facet normal 0.000000e+00 0.000000e+00 1.000000e+00
    outer loop
      vertex   1.552157e-02 1.602966e-02 1.418567e-02
      vertex   2.276810e-03 1.035375e-02 1.418567e-02
      vertex   4.038859e-03 9.120071e-03 1.418567e-02
    endloop
  endfacet
  facet normal -0.000000e+00 0.000000e+00 1.000000e+00
    outer loop
      vertex   4.038859e-03 9.120071e-03 1.418567e-02
      vertex   4.088938e-03 9.079086e-03 1.418567e-02
      vertex   1.552157e-02 1.602966e-02 1.418567e-02
    endloop
  endfacet
  facet normal 0.000000e+00 0.000000e+00 1.000000e+00
    outer loop
      vertex   1.552157e-02 1.602966e-02 1.418567e-02
      vertex   4.088938e-03 9.079086e-03 1.418567e-02
      vertex   4.131381e-03 9.030164e-03 1.418567e-02
    endloop
  endfacet
  facet normal 0.000000e+00 0.000000e+00 1.000000e+00
    outer loop
      vertex   1.552157e-02 1.602966e-02 1.418567e-02
      vertex   4.131381e-03 9.030164e-03 1.418567e-02
      vertex   7.072532e-03 6.970749e-03 1.418567e-02
    endloop
  endfacet
  facet normal 0.000000e+00 0.000000e+00 1.000000e+00
    outer loop
      vertex   7.072532e-03 6.970749e-03 1.418567e-02
      vertex   4.131381e-03 9.030164e-03 1.418567e-02
      vertex   7.009012e-03 6.983727e-03 1.418567e-02
    endloop
  endfacet
  facet normal 0.000000e+00 0.000000e+00 1.000000e+00
    outer loop
      vertex   7.009012e-03 6.983727e-03 1.418567e-02
      vertex   4.131381e-03 9.030164e-03 1.418567e-02
      vertex   4.165303e-03 8.974909e-03 1.418567e-02
    endloop
  endfacet
  facet normal 0.000000e+00 0.000000e+00 1.000000e+00
    outer loop
      vertex   7.009012e-03 6.983727e-03 1.418567e-02
      vertex   4.165303e-03 8.974909e-03 1.418567e-02
      vertex   6.944119e-03 6.986195e-03 1.418567e-02
    endloop
  endfacet
  facet normal 0.000000e+00 0.000000e+00 1.000000e+00
    outer loop
      vertex   6.944119e-03 6.986195e-03 1.418567e-02
      vertex   4.165303e-03 8.974909e-03 1.418567e-02
      vertex   4.189816e-03 8.914770e-03 1.418567e-02
    endloop
  endfacet
  facet normal 0.000000e+00 0.000000e+00 1.000000e+00
    outer loop
      vertex   6.944119e-03 6.986195e-03 1.418567e-02
      vertex   4.189816e-03 8.914770e-03 1.418567e-02
      vertex   6.879554e-03 6.978086e-03 1.418567e-02
    endloop
  endfacet
  facet normal 0.000000e+00 0.000000e+00 1.000000e+00
    outer loop
      vertex   6.879554e-03 6.978086e-03 1.418567e-02
      vertex   4.189816e-03 8.914770e-03 1.418567e-02
      vertex   4.204278e-03 8.851321e-03 1.418567e-02
    endloop
  endfacet
  facet normal 0.000000e+00 0.000000e+00 1.000000e+00
    outer loop
      vertex   6.879554e-03 6.978086e-03 1.418567e-02
      vertex   4.204278e-03 8.851321e-03 1.418567e-02
      vertex   6.817007e-03 6.959615e-03 1.418567e-02
    endloop
  endfacet
  facet normal 0.000000e+00 0.000000e+00 1.000000e+00
    outer loop
      vertex   6.817007e-03 6.959615e-03 1.418567e-02
      vertex   4.204278e-03 8.851321e-03 1.418567e-02
      vertex   4.208309e-03 8.786224e-03 1.418567e-02
    endloop
  endfacet
  facet normal 0.000000e+00 0.000000e+00 1.000000e+00
    outer loop
      vertex   6.817007e-03 6.959615e-03 1.418567e-02
      vertex   4.208309e-03 8.786224e-03 1.418567e-02
      vertex   6.758115e-03 6.931263e-03 1.418567e-02
    endloop
  endfacet
  facet normal 0.000000e+00 0.000000e+00 1.000000e+00
    outer loop
      vertex   6.758115e-03 6.931263e-03 1.418567e-02
      vertex   4.208309e-03 8.786224e-03 1.418567e-02
      vertex   6.704487e-03 6.893696e-03 1.418567e-02
    endloop
  endfacet
  facet normal 0.000000e+00 0.000000e+00 1.000000e+00
    outer loop
      vertex   6.704487e-03 6.893696e-03 1.418567e-02
      vertex   4.208309e-03 8.786224e-03 1.418567e-02
      vertex   4.201806e-03 8.721183e-03 1.418567e-02
    endloop
  endfacet
  facet normal 0.000000e+00 0.000000e+00 1.000000e+00
    outer loop
      vertex   6.704487e-03 6.893696e-03 1.418567e-02
      vertex   4.201806e-03 8.721183e-03 1.418567e-02
      vertex   6.419979e-03 6.656748e-03 1.418567e-02
    endloop
  endfacet
  facet normal 0.000000e+00 0.000000e+00 1.000000e+00
    outer loop
      vertex   6.419979e-03 6.656748e-03 1.418567e-02
      vertex   4.201806e-03 8.721183e-03 1.418567e-02
      vertex   4.184844e-03 8.657935e-03 1.418567e-02
    endloop
  endfacet
  facet normal 0.000000e+00 0.000000e+00 1.000000e+00
    outer loop
      vertex   6.419979e-03 6.656748e-03 1.418567e-02
      vertex   4.184844e-03 8.657935e-03 1.418567e-02
      vertex   4.059535e-03 8.309549e-03 1.418567e-02
    endloop
  endfacet
  facet normal -0.000000e+00 0.000000e+00 1.000000e+00
    outer loop
      vertex   7.072532e-03 6.970749e-03 1.418567e-02
      vertex   7.133017e-03 6.947599e-03 1.418567e-02
      vertex   1.552157e-02 1.602966e-02 1.418567e-02
    endloop
  endfacet
  facet normal 0.000000e+00 0.000000e+00 1.000000e+00
    outer loop
      vertex   1.552157e-02 1.602966e-02 1.418567e-02
      vertex   7.133017e-03 6.947599e-03 1.418567e-02
      vertex   7.188655e-03 6.914561e-03 1.418567e-02
    endloop
  endfacet
  facet normal 0.000000e+00 0.000000e+00 1.000000e+00
    outer loop
      vertex   1.552157e-02 1.602966e-02 1.418567e-02
      vertex   7.188655e-03 6.914561e-03 1.418567e-02
      vertex   8.950626e-03 5.680692e-03 1.418567e-02
    endloop
  endfacet
  facet normal -0.000000e+00 0.000000e+00 1.000000e+00
    outer loop
      vertex   8.950626e-03 5.680692e-03 1.418567e-02
      vertex   8.994479e-03 5.645524e-03 1.418567e-02
      vertex   1.552157e-02 1.602966e-02 1.418567e-02
    endloop
  endfacet
  facet normal 0.000000e+00 0.000000e+00 1.000000e+00
    outer loop
      vertex   1.552157e-02 1.602966e-02 1.418567e-02
      vertex   8.994479e-03 5.645524e-03 1.418567e-02
      vertex   9.032666e-03 5.604246e-03 1.418567e-02
    endloop
  endfacet
  facet normal 0.000000e+00 0.000000e+00 1.000000e+00
    outer loop
      vertex   1.552157e-02 1.602966e-02 1.418567e-02
      vertex   9.032666e-03 5.604246e-03 1.418567e-02
      vertex   9.064577e-03 5.557943e-03 1.418567e-02
    endloop
  endfacet
  facet normal -0.000000e+00 0.000000e+00 1.000000e+00
    outer loop
      vertex   9.064577e-03 5.557943e-03 1.418567e-02
      vertex   9.089321e-03 5.507464e-03 1.418567e-02
      vertex   1.552157e-02 1.602966e-02 1.418567e-02
    endloop
  endfacet
  facet normal 0.000000e+00 0.000000e+00 1.000000e+00
    outer loop
      vertex   1.552157e-02 1.602966e-02 1.418567e-02
      vertex   9.089321e-03 5.507464e-03 1.418567e-02
      vertex   9.244748e-03 5.107566e-03 1.418567e-02
    endloop
  endfacet
  facet normal 0.000000e+00 0.000000e+00 1.000000e+00
    outer loop
      vertex   1.552157e-02 1.602966e-02 1.418567e-02
      vertex   9.244748e-03 5.107566e-03 1.418567e-02
      vertex   9.385279e-03 4.701887e-03 1.418567e-02
    endloop
  endfacet
  facet normal -0.000000e+00 0.000000e+00 1.000000e+00
    outer loop
      vertex   9.385279e-03 4.701887e-03 1.418567e-02
      vertex   9.510980e-03 4.291257e-03 1.418567e-02
      vertex   1.552157e-02 1.602966e-02 1.418567e-02
    endloop
  endfacet
  facet normal 0.000000e+00 0.000000e+00 1.000000e+00
    outer loop
      vertex   1.552157e-02 1.602966e-02 1.418567e-02
      vertex   9.510980e-03 4.291257e-03 1.418567e-02
      vertex   9.622628e-03 3.876726e-03 1.418567e-02
    endloop
  endfacet
  facet normal 0.000000e+00 0.000000e+00 1.000000e+00
    outer loop
      vertex   1.552157e-02 1.602966e-02 1.418567e-02
      vertex   9.622628e-03 3.876726e-03 1.418567e-02
      vertex   9.633055e-03 3.826091e-03 1.418567e-02
    endloop
  endfacet
  facet normal -0.000000e+00 0.000000e+00 1.000000e+00
    outer loop
      vertex   9.633055e-03 3.826091e-03 1.418567e-02
      vertex   9.637914e-03 3.757092e-03 1.418567e-02
      vertex   1.552157e-02 1.602966e-02 1.418567e-02
    endloop
  endfacet
  facet normal 0.000000e+00 0.000000e+00 1.000000e+00
    outer loop
      vertex   1.552157e-02 1.602966e-02 1.418567e-02
      vertex   9.637914e-03 3.757092e-03 1.418567e-02
      vertex   9.635910e-03 3.711919e-03 1.418567e-02
    endloop
  endfacet
  facet normal 0.000000e+00 0.000000e+00 1.000000e+00
    outer loop
      vertex   1.552157e-02 1.602966e-02 1.418567e-02
      vertex   9.635910e-03 3.711919e-03 1.418567e-02
      vertex   9.629690e-03 3.666151e-03 1.418567e-02
    endloop
  endfacet
  facet normal -0.000000e+00 0.000000e+00 1.000000e+00
    outer loop
      vertex   9.619343e-03 3.621256e-03 1.418567e-02
      vertex   9.388853e-03 1.289002e-03 1.418567e-02
      vertex   9.629690e-03 3.666151e-03 1.418567e-02
    endloop
  endfacet
  facet normal 0.000000e+00 0.000000e+00 1.000000e+00
    outer loop
      vertex   9.629690e-03 3.666151e-03 1.418567e-02
      vertex   9.388853e-03 1.289002e-03 1.418567e-02
      vertex   9.406926e-03 8.680730e-04 1.418567e-02
    endloop
  endfacet
  facet normal 0.000000e+00 0.000000e+00 1.000000e+00
    outer loop
      vertex   9.629690e-03 3.666151e-03 1.418567e-02
      vertex   9.406926e-03 8.680730e-04 1.418567e-02
      vertex   9.412980e-03 4.468256e-04 1.418567e-02
    endloop
  endfacet
  facet normal 0.000000e+00 -0.000000e+00 1.000000e+00
    outer loop
      vertex   9.388853e-03 1.289002e-03 1.418567e-02
      vertex   9.619343e-03 3.621256e-03 1.418567e-02
      vertex   9.358881e-03 1.709602e-03 1.418567e-02
    endloop
  endfacet
  facet normal 0.000000e+00 0.000000e+00 1.000000e+00
    outer loop
      vertex   9.358881e-03 1.709602e-03 1.418567e-02
      vertex   9.619343e-03 3.621256e-03 1.418567e-02
      vertex   9.604823e-03 3.577522e-03 1.418567e-02
    endloop
  endfacet
  facet normal 0.000000e+00 -0.000000e+00 1.000000e+00
    outer loop
      vertex   9.358881e-03 1.709602e-03 1.418567e-02
      vertex   9.604823e-03 3.577522e-03 1.418567e-02
      vertex   9.317128e-03 2.129861e-03 1.418567e-02
    endloop
  endfacet
  facet normal 0.000000e+00 0.000000e+00 1.000000e+00
    outer loop
      vertex   9.317128e-03 2.129861e-03 1.418567e-02
      vertex   9.604823e-03 3.577522e-03 1.418567e-02
      vertex   9.455441e-03 3.193926e-03 1.418567e-02
    endloop
  endfacet
  facet normal 0.000000e+00 -0.000000e+00 1.000000e+00
    outer loop
      vertex   9.317128e-03 2.129861e-03 1.418567e-02
      vertex   9.455441e-03 3.193926e-03 1.418567e-02
      vertex   9.299819e-03 2.812886e-03 1.418567e-02
    endloop
  endfacet
  facet normal 0.000000e+00 0.000000e+00 1.000000e+00
    outer loop
      vertex   9.317128e-03 2.129861e-03 1.418567e-02
      vertex   9.299819e-03 2.812886e-03 1.418567e-02
      vertex   9.263760e-03 2.549773e-03 1.418567e-02
    endloop
  endfacet
  facet normal 0.000000e+00 0.000000e+00 1.000000e+00
    outer loop
      vertex   9.263760e-03 2.549773e-03 1.418567e-02
      vertex   9.299819e-03 2.812886e-03 1.418567e-02
      vertex   9.277738e-03 2.749212e-03 1.418567e-02
    endloop
  endfacet
  facet normal 0.000000e+00 0.000000e+00 1.000000e+00
    outer loop
      vertex   9.263760e-03 2.549773e-03 1.418567e-02
      vertex   9.277738e-03 2.749212e-03 1.418567e-02
      vertex   9.264265e-03 2.683352e-03 1.418567e-02
    endloop
  endfacet
  facet normal 0.000000e+00 0.000000e+00 1.000000e+00
    outer loop
      vertex   9.264265e-03 2.683352e-03 1.418567e-02
      vertex   9.259594e-03 2.616482e-03 1.418567e-02
      vertex   9.263760e-03 2.549773e-03 1.418567e-02
    endloop
  endfacet
  facet normal -0.000000e+00 0.000000e+00 1.000000e+00
    outer loop
      vertex   9.629690e-03 3.666151e-03 1.418567e-02
      vertex   9.412980e-03 4.468256e-04 1.418567e-02
      vertex   1.552157e-02 1.602966e-02 1.418567e-02
    endloop
  endfacet
  facet normal 0.000000e+00 0.000000e+00 1.000000e+00
    outer loop
      vertex   1.552157e-02 1.602966e-02 1.418567e-02
      vertex   9.412980e-03 4.468256e-04 1.418567e-02
      vertex   9.406896e-03 2.527172e-05 1.418567e-02
    endloop
  endfacet
  facet normal 0.000000e+00 0.000000e+00 1.000000e+00
    outer loop
      vertex   1.552157e-02 1.602966e-02 1.418567e-02
      vertex   9.406896e-03 2.527172e-05 1.418567e-02
      vertex   9.388556e-03 -3.965771e-04 1.418567e-02
    endloop
  endfacet
  facet normal -0.000000e+00 0.000000e+00 1.000000e+00
    outer loop
      vertex   9.388556e-03 -3.965771e-04 1.418567e-02
      vertex   9.357840e-03 -8.187093e-04 1.418567e-02
      vertex   1.552157e-02 1.602966e-02 1.418567e-02
    endloop
  endfacet
  facet normal 0.000000e+00 0.000000e+00 1.000000e+00
    outer loop
      vertex   1.552157e-02 1.602966e-02 1.418567e-02
      vertex   9.357840e-03 -8.187093e-04 1.418567e-02
      vertex   1.552157e-02 -2.357034e-02 1.418567e-02
    endloop
  endfacet
  facet normal 0.000000e+00 0.000000e+00 1.000000e+00
    outer loop
      vertex   1.552157e-02 -2.357034e-02 1.418567e-02
      vertex   9.357840e-03 -8.187093e-04 1.418567e-02
      vertex   9.314787e-03 -1.239762e-03 1.418567e-02
    endloop
  endfacet
  facet normal 0.000000e+00 0.000000e+00 1.000000e+00
    outer loop
      vertex   1.552157e-02 -2.357034e-02 1.418567e-02
      vertex   9.314787e-03 -1.239762e-03 1.418567e-02
      vertex   9.259595e-03 -1.658386e-03 1.418567e-02
    endloop
  endfacet
  facet normal 0.000000e+00 0.000000e+00 1.000000e+00
    outer loop
      vertex   9.259595e-03 -1.658386e-03 1.418567e-02
      vertex   9.192384e-03 -2.074592e-03 1.418567e-02
      vertex   1.552157e-02 -2.357034e-02 1.418567e-02
    endloop
  endfacet
  facet normal 0.000000e+00 0.000000e+00 1.000000e+00
    outer loop
      vertex   1.552157e-02 -2.357034e-02 1.418567e-02
      vertex   9.192384e-03 -2.074592e-03 1.418567e-02
      vertex   8.846694e-03 -5.297269e-03 1.418567e-02
    endloop
  endfacet
  facet normal 0.000000e+00 0.000000e+00 1.000000e+00
    outer loop
      vertex   1.552157e-02 -2.357034e-02 1.418567e-02
      vertex   8.846694e-03 -5.297269e-03 1.418567e-02
      vertex   8.843604e-03 -5.342503e-03 1.418567e-02
    endloop
  endfacet
  facet normal 0.000000e+00 0.000000e+00 1.000000e+00
    outer loop
      vertex   9.192384e-03 -2.074592e-03 1.418567e-02
      vertex   9.113272e-03 -2.488388e-03 1.418567e-02
      vertex   8.846694e-03 -5.297269e-03 1.418567e-02
    endloop
  endfacet
  facet normal 0.000000e+00 -0.000000e+00 1.000000e+00
    outer loop
      vertex   8.846694e-03 -5.297269e-03 1.418567e-02
      vertex   9.113272e-03 -2.488388e-03 1.418567e-02
      vertex   8.845259e-03 -5.246620e-03 1.418567e-02
    endloop
  endfacet
  facet normal 0.000000e+00 0.000000e+00 1.000000e+00
    outer loop
      vertex   8.845259e-03 -5.246620e-03 1.418567e-02
      vertex   9.113272e-03 -2.488388e-03 1.418567e-02
      vertex   9.022381e-03 -2.899784e-03 1.418567e-02
    endloop
  endfacet
  facet normal 0.000000e+00 0.000000e+00 1.000000e+00
    outer loop
      vertex   8.845259e-03 -5.246620e-03 1.418567e-02
      vertex   9.022381e-03 -2.899784e-03 1.418567e-02
      vertex   8.919827e-03 -3.308789e-03 1.418567e-02
    endloop
  endfacet
  facet normal 0.000000e+00 -0.000000e+00 1.000000e+00
    outer loop
      vertex   8.845259e-03 -5.246620e-03 1.418567e-02
      vertex   8.919827e-03 -3.308789e-03 1.418567e-02
      vertex   8.837628e-03 -5.190791e-03 1.418567e-02
    endloop
  endfacet
  facet normal 0.000000e+00 -0.000000e+00 1.000000e+00
    outer loop
      vertex   8.837628e-03 -5.190791e-03 1.418567e-02
      vertex   8.919827e-03 -3.308789e-03 1.418567e-02
      vertex   8.805732e-03 -3.715413e-03 1.418567e-02
    endloop
  endfacet
  facet normal 0.000000e+00 0.000000e+00 1.000000e+00
    outer loop
      vertex   8.837628e-03 -5.190791e-03 1.418567e-02
      vertex   8.805732e-03 -3.715413e-03 1.418567e-02
      vertex   8.757637e-03 -4.789560e-03 1.418567e-02
    endloop
  endfacet
  facet normal 0.000000e+00 -0.000000e+00 1.000000e+00
    outer loop
      vertex   8.757637e-03 -4.789560e-03 1.418567e-02
      vertex   8.805732e-03 -3.715413e-03 1.418567e-02
      vertex   8.671177e-03 -4.389830e-03 1.418567e-02
    endloop
  endfacet
  facet normal 0.000000e+00 0.000000e+00 1.000000e+00
    outer loop
      vertex   8.671177e-03 -4.389830e-03 1.418567e-02
      vertex   8.805732e-03 -3.715413e-03 1.418567e-02
      vertex   8.680258e-03 -4.119678e-03 1.418567e-02
    endloop
  endfacet
  facet normal 0.000000e+00 -0.000000e+00 1.000000e+00
    outer loop
      vertex   8.671177e-03 -4.389830e-03 1.418567e-02
      vertex   8.680258e-03 -4.119678e-03 1.418567e-02
      vertex   8.664368e-03 -4.185848e-03 1.418567e-02
    endloop
  endfacet
  facet normal -0.000000e+00 0.000000e+00 1.000000e+00
    outer loop
      vertex   8.657473e-03 -4.253751e-03 1.418567e-02
      vertex   8.659747e-03 -4.322163e-03 1.418567e-02
      vertex   8.664368e-03 -4.185848e-03 1.418567e-02
    endloop
  endfacet
  facet normal 0.000000e+00 0.000000e+00 1.000000e+00
    outer loop
      vertex   8.664368e-03 -4.185848e-03 1.418567e-02
      vertex   8.659747e-03 -4.322163e-03 1.418567e-02
      vertex   8.671177e-03 -4.389830e-03 1.418567e-02
    endloop
  endfacet
  facet normal 0.000000e+00 0.000000e+00 1.000000e+00
    outer loop
      vertex   8.843604e-03 -5.342503e-03 1.418567e-02
      vertex   8.837506e-03 -5.382110e-03 1.418567e-02
      vertex   1.552157e-02 -2.357034e-02 1.418567e-02
    endloop
  endfacet
  facet normal 0.000000e+00 0.000000e+00 1.000000e+00
    outer loop
      vertex   1.552157e-02 -2.357034e-02 1.418567e-02
      vertex   8.837506e-03 -5.382110e-03 1.418567e-02
      vertex   8.820638e-03 -5.445878e-03 1.418567e-02
    endloop
  endfacet
  facet normal 0.000000e+00 0.000000e+00 1.000000e+00
    outer loop
      vertex   1.552157e-02 -2.357034e-02 1.418567e-02
      vertex   8.820638e-03 -5.445878e-03 1.418567e-02
      vertex   8.803070e-03 -5.489194e-03 1.418567e-02
    endloop
  endfacet
  facet normal 0.000000e+00 0.000000e+00 1.000000e+00
    outer loop
      vertex   8.803070e-03 -5.489194e-03 1.418567e-02
      vertex   8.621169e-03 -5.877934e-03 1.418567e-02
      vertex   1.552157e-02 -2.357034e-02 1.418567e-02
    endloop
  endfacet
  facet normal 0.000000e+00 0.000000e+00 1.000000e+00
    outer loop
      vertex   1.552157e-02 -2.357034e-02 1.418567e-02
      vertex   8.621169e-03 -5.877934e-03 1.418567e-02
      vertex   8.426114e-03 -6.260393e-03 1.418567e-02
    endloop
  endfacet
  facet normal 0.000000e+00 0.000000e+00 1.000000e+00
    outer loop
      vertex   1.552157e-02 -2.357034e-02 1.418567e-02
      vertex   8.426114e-03 -6.260393e-03 1.418567e-02
      vertex   8.217321e-03 -6.635405e-03 1.418567e-02
    endloop
  endfacet
  facet normal 0.000000e+00 0.000000e+00 1.000000e+00
    outer loop
      vertex   8.217321e-03 -6.635405e-03 1.418567e-02
      vertex   7.994870e-03 -7.002142e-03 1.418567e-02
      vertex   1.552157e-02 -2.357034e-02 1.418567e-02
    endloop
  endfacet
  facet normal 0.000000e+00 0.000000e+00 1.000000e+00
    outer loop
      vertex   1.552157e-02 -2.357034e-02 1.418567e-02
      vertex   7.994870e-03 -7.002142e-03 1.418567e-02
      vertex   7.961735e-03 -7.047556e-03 1.418567e-02
    endloop
  endfacet
  facet normal 0.000000e+00 0.000000e+00 1.000000e+00
    outer loop
      vertex   1.552157e-02 -2.357034e-02 1.418567e-02
      vertex   7.961735e-03 -7.047556e-03 1.418567e-02
      vertex   7.922270e-03 -7.087613e-03 1.418567e-02
    endloop
  endfacet
  facet normal 0.000000e+00 0.000000e+00 1.000000e+00
    outer loop
      vertex   7.922270e-03 -7.087613e-03 1.418567e-02
      vertex   7.877496e-03 -7.121631e-03 1.418567e-02
      vertex   1.552157e-02 -2.357034e-02 1.418567e-02
    endloop
  endfacet
  facet normal 0.000000e+00 0.000000e+00 1.000000e+00
    outer loop
      vertex   1.552157e-02 -2.357034e-02 1.418567e-02
      vertex   7.877496e-03 -7.121631e-03 1.418567e-02
      vertex   7.828204e-03 -7.148650e-03 1.418567e-02
    endloop
  endfacet
  facet normal 0.000000e+00 0.000000e+00 1.000000e+00
    outer loop
      vertex   1.552157e-02 -2.357034e-02 1.418567e-02
      vertex   7.828204e-03 -7.148650e-03 1.418567e-02
      vertex   5.878783e-03 -8.057790e-03 1.418567e-02
    endloop
  endfacet
  facet normal 0.000000e+00 0.000000e+00 1.000000e+00
    outer loop
      vertex   5.878783e-03 -8.057790e-03 1.418567e-02
      vertex   5.818250e-03 -8.080667e-03 1.418567e-02
      vertex   1.552157e-02 -2.357034e-02 1.418567e-02
    endloop
  endfacet
  facet normal 0.000000e+00 0.000000e+00 1.000000e+00
    outer loop
      vertex   1.552157e-02 -2.357034e-02 1.418567e-02
      vertex   5.818250e-03 -8.080667e-03 1.418567e-02
      vertex   2.450289e-03 -9.651173e-03 1.418567e-02
    endloop
  endfacet
  facet normal 0.000000e+00 0.000000e+00 1.000000e+00
    outer loop
      vertex   1.552157e-02 -2.357034e-02 1.418567e-02
      vertex   2.450289e-03 -9.651173e-03 1.418567e-02
      vertex   2.393858e-03 -9.682838e-03 1.418567e-02
    endloop
  endfacet
  facet normal 0.000000e+00 0.000000e+00 1.000000e+00
    outer loop
      vertex   5.818250e-03 -8.080667e-03 1.418567e-02
      vertex   5.754660e-03 -8.092963e-03 1.418567e-02
      vertex   2.450289e-03 -9.651173e-03 1.418567e-02
    endloop
  endfacet
  facet normal 0.000000e+00 0.000000e+00 1.000000e+00
    outer loop
      vertex   2.450289e-03 -9.651173e-03 1.418567e-02
      vertex   5.754660e-03 -8.092963e-03 1.418567e-02
      vertex   2.500580e-03 -9.610366e-03 1.418567e-02
    endloop
  endfacet
  facet normal 0.000000e+00 0.000000e+00 1.000000e+00
    outer loop
      vertex   2.500580e-03 -9.610366e-03 1.418567e-02
      vertex   5.754660e-03 -8.092963e-03 1.418567e-02
      vertex   5.689847e-03 -8.094713e-03 1.418567e-02
    endloop
  endfacet
  facet normal 0.000000e+00 0.000000e+00 1.000000e+00
    outer loop
      vertex   2.500580e-03 -9.610366e-03 1.418567e-02
      vertex   5.689847e-03 -8.094713e-03 1.418567e-02
      vertex   2.543579e-03 -9.561846e-03 1.418567e-02
    endloop
  endfacet
  facet normal 0.000000e+00 0.000000e+00 1.000000e+00
    outer loop
      vertex   2.543579e-03 -9.561846e-03 1.418567e-02
      vertex   5.689847e-03 -8.094713e-03 1.418567e-02
      vertex   5.625508e-03 -8.085872e-03 1.418567e-02
    endloop
  endfacet
  facet normal 0.000000e+00 0.000000e+00 1.000000e+00
    outer loop
      vertex   2.543579e-03 -9.561846e-03 1.418567e-02
      vertex   5.625508e-03 -8.085872e-03 1.418567e-02
      vertex   2.578162e-03 -9.506881e-03 1.418567e-02
    endloop
  endfacet
  facet normal 0.000000e+00 0.000000e+00 1.000000e+00
    outer loop
      vertex   2.578162e-03 -9.506881e-03 1.418567e-02
      vertex   5.625508e-03 -8.085872e-03 1.418567e-02
      vertex   5.563329e-03 -8.066671e-03 1.418567e-02
    endloop
  endfacet
  facet normal 0.000000e+00 0.000000e+00 1.000000e+00
    outer loop
      vertex   2.578162e-03 -9.506881e-03 1.418567e-02
      vertex   5.563329e-03 -8.066671e-03 1.418567e-02
      vertex   2.603423e-03 -9.446912e-03 1.418567e-02
    endloop
  endfacet
  facet normal 0.000000e+00 0.000000e+00 1.000000e+00
    outer loop
      vertex   2.603423e-03 -9.446912e-03 1.418567e-02
      vertex   5.563329e-03 -8.066671e-03 1.418567e-02
      vertex   5.504937e-03 -8.037614e-03 1.418567e-02
    endloop
  endfacet
  facet normal 0.000000e+00 0.000000e+00 1.000000e+00
    outer loop
      vertex   2.603423e-03 -9.446912e-03 1.418567e-02
      vertex   5.504937e-03 -8.037614e-03 1.418567e-02
      vertex   2.618700e-03 -9.383509e-03 1.418567e-02
    endloop
  endfacet
  facet normal 0.000000e+00 0.000000e+00 1.000000e+00
    outer loop
      vertex   2.618700e-03 -9.383509e-03 1.418567e-02
      vertex   5.504937e-03 -8.037614e-03 1.418567e-02
      vertex   5.451862e-03 -7.999461e-03 1.418567e-02
    endloop
  endfacet
  facet normal 0.000000e+00 0.000000e+00 1.000000e+00
    outer loop
      vertex   2.618700e-03 -9.383509e-03 1.418567e-02
      vertex   5.451862e-03 -7.999461e-03 1.418567e-02
      vertex   2.623592e-03 -9.318331e-03 1.418567e-02
    endloop
  endfacet
  facet normal 0.000000e+00 0.000000e+00 1.000000e+00
    outer loop
      vertex   2.623592e-03 -9.318331e-03 1.418567e-02
      vertex   5.451862e-03 -7.999461e-03 1.418567e-02
      vertex   5.405568e-03 -7.953147e-03 1.418567e-02
    endloop
  endfacet
  facet normal 0.000000e+00 -0.000000e+00 1.000000e+00
    outer loop
      vertex   2.623592e-03 -9.318331e-03 1.418567e-02
      vertex   5.405568e-03 -7.953147e-03 1.418567e-02
      vertex   2.617872e-03 -9.253104e-03 1.418567e-02
    endloop
  endfacet
  facet normal 0.000000e+00 0.000000e+00 1.000000e+00
    outer loop
      vertex   2.617872e-03 -9.253104e-03 1.418567e-02
      vertex   5.405568e-03 -7.953147e-03 1.418567e-02
      vertex   5.166513e-03 -7.670435e-03 1.418567e-02
    endloop
  endfacet
  facet normal 0.000000e+00 -0.000000e+00 1.000000e+00
    outer loop
      vertex   2.617872e-03 -9.253104e-03 1.418567e-02
      vertex   5.166513e-03 -7.670435e-03 1.418567e-02
      vertex   2.554924e-03 -8.888239e-03 1.418567e-02
    endloop
  endfacet
  facet normal 0.000000e+00 0.000000e+00 1.000000e+00
    outer loop
      vertex   2.393858e-03 -9.682838e-03 1.418567e-02
      vertex   4.443106e-04 -1.059182e-02 1.418567e-02
      vertex   1.552157e-02 -2.357034e-02 1.418567e-02
    endloop
  endfacet
  facet normal 0.000000e+00 0.000000e+00 1.000000e+00
    outer loop
      vertex   1.552157e-02 -2.357034e-02 1.418567e-02
      vertex   4.443106e-04 -1.059182e-02 1.418567e-02
      vertex   3.919289e-04 -1.061221e-02 1.418567e-02
    endloop
  endfacet
  facet normal 0.000000e+00 0.000000e+00 1.000000e+00
    outer loop
      vertex   1.552157e-02 -2.357034e-02 1.418567e-02
      vertex   3.919289e-04 -1.061221e-02 1.418567e-02
      vertex   3.370897e-04 -1.062464e-02 1.418567e-02
    endloop
  endfacet
  facet normal 0.000000e+00 0.000000e+00 1.000000e+00
    outer loop
      vertex   3.370897e-04 -1.062464e-02 1.418567e-02
      vertex   2.810367e-04 -1.062912e-02 1.418567e-02
      vertex   1.552157e-02 -2.357034e-02 1.418567e-02
    endloop
  endfacet
  facet normal 0.000000e+00 0.000000e+00 1.000000e+00
    outer loop
      vertex   1.552157e-02 -2.357034e-02 1.418567e-02
      vertex   2.810367e-04 -1.062912e-02 1.418567e-02
      vertex   -1.547843e-02 -2.357034e-02 1.418567e-02
    endloop
  endfacet
  facet normal 0.000000e+00 0.000000e+00 1.000000e+00
    outer loop
      vertex   1.552157e-02 -2.357034e-02 1.418567e-02
      vertex   -1.547843e-02 -2.357034e-02 1.418567e-02
      vertex   -3.269554e-02 -4.714058e-02 1.418567e-02
    endloop
  endfacet
  facet normal 0.000000e+00 0.000000e+00 1.000000e+00
    outer loop
      vertex   -3.269554e-02 -4.714058e-02 1.418567e-02
      vertex   -1.547843e-02 -2.357034e-02 1.418567e-02
      vertex   -2.247843e-02 -2.357034e-02 1.418567e-02
    endloop
  endfacet
  facet normal 0.000000e+00 0.000000e+00 1.000000e+00
    outer loop
      vertex   -3.269554e-02 -4.714058e-02 1.418567e-02
      vertex   -2.247843e-02 -2.357034e-02 1.418567e-02
      vertex   -2.747843e-02 -1.857034e-02 1.418567e-02
    endloop
  endfacet
  facet normal 0.000000e+00 0.000000e+00 1.000000e+00
    outer loop
      vertex   2.810367e-04 -1.062912e-02 1.418567e-02
      vertex   2.249485e-04 -1.062532e-02 1.418567e-02
      vertex   -1.547843e-02 -2.357034e-02 1.418567e-02
    endloop
  endfacet
  facet normal 0.000000e+00 0.000000e+00 1.000000e+00
    outer loop
      vertex   -1.547843e-02 -2.357034e-02 1.418567e-02
      vertex   2.249485e-04 -1.062532e-02 1.418567e-02
      vertex   -1.990575e-04 -1.055997e-02 1.418567e-02
    endloop
  endfacet
  facet normal 0.000000e+00 0.000000e+00 1.000000e+00
    outer loop
      vertex   -1.547843e-02 -2.357034e-02 1.418567e-02
      vertex   -1.990575e-04 -1.055997e-02 1.418567e-02
      vertex   -6.206222e-04 -1.047885e-02 1.418567e-02
    endloop
  endfacet
  facet normal 0.000000e+00 0.000000e+00 1.000000e+00
    outer loop
      vertex   -6.206222e-04 -1.047885e-02 1.418567e-02
      vertex   -1.039060e-03 -1.038240e-02 1.418567e-02
      vertex   -1.547843e-02 -2.357034e-02 1.418567e-02
    endloop
  endfacet
  facet normal 0.000000e+00 0.000000e+00 1.000000e+00
    outer loop
      vertex   -1.547843e-02 -2.357034e-02 1.418567e-02
      vertex   -1.039060e-03 -1.038240e-02 1.418567e-02
      vertex   -1.453851e-03 -1.027184e-02 1.418567e-02
    endloop
  endfacet
  facet normal 0.000000e+00 0.000000e+00 1.000000e+00
    outer loop
      vertex   -1.547843e-02 -2.357034e-02 1.418567e-02
      vertex   -1.453851e-03 -1.027184e-02 1.418567e-02
      vertex   -1.525015e-03 -1.024599e-02 1.418567e-02
    endloop
  endfacet
  facet normal 0.000000e+00 0.000000e+00 1.000000e+00
    outer loop
      vertex   -1.525015e-03 -1.024599e-02 1.418567e-02
      vertex   -1.591402e-03 -1.020905e-02 1.418567e-02
      vertex   -1.547843e-02 -2.357034e-02 1.418567e-02
    endloop
  endfacet
  facet normal 0.000000e+00 0.000000e+00 1.000000e+00
    outer loop
      vertex   -1.547843e-02 -2.357034e-02 1.418567e-02
      vertex   -1.591402e-03 -1.020905e-02 1.418567e-02
      vertex   -1.651625e-03 -1.016232e-02 1.418567e-02
    endloop
  endfacet
  facet normal 0.000000e+00 0.000000e+00 1.000000e+00
    outer loop
      vertex   -1.547843e-02 -2.357034e-02 1.418567e-02
      vertex   -1.651625e-03 -1.016232e-02 1.418567e-02
      vertex   -3.578118e-03 -8.775486e-03 1.418567e-02
    endloop
  endfacet
  facet normal 0.000000e+00 0.000000e+00 1.000000e+00
    outer loop
      vertex   -3.578118e-03 -8.775486e-03 1.418567e-02
      vertex   -1.651625e-03 -1.016232e-02 1.418567e-02
      vertex   -1.704188e-03 -1.010678e-02 1.418567e-02
    endloop
  endfacet
  facet normal 0.000000e+00 0.000000e+00 1.000000e+00
    outer loop
      vertex   -3.578118e-03 -8.775486e-03 1.418567e-02
      vertex   -1.704188e-03 -1.010678e-02 1.418567e-02
      vertex   -3.198881e-03 -8.959829e-03 1.418567e-02
    endloop
  endfacet
  facet normal 0.000000e+00 0.000000e+00 1.000000e+00
    outer loop
      vertex   -3.198881e-03 -8.959829e-03 1.418567e-02
      vertex   -1.704188e-03 -1.010678e-02 1.418567e-02
      vertex   -2.814051e-03 -9.133800e-03 1.418567e-02
    endloop
  endfacet
  facet normal 0.000000e+00 0.000000e+00 1.000000e+00
    outer loop
      vertex   -2.814051e-03 -9.133800e-03 1.418567e-02
      vertex   -1.704188e-03 -1.010678e-02 1.418567e-02
      vertex   -1.961700e-03 -9.785615e-03 1.418567e-02
    endloop
  endfacet
  facet normal 0.000000e+00 0.000000e+00 1.000000e+00
    outer loop
      vertex   -2.814051e-03 -9.133800e-03 1.418567e-02
      vertex   -1.961700e-03 -9.785615e-03 1.418567e-02
      vertex   -2.423712e-03 -9.297538e-03 1.418567e-02
    endloop
  endfacet
  facet normal 0.000000e+00 0.000000e+00 1.000000e+00
    outer loop
      vertex   -2.423712e-03 -9.297538e-03 1.418567e-02
      vertex   -1.961700e-03 -9.785615e-03 1.418567e-02
      vertex   -2.213878e-03 -9.460322e-03 1.418567e-02
    endloop
  endfacet
  facet normal 0.000000e+00 0.000000e+00 1.000000e+00
    outer loop
      vertex   -2.423712e-03 -9.297538e-03 1.418567e-02
      vertex   -2.213878e-03 -9.460322e-03 1.418567e-02
      vertex   -2.363857e-03 -9.327284e-03 1.418567e-02
    endloop
  endfacet
  facet normal 0.000000e+00 0.000000e+00 1.000000e+00
    outer loop
      vertex   -2.363857e-03 -9.327284e-03 1.418567e-02
      vertex   -2.213878e-03 -9.460322e-03 1.418567e-02
      vertex   -2.308282e-03 -9.364765e-03 1.418567e-02
    endloop
  endfacet
  facet normal 0.000000e+00 0.000000e+00 1.000000e+00
    outer loop
      vertex   -2.308282e-03 -9.364765e-03 1.418567e-02
      vertex   -2.213878e-03 -9.460322e-03 1.418567e-02
      vertex   -2.257981e-03 -9.409363e-03 1.418567e-02
    endloop
  endfacet
  facet normal 0.000000e+00 0.000000e+00 1.000000e+00
    outer loop
      vertex   -3.578118e-03 -8.775486e-03 1.418567e-02
      vertex   -3.951690e-03 -8.580673e-03 1.418567e-02
      vertex   -1.547843e-02 -2.357034e-02 1.418567e-02
    endloop
  endfacet
  facet normal 0.000000e+00 0.000000e+00 1.000000e+00
    outer loop
      vertex   -1.547843e-02 -2.357034e-02 1.418567e-02
      vertex   -3.951690e-03 -8.580673e-03 1.418567e-02
      vertex   -4.319528e-03 -8.375292e-03 1.418567e-02
    endloop
  endfacet
  facet normal 0.000000e+00 0.000000e+00 1.000000e+00
    outer loop
      vertex   -1.547843e-02 -2.357034e-02 1.418567e-02
      vertex   -4.319528e-03 -8.375292e-03 1.418567e-02
      vertex   -4.681562e-03 -8.159247e-03 1.418567e-02
    endloop
  endfacet
  facet normal 0.000000e+00 0.000000e+00 1.000000e+00
    outer loop
      vertex   -4.681562e-03 -8.159247e-03 1.418567e-02
      vertex   -5.037724e-03 -7.932439e-03 1.418567e-02
      vertex   -1.547843e-02 -2.357034e-02 1.418567e-02
    endloop
  endfacet
  facet normal 0.000000e+00 0.000000e+00 1.000000e+00
    outer loop
      vertex   -1.547843e-02 -2.357034e-02 1.418567e-02
      vertex   -5.037724e-03 -7.932439e-03 1.418567e-02
      vertex   -5.387943e-03 -7.694772e-03 1.418567e-02
    endloop
  endfacet
  facet normal 0.000000e+00 0.000000e+00 1.000000e+00
    outer loop
      vertex   -1.547843e-02 -2.357034e-02 1.418567e-02
      vertex   -5.387943e-03 -7.694772e-03 1.418567e-02
      vertex   -5.731059e-03 -7.446961e-03 1.418567e-02
    endloop
  endfacet
  facet normal 0.000000e+00 0.000000e+00 1.000000e+00
    outer loop
      vertex   -5.731059e-03 -7.446961e-03 1.418567e-02
      vertex   -6.066002e-03 -7.189851e-03 1.418567e-02
      vertex   -1.547843e-02 -2.357034e-02 1.418567e-02
    endloop
  endfacet
  facet normal 0.000000e+00 0.000000e+00 1.000000e+00
    outer loop
      vertex   -1.547843e-02 -2.357034e-02 1.418567e-02
      vertex   -6.066002e-03 -7.189851e-03 1.418567e-02
      vertex   -6.392841e-03 -6.923542e-03 1.418567e-02
    endloop
  endfacet
  facet normal 0.000000e+00 0.000000e+00 1.000000e+00
    outer loop
      vertex   -1.547843e-02 -2.357034e-02 1.418567e-02
      vertex   -6.392841e-03 -6.923542e-03 1.418567e-02
      vertex   -6.711644e-03 -6.648132e-03 1.418567e-02
    endloop
  endfacet
  facet normal 0.000000e+00 0.000000e+00 1.000000e+00
    outer loop
      vertex   -6.711644e-03 -6.648132e-03 1.418567e-02
      vertex   -7.022477e-03 -6.363719e-03 1.418567e-02
      vertex   -1.547843e-02 -2.357034e-02 1.418567e-02
    endloop
  endfacet
  facet normal 0.000000e+00 0.000000e+00 1.000000e+00
    outer loop
      vertex   -1.547843e-02 -2.357034e-02 1.418567e-02
      vertex   -7.022477e-03 -6.363719e-03 1.418567e-02
      vertex   -8.979347e-03 -5.030585e-03 1.418567e-02
    endloop
  endfacet
  facet normal 0.000000e+00 0.000000e+00 1.000000e+00
    outer loop
      vertex   -1.547843e-02 -2.357034e-02 1.418567e-02
      vertex   -8.979347e-03 -5.030585e-03 1.418567e-02
      vertex   -9.050825e-03 -4.985816e-03 1.418567e-02
    endloop
  endfacet
  facet normal 0.000000e+00 0.000000e+00 1.000000e+00
    outer loop
      vertex   -8.979347e-03 -5.030585e-03 1.418567e-02
      vertex   -7.022477e-03 -6.363719e-03 1.418567e-02
      vertex   -8.914171e-03 -5.058215e-03 1.418567e-02
    endloop
  endfacet
  facet normal 0.000000e+00 0.000000e+00 1.000000e+00
    outer loop
      vertex   -8.914171e-03 -5.058215e-03 1.418567e-02
      vertex   -7.022477e-03 -6.363719e-03 1.418567e-02
      vertex   -7.325409e-03 -6.070402e-03 1.418567e-02
    endloop
  endfacet
  facet normal 0.000000e+00 0.000000e+00 1.000000e+00
    outer loop
      vertex   -8.914171e-03 -5.058215e-03 1.418567e-02
      vertex   -7.325409e-03 -6.070402e-03 1.418567e-02
      vertex   -7.620507e-03 -5.768281e-03 1.418567e-02
    endloop
  endfacet
  facet normal 0.000000e+00 0.000000e+00 1.000000e+00
    outer loop
      vertex   -7.907875e-03 -5.457485e-03 1.418567e-02
      vertex   -8.137293e-03 -5.314544e-03 1.418567e-02
      vertex   -7.620507e-03 -5.768281e-03 1.418567e-02
    endloop
  endfacet
  facet normal 0.000000e+00 0.000000e+00 1.000000e+00
    outer loop
      vertex   -7.620507e-03 -5.768281e-03 1.418567e-02
      vertex   -8.137293e-03 -5.314544e-03 1.418567e-02
      vertex   -8.526698e-03 -5.189556e-03 1.418567e-02
    endloop
  endfacet
  facet normal 0.000000e+00 0.000000e+00 1.000000e+00
    outer loop
      vertex   -7.620507e-03 -5.768281e-03 1.418567e-02
      vertex   -8.526698e-03 -5.189556e-03 1.418567e-02
      vertex   -8.914171e-03 -5.058215e-03 1.418567e-02
    endloop
  endfacet
  facet normal 0.000000e+00 0.000000e+00 1.000000e+00
    outer loop
      vertex   -7.957234e-03 -5.410638e-03 1.418567e-02
      vertex   -8.012593e-03 -5.370716e-03 1.418567e-02
      vertex   -7.907875e-03 -5.457485e-03 1.418567e-02
    endloop
  endfacet
  facet normal 0.000000e+00 0.000000e+00 1.000000e+00
    outer loop
      vertex   -7.907875e-03 -5.457485e-03 1.418567e-02
      vertex   -8.012593e-03 -5.370716e-03 1.418567e-02
      vertex   -8.072976e-03 -5.338480e-03 1.418567e-02
    endloop
  endfacet
  facet normal 0.000000e+00 0.000000e+00 1.000000e+00
    outer loop
      vertex   -7.907875e-03 -5.457485e-03 1.418567e-02
      vertex   -8.072976e-03 -5.338480e-03 1.418567e-02
      vertex   -8.137293e-03 -5.314544e-03 1.418567e-02
    endloop
  endfacet
  facet normal 0.000000e+00 0.000000e+00 1.000000e+00
    outer loop
      vertex   -9.050825e-03 -4.985816e-03 1.418567e-02
      vertex   -9.085674e-03 -4.957223e-03 1.418567e-02
      vertex   -1.547843e-02 -2.357034e-02 1.418567e-02
    endloop
  endfacet
  facet normal 0.000000e+00 0.000000e+00 1.000000e+00
    outer loop
      vertex   -1.547843e-02 -2.357034e-02 1.418567e-02
      vertex   -9.085674e-03 -4.957223e-03 1.418567e-02
      vertex   -9.114440e-03 -4.929212e-03 1.418567e-02
    endloop
  endfacet
  facet normal 0.000000e+00 0.000000e+00 1.000000e+00
    outer loop
      vertex   -1.547843e-02 -2.357034e-02 1.418567e-02
      vertex   -9.114440e-03 -4.929212e-03 1.418567e-02
      vertex   -9.155316e-03 -4.879085e-03 1.418567e-02
    endloop
  endfacet
  facet normal 0.000000e+00 0.000000e+00 1.000000e+00
    outer loop
      vertex   -9.155316e-03 -4.879085e-03 1.418567e-02
      vertex   -9.401023e-03 -4.527186e-03 1.418567e-02
      vertex   -1.547843e-02 -2.357034e-02 1.418567e-02
    endloop
  endfacet
  facet normal 0.000000e+00 0.000000e+00 1.000000e+00
    outer loop
      vertex   -1.547843e-02 -2.357034e-02 1.418567e-02
      vertex   -9.401023e-03 -4.527186e-03 1.418567e-02
      vertex   -9.634715e-03 -4.167034e-03 1.418567e-02
    endloop
  endfacet
  facet normal 0.000000e+00 0.000000e+00 1.000000e+00
    outer loop
      vertex   -1.547843e-02 -2.357034e-02 1.418567e-02
      vertex   -9.634715e-03 -4.167034e-03 1.418567e-02
      vertex   -9.855088e-03 -3.798709e-03 1.418567e-02
    endloop
  endfacet
  facet normal 0.000000e+00 0.000000e+00 1.000000e+00
    outer loop
      vertex   -9.855088e-03 -3.798709e-03 1.418567e-02
      vertex   -1.006147e-02 -3.422695e-03 1.418567e-02
      vertex   -1.547843e-02 -2.357034e-02 1.418567e-02
    endloop
  endfacet
  facet normal 0.000000e+00 0.000000e+00 1.000000e+00
    outer loop
      vertex   -1.547843e-02 -2.357034e-02 1.418567e-02
      vertex   -1.006147e-02 -3.422695e-03 1.418567e-02
      vertex   -1.008423e-02 -3.371291e-03 1.418567e-02
    endloop
  endfacet
  facet normal 0.000000e+00 0.000000e+00 1.000000e+00
    outer loop
      vertex   -1.547843e-02 -2.357034e-02 1.418567e-02
      vertex   -1.008423e-02 -3.371291e-03 1.418567e-02
      vertex   -1.009919e-02 -3.317084e-03 1.418567e-02
    endloop
  endfacet
  facet normal 0.000000e+00 0.000000e+00 1.000000e+00
    outer loop
      vertex   -1.009919e-02 -3.317084e-03 1.418567e-02
      vertex   -1.010626e-02 -3.261298e-03 1.418567e-02
      vertex   -1.547843e-02 -2.357034e-02 1.418567e-02
    endloop
  endfacet
  facet normal 0.000000e+00 0.000000e+00 1.000000e+00
    outer loop
      vertex   -1.547843e-02 -2.357034e-02 1.418567e-02
      vertex   -1.010626e-02 -3.261298e-03 1.418567e-02
      vertex   -1.547843e-02 1.602966e-02 1.418567e-02
    endloop
  endfacet
  facet normal 0.000000e+00 0.000000e+00 1.000000e+00
    outer loop
      vertex   -1.547843e-02 1.602966e-02 1.418567e-02
      vertex   -1.010626e-02 -3.261298e-03 1.418567e-02
      vertex   -1.010501e-02 -3.205099e-03 1.418567e-02
    endloop
  endfacet
  facet normal 0.000000e+00 0.000000e+00 1.000000e+00
    outer loop
      vertex   -3.269554e-02 -4.714058e-02 1.418567e-02
      vertex   -2.747843e-02 -1.857034e-02 1.418567e-02
      vertex   -3.269554e-02 3.085942e-02 1.418567e-02
    endloop
  endfacet
  facet normal 0.000000e+00 0.000000e+00 1.000000e+00
    outer loop
      vertex   -3.269554e-02 3.085942e-02 1.418567e-02
      vertex   -2.747843e-02 -1.857034e-02 1.418567e-02
      vertex   -2.747843e-02 1.602966e-02 1.418567e-02
    endloop
  endfacet
  facet normal 0.000000e+00 0.000000e+00 1.000000e+00
    outer loop
      vertex   -3.269554e-02 3.085942e-02 1.418567e-02
      vertex   -2.747843e-02 1.602966e-02 1.418567e-02
      vertex   -2.707843e-02 1.642966e-02 1.418567e-02
    endloop
  endfacet
  facet normal 0.000000e+00 -0.000000e+00 1.000000e+00
    outer loop
      vertex   -2.707843e-02 1.642966e-02 1.418567e-02
      vertex   -1.587843e-02 1.642966e-02 1.418567e-02
      vertex   -3.269554e-02 3.085942e-02 1.418567e-02
    endloop
  endfacet
  facet normal 0.000000e+00 0.000000e+00 1.000000e+00
    outer loop
      vertex   -3.269554e-02 3.085942e-02 1.418567e-02
      vertex   -1.587843e-02 1.642966e-02 1.418567e-02
      vertex   1.592157e-02 1.642966e-02 1.418567e-02
    endloop
  endfacet
  facet normal -0.000000e+00 0.000000e+00 1.000000e+00
    outer loop
      vertex   -3.269554e-02 3.085942e-02 1.418567e-02
      vertex   1.592157e-02 1.642966e-02 1.418567e-02
      vertex   3.430446e-02 3.085942e-02 1.418567e-02
    endloop
  endfacet
  facet normal 0.000000e+00 0.000000e+00 1.000000e+00
    outer loop
      vertex   3.430446e-02 3.085942e-02 1.418567e-02
      vertex   1.592157e-02 1.642966e-02 1.418567e-02
      vertex   2.712157e-02 1.642966e-02 1.418567e-02
    endloop
  endfacet
  facet normal 0.000000e+00 0.000000e+00 1.000000e+00
    outer loop
      vertex   3.430446e-02 3.085942e-02 1.418567e-02
      vertex   2.712157e-02 1.642966e-02 1.418567e-02
      vertex   2.752157e-02 1.602966e-02 1.418567e-02
    endloop
  endfacet
  facet normal 0.000000e+00 0.000000e+00 1.000000e+00
    outer loop
      vertex   -3.269554e-02 -4.714058e-02 1.418567e-02
      vertex   3.430446e-02 -4.714058e-02 1.418567e-02
      vertex   1.552157e-02 -2.357034e-02 1.418567e-02
    endloop
  endfacet
  facet normal -0.000000e+00 0.000000e+00 1.000000e+00
    outer loop
      vertex   1.552157e-02 -2.357034e-02 1.418567e-02
      vertex   3.430446e-02 -4.714058e-02 1.418567e-02
      vertex   2.252157e-02 -2.357034e-02 1.418567e-02
    endloop
  endfacet
  facet normal -0.000000e+00 0.000000e+00 1.000000e+00
    outer loop
      vertex   2.252157e-02 -2.357034e-02 1.418567e-02
      vertex   3.430446e-02 -4.714058e-02 1.418567e-02
      vertex   2.752157e-02 -1.857034e-02 1.418567e-02
    endloop
  endfacet
  facet normal -0.000000e+00 0.000000e+00 1.000000e+00
    outer loop
      vertex   2.752157e-02 -1.857034e-02 1.418567e-02
      vertex   3.430446e-02 -4.714058e-02 1.418567e-02
      vertex   3.430446e-02 3.085942e-02 1.418567e-02
    endloop
  endfacet
  facet normal 0.000000e+00 0.000000e+00 1.000000e+00
    outer loop
      vertex   2.752157e-02 -1.857034e-02 1.418567e-02
      vertex   3.430446e-02 3.085942e-02 1.418567e-02
      vertex   2.752157e-02 1.602966e-02 1.418567e-02
    endloop
  endfacet
  facet normal 0.000000e+00 1.000000e+00 -0.000000e+00
    outer loop
      vertex   3.430446e-02 3.085942e-02 -2.481433e-02
      vertex   -3.269554e-02 3.085942e-02 -2.481433e-02
      vertex   3.430446e-02 3.085942e-02 1.418567e-02
    endloop
  endfacet
  facet normal 0.000000e+00 1.000000e+00 0.000000e+00
    outer loop
      vertex   3.430446e-02 3.085942e-02 1.418567e-02
      vertex   -3.269554e-02 3.085942e-02 -2.481433e-02
      vertex   -3.269554e-02 3.085942e-02 1.418567e-02
    endloop
  endfacet
  facet normal -1.000000e+00 0.000000e+00 0.000000e+00
    outer loop
      vertex   -3.269554e-02 3.085942e-02 -2.481433e-02
      vertex   -3.269554e-02 -4.714058e-02 -2.481433e-02
      vertex   -3.269554e-02 3.085942e-02 1.418567e-02
    endloop
  endfacet
  facet normal -1.000000e+00 -0.000000e+00 0.000000e+00
    outer loop
      vertex   -3.269554e-02 3.085942e-02 1.418567e-02
      vertex   -3.269554e-02 -4.714058e-02 -2.481433e-02
      vertex   -3.269554e-02 -4.714058e-02 1.418567e-02
    endloop
  endfacet
endsolid
