solid ASCII
  facet normal -1.000000e+00 0.000000e+00 0.000000e+00
    outer loop
      vertex   -3.269554e-02 3.085942e-02 -2.481433e-02
      vertex   -3.269554e-02 -4.714058e-02 -2.481433e-02
      vertex   -3.269554e-02 3.085942e-02 1.418567e-02
    endloop
  endfacet
  facet normal -1.000000e+00 -0.000000e+00 0.000000e+00
    outer loop
      vertex   -3.269554e-02 3.085942e-02 1.418567e-02
      vertex   -3.269554e-02 -4.714058e-02 -2.481433e-02
      vertex   -3.269554e-02 -4.714058e-02 1.418567e-02
    endloop
  endfacet
  facet normal -0.000000e+00 0.000000e+00 1.000000e+00
    outer loop
      vertex   -2.247843e-02 -2.357034e-02 1.418567e-02
      vertex   -3.269554e-02 -4.714058e-02 1.418567e-02
      vertex   -1.547843e-02 -2.357034e-02 1.418567e-02
    endloop
  endfacet
  facet normal -0.000000e+00 0.000000e+00 1.000000e+00
    outer loop
      vertex   -1.547843e-02 -2.357034e-02 1.418567e-02
      vertex   -3.269554e-02 -4.714058e-02 1.418567e-02
      vertex   1.552157e-02 -2.357034e-02 1.418567e-02
    endloop
  endfacet
  facet normal 0.000000e+00 0.000000e+00 1.000000e+00
    outer loop
      vertex   -1.547843e-02 -2.357034e-02 1.418567e-02
      vertex   1.552157e-02 -2.357034e-02 1.418567e-02
      vertex   2.810369e-04 -1.062912e-02 1.418567e-02
    endloop
  endfacet
  facet normal -0.000000e+00 0.000000e+00 1.000000e+00
    outer loop
      vertex   2.810369e-04 -1.062912e-02 1.418567e-02
      vertex   1.552157e-02 -2.357034e-02 1.418567e-02
      vertex   3.370898e-04 -1.062464e-02 1.418567e-02
    endloop
  endfacet
  facet normal -0.000000e+00 0.000000e+00 1.000000e+00
    outer loop
      vertex   3.370898e-04 -1.062464e-02 1.418567e-02
      vertex   1.552157e-02 -2.357034e-02 1.418567e-02
      vertex   3.919296e-04 -1.061221e-02 1.418567e-02
    endloop
  endfacet
  facet normal -0.000000e+00 0.000000e+00 1.000000e+00
    outer loop
      vertex   3.919296e-04 -1.061221e-02 1.418567e-02
      vertex   1.552157e-02 -2.357034e-02 1.418567e-02
      vertex   4.443221e-04 -1.059181e-02 1.418567e-02
    endloop
  endfacet
  facet normal -0.000000e+00 0.000000e+00 1.000000e+00
    outer loop
      vertex   4.443221e-04 -1.059181e-02 1.418567e-02
      vertex   1.552157e-02 -2.357034e-02 1.418567e-02
      vertex   2.393858e-03 -9.682838e-03 1.418567e-02
    endloop
  endfacet
  facet normal -0.000000e+00 0.000000e+00 1.000000e+00
    outer loop
      vertex   2.393858e-03 -9.682838e-03 1.418567e-02
      vertex   1.552157e-02 -2.357034e-02 1.418567e-02
      vertex   2.450597e-03 -9.650962e-03 1.418567e-02
    endloop
  endfacet
  facet normal -0.000000e+00 0.000000e+00 1.000000e+00
    outer loop
      vertex   2.450597e-03 -9.650962e-03 1.418567e-02
      vertex   1.552157e-02 -2.357034e-02 1.418567e-02
      vertex   5.817990e-03 -8.080740e-03 1.418567e-02
    endloop
  endfacet
  facet normal 0.000000e+00 0.000000e+00 1.000000e+00
    outer loop
      vertex   2.450597e-03 -9.650962e-03 1.418567e-02
      vertex   5.817990e-03 -8.080740e-03 1.418567e-02
      vertex   5.754237e-03 -8.093009e-03 1.418567e-02
    endloop
  endfacet
  facet normal 0.000000e+00 0.000000e+00 1.000000e+00
    outer loop
      vertex   -2.247843e-02 -2.357034e-02 1.418567e-02
      vertex   -2.747843e-02 -1.857034e-02 1.418567e-02
      vertex   -3.269554e-02 -4.714058e-02 1.418567e-02
    endloop
  endfacet
  facet normal 0.000000e+00 0.000000e+00 1.000000e+00
    outer loop
      vertex   -3.269554e-02 -4.714058e-02 1.418567e-02
      vertex   -2.747843e-02 -1.857034e-02 1.418567e-02
      vertex   -3.269554e-02 3.085942e-02 1.418567e-02
    endloop
  endfacet
  facet normal 0.000000e+00 0.000000e+00 1.000000e+00
    outer loop
      vertex   -3.269554e-02 3.085942e-02 1.418567e-02
      vertex   -2.747843e-02 -1.857034e-02 1.418567e-02
      vertex   -2.747843e-02 1.602966e-02 1.418567e-02
    endloop
  endfacet
  facet normal 0.000000e+00 0.000000e+00 1.000000e+00
    outer loop
      vertex   -3.269554e-02 3.085942e-02 1.418567e-02
      vertex   -2.747843e-02 1.602966e-02 1.418567e-02
      vertex   -2.707843e-02 1.642966e-02 1.418567e-02
    endloop
  endfacet
  facet normal 0.000000e+00 -0.000000e+00 1.000000e+00
    outer loop
      vertex   -2.707843e-02 1.642966e-02 1.418567e-02
      vertex   -1.587843e-02 1.642966e-02 1.418567e-02
      vertex   -3.269554e-02 3.085942e-02 1.418567e-02
    endloop
  endfacet
  facet normal 0.000000e+00 0.000000e+00 1.000000e+00
    outer loop
      vertex   -3.269554e-02 3.085942e-02 1.418567e-02
      vertex   -1.587843e-02 1.642966e-02 1.418567e-02
      vertex   1.592157e-02 1.642966e-02 1.418567e-02
    endloop
  endfacet
  facet normal -0.000000e+00 0.000000e+00 1.000000e+00
    outer loop
      vertex   -3.269554e-02 3.085942e-02 1.418567e-02
      vertex   1.592157e-02 1.642966e-02 1.418567e-02
      vertex   3.430446e-02 3.085942e-02 1.418567e-02
    endloop
  endfacet
  facet normal 0.000000e+00 0.000000e+00 1.000000e+00
    outer loop
      vertex   3.430446e-02 3.085942e-02 1.418567e-02
      vertex   1.592157e-02 1.642966e-02 1.418567e-02
      vertex   2.712157e-02 1.642966e-02 1.418567e-02
    endloop
  endfacet
  facet normal 0.000000e+00 0.000000e+00 1.000000e+00
    outer loop
      vertex   3.430446e-02 3.085942e-02 1.418567e-02
      vertex   2.712157e-02 1.642966e-02 1.418567e-02
      vertex   2.752157e-02 1.602966e-02 1.418567e-02
    endloop
  endfacet
  facet normal -0.000000e+00 -0.000000e+00 1.000000e+00
    outer loop
      vertex   -1.547843e-02 1.602966e-02 1.418567e-02
      vertex   3.522462e-04 1.036828e-02 1.418567e-02
      vertex   -1.587843e-02 1.642966e-02 1.418567e-02
    endloop
  endfacet
  facet normal 0.000000e+00 0.000000e+00 1.000000e+00
    outer loop
      vertex   -1.587843e-02 1.642966e-02 1.418567e-02
      vertex   3.522462e-04 1.036828e-02 1.418567e-02
      vertex   1.208601e-03 1.042742e-02 1.418567e-02
    endloop
  endfacet
  facet normal -0.000000e+00 0.000000e+00 1.000000e+00
    outer loop
      vertex   -1.587843e-02 1.642966e-02 1.418567e-02
      vertex   1.208601e-03 1.042742e-02 1.418567e-02
      vertex   1.592157e-02 1.642966e-02 1.418567e-02
    endloop
  endfacet
  facet normal 0.000000e+00 0.000000e+00 1.000000e+00
    outer loop
      vertex   1.592157e-02 1.642966e-02 1.418567e-02
      vertex   1.208601e-03 1.042742e-02 1.418567e-02
      vertex   2.066596e-03 1.042483e-02 1.418567e-02
    endloop
  endfacet
  facet normal 0.000000e+00 0.000000e+00 1.000000e+00
    outer loop
      vertex   1.592157e-02 1.642966e-02 1.418567e-02
      vertex   2.066596e-03 1.042483e-02 1.418567e-02
      vertex   1.552157e-02 1.602966e-02 1.418567e-02
    endloop
  endfacet
  facet normal 0.000000e+00 0.000000e+00 1.000000e+00
    outer loop
      vertex   1.552157e-02 1.602966e-02 1.418567e-02
      vertex   2.066596e-03 1.042483e-02 1.418567e-02
      vertex   2.122495e-03 1.041884e-02 1.418567e-02
    endloop
  endfacet
  facet normal 0.000000e+00 0.000000e+00 1.000000e+00
    outer loop
      vertex   1.552157e-02 1.602966e-02 1.418567e-02
      vertex   2.122495e-03 1.041884e-02 1.418567e-02
      vertex   2.176918e-03 1.040469e-02 1.418567e-02
    endloop
  endfacet
  facet normal 0.000000e+00 0.000000e+00 1.000000e+00
    outer loop
      vertex   -1.547843e-02 -2.357034e-02 1.418567e-02
      vertex   -1.010626e-02 -3.261296e-03 1.418567e-02
      vertex   -1.547843e-02 1.602966e-02 1.418567e-02
    endloop
  endfacet
  facet normal 0.000000e+00 0.000000e+00 1.000000e+00
    outer loop
      vertex   -1.547843e-02 1.602966e-02 1.418567e-02
      vertex   -1.010626e-02 -3.261296e-03 1.418567e-02
      vertex   -1.010501e-02 -3.205086e-03 1.418567e-02
    endloop
  endfacet
  facet normal 0.000000e+00 0.000000e+00 1.000000e+00
    outer loop
      vertex   -1.547843e-02 1.602966e-02 1.418567e-02
      vertex   -1.010501e-02 -3.205086e-03 1.418567e-02
      vertex   -9.917643e-03 -1.062280e-03 1.418567e-02
    endloop
  endfacet
  facet normal 0.000000e+00 -0.000000e+00 1.000000e+00
    outer loop
      vertex   -9.917643e-03 -1.062280e-03 1.418567e-02
      vertex   -9.907121e-03 -9.981567e-04 1.418567e-02
      vertex   -1.547843e-02 1.602966e-02 1.418567e-02
    endloop
  endfacet
  facet normal 0.000000e+00 0.000000e+00 1.000000e+00
    outer loop
      vertex   -1.547843e-02 1.602966e-02 1.418567e-02
      vertex   -9.907121e-03 -9.981567e-04 1.418567e-02
      vertex   -9.583277e-03 2.703202e-03 1.418567e-02
    endloop
  endfacet
  facet normal 0.000000e+00 0.000000e+00 1.000000e+00
    outer loop
      vertex   -1.547843e-02 1.602966e-02 1.418567e-02
      vertex   -9.583277e-03 2.703202e-03 1.418567e-02
      vertex   -9.582512e-03 2.768277e-03 1.418567e-02
    endloop
  endfacet
  facet normal 0.000000e+00 0.000000e+00 1.000000e+00
    outer loop
      vertex   -9.907121e-03 -9.981567e-04 1.418567e-02
      vertex   -9.885870e-03 -9.368110e-04 1.418567e-02
      vertex   -9.583277e-03 2.703202e-03 1.418567e-02
    endloop
  endfacet
  facet normal 0.000000e+00 0.000000e+00 1.000000e+00
    outer loop
      vertex   -9.583277e-03 2.703202e-03 1.418567e-02
      vertex   -9.885870e-03 -9.368110e-04 1.418567e-02
      vertex   -9.572932e-03 2.638887e-03 1.418567e-02
    endloop
  endfacet
  facet normal 0.000000e+00 0.000000e+00 1.000000e+00
    outer loop
      vertex   -9.572932e-03 2.638887e-03 1.418567e-02
      vertex   -9.885870e-03 -9.368110e-04 1.418567e-02
      vertex   -9.854773e-03 -8.796188e-04 1.418567e-02
    endloop
  endfacet
  facet normal 0.000000e+00 0.000000e+00 1.000000e+00
    outer loop
      vertex   -9.572932e-03 2.638887e-03 1.418567e-02
      vertex   -9.854773e-03 -8.796188e-04 1.418567e-02
      vertex   -9.552191e-03 2.577187e-03 1.418567e-02
    endloop
  endfacet
  facet normal 0.000000e+00 0.000000e+00 1.000000e+00
    outer loop
      vertex   -9.552191e-03 2.577187e-03 1.418567e-02
      vertex   -9.854773e-03 -8.796188e-04 1.418567e-02
      vertex   -9.814872e-03 -8.284043e-04 1.418567e-02
    endloop
  endfacet
  facet normal 0.000000e+00 0.000000e+00 1.000000e+00
    outer loop
      vertex   -9.552191e-03 2.577187e-03 1.418567e-02
      vertex   -9.814872e-03 -8.284043e-04 1.418567e-02
      vertex   -9.521672e-03 2.519732e-03 1.418567e-02
    endloop
  endfacet
  facet normal 0.000000e+00 0.000000e+00 1.000000e+00
    outer loop
      vertex   -9.521672e-03 2.519732e-03 1.418567e-02
      vertex   -9.814872e-03 -8.284043e-04 1.418567e-02
      vertex   -9.100475e-03 7.961884e-04 1.418567e-02
    endloop
  endfacet
  facet normal 0.000000e+00 0.000000e+00 1.000000e+00
    outer loop
      vertex   -9.521672e-03 2.519732e-03 1.418567e-02
      vertex   -9.100475e-03 7.961884e-04 1.418567e-02
      vertex   -9.482320e-03 2.468093e-03 1.418567e-02
    endloop
  endfacet
  facet normal 0.000000e+00 0.000000e+00 1.000000e+00
    outer loop
      vertex   -9.482320e-03 2.468093e-03 1.418567e-02
      vertex   -9.100475e-03 7.961884e-04 1.418567e-02
      vertex   -9.037689e-03 1.513840e-03 1.418567e-02
    endloop
  endfacet
  facet normal 0.000000e+00 0.000000e+00 1.000000e+00
    outer loop
      vertex   -9.482320e-03 2.468093e-03 1.418567e-02
      vertex   -9.037689e-03 1.513840e-03 1.418567e-02
      vertex   -9.435017e-03 2.423338e-03 1.418567e-02
    endloop
  endfacet
  facet normal 0.000000e+00 0.000000e+00 1.000000e+00
    outer loop
      vertex   -9.435017e-03 2.423338e-03 1.418567e-02
      vertex   -9.037689e-03 1.513840e-03 1.418567e-02
      vertex   -9.381281e-03 2.386825e-03 1.418567e-02
    endloop
  endfacet
  facet normal 0.000000e+00 0.000000e+00 1.000000e+00
    outer loop
      vertex   -9.381281e-03 2.386825e-03 1.418567e-02
      vertex   -9.037689e-03 1.513840e-03 1.418567e-02
      vertex   -9.322277e-03 2.359378e-03 1.418567e-02
    endloop
  endfacet
  facet normal 0.000000e+00 0.000000e+00 1.000000e+00
    outer loop
      vertex   -9.322277e-03 2.359378e-03 1.418567e-02
      vertex   -9.037689e-03 1.513840e-03 1.418567e-02
      vertex   -8.974903e-03 2.231491e-03 1.418567e-02
    endloop
  endfacet
  facet normal 0.000000e+00 0.000000e+00 1.000000e+00
    outer loop
      vertex   -9.814872e-03 -8.284043e-04 1.418567e-02
      vertex   -9.767066e-03 -7.842240e-04 1.418567e-02
      vertex   -9.100475e-03 7.961884e-04 1.418567e-02
    endloop
  endfacet
  facet normal 0.000000e+00 0.000000e+00 1.000000e+00
    outer loop
      vertex   -9.100475e-03 7.961884e-04 1.418567e-02
      vertex   -9.767066e-03 -7.842240e-04 1.418567e-02
      vertex   -9.163262e-03 7.853721e-05 1.418567e-02
    endloop
  endfacet
  facet normal 0.000000e+00 0.000000e+00 1.000000e+00
    outer loop
      vertex   -9.163262e-03 7.853721e-05 1.418567e-02
      vertex   -9.767066e-03 -7.842240e-04 1.418567e-02
      vertex   -9.712738e-03 -7.483277e-04 1.418567e-02
    endloop
  endfacet
  facet normal 0.000000e+00 0.000000e+00 1.000000e+00
    outer loop
      vertex   -9.163262e-03 7.853721e-05 1.418567e-02
      vertex   -9.712738e-03 -7.483277e-04 1.418567e-02
      vertex   -9.653296e-03 -7.215884e-04 1.418567e-02
    endloop
  endfacet
  facet normal 0.000000e+00 0.000000e+00 1.000000e+00
    outer loop
      vertex   -9.653296e-03 -7.215884e-04 1.418567e-02
      vertex   -9.590338e-03 -7.047724e-04 1.418567e-02
      vertex   -9.163262e-03 7.853721e-05 1.418567e-02
    endloop
  endfacet
  facet normal 0.000000e+00 0.000000e+00 1.000000e+00
    outer loop
      vertex   -9.163262e-03 7.853721e-05 1.418567e-02
      vertex   -9.590338e-03 -7.047724e-04 1.418567e-02
      vertex   -9.226048e-03 -6.391140e-04 1.418567e-02
    endloop
  endfacet
  facet normal 0.000000e+00 -0.000000e+00 1.000000e+00
    outer loop
      vertex   -9.582512e-03 2.768277e-03 1.418567e-02
      vertex   -9.394938e-03 4.911111e-03 1.418567e-02
      vertex   -1.547843e-02 1.602966e-02 1.418567e-02
    endloop
  endfacet
  facet normal 0.000000e+00 0.000000e+00 1.000000e+00
    outer loop
      vertex   -1.547843e-02 1.602966e-02 1.418567e-02
      vertex   -9.394938e-03 4.911111e-03 1.418567e-02
      vertex   -9.386407e-03 4.966683e-03 1.418567e-02
    endloop
  endfacet
  facet normal 0.000000e+00 0.000000e+00 1.000000e+00
    outer loop
      vertex   -1.547843e-02 1.602966e-02 1.418567e-02
      vertex   -9.386407e-03 4.966683e-03 1.418567e-02
      vertex   -9.369754e-03 5.020392e-03 1.418567e-02
    endloop
  endfacet
  facet normal 0.000000e+00 -0.000000e+00 1.000000e+00
    outer loop
      vertex   -9.369754e-03 5.020392e-03 1.418567e-02
      vertex   -9.345611e-03 5.071177e-03 1.418567e-02
      vertex   -1.547843e-02 1.602966e-02 1.418567e-02
    endloop
  endfacet
  facet normal 0.000000e+00 0.000000e+00 1.000000e+00
    outer loop
      vertex   -1.547843e-02 1.602966e-02 1.418567e-02
      vertex   -9.345611e-03 5.071177e-03 1.418567e-02
      vertex   -9.314266e-03 5.117849e-03 1.418567e-02
    endloop
  endfacet
  facet normal 0.000000e+00 0.000000e+00 1.000000e+00
    outer loop
      vertex   -1.547843e-02 1.602966e-02 1.418567e-02
      vertex   -9.314266e-03 5.117849e-03 1.418567e-02
      vertex   -8.764635e-03 5.776899e-03 1.418567e-02
    endloop
  endfacet
  facet normal 0.000000e+00 -0.000000e+00 1.000000e+00
    outer loop
      vertex   -8.764635e-03 5.776899e-03 1.418567e-02
      vertex   -8.168746e-03 6.394991e-03 1.418567e-02
      vertex   -1.547843e-02 1.602966e-02 1.418567e-02
    endloop
  endfacet
  facet normal 0.000000e+00 0.000000e+00 1.000000e+00
    outer loop
      vertex   -1.547843e-02 1.602966e-02 1.418567e-02
      vertex   -8.168746e-03 6.394991e-03 1.418567e-02
      vertex   -8.110502e-03 6.443889e-03 1.418567e-02
    endloop
  endfacet
  facet normal 0.000000e+00 0.000000e+00 1.000000e+00
    outer loop
      vertex   -1.547843e-02 1.602966e-02 1.418567e-02
      vertex   -8.110502e-03 6.443889e-03 1.418567e-02
      vertex   -8.045179e-03 6.482927e-03 1.418567e-02
    endloop
  endfacet
  facet normal 0.000000e+00 -0.000000e+00 1.000000e+00
    outer loop
      vertex   -8.045179e-03 6.482927e-03 1.418567e-02
      vertex   -7.974681e-03 6.511620e-03 1.418567e-02
      vertex   -1.547843e-02 1.602966e-02 1.418567e-02
    endloop
  endfacet
  facet normal 0.000000e+00 0.000000e+00 1.000000e+00
    outer loop
      vertex   -1.547843e-02 1.602966e-02 1.418567e-02
      vertex   -7.974681e-03 6.511620e-03 1.418567e-02
      vertex   -7.900637e-03 6.529260e-03 1.418567e-02
    endloop
  endfacet
  facet normal 0.000000e+00 0.000000e+00 1.000000e+00
    outer loop
      vertex   -1.547843e-02 1.602966e-02 1.418567e-02
      vertex   -7.900637e-03 6.529260e-03 1.418567e-02
      vertex   -6.160002e-03 7.250225e-03 1.418567e-02
    endloop
  endfacet
  facet normal 0.000000e+00 0.000000e+00 1.000000e+00
    outer loop
      vertex   -6.160002e-03 7.250225e-03 1.418567e-02
      vertex   -7.900637e-03 6.529260e-03 1.418567e-02
      vertex   -7.085940e-03 6.647436e-03 1.418567e-02
    endloop
  endfacet
  facet normal 0.000000e+00 0.000000e+00 1.000000e+00
    outer loop
      vertex   -6.160002e-03 7.250225e-03 1.418567e-02
      vertex   -7.085940e-03 6.647436e-03 1.418567e-02
      vertex   -6.840054e-03 6.747761e-03 1.418567e-02
    endloop
  endfacet
  facet normal 0.000000e+00 0.000000e+00 1.000000e+00
    outer loop
      vertex   -6.840054e-03 6.747761e-03 1.418567e-02
      vertex   -7.085940e-03 6.647436e-03 1.418567e-02
      vertex   -7.020026e-03 6.660080e-03 1.418567e-02
    endloop
  endfacet
  facet normal 0.000000e+00 0.000000e+00 1.000000e+00
    outer loop
      vertex   -6.840054e-03 6.747761e-03 1.418567e-02
      vertex   -7.020026e-03 6.660080e-03 1.418567e-02
      vertex   -6.956314e-03 6.681278e-03 1.418567e-02
    endloop
  endfacet
  facet normal 0.000000e+00 0.000000e+00 1.000000e+00
    outer loop
      vertex   -6.956314e-03 6.681278e-03 1.418567e-02
      vertex   -6.895978e-03 6.710665e-03 1.418567e-02
      vertex   -6.840054e-03 6.747761e-03 1.418567e-02
    endloop
  endfacet
  facet normal 0.000000e+00 -0.000000e+00 1.000000e+00
    outer loop
      vertex   -6.160002e-03 7.250225e-03 1.418567e-02
      vertex   -5.455238e-03 7.712599e-03 1.418567e-02
      vertex   -1.547843e-02 1.602966e-02 1.418567e-02
    endloop
  endfacet
  facet normal 0.000000e+00 0.000000e+00 1.000000e+00
    outer loop
      vertex   -1.547843e-02 1.602966e-02 1.418567e-02
      vertex   -5.455238e-03 7.712599e-03 1.418567e-02
      vertex   -4.725335e-03 8.133975e-03 1.418567e-02
    endloop
  endfacet
  facet normal 0.000000e+00 0.000000e+00 1.000000e+00
    outer loop
      vertex   -1.547843e-02 1.602966e-02 1.418567e-02
      vertex   -4.725335e-03 8.133975e-03 1.418567e-02
      vertex   -3.969896e-03 8.513482e-03 1.418567e-02
    endloop
  endfacet
  facet normal 0.000000e+00 -0.000000e+00 1.000000e+00
    outer loop
      vertex   -3.969896e-03 8.513482e-03 1.418567e-02
      vertex   -3.193591e-03 8.848238e-03 1.418567e-02
      vertex   -1.547843e-02 1.602966e-02 1.418567e-02
    endloop
  endfacet
  facet normal 0.000000e+00 0.000000e+00 1.000000e+00
    outer loop
      vertex   -1.547843e-02 1.602966e-02 1.418567e-02
      vertex   -3.193591e-03 8.848238e-03 1.418567e-02
      vertex   -2.401626e-03 9.136521e-03 1.418567e-02
    endloop
  endfacet
  facet normal 0.000000e+00 0.000000e+00 1.000000e+00
    outer loop
      vertex   -1.547843e-02 1.602966e-02 1.418567e-02
      vertex   -2.401626e-03 9.136521e-03 1.418567e-02
      vertex   1.692347e-04 1.031274e-02 1.418567e-02
    endloop
  endfacet
  facet normal 0.000000e+00 0.000000e+00 1.000000e+00
    outer loop
      vertex   1.692347e-04 1.031274e-02 1.418567e-02
      vertex   -2.401626e-03 9.136521e-03 1.418567e-02
      vertex   7.654314e-05 1.024901e-02 1.418567e-02
    endloop
  endfacet
  facet normal 0.000000e+00 0.000000e+00 1.000000e+00
    outer loop
      vertex   7.654314e-05 1.024901e-02 1.418567e-02
      vertex   -2.401626e-03 9.136521e-03 1.418567e-02
      vertex   -1.594414e-03 9.379193e-03 1.418567e-02
    endloop
  endfacet
  facet normal 0.000000e+00 0.000000e+00 1.000000e+00
    outer loop
      vertex   7.654314e-05 1.024901e-02 1.418567e-02
      vertex   -1.594414e-03 9.379193e-03 1.418567e-02
      vertex   -7.723679e-04 9.577166e-03 1.418567e-02
    endloop
  endfacet
  facet normal 0.000000e+00 0.000000e+00 1.000000e+00
    outer loop
      vertex   7.654314e-05 1.024901e-02 1.418567e-02
      vertex   -7.723679e-04 9.577166e-03 1.418567e-02
      vertex   -5.338868e-04 9.704372e-03 1.418567e-02
    endloop
  endfacet
  facet normal 0.000000e+00 0.000000e+00 1.000000e+00
    outer loop
      vertex   -5.338868e-04 9.704372e-03 1.418567e-02
      vertex   -7.723679e-04 9.577166e-03 1.418567e-02
      vertex   -7.068583e-04 9.596588e-03 1.418567e-02
    endloop
  endfacet
  facet normal 0.000000e+00 0.000000e+00 1.000000e+00
    outer loop
      vertex   -5.338868e-04 9.704372e-03 1.418567e-02
      vertex   -7.068583e-04 9.596588e-03 1.418567e-02
      vertex   -6.445446e-04 9.624647e-03 1.418567e-02
    endloop
  endfacet
  facet normal 0.000000e+00 0.000000e+00 1.000000e+00
    outer loop
      vertex   -6.445446e-04 9.624647e-03 1.418567e-02
      vertex   -5.865508e-04 9.660801e-03 1.418567e-02
      vertex   -5.338868e-04 9.704372e-03 1.418567e-02
    endloop
  endfacet
  facet normal 0.000000e+00 -0.000000e+00 1.000000e+00
    outer loop
      vertex   1.692347e-04 1.031274e-02 1.418567e-02
      vertex   2.426643e-04 1.034469e-02 1.418567e-02
      vertex   -1.547843e-02 1.602966e-02 1.418567e-02
    endloop
  endfacet
  facet normal 0.000000e+00 0.000000e+00 1.000000e+00
    outer loop
      vertex   -1.547843e-02 1.602966e-02 1.418567e-02
      vertex   2.426643e-04 1.034469e-02 1.418567e-02
      vertex   3.522462e-04 1.036828e-02 1.418567e-02
    endloop
  endfacet
  facet normal -0.000000e+00 0.000000e+00 1.000000e+00
    outer loop
      vertex   2.176918e-03 1.040469e-02 1.418567e-02
      vertex   2.228766e-03 1.038293e-02 1.418567e-02
      vertex   1.552157e-02 1.602966e-02 1.418567e-02
    endloop
  endfacet
  facet normal 0.000000e+00 0.000000e+00 1.000000e+00
    outer loop
      vertex   1.552157e-02 1.602966e-02 1.418567e-02
      vertex   2.228766e-03 1.038293e-02 1.418567e-02
      vertex   2.276820e-03 1.035374e-02 1.418567e-02
    endloop
  endfacet
  facet normal 0.000000e+00 0.000000e+00 1.000000e+00
    outer loop
      vertex   1.552157e-02 1.602966e-02 1.418567e-02
      vertex   2.276820e-03 1.035374e-02 1.418567e-02
      vertex   4.038860e-03 9.120071e-03 1.418567e-02
    endloop
  endfacet
  facet normal -0.000000e+00 0.000000e+00 1.000000e+00
    outer loop
      vertex   4.038860e-03 9.120071e-03 1.418567e-02
      vertex   4.089131e-03 9.078897e-03 1.418567e-02
      vertex   1.552157e-02 1.602966e-02 1.418567e-02
    endloop
  endfacet
  facet normal 0.000000e+00 0.000000e+00 1.000000e+00
    outer loop
      vertex   1.552157e-02 1.602966e-02 1.418567e-02
      vertex   4.089131e-03 9.078897e-03 1.418567e-02
      vertex   4.131633e-03 9.029820e-03 1.418567e-02
    endloop
  endfacet
  facet normal 0.000000e+00 0.000000e+00 1.000000e+00
    outer loop
      vertex   1.552157e-02 1.602966e-02 1.418567e-02
      vertex   4.131633e-03 9.029820e-03 1.418567e-02
      vertex   7.071809e-03 6.970959e-03 1.418567e-02
    endloop
  endfacet
  facet normal 0.000000e+00 0.000000e+00 1.000000e+00
    outer loop
      vertex   7.071809e-03 6.970959e-03 1.418567e-02
      vertex   4.131633e-03 9.029820e-03 1.418567e-02
      vertex   7.008005e-03 6.983846e-03 1.418567e-02
    endloop
  endfacet
  facet normal 0.000000e+00 0.000000e+00 1.000000e+00
    outer loop
      vertex   7.008005e-03 6.983846e-03 1.418567e-02
      vertex   4.131633e-03 9.029820e-03 1.418567e-02
      vertex   4.165614e-03 8.974293e-03 1.418567e-02
    endloop
  endfacet
  facet normal 0.000000e+00 0.000000e+00 1.000000e+00
    outer loop
      vertex   7.008005e-03 6.983846e-03 1.418567e-02
      vertex   4.165614e-03 8.974293e-03 1.418567e-02
      vertex   6.942988e-03 6.986144e-03 1.418567e-02
    endloop
  endfacet
  facet normal 0.000000e+00 0.000000e+00 1.000000e+00
    outer loop
      vertex   6.942988e-03 6.986144e-03 1.418567e-02
      vertex   4.165614e-03 8.974293e-03 1.418567e-02
      vertex   4.190017e-03 8.914131e-03 1.418567e-02
    endloop
  endfacet
  facet normal 0.000000e+00 0.000000e+00 1.000000e+00
    outer loop
      vertex   6.942988e-03 6.986144e-03 1.418567e-02
      vertex   4.190017e-03 8.914131e-03 1.418567e-02
      vertex   5.239757e-03 7.483149e-03 1.418567e-02
    endloop
  endfacet
  facet normal 0.000000e+00 0.000000e+00 1.000000e+00
    outer loop
      vertex   5.239757e-03 7.483149e-03 1.418567e-02
      vertex   4.190017e-03 8.914131e-03 1.418567e-02
      vertex   4.204375e-03 8.850639e-03 1.418567e-02
    endloop
  endfacet
  facet normal 0.000000e+00 0.000000e+00 1.000000e+00
    outer loop
      vertex   5.239757e-03 7.483149e-03 1.418567e-02
      vertex   4.204375e-03 8.850639e-03 1.418567e-02
      vertex   4.649646e-03 7.896349e-03 1.418567e-02
    endloop
  endfacet
  facet normal 0.000000e+00 0.000000e+00 1.000000e+00
    outer loop
      vertex   4.649646e-03 7.896349e-03 1.418567e-02
      vertex   4.204375e-03 8.850639e-03 1.418567e-02
      vertex   4.208298e-03 8.785641e-03 1.418567e-02
    endloop
  endfacet
  facet normal 0.000000e+00 0.000000e+00 1.000000e+00
    outer loop
      vertex   4.649646e-03 7.896349e-03 1.418567e-02
      vertex   4.208298e-03 8.785641e-03 1.418567e-02
      vertex   4.201734e-03 8.720794e-03 1.418567e-02
    endloop
  endfacet
  facet normal 0.000000e+00 0.000000e+00 1.000000e+00
    outer loop
      vertex   4.201734e-03 8.720794e-03 1.418567e-02
      vertex   4.184818e-03 8.657861e-03 1.418567e-02
      vertex   4.649646e-03 7.896349e-03 1.418567e-02
    endloop
  endfacet
  facet normal 0.000000e+00 0.000000e+00 1.000000e+00
    outer loop
      vertex   4.649646e-03 7.896349e-03 1.418567e-02
      vertex   4.184818e-03 8.657861e-03 1.418567e-02
      vertex   4.153422e-03 8.570793e-03 1.418567e-02
    endloop
  endfacet
  facet normal 0.000000e+00 0.000000e+00 1.000000e+00
    outer loop
      vertex   4.649646e-03 7.896349e-03 1.418567e-02
      vertex   4.153422e-03 8.570793e-03 1.418567e-02
      vertex   4.122126e-03 8.483712e-03 1.418567e-02
    endloop
  endfacet
  facet normal 0.000000e+00 0.000000e+00 1.000000e+00
    outer loop
      vertex   4.122126e-03 8.483712e-03 1.418567e-02
      vertex   4.090830e-03 8.396630e-03 1.418567e-02
      vertex   4.649646e-03 7.896349e-03 1.418567e-02
    endloop
  endfacet
  facet normal 0.000000e+00 0.000000e+00 1.000000e+00
    outer loop
      vertex   4.649646e-03 7.896349e-03 1.418567e-02
      vertex   4.090830e-03 8.396630e-03 1.418567e-02
      vertex   4.059535e-03 8.309549e-03 1.418567e-02
    endloop
  endfacet
  facet normal 0.000000e+00 0.000000e+00 1.000000e+00
    outer loop
      vertex   6.942988e-03 6.986144e-03 1.418567e-02
      vertex   5.239757e-03 7.483149e-03 1.418567e-02
      vertex   6.878591e-03 6.977884e-03 1.418567e-02
    endloop
  endfacet
  facet normal 0.000000e+00 0.000000e+00 1.000000e+00
    outer loop
      vertex   6.878591e-03 6.977884e-03 1.418567e-02
      vertex   5.239757e-03 7.483149e-03 1.418567e-02
      vertex   5.829868e-03 7.069948e-03 1.418567e-02
    endloop
  endfacet
  facet normal 0.000000e+00 0.000000e+00 1.000000e+00
    outer loop
      vertex   6.878591e-03 6.977884e-03 1.418567e-02
      vertex   5.829868e-03 7.069948e-03 1.418567e-02
      vertex   6.816180e-03 6.959295e-03 1.418567e-02
    endloop
  endfacet
  facet normal 0.000000e+00 0.000000e+00 1.000000e+00
    outer loop
      vertex   6.816180e-03 6.959295e-03 1.418567e-02
      vertex   5.829868e-03 7.069948e-03 1.418567e-02
      vertex   6.757692e-03 6.931015e-03 1.418567e-02
    endloop
  endfacet
  facet normal 0.000000e+00 0.000000e+00 1.000000e+00
    outer loop
      vertex   6.757692e-03 6.931015e-03 1.418567e-02
      vertex   5.829868e-03 7.069948e-03 1.418567e-02
      vertex   6.704420e-03 6.893640e-03 1.418567e-02
    endloop
  endfacet
  facet normal 0.000000e+00 0.000000e+00 1.000000e+00
    outer loop
      vertex   6.704420e-03 6.893640e-03 1.418567e-02
      vertex   5.829868e-03 7.069948e-03 1.418567e-02
      vertex   6.419979e-03 6.656748e-03 1.418567e-02
    endloop
  endfacet
  facet normal -0.000000e+00 0.000000e+00 1.000000e+00
    outer loop
      vertex   7.071809e-03 6.970959e-03 1.418567e-02
      vertex   7.132680e-03 6.947761e-03 1.418567e-02
      vertex   1.552157e-02 1.602966e-02 1.418567e-02
    endloop
  endfacet
  facet normal 0.000000e+00 0.000000e+00 1.000000e+00
    outer loop
      vertex   1.552157e-02 1.602966e-02 1.418567e-02
      vertex   7.132680e-03 6.947761e-03 1.418567e-02
      vertex   7.188655e-03 6.914561e-03 1.418567e-02
    endloop
  endfacet
  facet normal 0.000000e+00 0.000000e+00 1.000000e+00
    outer loop
      vertex   1.552157e-02 1.602966e-02 1.418567e-02
      vertex   7.188655e-03 6.914561e-03 1.418567e-02
      vertex   8.950616e-03 5.680699e-03 1.418567e-02
    endloop
  endfacet
  facet normal -0.000000e+00 0.000000e+00 1.000000e+00
    outer loop
      vertex   8.950616e-03 5.680699e-03 1.418567e-02
      vertex   8.994477e-03 5.645525e-03 1.418567e-02
      vertex   1.552157e-02 1.602966e-02 1.418567e-02
    endloop
  endfacet
  facet normal 0.000000e+00 0.000000e+00 1.000000e+00
    outer loop
      vertex   1.552157e-02 1.602966e-02 1.418567e-02
      vertex   8.994477e-03 5.645525e-03 1.418567e-02
      vertex   9.032664e-03 5.604249e-03 1.418567e-02
    endloop
  endfacet
  facet normal 0.000000e+00 0.000000e+00 1.000000e+00
    outer loop
      vertex   1.552157e-02 1.602966e-02 1.418567e-02
      vertex   9.032664e-03 5.604249e-03 1.418567e-02
      vertex   9.064574e-03 5.557947e-03 1.418567e-02
    endloop
  endfacet
  facet normal -0.000000e+00 0.000000e+00 1.000000e+00
    outer loop
      vertex   9.064574e-03 5.557947e-03 1.418567e-02
      vertex   9.089320e-03 5.507467e-03 1.418567e-02
      vertex   1.552157e-02 1.602966e-02 1.418567e-02
    endloop
  endfacet
  facet normal 0.000000e+00 0.000000e+00 1.000000e+00
    outer loop
      vertex   1.552157e-02 1.602966e-02 1.418567e-02
      vertex   9.089320e-03 5.507467e-03 1.418567e-02
      vertex   9.385279e-03 4.701887e-03 1.418567e-02
    endloop
  endfacet
  facet normal 0.000000e+00 0.000000e+00 1.000000e+00
    outer loop
      vertex   1.552157e-02 1.602966e-02 1.418567e-02
      vertex   9.385279e-03 4.701887e-03 1.418567e-02
      vertex   9.622629e-03 3.876724e-03 1.418567e-02
    endloop
  endfacet
  facet normal -0.000000e+00 0.000000e+00 1.000000e+00
    outer loop
      vertex   9.622629e-03 3.876724e-03 1.418567e-02
      vertex   9.637914e-03 3.757092e-03 1.418567e-02
      vertex   1.552157e-02 1.602966e-02 1.418567e-02
    endloop
  endfacet
  facet normal 0.000000e+00 0.000000e+00 1.000000e+00
    outer loop
      vertex   1.552157e-02 1.602966e-02 1.418567e-02
      vertex   9.637914e-03 3.757092e-03 1.418567e-02
      vertex   9.629691e-03 3.666153e-03 1.418567e-02
    endloop
  endfacet
  facet normal 0.000000e+00 0.000000e+00 1.000000e+00
    outer loop
      vertex   1.552157e-02 1.602966e-02 1.418567e-02
      vertex   9.629691e-03 3.666153e-03 1.418567e-02
      vertex   9.406925e-03 8.680755e-04 1.418567e-02
    endloop
  endfacet
  facet normal 0.000000e+00 -0.000000e+00 1.000000e+00
    outer loop
      vertex   9.406925e-03 8.680755e-04 1.418567e-02
      vertex   9.629691e-03 3.666153e-03 1.418567e-02
      vertex   9.358881e-03 1.709606e-03 1.418567e-02
    endloop
  endfacet
  facet normal 0.000000e+00 0.000000e+00 1.000000e+00
    outer loop
      vertex   9.358881e-03 1.709606e-03 1.418567e-02
      vertex   9.629691e-03 3.666153e-03 1.418567e-02
      vertex   9.604823e-03 3.577522e-03 1.418567e-02
    endloop
  endfacet
  facet normal 0.000000e+00 -0.000000e+00 1.000000e+00
    outer loop
      vertex   9.358881e-03 1.709606e-03 1.418567e-02
      vertex   9.604823e-03 3.577522e-03 1.418567e-02
      vertex   9.299818e-03 2.812886e-03 1.418567e-02
    endloop
  endfacet
  facet normal 0.000000e+00 0.000000e+00 1.000000e+00
    outer loop
      vertex   9.358881e-03 1.709606e-03 1.418567e-02
      vertex   9.299818e-03 2.812886e-03 1.418567e-02
      vertex   9.263759e-03 2.549780e-03 1.418567e-02
    endloop
  endfacet
  facet normal 0.000000e+00 0.000000e+00 1.000000e+00
    outer loop
      vertex   9.263759e-03 2.549780e-03 1.418567e-02
      vertex   9.299818e-03 2.812886e-03 1.418567e-02
      vertex   9.277812e-03 2.749481e-03 1.418567e-02
    endloop
  endfacet
  facet normal 0.000000e+00 0.000000e+00 1.000000e+00
    outer loop
      vertex   9.263759e-03 2.549780e-03 1.418567e-02
      vertex   9.277812e-03 2.749481e-03 1.418567e-02
      vertex   9.264314e-03 2.683706e-03 1.418567e-02
    endloop
  endfacet
  facet normal 0.000000e+00 0.000000e+00 1.000000e+00
    outer loop
      vertex   9.264314e-03 2.683706e-03 1.418567e-02
      vertex   9.259595e-03 2.616760e-03 1.418567e-02
      vertex   9.263759e-03 2.549780e-03 1.418567e-02
    endloop
  endfacet
  facet normal -0.000000e+00 0.000000e+00 1.000000e+00
    outer loop
      vertex   9.406925e-03 8.680755e-04 1.418567e-02
      vertex   9.406896e-03 2.527282e-05 1.418567e-02
      vertex   1.552157e-02 1.602966e-02 1.418567e-02
    endloop
  endfacet
  facet normal 0.000000e+00 0.000000e+00 1.000000e+00
    outer loop
      vertex   1.552157e-02 1.602966e-02 1.418567e-02
      vertex   9.406896e-03 2.527282e-05 1.418567e-02
      vertex   9.357840e-03 -8.187096e-04 1.418567e-02
    endloop
  endfacet
  facet normal 0.000000e+00 0.000000e+00 1.000000e+00
    outer loop
      vertex   1.552157e-02 1.602966e-02 1.418567e-02
      vertex   9.357840e-03 -8.187096e-04 1.418567e-02
      vertex   1.552157e-02 -2.357034e-02 1.418567e-02
    endloop
  endfacet
  facet normal 0.000000e+00 0.000000e+00 1.000000e+00
    outer loop
      vertex   1.552157e-02 -2.357034e-02 1.418567e-02
      vertex   9.357840e-03 -8.187096e-04 1.418567e-02
      vertex   9.259595e-03 -1.658388e-03 1.418567e-02
    endloop
  endfacet
  facet normal 0.000000e+00 0.000000e+00 1.000000e+00
    outer loop
      vertex   1.552157e-02 -2.357034e-02 1.418567e-02
      vertex   9.259595e-03 -1.658388e-03 1.418567e-02
      vertex   8.846481e-03 -5.302930e-03 1.418567e-02
    endloop
  endfacet
  facet normal 0.000000e+00 0.000000e+00 1.000000e+00
    outer loop
      vertex   8.846481e-03 -5.302930e-03 1.418567e-02
      vertex   9.259595e-03 -1.658388e-03 1.418567e-02
      vertex   9.113272e-03 -2.488391e-03 1.418567e-02
    endloop
  endfacet
  facet normal 0.000000e+00 -0.000000e+00 1.000000e+00
    outer loop
      vertex   8.846481e-03 -5.302930e-03 1.418567e-02
      vertex   9.113272e-03 -2.488391e-03 1.418567e-02
      vertex   8.837628e-03 -5.190791e-03 1.418567e-02
    endloop
  endfacet
  facet normal 0.000000e+00 0.000000e+00 1.000000e+00
    outer loop
      vertex   8.837628e-03 -5.190791e-03 1.418567e-02
      vertex   9.113272e-03 -2.488391e-03 1.418567e-02
      vertex   8.919826e-03 -3.308794e-03 1.418567e-02
    endloop
  endfacet
  facet normal 0.000000e+00 -0.000000e+00 1.000000e+00
    outer loop
      vertex   8.837628e-03 -5.190791e-03 1.418567e-02
      vertex   8.919826e-03 -3.308794e-03 1.418567e-02
      vertex   8.671176e-03 -4.389826e-03 1.418567e-02
    endloop
  endfacet
  facet normal 0.000000e+00 0.000000e+00 1.000000e+00
    outer loop
      vertex   8.671176e-03 -4.389826e-03 1.418567e-02
      vertex   8.919826e-03 -3.308794e-03 1.418567e-02
      vertex   8.680254e-03 -4.119693e-03 1.418567e-02
    endloop
  endfacet
  facet normal 0.000000e+00 -0.000000e+00 1.000000e+00
    outer loop
      vertex   8.671176e-03 -4.389826e-03 1.418567e-02
      vertex   8.680254e-03 -4.119693e-03 1.418567e-02
      vertex   8.659775e-03 -4.322433e-03 1.418567e-02
    endloop
  endfacet
  facet normal 0.000000e+00 0.000000e+00 1.000000e+00
    outer loop
      vertex   8.659775e-03 -4.322433e-03 1.418567e-02
      vertex   8.680254e-03 -4.119693e-03 1.418567e-02
      vertex   8.664318e-03 -4.186137e-03 1.418567e-02
    endloop
  endfacet
  facet normal 0.000000e+00 -0.000000e+00 1.000000e+00
    outer loop
      vertex   8.659775e-03 -4.322433e-03 1.418567e-02
      vertex   8.664318e-03 -4.186137e-03 1.418567e-02
      vertex   8.657461e-03 -4.254131e-03 1.418567e-02
    endloop
  endfacet
  facet normal 0.000000e+00 0.000000e+00 1.000000e+00
    outer loop
      vertex   8.846481e-03 -5.302930e-03 1.418567e-02
      vertex   8.837436e-03 -5.382499e-03 1.418567e-02
      vertex   1.552157e-02 -2.357034e-02 1.418567e-02
    endloop
  endfacet
  facet normal 0.000000e+00 0.000000e+00 1.000000e+00
    outer loop
      vertex   1.552157e-02 -2.357034e-02 1.418567e-02
      vertex   8.837436e-03 -5.382499e-03 1.418567e-02
      vertex   8.803070e-03 -5.489194e-03 1.418567e-02
    endloop
  endfacet
  facet normal 0.000000e+00 0.000000e+00 1.000000e+00
    outer loop
      vertex   1.552157e-02 -2.357034e-02 1.418567e-02
      vertex   8.803070e-03 -5.489194e-03 1.418567e-02
      vertex   8.426114e-03 -6.260391e-03 1.418567e-02
    endloop
  endfacet
  facet normal 0.000000e+00 0.000000e+00 1.000000e+00
    outer loop
      vertex   8.426114e-03 -6.260391e-03 1.418567e-02
      vertex   7.994871e-03 -7.002140e-03 1.418567e-02
      vertex   1.552157e-02 -2.357034e-02 1.418567e-02
    endloop
  endfacet
  facet normal 0.000000e+00 0.000000e+00 1.000000e+00
    outer loop
      vertex   1.552157e-02 -2.357034e-02 1.418567e-02
      vertex   7.994871e-03 -7.002140e-03 1.418567e-02
      vertex   7.961735e-03 -7.047557e-03 1.418567e-02
    endloop
  endfacet
  facet normal 0.000000e+00 0.000000e+00 1.000000e+00
    outer loop
      vertex   1.552157e-02 -2.357034e-02 1.418567e-02
      vertex   7.961735e-03 -7.047557e-03 1.418567e-02
      vertex   7.922270e-03 -7.087613e-03 1.418567e-02
    endloop
  endfacet
  facet normal 0.000000e+00 0.000000e+00 1.000000e+00
    outer loop
      vertex   7.922270e-03 -7.087613e-03 1.418567e-02
      vertex   7.877496e-03 -7.121632e-03 1.418567e-02
      vertex   1.552157e-02 -2.357034e-02 1.418567e-02
    endloop
  endfacet
  facet normal 0.000000e+00 0.000000e+00 1.000000e+00
    outer loop
      vertex   1.552157e-02 -2.357034e-02 1.418567e-02
      vertex   7.877496e-03 -7.121632e-03 1.418567e-02
      vertex   7.828193e-03 -7.148654e-03 1.418567e-02
    endloop
  endfacet
  facet normal 0.000000e+00 0.000000e+00 1.000000e+00
    outer loop
      vertex   1.552157e-02 -2.357034e-02 1.418567e-02
      vertex   7.828193e-03 -7.148654e-03 1.418567e-02
      vertex   5.878783e-03 -8.057790e-03 1.418567e-02
    endloop
  endfacet
  facet normal 0.000000e+00 0.000000e+00 1.000000e+00
    outer loop
      vertex   5.878783e-03 -8.057790e-03 1.418567e-02
      vertex   5.817990e-03 -8.080740e-03 1.418567e-02
      vertex   1.552157e-02 -2.357034e-02 1.418567e-02
    endloop
  endfacet
  facet normal 0.000000e+00 0.000000e+00 1.000000e+00
    outer loop
      vertex   2.450597e-03 -9.650962e-03 1.418567e-02
      vertex   5.754237e-03 -8.093009e-03 1.418567e-02
      vertex   2.501123e-03 -9.609845e-03 1.418567e-02
    endloop
  endfacet
  facet normal 0.000000e+00 0.000000e+00 1.000000e+00
    outer loop
      vertex   2.501123e-03 -9.609845e-03 1.418567e-02
      vertex   5.754237e-03 -8.093009e-03 1.418567e-02
      vertex   5.689159e-03 -8.094674e-03 1.418567e-02
    endloop
  endfacet
  facet normal 0.000000e+00 0.000000e+00 1.000000e+00
    outer loop
      vertex   2.501123e-03 -9.609845e-03 1.418567e-02
      vertex   5.689159e-03 -8.094674e-03 1.418567e-02
      vertex   2.544186e-03 -9.561034e-03 1.418567e-02
    endloop
  endfacet
  facet normal 0.000000e+00 0.000000e+00 1.000000e+00
    outer loop
      vertex   2.544186e-03 -9.561034e-03 1.418567e-02
      vertex   5.689159e-03 -8.094674e-03 1.418567e-02
      vertex   5.624855e-03 -8.085726e-03 1.418567e-02
    endloop
  endfacet
  facet normal 0.000000e+00 0.000000e+00 1.000000e+00
    outer loop
      vertex   2.544186e-03 -9.561034e-03 1.418567e-02
      vertex   5.624855e-03 -8.085726e-03 1.418567e-02
      vertex   2.578684e-03 -9.505876e-03 1.418567e-02
    endloop
  endfacet
  facet normal 0.000000e+00 0.000000e+00 1.000000e+00
    outer loop
      vertex   2.578684e-03 -9.505876e-03 1.418567e-02
      vertex   5.624855e-03 -8.085726e-03 1.418567e-02
      vertex   3.860718e-03 -8.279337e-03 1.418567e-02
    endloop
  endfacet
  facet normal 0.000000e+00 0.000000e+00 1.000000e+00
    outer loop
      vertex   2.578684e-03 -9.505876e-03 1.418567e-02
      vertex   3.860718e-03 -8.279337e-03 1.418567e-02
      vertex   2.603729e-03 -9.445977e-03 1.418567e-02
    endloop
  endfacet
  facet normal 0.000000e+00 0.000000e+00 1.000000e+00
    outer loop
      vertex   2.603729e-03 -9.445977e-03 1.418567e-02
      vertex   3.860718e-03 -8.279337e-03 1.418567e-02
      vertex   3.207821e-03 -8.583788e-03 1.418567e-02
    endloop
  endfacet
  facet normal 0.000000e+00 0.000000e+00 1.000000e+00
    outer loop
      vertex   2.603729e-03 -9.445977e-03 1.418567e-02
      vertex   3.207821e-03 -8.583788e-03 1.418567e-02
      vertex   2.618836e-03 -9.382633e-03 1.418567e-02
    endloop
  endfacet
  facet normal 0.000000e+00 0.000000e+00 1.000000e+00
    outer loop
      vertex   2.618836e-03 -9.382633e-03 1.418567e-02
      vertex   3.207821e-03 -8.583788e-03 1.418567e-02
      vertex   2.623589e-03 -9.317840e-03 1.418567e-02
    endloop
  endfacet
  facet normal 0.000000e+00 -0.000000e+00 1.000000e+00
    outer loop
      vertex   2.623589e-03 -9.317840e-03 1.418567e-02
      vertex   3.207821e-03 -8.583788e-03 1.418567e-02
      vertex   2.617858e-03 -9.253018e-03 1.418567e-02
    endloop
  endfacet
  facet normal 0.000000e+00 -0.000000e+00 1.000000e+00
    outer loop
      vertex   2.617858e-03 -9.253018e-03 1.418567e-02
      vertex   3.207821e-03 -8.583788e-03 1.418567e-02
      vertex   2.554924e-03 -8.888239e-03 1.418567e-02
    endloop
  endfacet
  facet normal 0.000000e+00 0.000000e+00 1.000000e+00
    outer loop
      vertex   5.624855e-03 -8.085726e-03 1.418567e-02
      vertex   5.562691e-03 -8.066416e-03 1.418567e-02
      vertex   3.860718e-03 -8.279337e-03 1.418567e-02
    endloop
  endfacet
  facet normal 0.000000e+00 0.000000e+00 1.000000e+00
    outer loop
      vertex   3.860718e-03 -8.279337e-03 1.418567e-02
      vertex   5.562691e-03 -8.066416e-03 1.418567e-02
      vertex   4.513616e-03 -7.974886e-03 1.418567e-02
    endloop
  endfacet
  facet normal 0.000000e+00 0.000000e+00 1.000000e+00
    outer loop
      vertex   4.513616e-03 -7.974886e-03 1.418567e-02
      vertex   5.562691e-03 -8.066416e-03 1.418567e-02
      vertex   5.504439e-03 -8.037314e-03 1.418567e-02
    endloop
  endfacet
  facet normal 0.000000e+00 0.000000e+00 1.000000e+00
    outer loop
      vertex   4.513616e-03 -7.974886e-03 1.418567e-02
      vertex   5.504439e-03 -8.037314e-03 1.418567e-02
      vertex   5.451562e-03 -7.999206e-03 1.418567e-02
    endloop
  endfacet
  facet normal 0.000000e+00 0.000000e+00 1.000000e+00
    outer loop
      vertex   5.451562e-03 -7.999206e-03 1.418567e-02
      vertex   5.405520e-03 -7.953091e-03 1.418567e-02
      vertex   4.513616e-03 -7.974886e-03 1.418567e-02
    endloop
  endfacet
  facet normal 0.000000e+00 0.000000e+00 1.000000e+00
    outer loop
      vertex   4.513616e-03 -7.974886e-03 1.418567e-02
      vertex   5.405520e-03 -7.953091e-03 1.418567e-02
      vertex   5.166513e-03 -7.670435e-03 1.418567e-02
    endloop
  endfacet
  facet normal 0.000000e+00 0.000000e+00 1.000000e+00
    outer loop
      vertex   2.810369e-04 -1.062912e-02 1.418567e-02
      vertex   2.249466e-04 -1.062532e-02 1.418567e-02
      vertex   -1.547843e-02 -2.357034e-02 1.418567e-02
    endloop
  endfacet
  facet normal 0.000000e+00 0.000000e+00 1.000000e+00
    outer loop
      vertex   -1.547843e-02 -2.357034e-02 1.418567e-02
      vertex   2.249466e-04 -1.062532e-02 1.418567e-02
      vertex   -6.206241e-04 -1.047885e-02 1.418567e-02
    endloop
  endfacet
  facet normal 0.000000e+00 0.000000e+00 1.000000e+00
    outer loop
      vertex   -1.547843e-02 -2.357034e-02 1.418567e-02
      vertex   -6.206241e-04 -1.047885e-02 1.418567e-02
      vertex   -1.453852e-03 -1.027184e-02 1.418567e-02
    endloop
  endfacet
  facet normal 0.000000e+00 0.000000e+00 1.000000e+00
    outer loop
      vertex   -1.453852e-03 -1.027184e-02 1.418567e-02
      vertex   -1.525321e-03 -1.024585e-02 1.418567e-02
      vertex   -1.547843e-02 -2.357034e-02 1.418567e-02
    endloop
  endfacet
  facet normal 0.000000e+00 0.000000e+00 1.000000e+00
    outer loop
      vertex   -1.547843e-02 -2.357034e-02 1.418567e-02
      vertex   -1.525321e-03 -1.024585e-02 1.418567e-02
      vertex   -1.591790e-03 -1.020879e-02 1.418567e-02
    endloop
  endfacet
  facet normal 0.000000e+00 0.000000e+00 1.000000e+00
    outer loop
      vertex   -1.547843e-02 -2.357034e-02 1.418567e-02
      vertex   -1.591790e-03 -1.020879e-02 1.418567e-02
      vertex   -1.651888e-03 -1.016209e-02 1.418567e-02
    endloop
  endfacet
  facet normal 0.000000e+00 0.000000e+00 1.000000e+00
    outer loop
      vertex   -1.704186e-03 -1.010678e-02 1.418567e-02
      vertex   -3.198878e-03 -8.959831e-03 1.418567e-02
      vertex   -1.651888e-03 -1.016209e-02 1.418567e-02
    endloop
  endfacet
  facet normal 0.000000e+00 0.000000e+00 1.000000e+00
    outer loop
      vertex   -1.651888e-03 -1.016209e-02 1.418567e-02
      vertex   -3.198878e-03 -8.959831e-03 1.418567e-02
      vertex   -3.951688e-03 -8.580675e-03 1.418567e-02
    endloop
  endfacet
  facet normal 0.000000e+00 0.000000e+00 1.000000e+00
    outer loop
      vertex   -1.651888e-03 -1.016209e-02 1.418567e-02
      vertex   -3.951688e-03 -8.580675e-03 1.418567e-02
      vertex   -1.547843e-02 -2.357034e-02 1.418567e-02
    endloop
  endfacet
  facet normal 0.000000e+00 0.000000e+00 1.000000e+00
    outer loop
      vertex   -1.547843e-02 -2.357034e-02 1.418567e-02
      vertex   -3.951688e-03 -8.580675e-03 1.418567e-02
      vertex   -4.681561e-03 -8.159248e-03 1.418567e-02
    endloop
  endfacet
  facet normal 0.000000e+00 0.000000e+00 1.000000e+00
    outer loop
      vertex   -1.547843e-02 -2.357034e-02 1.418567e-02
      vertex   -4.681561e-03 -8.159248e-03 1.418567e-02
      vertex   -5.387943e-03 -7.694772e-03 1.418567e-02
    endloop
  endfacet
  facet normal 0.000000e+00 0.000000e+00 1.000000e+00
    outer loop
      vertex   -3.198878e-03 -8.959831e-03 1.418567e-02
      vertex   -1.704186e-03 -1.010678e-02 1.418567e-02
      vertex   -2.423706e-03 -9.297541e-03 1.418567e-02
    endloop
  endfacet
  facet normal 0.000000e+00 0.000000e+00 1.000000e+00
    outer loop
      vertex   -2.423706e-03 -9.297541e-03 1.418567e-02
      vertex   -1.704186e-03 -1.010678e-02 1.418567e-02
      vertex   -2.213879e-03 -9.460322e-03 1.418567e-02
    endloop
  endfacet
  facet normal 0.000000e+00 0.000000e+00 1.000000e+00
    outer loop
      vertex   -2.423706e-03 -9.297541e-03 1.418567e-02
      vertex   -2.213879e-03 -9.460322e-03 1.418567e-02
      vertex   -2.363617e-03 -9.327424e-03 1.418567e-02
    endloop
  endfacet
  facet normal 0.000000e+00 0.000000e+00 1.000000e+00
    outer loop
      vertex   -2.363617e-03 -9.327424e-03 1.418567e-02
      vertex   -2.213879e-03 -9.460322e-03 1.418567e-02
      vertex   -2.307999e-03 -9.364984e-03 1.418567e-02
    endloop
  endfacet
  facet normal 0.000000e+00 0.000000e+00 1.000000e+00
    outer loop
      vertex   -2.307999e-03 -9.364984e-03 1.418567e-02
      vertex   -2.213879e-03 -9.460322e-03 1.418567e-02
      vertex   -2.257785e-03 -9.409561e-03 1.418567e-02
    endloop
  endfacet
  facet normal 0.000000e+00 0.000000e+00 1.000000e+00
    outer loop
      vertex   -5.387943e-03 -7.694772e-03 1.418567e-02
      vertex   -6.066003e-03 -7.189850e-03 1.418567e-02
      vertex   -1.547843e-02 -2.357034e-02 1.418567e-02
    endloop
  endfacet
  facet normal 0.000000e+00 0.000000e+00 1.000000e+00
    outer loop
      vertex   -1.547843e-02 -2.357034e-02 1.418567e-02
      vertex   -6.066003e-03 -7.189850e-03 1.418567e-02
      vertex   -6.711646e-03 -6.648129e-03 1.418567e-02
    endloop
  endfacet
  facet normal 0.000000e+00 0.000000e+00 1.000000e+00
    outer loop
      vertex   -1.547843e-02 -2.357034e-02 1.418567e-02
      vertex   -6.711646e-03 -6.648129e-03 1.418567e-02
      vertex   -8.982831e-03 -5.028757e-03 1.418567e-02
    endloop
  endfacet
  facet normal 0.000000e+00 0.000000e+00 1.000000e+00
    outer loop
      vertex   -8.982831e-03 -5.028757e-03 1.418567e-02
      vertex   -6.711646e-03 -6.648129e-03 1.418567e-02
      vertex   -7.325412e-03 -6.070399e-03 1.418567e-02
    endloop
  endfacet
  facet normal 0.000000e+00 0.000000e+00 1.000000e+00
    outer loop
      vertex   -8.982831e-03 -5.028757e-03 1.418567e-02
      vertex   -7.325412e-03 -6.070399e-03 1.418567e-02
      vertex   -8.914171e-03 -5.058215e-03 1.418567e-02
    endloop
  endfacet
  facet normal 0.000000e+00 0.000000e+00 1.000000e+00
    outer loop
      vertex   -8.914171e-03 -5.058215e-03 1.418567e-02
      vertex   -7.325412e-03 -6.070399e-03 1.418567e-02
      vertex   -8.137289e-03 -5.314546e-03 1.418567e-02
    endloop
  endfacet
  facet normal 0.000000e+00 0.000000e+00 1.000000e+00
    outer loop
      vertex   -8.137289e-03 -5.314546e-03 1.418567e-02
      vertex   -7.325412e-03 -6.070399e-03 1.418567e-02
      vertex   -7.907885e-03 -5.457473e-03 1.418567e-02
    endloop
  endfacet
  facet normal 0.000000e+00 0.000000e+00 1.000000e+00
    outer loop
      vertex   -8.137289e-03 -5.314546e-03 1.418567e-02
      vertex   -7.907885e-03 -5.457473e-03 1.418567e-02
      vertex   -8.073224e-03 -5.338368e-03 1.418567e-02
    endloop
  endfacet
  facet normal 0.000000e+00 0.000000e+00 1.000000e+00
    outer loop
      vertex   -8.073224e-03 -5.338368e-03 1.418567e-02
      vertex   -7.907885e-03 -5.457473e-03 1.418567e-02
      vertex   -8.012916e-03 -5.370516e-03 1.418567e-02
    endloop
  endfacet
  facet normal 0.000000e+00 0.000000e+00 1.000000e+00
    outer loop
      vertex   -8.012916e-03 -5.370516e-03 1.418567e-02
      vertex   -7.907885e-03 -5.457473e-03 1.418567e-02
      vertex   -7.957460e-03 -5.410451e-03 1.418567e-02
    endloop
  endfacet
  facet normal 0.000000e+00 0.000000e+00 1.000000e+00
    outer loop
      vertex   -8.982831e-03 -5.028757e-03 1.418567e-02
      vertex   -9.059225e-03 -4.979379e-03 1.418567e-02
      vertex   -1.547843e-02 -2.357034e-02 1.418567e-02
    endloop
  endfacet
  facet normal 0.000000e+00 0.000000e+00 1.000000e+00
    outer loop
      vertex   -1.547843e-02 -2.357034e-02 1.418567e-02
      vertex   -9.059225e-03 -4.979379e-03 1.418567e-02
      vertex   -9.119983e-03 -4.923183e-03 1.418567e-02
    endloop
  endfacet
  facet normal 0.000000e+00 0.000000e+00 1.000000e+00
    outer loop
      vertex   -1.547843e-02 -2.357034e-02 1.418567e-02
      vertex   -9.119983e-03 -4.923183e-03 1.418567e-02
      vertex   -9.155316e-03 -4.879085e-03 1.418567e-02
    endloop
  endfacet
  facet normal 0.000000e+00 0.000000e+00 1.000000e+00
    outer loop
      vertex   -9.155316e-03 -4.879085e-03 1.418567e-02
      vertex   -9.634715e-03 -4.167033e-03 1.418567e-02
      vertex   -1.547843e-02 -2.357034e-02 1.418567e-02
    endloop
  endfacet
  facet normal 0.000000e+00 0.000000e+00 1.000000e+00
    outer loop
      vertex   -1.547843e-02 -2.357034e-02 1.418567e-02
      vertex   -9.634715e-03 -4.167033e-03 1.418567e-02
      vertex   -1.006147e-02 -3.422691e-03 1.418567e-02
    endloop
  endfacet
  facet normal 0.000000e+00 0.000000e+00 1.000000e+00
    outer loop
      vertex   -1.547843e-02 -2.357034e-02 1.418567e-02
      vertex   -1.006147e-02 -3.422691e-03 1.418567e-02
      vertex   -1.008423e-02 -3.371286e-03 1.418567e-02
    endloop
  endfacet
  facet normal 0.000000e+00 0.000000e+00 1.000000e+00
    outer loop
      vertex   -1.008423e-02 -3.371286e-03 1.418567e-02
      vertex   -1.009919e-02 -3.317080e-03 1.418567e-02
      vertex   -1.547843e-02 -2.357034e-02 1.418567e-02
    endloop
  endfacet
  facet normal 0.000000e+00 0.000000e+00 1.000000e+00
    outer loop
      vertex   -1.547843e-02 -2.357034e-02 1.418567e-02
      vertex   -1.009919e-02 -3.317080e-03 1.418567e-02
      vertex   -1.010626e-02 -3.261296e-03 1.418567e-02
    endloop
  endfacet
  facet normal 0.000000e+00 0.000000e+00 1.000000e+00
    outer loop
      vertex   -3.269554e-02 -4.714058e-02 1.418567e-02
      vertex   3.430446e-02 -4.714058e-02 1.418567e-02
      vertex   1.552157e-02 -2.357034e-02 1.418567e-02
    endloop
  endfacet
  facet normal -0.000000e+00 0.000000e+00 1.000000e+00
    outer loop
      vertex   1.552157e-02 -2.357034e-02 1.418567e-02
      vertex   3.430446e-02 -4.714058e-02 1.418567e-02
      vertex   2.252157e-02 -2.357034e-02 1.418567e-02
    endloop
  endfacet
  facet normal -0.000000e+00 0.000000e+00 1.000000e+00
    outer loop
      vertex   2.252157e-02 -2.357034e-02 1.418567e-02
      vertex   3.430446e-02 -4.714058e-02 1.418567e-02
      vertex   2.752157e-02 -1.857034e-02 1.418567e-02
    endloop
  endfacet
  facet normal -0.000000e+00 0.000000e+00 1.000000e+00
    outer loop
      vertex   2.752157e-02 -1.857034e-02 1.418567e-02
      vertex   3.430446e-02 -4.714058e-02 1.418567e-02
      vertex   3.430446e-02 3.085942e-02 1.418567e-02
    endloop
  endfacet
  facet normal 0.000000e+00 0.000000e+00 1.000000e+00
    outer loop
      vertex   2.752157e-02 -1.857034e-02 1.418567e-02
      vertex   3.430446e-02 3.085942e-02 1.418567e-02
      vertex   2.752157e-02 1.602966e-02 1.418567e-02
    endloop
  endfacet
  facet normal 0.000000e+00 1.000000e+00 -0.000000e+00
    outer loop
      vertex   3.430446e-02 3.085942e-02 -2.481433e-02
      vertex   -3.269554e-02 3.085942e-02 -2.481433e-02
      vertex   3.430446e-02 3.085942e-02 1.418567e-02
    endloop
  endfacet
  facet normal 0.000000e+00 1.000000e+00 0.000000e+00
    outer loop
      vertex   3.430446e-02 3.085942e-02 1.418567e-02
      vertex   -3.269554e-02 3.085942e-02 -2.481433e-02
      vertex   -3.269554e-02 3.085942e-02 1.418567e-02
    endloop
  endfacet
  facet normal 0.000000e+00 -1.000000e+00 0.000000e+00
    outer loop
      vertex   -3.269554e-02 -4.714058e-02 -2.481433e-02
      vertex   3.430446e-02 -4.714058e-02 -2.481433e-02
      vertex   -3.269554e-02 -4.714058e-02 1.418567e-02
    endloop
  endfacet
  facet normal 0.000000e+00 -1.000000e+00 0.000000e+00
    outer loop
      vertex   -3.269554e-02 -4.714058e-02 1.418567e-02
      vertex   3.430446e-02 -4.714058e-02 -2.481433e-02
      vertex   3.430446e-02 -4.714058e-02 1.418567e-02
    endloop
  endfacet
  facet normal 1.000000e+00 0.000000e+00 0.000000e+00
    outer loop
      vertex   3.430446e-02 -4.714058e-02 -2.481433e-02
      vertex   3.430446e-02 3.085942e-02 -2.481433e-02
      vertex   3.430446e-02 -4.714058e-02 1.418567e-02
    endloop
  endfacet
  facet normal 1.000000e+00 -0.000000e+00 0.000000e+00
    outer loop
      vertex   3.430446e-02 -4.714058e-02 1.418567e-02
      vertex   3.430446e-02 3.085942e-02 -2.481433e-02
      vertex   3.430446e-02 3.085942e-02 1.418567e-02
    endloop
  endfacet
endsolid
