solid ASCII
  facet normal -7.071068e-01 4.553881e-15 -7.071068e-01
    outer loop
      vertex   -1.547843e-02 1.642966e-02 -1.000326e-03
      vertex   -5.478432e-03 1.642966e-02 -1.100033e-02
      vertex   -1.547843e-02 -2.357034e-02 -1.000326e-03
    endloop
  endfacet
  facet normal -7.071068e-01 4.528007e-15 -7.071068e-01
    outer loop
      vertex   -1.547843e-02 -2.357034e-02 -1.000326e-03
      vertex   -5.478432e-03 1.642966e-02 -1.100033e-02
      vertex   -5.478432e-03 -2.357034e-02 -1.100033e-02
    endloop
  endfacet
  facet normal 0.000000e+00 6.418477e-15 -1.000000e+00
    outer loop
      vertex   -5.478432e-03 1.642966e-02 -1.100033e-02
      vertex   5.521568e-03 1.642966e-02 -1.100033e-02
      vertex   -5.478432e-03 -2.357034e-02 -1.100033e-02
    endloop
  endfacet
  facet normal 0.000000e+00 6.418477e-15 -1.000000e+00
    outer loop
      vertex   -5.478432e-03 -2.357034e-02 -1.100033e-02
      vertex   5.521568e-03 1.642966e-02 -1.100033e-02
      vertex   5.521568e-03 -2.357034e-02 -1.100033e-02
    endloop
  endfacet
  facet normal 0.000000e+00 1.000000e+00 6.245005e-15
    outer loop
      vertex   5.521568e-03 1.642966e-02 -1.100033e-02
      vertex   -5.478432e-03 1.642966e-02 -1.100033e-02
      vertex   1.552157e-02 1.642966e-02 -1.000326e-03
    endloop
  endfacet
  facet normal -1.119176e-16 1.000000e+00 6.480032e-15
    outer loop
      vertex   1.552157e-02 1.642966e-02 -1.000326e-03
      vertex   -5.478432e-03 1.642966e-02 -1.100033e-02
      vertex   -1.547843e-02 1.642966e-02 -1.000326e-03
    endloop
  endfacet
  facet normal -1.119176e-16 1.000000e+00 6.396978e-15
    outer loop
      vertex   1.552157e-02 1.642966e-02 -1.000326e-03
      vertex   -1.547843e-02 1.642966e-02 -1.000326e-03
      vertex   1.552157e-02 1.642966e-02 1.418567e-02
    endloop
  endfacet
  facet normal -1.119176e-16 1.000000e+00 6.396978e-15
    outer loop
      vertex   1.552157e-02 1.642966e-02 1.418567e-02
      vertex   -1.547843e-02 1.642966e-02 -1.000326e-03
      vertex   -1.547843e-02 1.642966e-02 1.418567e-02
    endloop
  endfacet
  facet normal 7.071068e-01 4.553881e-15 -7.071068e-01
    outer loop
      vertex   1.552157e-02 -2.357034e-02 -1.000326e-03
      vertex   5.521568e-03 -2.357034e-02 -1.100033e-02
      vertex   1.552157e-02 1.642966e-02 -1.000326e-03
    endloop
  endfacet
  facet normal 7.071068e-01 4.528007e-15 -7.071068e-01
    outer loop
      vertex   1.552157e-02 1.642966e-02 -1.000326e-03
      vertex   5.521568e-03 -2.357034e-02 -1.100033e-02
      vertex   5.521568e-03 1.642966e-02 -1.100033e-02
    endloop
  endfacet
  facet normal 0.000000e+00 -1.000000e+00 -6.591949e-15
    outer loop
      vertex   -5.478432e-03 -2.357034e-02 -1.100033e-02
      vertex   5.521568e-03 -2.357034e-02 -1.100033e-02
      vertex   -1.547843e-02 -2.357034e-02 -1.000326e-03
    endloop
  endfacet
  facet normal 3.357529e-16 -1.000000e+00 -5.886868e-15
    outer loop
      vertex   -1.547843e-02 -2.357034e-02 -1.000326e-03
      vertex   5.521568e-03 -2.357034e-02 -1.100033e-02
      vertex   1.552157e-02 -2.357034e-02 -1.000326e-03
    endloop
  endfacet
  facet normal 3.357529e-16 -1.000000e+00 -6.396978e-15
    outer loop
      vertex   -1.547843e-02 -2.357034e-02 -1.000326e-03
      vertex   1.552157e-02 -2.357034e-02 -1.000326e-03
      vertex   -1.547843e-02 -2.357034e-02 1.418567e-02
    endloop
  endfacet
  facet normal 3.357529e-16 -1.000000e+00 -6.396978e-15
    outer loop
      vertex   -1.547843e-02 -2.357034e-02 1.418567e-02
      vertex   1.552157e-02 -2.357034e-02 -1.000326e-03
      vertex   1.552157e-02 -2.357034e-02 1.418567e-02
    endloop
  endfacet
  facet normal 1.000000e+00 0.000000e+00 -0.000000e+00
    outer loop
      vertex   1.552157e-02 -2.357034e-02 -1.000326e-03
      vertex   1.552157e-02 1.642966e-02 -1.000326e-03
      vertex   1.552157e-02 -2.357034e-02 1.418567e-02
    endloop
  endfacet
  facet normal 1.000000e+00 -0.000000e+00 0.000000e+00
    outer loop
      vertex   1.552157e-02 -2.357034e-02 1.418567e-02
      vertex   1.552157e-02 1.642966e-02 -1.000326e-03
      vertex   1.552157e-02 1.642966e-02 1.418567e-02
    endloop
  endfacet
  facet normal -1.000000e+00 -0.000000e+00 0.000000e+00
    outer loop
      vertex   -1.547843e-02 1.642966e-02 -1.000326e-03
      vertex   -1.547843e-02 -2.357034e-02 -1.000326e-03
      vertex   -1.547843e-02 1.642966e-02 1.418567e-02
    endloop
  endfacet
  facet normal -1.000000e+00 0.000000e+00 0.000000e+00
    outer loop
      vertex   -1.547843e-02 1.642966e-02 1.418567e-02
      vertex   -1.547843e-02 -2.357034e-02 -1.000326e-03
      vertex   -1.547843e-02 -2.357034e-02 1.418567e-02
    endloop
  endfacet
  facet normal 2.140461e-30 -6.375109e-15 1.000000e+00
    outer loop
      vertex   -1.547843e-02 -2.357034e-02 1.418567e-02
      vertex   1.552157e-02 -2.357034e-02 1.418567e-02
      vertex   -1.547843e-02 1.642966e-02 1.418567e-02
    endloop
  endfacet
  facet normal 7.134872e-31 -6.375109e-15 1.000000e+00
    outer loop
      vertex   -1.547843e-02 1.642966e-02 1.418567e-02
      vertex   1.552157e-02 -2.357034e-02 1.418567e-02
      vertex   1.552157e-02 1.642966e-02 1.418567e-02
    endloop
  endfacet
endsolid
