solid ASCII
  facet normal 9.990990e-01 4.244120e-02 2.708473e-16
    outer loop
      vertex   1.096037e-02 9.328652e-04 -3.259181e-07
      vertex   1.096037e-02 9.328652e-04 1.418567e-02
      vertex   1.100000e-02 1.349190e-18 -3.259181e-07
    endloop
  endfacet
  facet normal 9.990990e-01 4.244120e-02 2.706334e-16
    outer loop
      vertex   1.100000e-02 1.349190e-18 -3.259181e-07
      vertex   1.096037e-02 9.328652e-04 1.418567e-02
      vertex   1.100000e-02 -8.911019e-17 1.418567e-02
    endloop
  endfacet
  facet normal 9.990990e-01 -4.244120e-02 -2.706334e-16
    outer loop
      vertex   1.100000e-02 1.349190e-18 -3.259181e-07
      vertex   1.100000e-02 -8.911019e-17 1.418567e-02
      vertex   1.096037e-02 -9.328652e-04 -3.259181e-07
    endloop
  endfacet
  facet normal 9.990990e-01 -4.244120e-02 -2.708473e-16
    outer loop
      vertex   1.096037e-02 -9.328652e-04 -3.259181e-07
      vertex   1.100000e-02 -8.911019e-17 1.418567e-02
      vertex   1.096037e-02 -9.328652e-04 1.418567e-02
    endloop
  endfacet
  facet normal 9.919004e-01 -1.270178e-01 -8.105904e-16
    outer loop
      vertex   1.096037e-02 -9.328652e-04 -3.259181e-07
      vertex   1.096037e-02 -9.328652e-04 1.418567e-02
      vertex   1.084178e-02 -1.859009e-03 -3.259181e-07
    endloop
  endfacet
  facet normal 9.919004e-01 -1.270178e-01 -7.310396e-16
    outer loop
      vertex   1.084178e-02 -1.859009e-03 -3.259181e-07
      vertex   1.096037e-02 -9.328652e-04 1.418567e-02
      vertex   1.084178e-02 -1.859009e-03 1.418567e-02
    endloop
  endfacet
  facet normal 9.775552e-01 -2.106793e-01 -1.294191e-15
    outer loop
      vertex   1.084178e-02 -1.859009e-03 -3.259181e-07
      vertex   1.084178e-02 -1.859009e-03 1.418567e-02
      vertex   1.064506e-02 -2.771759e-03 -3.259181e-07
    endloop
  endfacet
  facet normal 9.775552e-01 -2.106793e-01 -1.416951e-15
    outer loop
      vertex   1.064506e-02 -2.771759e-03 -3.259181e-07
      vertex   1.084178e-02 -1.859009e-03 1.418567e-02
      vertex   1.064506e-02 -2.771759e-03 1.418567e-02
    endloop
  endfacet
  facet normal 9.561667e-01 -2.928228e-01 -1.969418e-15
    outer loop
      vertex   1.064506e-02 -2.771759e-03 -3.259181e-07
      vertex   1.064506e-02 -2.771759e-03 1.418567e-02
      vertex   1.037165e-02 -3.664538e-03 -3.259181e-07
    endloop
  endfacet
  facet normal 9.561667e-01 -2.928228e-01 -1.861995e-15
    outer loop
      vertex   1.037165e-02 -3.664538e-03 -3.259181e-07
      vertex   1.064506e-02 -2.771759e-03 1.418567e-02
      vertex   1.037165e-02 -3.664538e-03 1.418567e-02
    endloop
  endfacet
  facet normal 9.278890e-01 -3.728565e-01 -2.370911e-15
    outer loop
      vertex   1.037165e-02 -3.664538e-03 -3.259181e-07
      vertex   1.037165e-02 -3.664538e-03 1.418567e-02
      vertex   1.002351e-02 -4.530914e-03 -3.259181e-07
    endloop
  endfacet
  facet normal 9.278890e-01 -3.728565e-01 -2.370911e-15
    outer loop
      vertex   1.002351e-02 -4.530914e-03 -3.259181e-07
      vertex   1.037165e-02 -3.664538e-03 1.418567e-02
      vertex   1.002351e-02 -4.530914e-03 1.418567e-02
    endloop
  endfacet
  facet normal 8.929259e-01 -4.502037e-01 -2.862746e-15
    outer loop
      vertex   1.002351e-02 -4.530914e-03 -3.259181e-07
      vertex   1.002351e-02 -4.530914e-03 1.418567e-02
      vertex   9.603155e-03 -5.364644e-03 -3.259181e-07
    endloop
  endfacet
  facet normal 8.929259e-01 -4.502037e-01 -2.862746e-15
    outer loop
      vertex   9.603155e-03 -5.364644e-03 -3.259181e-07
      vertex   1.002351e-02 -4.530914e-03 1.418567e-02
      vertex   9.603155e-03 -5.364644e-03 1.418567e-02
    endloop
  endfacet
  facet normal 8.515291e-01 -5.243073e-01 -3.333953e-15
    outer loop
      vertex   9.603155e-03 -5.364644e-03 -3.259181e-07
      vertex   9.603155e-03 -5.364644e-03 1.418567e-02
      vertex   9.113606e-03 -6.159723e-03 -3.259181e-07
    endloop
  endfacet
  facet normal 8.515291e-01 -5.243073e-01 -3.390111e-15
    outer loop
      vertex   9.113606e-03 -6.159723e-03 -3.259181e-07
      vertex   9.603155e-03 -5.364644e-03 1.418567e-02
      vertex   9.113606e-03 -6.159723e-03 1.418567e-02
    endloop
  endfacet
  facet normal 8.039971e-01 -5.946332e-01 -3.864610e-15
    outer loop
      vertex   9.113606e-03 -6.159723e-03 -3.259181e-07
      vertex   9.113606e-03 -6.159723e-03 1.418567e-02
      vertex   8.558393e-03 -6.910420e-03 -3.259181e-07
    endloop
  endfacet
  facet normal 8.039971e-01 -5.946332e-01 -3.781140e-15
    outer loop
      vertex   8.558393e-03 -6.910420e-03 -3.259181e-07
      vertex   9.113606e-03 -6.159723e-03 1.418567e-02
      vertex   8.558393e-03 -6.910420e-03 1.418567e-02
    endloop
  endfacet
  facet normal 7.506723e-01 -6.606747e-01 -4.201084e-15
    outer loop
      vertex   8.558393e-03 -6.910420e-03 -3.259181e-07
      vertex   8.558393e-03 -6.910420e-03 1.418567e-02
      vertex   7.941517e-03 -7.611328e-03 -3.259181e-07
    endloop
  endfacet
  facet normal 7.506723e-01 -6.606747e-01 -4.201084e-15
    outer loop
      vertex   7.941517e-03 -7.611328e-03 -3.259181e-07
      vertex   8.558393e-03 -6.910420e-03 1.418567e-02
      vertex   7.941517e-03 -7.611328e-03 1.418567e-02
    endloop
  endfacet
  facet normal 6.919389e-01 -7.219561e-01 -4.590758e-15
    outer loop
      vertex   7.941517e-03 -7.611328e-03 -3.259181e-07
      vertex   7.941517e-03 -7.611328e-03 1.418567e-02
      vertex   7.267422e-03 -8.257395e-03 -3.259181e-07
    endloop
  endfacet
  facet normal 6.919389e-01 -7.219561e-01 -4.590758e-15
    outer loop
      vertex   7.267422e-03 -8.257395e-03 -3.259181e-07
      vertex   7.941517e-03 -7.611328e-03 1.418567e-02
      vertex   7.267422e-03 -8.257395e-03 1.418567e-02
    endloop
  endfacet
  facet normal 6.282200e-01 -7.780358e-01 -4.947356e-15
    outer loop
      vertex   7.267422e-03 -8.257395e-03 -3.259181e-07
      vertex   7.267422e-03 -8.257395e-03 1.418567e-02
      vertex   6.540965e-03 -8.843968e-03 -3.259181e-07
    endloop
  endfacet
  facet normal 6.282200e-01 -7.780358e-01 -4.888855e-15
    outer loop
      vertex   6.540965e-03 -8.843968e-03 -3.259181e-07
      vertex   7.267422e-03 -8.257395e-03 1.418567e-02
      vertex   6.540965e-03 -8.843968e-03 1.418567e-02
    endloop
  endfacet
  facet normal 5.599748e-01 -8.285096e-01 -5.232670e-15
    outer loop
      vertex   6.540965e-03 -8.843968e-03 -3.259181e-07
      vertex   6.540965e-03 -8.843968e-03 1.418567e-02
      vertex   5.767380e-03 -9.366821e-03 -3.259181e-07
    endloop
  endfacet
  facet normal 5.599748e-01 -8.285096e-01 -5.198432e-15
    outer loop
      vertex   5.767380e-03 -9.366821e-03 -3.259181e-07
      vertex   6.540965e-03 -8.843968e-03 1.418567e-02
      vertex   5.767380e-03 -9.366821e-03 1.418567e-02
    endloop
  endfacet
  facet normal 4.876949e-01 -8.730141e-01 -5.508965e-15
    outer loop
      vertex   5.767380e-03 -9.366821e-03 -3.259181e-07
      vertex   5.767380e-03 -9.366821e-03 1.418567e-02
      vertex   4.952241e-03 -9.822184e-03 -3.259181e-07
    endloop
  endfacet
  facet normal 4.876949e-01 -8.730141e-01 -5.551303e-15
    outer loop
      vertex   4.952241e-03 -9.822184e-03 -3.259181e-07
      vertex   5.767380e-03 -9.366821e-03 1.418567e-02
      vertex   4.952241e-03 -9.822184e-03 1.418567e-02
    endloop
  endfacet
  facet normal 4.119012e-01 -9.112285e-01 -5.794299e-15
    outer loop
      vertex   4.952241e-03 -9.822184e-03 -3.259181e-07
      vertex   4.952241e-03 -9.822184e-03 1.418567e-02
      vertex   4.101421e-03 -1.020678e-02 -3.259181e-07
    endloop
  endfacet
  facet normal 4.119012e-01 -9.112285e-01 -5.794299e-15
    outer loop
      vertex   4.101421e-03 -1.020678e-02 -3.259181e-07
      vertex   4.952241e-03 -9.822184e-03 1.418567e-02
      vertex   4.101421e-03 -1.020678e-02 1.418567e-02
    endloop
  endfacet
  facet normal 3.331398e-01 -9.428774e-01 -5.995548e-15
    outer loop
      vertex   4.101421e-03 -1.020678e-02 -3.259181e-07
      vertex   4.101421e-03 -1.020678e-02 1.418567e-02
      vertex   3.221050e-03 -1.051783e-02 -3.259181e-07
    endloop
  endfacet
  facet normal 3.331398e-01 -9.428774e-01 -6.049741e-15
    outer loop
      vertex   3.221050e-03 -1.051783e-02 -3.259181e-07
      vertex   4.101421e-03 -1.020678e-02 1.418567e-02
      vertex   3.221050e-03 -1.051783e-02 1.418567e-02
    endloop
  endfacet
  facet normal 2.519781e-01 -9.677329e-01 -6.225718e-15
    outer loop
      vertex   3.221050e-03 -1.051783e-02 -3.259181e-07
      vertex   3.221050e-03 -1.051783e-02 1.418567e-02
      vertex   2.317472e-03 -1.075311e-02 -3.259181e-07
    endloop
  endfacet
  facet normal 2.519781e-01 -9.677329e-01 -6.194905e-15
    outer loop
      vertex   2.317472e-03 -1.075311e-02 -3.259181e-07
      vertex   3.221050e-03 -1.051783e-02 1.418567e-02
      vertex   2.317472e-03 -1.075311e-02 1.418567e-02
    endloop
  endfacet
  facet normal 1.690008e-01 -9.856159e-01 -6.336172e-15
    outer loop
      vertex   2.317472e-03 -1.075311e-02 -3.259181e-07
      vertex   2.317472e-03 -1.075311e-02 1.418567e-02
      vertex   1.397196e-03 -1.091090e-02 -3.259181e-07
    endloop
  endfacet
  facet normal 1.690008e-01 -9.856159e-01 -6.416254e-15
    outer loop
      vertex   1.397196e-03 -1.091090e-02 -3.259181e-07
      vertex   2.317472e-03 -1.075311e-02 1.418567e-02
      vertex   1.397196e-03 -1.091090e-02 1.418567e-02
    endloop
  endfacet
  facet normal 8.480592e-02 -9.963975e-01 -6.471973e-15
    outer loop
      vertex   1.397196e-03 -1.091090e-02 -3.259181e-07
      vertex   1.397196e-03 -1.091090e-02 1.418567e-02
      vertex   4.668532e-04 -1.099009e-02 -3.259181e-07
    endloop
  endfacet
  facet normal 8.480592e-02 -9.963975e-01 -6.335870e-15
    outer loop
      vertex   4.668532e-04 -1.099009e-02 -3.259181e-07
      vertex   1.397196e-03 -1.091090e-02 1.418567e-02
      vertex   4.668532e-04 -1.099009e-02 1.418567e-02
    endloop
  endfacet
  facet normal 1.857890e-15 -1.000000e+00 -6.358778e-15
    outer loop
      vertex   4.668532e-04 -1.099009e-02 -3.259181e-07
      vertex   4.668532e-04 -1.099009e-02 1.418567e-02
      vertex   -4.668532e-04 -1.099009e-02 -3.259181e-07
    endloop
  endfacet
  facet normal 0.000000e+00 -1.000000e+00 -6.236494e-15
    outer loop
      vertex   -4.668532e-04 -1.099009e-02 -3.259181e-07
      vertex   4.668532e-04 -1.099009e-02 1.418567e-02
      vertex   -4.668532e-04 -1.099009e-02 1.418567e-02
    endloop
  endfacet
  facet normal -8.480592e-02 -9.963975e-01 -6.228934e-15
    outer loop
      vertex   -4.668532e-04 -1.099009e-02 -3.259181e-07
      vertex   -4.668532e-04 -1.099009e-02 1.418567e-02
      vertex   -1.397196e-03 -1.091090e-02 -3.259181e-07
    endloop
  endfacet
  facet normal -8.480592e-02 -9.963975e-01 -6.484936e-15
    outer loop
      vertex   -1.397196e-03 -1.091090e-02 -3.259181e-07
      vertex   -4.668532e-04 -1.099009e-02 1.418567e-02
      vertex   -1.397196e-03 -1.091090e-02 1.418567e-02
    endloop
  endfacet
  facet normal -1.690008e-01 -9.856159e-01 -6.442086e-15
    outer loop
      vertex   -1.397196e-03 -1.091090e-02 -3.259181e-07
      vertex   -1.397196e-03 -1.091090e-02 1.418567e-02
      vertex   -2.317472e-03 -1.075311e-02 -3.259181e-07
    endloop
  endfacet
  facet normal -1.690008e-01 -9.856159e-01 -6.318978e-15
    outer loop
      vertex   -2.317472e-03 -1.075311e-02 -3.259181e-07
      vertex   -1.397196e-03 -1.091090e-02 1.418567e-02
      vertex   -2.317472e-03 -1.075311e-02 1.418567e-02
    endloop
  endfacet
  facet normal -2.519781e-01 -9.677329e-01 -6.230631e-15
    outer loop
      vertex   -2.317472e-03 -1.075311e-02 -3.259181e-07
      vertex   -2.317472e-03 -1.075311e-02 1.418567e-02
      vertex   -3.221050e-03 -1.051783e-02 -3.259181e-07
    endloop
  endfacet
  facet normal -2.519781e-01 -9.677329e-01 -6.107379e-15
    outer loop
      vertex   -3.221050e-03 -1.051783e-02 -3.259181e-07
      vertex   -2.317472e-03 -1.075311e-02 1.418567e-02
      vertex   -3.221050e-03 -1.051783e-02 1.418567e-02
    endloop
  endfacet
  facet normal -3.331398e-01 -9.428774e-01 -5.934442e-15
    outer loop
      vertex   -3.221050e-03 -1.051783e-02 -3.259181e-07
      vertex   -3.221050e-03 -1.051783e-02 1.418567e-02
      vertex   -4.101421e-03 -1.020678e-02 -3.259181e-07
    endloop
  endfacet
  facet normal -3.331398e-01 -9.428774e-01 -5.995548e-15
    outer loop
      vertex   -4.101421e-03 -1.020678e-02 -3.259181e-07
      vertex   -3.221050e-03 -1.051783e-02 1.418567e-02
      vertex   -4.101421e-03 -1.020678e-02 1.418567e-02
    endloop
  endfacet
  facet normal -4.119012e-01 -9.112285e-01 -5.794299e-15
    outer loop
      vertex   -4.101421e-03 -1.020678e-02 -3.259181e-07
      vertex   -4.101421e-03 -1.020678e-02 1.418567e-02
      vertex   -4.952241e-03 -9.822184e-03 -3.259181e-07
    endloop
  endfacet
  facet normal -4.119012e-01 -9.112285e-01 -5.794299e-15
    outer loop
      vertex   -4.952241e-03 -9.822184e-03 -3.259181e-07
      vertex   -4.101421e-03 -1.020678e-02 1.418567e-02
      vertex   -4.952241e-03 -9.822184e-03 1.418567e-02
    endloop
  endfacet
  facet normal -4.876949e-01 -8.730141e-01 -5.551303e-15
    outer loop
      vertex   -4.952241e-03 -9.822184e-03 -3.259181e-07
      vertex   -4.952241e-03 -9.822184e-03 1.418567e-02
      vertex   -5.767380e-03 -9.366821e-03 -3.259181e-07
    endloop
  endfacet
  facet normal -4.876949e-01 -8.730141e-01 -5.563822e-15
    outer loop
      vertex   -5.767380e-03 -9.366821e-03 -3.259181e-07
      vertex   -4.952241e-03 -9.822184e-03 1.418567e-02
      vertex   -5.767380e-03 -9.366821e-03 1.418567e-02
    endloop
  endfacet
  facet normal -5.599748e-01 -8.285096e-01 -5.303947e-15
    outer loop
      vertex   -5.767380e-03 -9.366821e-03 -3.259181e-07
      vertex   -5.767380e-03 -9.366821e-03 1.418567e-02
      vertex   -6.540965e-03 -8.843968e-03 -3.259181e-07
    endloop
  endfacet
  facet normal -5.599748e-01 -8.285096e-01 -5.333984e-15
    outer loop
      vertex   -6.540965e-03 -8.843968e-03 -3.259181e-07
      vertex   -5.767380e-03 -9.366821e-03 1.418567e-02
      vertex   -6.540965e-03 -8.843968e-03 1.418567e-02
    endloop
  endfacet
  facet normal -6.282200e-01 -7.780358e-01 -4.983997e-15
    outer loop
      vertex   -6.540965e-03 -8.843968e-03 -3.259181e-07
      vertex   -6.540965e-03 -8.843968e-03 1.418567e-02
      vertex   -7.267422e-03 -8.257395e-03 -3.259181e-07
    endloop
  endfacet
  facet normal -6.282200e-01 -7.780358e-01 -4.910716e-15
    outer loop
      vertex   -7.267422e-03 -8.257395e-03 -3.259181e-07
      vertex   -6.540965e-03 -8.843968e-03 1.418567e-02
      vertex   -7.267422e-03 -8.257395e-03 1.418567e-02
    endloop
  endfacet
  facet normal -6.919389e-01 -7.219561e-01 -4.583417e-15
    outer loop
      vertex   -7.267422e-03 -8.257395e-03 -3.259181e-07
      vertex   -7.267422e-03 -8.257395e-03 1.418567e-02
      vertex   -7.941517e-03 -7.611328e-03 -3.259181e-07
    endloop
  endfacet
  facet normal -6.919389e-01 -7.219561e-01 -4.546616e-15
    outer loop
      vertex   -7.941517e-03 -7.611328e-03 -3.259181e-07
      vertex   -7.267422e-03 -8.257395e-03 1.418567e-02
      vertex   -7.941517e-03 -7.611328e-03 1.418567e-02
    endloop
  endfacet
  facet normal -7.506723e-01 -6.606747e-01 -4.160689e-15
    outer loop
      vertex   -7.941517e-03 -7.611328e-03 -3.259181e-07
      vertex   -7.941517e-03 -7.611328e-03 1.418567e-02
      vertex   -8.558393e-03 -6.910420e-03 -3.259181e-07
    endloop
  endfacet
  facet normal -7.506723e-01 -6.606747e-01 -4.223094e-15
    outer loop
      vertex   -8.558393e-03 -6.910420e-03 -3.259181e-07
      vertex   -7.941517e-03 -7.611328e-03 1.418567e-02
      vertex   -8.558393e-03 -6.910420e-03 1.418567e-02
    endloop
  endfacet
  facet normal -8.039971e-01 -5.946332e-01 -3.832344e-15
    outer loop
      vertex   -8.558393e-03 -6.910420e-03 -3.259181e-07
      vertex   -8.558393e-03 -6.910420e-03 1.418567e-02
      vertex   -9.113606e-03 -6.159723e-03 -3.259181e-07
    endloop
  endfacet
  facet normal -8.039971e-01 -5.946332e-01 -3.781140e-15
    outer loop
      vertex   -9.113606e-03 -6.159723e-03 -3.259181e-07
      vertex   -8.558393e-03 -6.910420e-03 1.418567e-02
      vertex   -9.113606e-03 -6.159723e-03 1.418567e-02
    endloop
  endfacet
  facet normal -8.515291e-01 -5.243073e-01 -3.333953e-15
    outer loop
      vertex   -9.113606e-03 -6.159723e-03 -3.259181e-07
      vertex   -9.113606e-03 -6.159723e-03 1.418567e-02
      vertex   -9.603155e-03 -5.364644e-03 -3.259181e-07
    endloop
  endfacet
  facet normal -8.515291e-01 -5.243073e-01 -3.309853e-15
    outer loop
      vertex   -9.603155e-03 -5.364644e-03 -3.259181e-07
      vertex   -9.113606e-03 -6.159723e-03 1.418567e-02
      vertex   -9.603155e-03 -5.364644e-03 1.418567e-02
    endloop
  endfacet
  facet normal -8.929259e-01 -4.502037e-01 -2.861831e-15
    outer loop
      vertex   -9.603155e-03 -5.364644e-03 -3.259181e-07
      vertex   -9.603155e-03 -5.364644e-03 1.418567e-02
      vertex   -1.002351e-02 -4.530914e-03 -3.259181e-07
    endloop
  endfacet
  facet normal -8.929259e-01 -4.502037e-01 -2.862746e-15
    outer loop
      vertex   -1.002351e-02 -4.530914e-03 -3.259181e-07
      vertex   -9.603155e-03 -5.364644e-03 1.418567e-02
      vertex   -1.002351e-02 -4.530914e-03 1.418567e-02
    endloop
  endfacet
  facet normal -9.278890e-01 -3.728565e-01 -2.370911e-15
    outer loop
      vertex   -1.002351e-02 -4.530914e-03 -3.259181e-07
      vertex   -1.002351e-02 -4.530914e-03 1.418567e-02
      vertex   -1.037165e-02 -3.664538e-03 -3.259181e-07
    endloop
  endfacet
  facet normal -9.278890e-01 -3.728565e-01 -2.382310e-15
    outer loop
      vertex   -1.037165e-02 -3.664538e-03 -3.259181e-07
      vertex   -1.002351e-02 -4.530914e-03 1.418567e-02
      vertex   -1.037165e-02 -3.664538e-03 1.418567e-02
    endloop
  endfacet
  facet normal -9.561667e-01 -2.928228e-01 -1.870947e-15
    outer loop
      vertex   -1.037165e-02 -3.664538e-03 -3.259181e-07
      vertex   -1.037165e-02 -3.664538e-03 1.418567e-02
      vertex   -1.064506e-02 -2.771759e-03 -3.259181e-07
    endloop
  endfacet
  facet normal -9.561667e-01 -2.928228e-01 -1.889400e-15
    outer loop
      vertex   -1.064506e-02 -2.771759e-03 -3.259181e-07
      vertex   -1.037165e-02 -3.664538e-03 1.418567e-02
      vertex   -1.064506e-02 -2.771759e-03 1.418567e-02
    endloop
  endfacet
  facet normal -9.775552e-01 -2.106793e-01 -1.394795e-15
    outer loop
      vertex   -1.064506e-02 -2.771759e-03 -3.259181e-07
      vertex   -1.064506e-02 -2.771759e-03 1.418567e-02
      vertex   -1.084178e-02 -1.859009e-03 -3.259181e-07
    endloop
  endfacet
  facet normal -9.775552e-01 -2.106793e-01 -1.346103e-15
    outer loop
      vertex   -1.084178e-02 -1.859009e-03 -3.259181e-07
      vertex   -1.064506e-02 -2.771759e-03 1.418567e-02
      vertex   -1.084178e-02 -1.859009e-03 1.418567e-02
    endloop
  endfacet
  facet normal -9.919004e-01 -1.270178e-01 -8.115612e-16
    outer loop
      vertex   -1.084178e-02 -1.859009e-03 -3.259181e-07
      vertex   -1.084178e-02 -1.859009e-03 1.418567e-02
      vertex   -1.096037e-02 -9.328652e-04 -3.259181e-07
    endloop
  endfacet
  facet normal -9.919004e-01 -1.270178e-01 -7.678766e-16
    outer loop
      vertex   -1.096037e-02 -9.328652e-04 -3.259181e-07
      vertex   -1.084178e-02 -1.859009e-03 1.418567e-02
      vertex   -1.096037e-02 -9.328652e-04 1.418567e-02
    endloop
  endfacet
  facet normal -9.990990e-01 -4.244120e-02 -2.565751e-16
    outer loop
      vertex   -1.096037e-02 -9.328652e-04 -3.259181e-07
      vertex   -1.096037e-02 -9.328652e-04 1.418567e-02
      vertex   -1.100000e-02 2.078271e-21 -3.259181e-07
    endloop
  endfacet
  facet normal -9.990990e-01 -4.244120e-02 -2.706334e-16
    outer loop
      vertex   -1.100000e-02 2.078271e-21 -3.259181e-07
      vertex   -1.096037e-02 -9.328652e-04 1.418567e-02
      vertex   -1.100000e-02 -9.045730e-17 1.418567e-02
    endloop
  endfacet
  facet normal -9.990990e-01 4.244120e-02 2.706334e-16
    outer loop
      vertex   -1.100000e-02 2.078271e-21 -3.259181e-07
      vertex   -1.100000e-02 -9.045730e-17 1.418567e-02
      vertex   -1.096037e-02 9.328652e-04 -3.259181e-07
    endloop
  endfacet
  facet normal -9.990990e-01 4.244120e-02 2.565751e-16
    outer loop
      vertex   -1.096037e-02 9.328652e-04 -3.259181e-07
      vertex   -1.100000e-02 -9.045730e-17 1.418567e-02
      vertex   -1.096037e-02 9.328652e-04 1.418567e-02
    endloop
  endfacet
  facet normal -9.919004e-01 1.270178e-01 7.678766e-16
    outer loop
      vertex   -1.096037e-02 9.328652e-04 -3.259181e-07
      vertex   -1.096037e-02 9.328652e-04 1.418567e-02
      vertex   -1.084178e-02 1.859009e-03 -3.259181e-07
    endloop
  endfacet
  facet normal -9.919004e-01 1.270178e-01 8.096196e-16
    outer loop
      vertex   -1.084178e-02 1.859009e-03 -3.259181e-07
      vertex   -1.096037e-02 9.328652e-04 1.418567e-02
      vertex   -1.084178e-02 1.859009e-03 1.418567e-02
    endloop
  endfacet
  facet normal -9.775552e-01 2.106793e-01 1.342883e-15
    outer loop
      vertex   -1.084178e-02 1.859009e-03 -3.259181e-07
      vertex   -1.084178e-02 1.859009e-03 1.418567e-02
      vertex   -1.064506e-02 2.771759e-03 -3.259181e-07
    endloop
  endfacet
  facet normal -9.775552e-01 2.106793e-01 1.394795e-15
    outer loop
      vertex   -1.064506e-02 2.771759e-03 -3.259181e-07
      vertex   -1.084178e-02 1.859009e-03 1.418567e-02
      vertex   -1.064506e-02 2.771759e-03 1.418567e-02
    endloop
  endfacet
  facet normal -9.561667e-01 2.928228e-01 1.889400e-15
    outer loop
      vertex   -1.064506e-02 2.771759e-03 -3.259181e-07
      vertex   -1.064506e-02 2.771759e-03 1.418567e-02
      vertex   -1.037165e-02 3.664538e-03 -3.259181e-07
    endloop
  endfacet
  facet normal -9.561667e-01 2.928228e-01 1.861995e-15
    outer loop
      vertex   -1.037165e-02 3.664538e-03 -3.259181e-07
      vertex   -1.064506e-02 2.771759e-03 1.418567e-02
      vertex   -1.037165e-02 3.664538e-03 1.418567e-02
    endloop
  endfacet
  facet normal -9.278890e-01 3.728565e-01 2.370911e-15
    outer loop
      vertex   -1.037165e-02 3.664538e-03 -3.259181e-07
      vertex   -1.037165e-02 3.664538e-03 1.418567e-02
      vertex   -1.002351e-02 4.530914e-03 -3.259181e-07
    endloop
  endfacet
  facet normal -9.278890e-01 3.728565e-01 2.393709e-15
    outer loop
      vertex   -1.002351e-02 4.530914e-03 -3.259181e-07
      vertex   -1.037165e-02 3.664538e-03 1.418567e-02
      vertex   -1.002351e-02 4.530914e-03 1.418567e-02
    endloop
  endfacet
  facet normal -8.929259e-01 4.502037e-01 2.890272e-15
    outer loop
      vertex   -1.002351e-02 4.530914e-03 -3.259181e-07
      vertex   -1.002351e-02 4.530914e-03 1.418567e-02
      vertex   -9.603155e-03 5.364644e-03 -3.259181e-07
    endloop
  endfacet
  facet normal -8.929259e-01 4.502037e-01 2.861831e-15
    outer loop
      vertex   -9.603155e-03 5.364644e-03 -3.259181e-07
      vertex   -1.002351e-02 4.530914e-03 1.418567e-02
      vertex   -9.603155e-03 5.364644e-03 1.418567e-02
    endloop
  endfacet
  facet normal -8.515291e-01 5.243073e-01 3.309853e-15
    outer loop
      vertex   -9.603155e-03 5.364644e-03 -3.259181e-07
      vertex   -9.603155e-03 5.364644e-03 1.418567e-02
      vertex   -9.113606e-03 6.159723e-03 -3.259181e-07
    endloop
  endfacet
  facet normal -8.515291e-01 5.243073e-01 3.333953e-15
    outer loop
      vertex   -9.113606e-03 6.159723e-03 -3.259181e-07
      vertex   -9.603155e-03 5.364644e-03 1.418567e-02
      vertex   -9.113606e-03 6.159723e-03 1.418567e-02
    endloop
  endfacet
  facet normal -8.039971e-01 5.946332e-01 3.781140e-15
    outer loop
      vertex   -9.113606e-03 6.159723e-03 -3.259181e-07
      vertex   -9.113606e-03 6.159723e-03 1.418567e-02
      vertex   -8.558393e-03 6.910420e-03 -3.259181e-07
    endloop
  endfacet
  facet normal -8.039971e-01 5.946332e-01 3.832344e-15
    outer loop
      vertex   -8.558393e-03 6.910420e-03 -3.259181e-07
      vertex   -9.113606e-03 6.159723e-03 1.418567e-02
      vertex   -8.558393e-03 6.910420e-03 1.418567e-02
    endloop
  endfacet
  facet normal -7.506723e-01 6.606747e-01 4.223094e-15
    outer loop
      vertex   -8.558393e-03 6.910420e-03 -3.259181e-07
      vertex   -8.558393e-03 6.910420e-03 1.418567e-02
      vertex   -7.941517e-03 7.611328e-03 -3.259181e-07
    endloop
  endfacet
  facet normal -7.506723e-01 6.606747e-01 4.201084e-15
    outer loop
      vertex   -7.941517e-03 7.611328e-03 -3.259181e-07
      vertex   -8.558393e-03 6.910420e-03 1.418567e-02
      vertex   -7.941517e-03 7.611328e-03 1.418567e-02
    endloop
  endfacet
  facet normal -6.919389e-01 7.219561e-01 4.590758e-15
    outer loop
      vertex   -7.941517e-03 7.611328e-03 -3.259181e-07
      vertex   -7.941517e-03 7.611328e-03 1.418567e-02
      vertex   -7.267422e-03 8.257395e-03 -3.259181e-07
    endloop
  endfacet
  facet normal -6.919389e-01 7.219561e-01 4.583417e-15
    outer loop
      vertex   -7.267422e-03 8.257395e-03 -3.259181e-07
      vertex   -7.941517e-03 7.611328e-03 1.418567e-02
      vertex   -7.267422e-03 8.257395e-03 1.418567e-02
    endloop
  endfacet
  facet normal -6.282200e-01 7.780358e-01 4.910716e-15
    outer loop
      vertex   -7.267422e-03 8.257395e-03 -3.259181e-07
      vertex   -7.267422e-03 8.257395e-03 1.418567e-02
      vertex   -6.540965e-03 8.843968e-03 -3.259181e-07
    endloop
  endfacet
  facet normal -6.282200e-01 7.780358e-01 4.983997e-15
    outer loop
      vertex   -6.540965e-03 8.843968e-03 -3.259181e-07
      vertex   -7.267422e-03 8.257395e-03 1.418567e-02
      vertex   -6.540965e-03 8.843968e-03 1.418567e-02
    endloop
  endfacet
  facet normal -5.599748e-01 8.285096e-01 5.333984e-15
    outer loop
      vertex   -6.540965e-03 8.843968e-03 -3.259181e-07
      vertex   -6.540965e-03 8.843968e-03 1.418567e-02
      vertex   -5.767380e-03 9.366821e-03 -3.259181e-07
    endloop
  endfacet
  facet normal -5.599748e-01 8.285096e-01 5.303947e-15
    outer loop
      vertex   -5.767380e-03 9.366821e-03 -3.259181e-07
      vertex   -6.540965e-03 8.843968e-03 1.418567e-02
      vertex   -5.767380e-03 9.366821e-03 1.418567e-02
    endloop
  endfacet
  facet normal -4.876949e-01 8.730141e-01 5.563822e-15
    outer loop
      vertex   -5.767380e-03 9.366821e-03 -3.259181e-07
      vertex   -5.767380e-03 9.366821e-03 1.418567e-02
      vertex   -4.952241e-03 9.822184e-03 -3.259181e-07
    endloop
  endfacet
  facet normal -4.876949e-01 8.730141e-01 5.551303e-15
    outer loop
      vertex   -4.952241e-03 9.822184e-03 -3.259181e-07
      vertex   -5.767380e-03 9.366821e-03 1.418567e-02
      vertex   -4.952241e-03 9.822184e-03 1.418567e-02
    endloop
  endfacet
  facet normal -4.119012e-01 9.112285e-01 5.794299e-15
    outer loop
      vertex   -4.952241e-03 9.822184e-03 -3.259181e-07
      vertex   -4.952241e-03 9.822184e-03 1.418567e-02
      vertex   -4.101421e-03 1.020678e-02 -3.259181e-07
    endloop
  endfacet
  facet normal -4.119012e-01 9.112285e-01 5.905728e-15
    outer loop
      vertex   -4.101421e-03 1.020678e-02 -3.259181e-07
      vertex   -4.952241e-03 9.822184e-03 1.418567e-02
      vertex   -4.101421e-03 1.020678e-02 1.418567e-02
    endloop
  endfacet
  facet normal -3.331398e-01 9.428774e-01 6.110847e-15
    outer loop
      vertex   -4.101421e-03 1.020678e-02 -3.259181e-07
      vertex   -4.101421e-03 1.020678e-02 1.418567e-02
      vertex   -3.221050e-03 1.051783e-02 -3.259181e-07
    endloop
  endfacet
  facet normal -3.331398e-01 9.428774e-01 6.049741e-15
    outer loop
      vertex   -3.221050e-03 1.051783e-02 -3.259181e-07
      vertex   -4.101421e-03 1.020678e-02 1.418567e-02
      vertex   -3.221050e-03 1.051783e-02 1.418567e-02
    endloop
  endfacet
  facet normal -2.519781e-01 9.677329e-01 6.225718e-15
    outer loop
      vertex   -3.221050e-03 1.051783e-02 -3.259181e-07
      vertex   -3.221050e-03 1.051783e-02 1.418567e-02
      vertex   -2.317472e-03 1.075311e-02 -3.259181e-07
    endloop
  endfacet
  facet normal -2.519781e-01 9.677329e-01 6.348969e-15
    outer loop
      vertex   -2.317472e-03 1.075311e-02 -3.259181e-07
      vertex   -3.221050e-03 1.051783e-02 1.418567e-02
      vertex   -2.317472e-03 1.075311e-02 1.418567e-02
    endloop
  endfacet
  facet normal -1.690008e-01 9.856159e-01 6.439503e-15
    outer loop
      vertex   -2.317472e-03 1.075311e-02 -3.259181e-07
      vertex   -2.317472e-03 1.075311e-02 1.418567e-02
      vertex   -1.397196e-03 1.091090e-02 -3.259181e-07
    endloop
  endfacet
  facet normal -1.690008e-01 9.856159e-01 6.321561e-15
    outer loop
      vertex   -1.397196e-03 1.091090e-02 -3.259181e-07
      vertex   -2.317472e-03 1.075311e-02 1.418567e-02
      vertex   -1.397196e-03 1.091090e-02 1.418567e-02
    endloop
  endfacet
  facet normal -8.480592e-02 9.963975e-01 6.363093e-15
    outer loop
      vertex   -1.397196e-03 1.091090e-02 -3.259181e-07
      vertex   -1.397196e-03 1.091090e-02 1.418567e-02
      vertex   -4.668532e-04 1.099009e-02 -3.259181e-07
    endloop
  endfacet
  facet normal -8.480592e-02 9.963975e-01 6.350778e-15
    outer loop
      vertex   -4.668532e-04 1.099009e-02 -3.259181e-07
      vertex   -1.397196e-03 1.091090e-02 1.418567e-02
      vertex   -4.668532e-04 1.099009e-02 1.418567e-02
    endloop
  endfacet
  facet normal -0.000000e+00 1.000000e+00 6.358778e-15
    outer loop
      vertex   -4.668532e-04 1.099009e-02 -3.259181e-07
      vertex   -4.668532e-04 1.099009e-02 1.418567e-02
      vertex   4.668532e-04 1.099009e-02 -3.259181e-07
    endloop
  endfacet
  facet normal 1.857890e-15 1.000000e+00 6.481062e-15
    outer loop
      vertex   4.668532e-04 1.099009e-02 -3.259181e-07
      vertex   -4.668532e-04 1.099009e-02 1.418567e-02
      vertex   4.668532e-04 1.099009e-02 1.418567e-02
    endloop
  endfacet
  facet normal 8.480592e-02 9.963975e-01 6.457714e-15
    outer loop
      vertex   4.668532e-04 1.099009e-02 -3.259181e-07
      vertex   4.668532e-04 1.099009e-02 1.418567e-02
      vertex   1.397196e-03 1.091090e-02 -3.259181e-07
    endloop
  endfacet
  facet normal 8.480592e-02 9.963975e-01 6.350129e-15
    outer loop
      vertex   1.397196e-03 1.091090e-02 -3.259181e-07
      vertex   4.668532e-04 1.099009e-02 1.418567e-02
      vertex   1.397196e-03 1.091090e-02 1.418567e-02
    endloop
  endfacet
  facet normal 1.690008e-01 9.856159e-01 6.295728e-15
    outer loop
      vertex   1.397196e-03 1.091090e-02 -3.259181e-07
      vertex   1.397196e-03 1.091090e-02 1.418567e-02
      vertex   2.317472e-03 1.075311e-02 -3.259181e-07
    endloop
  endfacet
  facet normal 1.690008e-01 9.856159e-01 6.215647e-15
    outer loop
      vertex   2.317472e-03 1.075311e-02 -3.259181e-07
      vertex   1.397196e-03 1.091090e-02 1.418567e-02
      vertex   2.317472e-03 1.075311e-02 1.418567e-02
    endloop
  endfacet
  facet normal 2.519781e-01 9.677329e-01 6.076566e-15
    outer loop
      vertex   2.317472e-03 1.075311e-02 -3.259181e-07
      vertex   2.317472e-03 1.075311e-02 1.418567e-02
      vertex   3.221050e-03 1.051783e-02 -3.259181e-07
    endloop
  endfacet
  facet normal 2.519781e-01 9.677329e-01 6.344056e-15
    outer loop
      vertex   3.221050e-03 1.051783e-02 -3.259181e-07
      vertex   2.317472e-03 1.075311e-02 1.418567e-02
      vertex   3.221050e-03 1.051783e-02 1.418567e-02
    endloop
  endfacet
  facet normal 3.331398e-01 9.428774e-01 6.165040e-15
    outer loop
      vertex   3.221050e-03 1.051783e-02 -3.259181e-07
      vertex   3.221050e-03 1.051783e-02 1.418567e-02
      vertex   4.101421e-03 1.020678e-02 -3.259181e-07
    endloop
  endfacet
  facet normal 3.331398e-01 9.428774e-01 6.110847e-15
    outer loop
      vertex   4.101421e-03 1.020678e-02 -3.259181e-07
      vertex   3.221050e-03 1.051783e-02 1.418567e-02
      vertex   4.101421e-03 1.020678e-02 1.418567e-02
    endloop
  endfacet
  facet normal 4.119012e-01 9.112285e-01 5.905728e-15
    outer loop
      vertex   4.101421e-03 1.020678e-02 -3.259181e-07
      vertex   4.101421e-03 1.020678e-02 1.418567e-02
      vertex   4.952241e-03 9.822184e-03 -3.259181e-07
    endloop
  endfacet
  facet normal 4.119012e-01 9.112285e-01 5.794299e-15
    outer loop
      vertex   4.952241e-03 9.822184e-03 -3.259181e-07
      vertex   4.101421e-03 1.020678e-02 1.418567e-02
      vertex   4.952241e-03 9.822184e-03 1.418567e-02
    endloop
  endfacet
  facet normal 4.876949e-01 8.730141e-01 5.551303e-15
    outer loop
      vertex   4.952241e-03 9.822184e-03 -3.259181e-07
      vertex   4.952241e-03 9.822184e-03 1.418567e-02
      vertex   5.767380e-03 9.366821e-03 -3.259181e-07
    endloop
  endfacet
  facet normal 4.876949e-01 8.730141e-01 5.508965e-15
    outer loop
      vertex   5.767380e-03 9.366821e-03 -3.259181e-07
      vertex   4.952241e-03 9.822184e-03 1.418567e-02
      vertex   5.767380e-03 9.366821e-03 1.418567e-02
    endloop
  endfacet
  facet normal 5.599748e-01 8.285096e-01 5.198432e-15
    outer loop
      vertex   5.767380e-03 9.366821e-03 -3.259181e-07
      vertex   5.767380e-03 9.366821e-03 1.418567e-02
      vertex   6.540965e-03 8.843968e-03 -3.259181e-07
    endloop
  endfacet
  facet normal 5.599748e-01 8.285096e-01 5.232670e-15
    outer loop
      vertex   6.540965e-03 8.843968e-03 -3.259181e-07
      vertex   5.767380e-03 9.366821e-03 1.418567e-02
      vertex   6.540965e-03 8.843968e-03 1.418567e-02
    endloop
  endfacet
  facet normal 6.282200e-01 7.780358e-01 4.888855e-15
    outer loop
      vertex   6.540965e-03 8.843968e-03 -3.259181e-07
      vertex   6.540965e-03 8.843968e-03 1.418567e-02
      vertex   7.267422e-03 8.257395e-03 -3.259181e-07
    endloop
  endfacet
  facet normal 6.282200e-01 7.780358e-01 4.947356e-15
    outer loop
      vertex   7.267422e-03 8.257395e-03 -3.259181e-07
      vertex   6.540965e-03 8.843968e-03 1.418567e-02
      vertex   7.267422e-03 8.257395e-03 1.418567e-02
    endloop
  endfacet
  facet normal 6.919389e-01 7.219561e-01 4.590758e-15
    outer loop
      vertex   7.267422e-03 8.257395e-03 -3.259181e-07
      vertex   7.267422e-03 8.257395e-03 1.418567e-02
      vertex   7.941517e-03 7.611328e-03 -3.259181e-07
    endloop
  endfacet
  facet normal 6.919389e-01 7.219561e-01 4.590758e-15
    outer loop
      vertex   7.941517e-03 7.611328e-03 -3.259181e-07
      vertex   7.267422e-03 8.257395e-03 1.418567e-02
      vertex   7.941517e-03 7.611328e-03 1.418567e-02
    endloop
  endfacet
  facet normal 7.506723e-01 6.606747e-01 4.201084e-15
    outer loop
      vertex   7.941517e-03 7.611328e-03 -3.259181e-07
      vertex   7.941517e-03 7.611328e-03 1.418567e-02
      vertex   8.558393e-03 6.910420e-03 -3.259181e-07
    endloop
  endfacet
  facet normal 7.506723e-01 6.606747e-01 4.201084e-15
    outer loop
      vertex   8.558393e-03 6.910420e-03 -3.259181e-07
      vertex   7.941517e-03 7.611328e-03 1.418567e-02
      vertex   8.558393e-03 6.910420e-03 1.418567e-02
    endloop
  endfacet
  facet normal 8.039971e-01 5.946332e-01 3.781140e-15
    outer loop
      vertex   8.558393e-03 6.910420e-03 -3.259181e-07
      vertex   8.558393e-03 6.910420e-03 1.418567e-02
      vertex   9.113606e-03 6.159723e-03 -3.259181e-07
    endloop
  endfacet
  facet normal 8.039971e-01 5.946332e-01 3.864610e-15
    outer loop
      vertex   9.113606e-03 6.159723e-03 -3.259181e-07
      vertex   8.558393e-03 6.910420e-03 1.418567e-02
      vertex   9.113606e-03 6.159723e-03 1.418567e-02
    endloop
  endfacet
  facet normal 8.515291e-01 5.243073e-01 3.390111e-15
    outer loop
      vertex   9.113606e-03 6.159723e-03 -3.259181e-07
      vertex   9.113606e-03 6.159723e-03 1.418567e-02
      vertex   9.603155e-03 5.364644e-03 -3.259181e-07
    endloop
  endfacet
  facet normal 8.515291e-01 5.243073e-01 3.333953e-15
    outer loop
      vertex   9.603155e-03 5.364644e-03 -3.259181e-07
      vertex   9.113606e-03 6.159723e-03 1.418567e-02
      vertex   9.603155e-03 5.364644e-03 1.418567e-02
    endloop
  endfacet
  facet normal 8.929259e-01 4.502037e-01 2.862746e-15
    outer loop
      vertex   9.603155e-03 5.364644e-03 -3.259181e-07
      vertex   9.603155e-03 5.364644e-03 1.418567e-02
      vertex   1.002351e-02 4.530914e-03 -3.259181e-07
    endloop
  endfacet
  facet normal 8.929259e-01 4.502037e-01 2.862746e-15
    outer loop
      vertex   1.002351e-02 4.530914e-03 -3.259181e-07
      vertex   9.603155e-03 5.364644e-03 1.418567e-02
      vertex   1.002351e-02 4.530914e-03 1.418567e-02
    endloop
  endfacet
  facet normal 9.278890e-01 3.728565e-01 2.370911e-15
    outer loop
      vertex   1.002351e-02 4.530914e-03 -3.259181e-07
      vertex   1.002351e-02 4.530914e-03 1.418567e-02
      vertex   1.037165e-02 3.664538e-03 -3.259181e-07
    endloop
  endfacet
  facet normal 9.278890e-01 3.728565e-01 2.382310e-15
    outer loop
      vertex   1.037165e-02 3.664538e-03 -3.259181e-07
      vertex   1.002351e-02 4.530914e-03 1.418567e-02
      vertex   1.037165e-02 3.664538e-03 1.418567e-02
    endloop
  endfacet
  facet normal 9.561667e-01 2.928228e-01 1.870947e-15
    outer loop
      vertex   1.037165e-02 3.664538e-03 -3.259181e-07
      vertex   1.037165e-02 3.664538e-03 1.418567e-02
      vertex   1.064506e-02 2.771759e-03 -3.259181e-07
    endloop
  endfacet
  facet normal 9.561667e-01 2.928228e-01 1.978370e-15
    outer loop
      vertex   1.064506e-02 2.771759e-03 -3.259181e-07
      vertex   1.037165e-02 3.664538e-03 1.418567e-02
      vertex   1.064506e-02 2.771759e-03 1.418567e-02
    endloop
  endfacet
  facet normal 9.775552e-01 2.106793e-01 1.423392e-15
    outer loop
      vertex   1.064506e-02 2.771759e-03 -3.259181e-07
      vertex   1.064506e-02 2.771759e-03 1.418567e-02
      vertex   1.084178e-02 1.859009e-03 -3.259181e-07
    endloop
  endfacet
  facet normal 9.775552e-01 2.106793e-01 1.294191e-15
    outer loop
      vertex   1.084178e-02 1.859009e-03 -3.259181e-07
      vertex   1.064506e-02 2.771759e-03 1.418567e-02
      vertex   1.084178e-02 1.859009e-03 1.418567e-02
    endloop
  endfacet
  facet normal 9.919004e-01 1.270178e-01 7.310396e-16
    outer loop
      vertex   1.084178e-02 1.859009e-03 -3.259181e-07
      vertex   1.084178e-02 1.859009e-03 1.418567e-02
      vertex   1.096037e-02 9.328652e-04 -3.259181e-07
    endloop
  endfacet
  facet normal 9.919004e-01 1.270178e-01 8.105904e-16
    outer loop
      vertex   1.096037e-02 9.328652e-04 -3.259181e-07
      vertex   1.084178e-02 1.859009e-03 1.418567e-02
      vertex   1.096037e-02 9.328652e-04 1.418567e-02
    endloop
  endfacet
  facet normal 4.414765e-31 -7.438260e-15 1.000000e+00
    outer loop
      vertex   1.096037e-02 9.328652e-04 1.418567e-02
      vertex   -1.096037e-02 9.328652e-04 1.418567e-02
      vertex   1.100000e-02 -8.911019e-17 1.418567e-02
    endloop
  endfacet
  facet normal 4.554621e-31 -7.438260e-15 1.000000e+00
    outer loop
      vertex   1.100000e-02 -8.911019e-17 1.418567e-02
      vertex   -1.096037e-02 9.328652e-04 1.418567e-02
      vertex   -1.100000e-02 -9.045730e-17 1.418567e-02
    endloop
  endfacet
  facet normal 4.554621e-31 -7.438260e-15 1.000000e+00
    outer loop
      vertex   1.100000e-02 -8.911019e-17 1.418567e-02
      vertex   -1.100000e-02 -9.045730e-17 1.418567e-02
      vertex   1.096037e-02 -9.328652e-04 1.418567e-02
    endloop
  endfacet
  facet normal -2.097013e-30 -7.438260e-15 1.000000e+00
    outer loop
      vertex   1.096037e-02 -9.328652e-04 1.418567e-02
      vertex   -1.100000e-02 -9.045730e-17 1.418567e-02
      vertex   -1.096037e-02 -9.328652e-04 1.418567e-02
    endloop
  endfacet
  facet normal -1.584174e-30 -5.619182e-15 1.000000e+00
    outer loop
      vertex   1.096037e-02 -9.328652e-04 1.418567e-02
      vertex   -1.096037e-02 -9.328652e-04 1.418567e-02
      vertex   1.084178e-02 -1.859009e-03 1.418567e-02
    endloop
  endfacet
  facet normal -1.573407e-30 -5.619182e-15 1.000000e+00
    outer loop
      vertex   1.084178e-02 -1.859009e-03 1.418567e-02
      vertex   -1.096037e-02 -9.328652e-04 1.418567e-02
      vertex   -1.084178e-02 -1.859009e-03 1.418567e-02
    endloop
  endfacet
  facet normal -2.128661e-30 -7.602187e-15 1.000000e+00
    outer loop
      vertex   1.084178e-02 -1.859009e-03 1.418567e-02
      vertex   -1.084178e-02 -1.859009e-03 1.418567e-02
      vertex   1.064506e-02 -2.771759e-03 1.418567e-02
    endloop
  endfacet
  facet normal -3.716566e-30 -7.602187e-15 1.000000e+00
    outer loop
      vertex   1.064506e-02 -2.771759e-03 1.418567e-02
      vertex   -1.084178e-02 -1.859009e-03 1.418567e-02
      vertex   -1.064506e-02 -2.771759e-03 1.418567e-02
    endloop
  endfacet
  facet normal -2.849777e-30 -5.829181e-15 1.000000e+00
    outer loop
      vertex   1.064506e-02 -2.771759e-03 1.418567e-02
      vertex   -1.064506e-02 -2.771759e-03 1.418567e-02
      vertex   1.037165e-02 -3.664538e-03 1.418567e-02
    endloop
  endfacet
  facet normal -2.437417e-31 -5.829181e-15 1.000000e+00
    outer loop
      vertex   1.037165e-02 -3.664538e-03 1.418567e-02
      vertex   -1.064506e-02 -2.771759e-03 1.418567e-02
      vertex   -1.037165e-02 -3.664538e-03 1.418567e-02
    endloop
  endfacet
  facet normal -2.511698e-31 -6.006827e-15 1.000000e+00
    outer loop
      vertex   1.037165e-02 -3.664538e-03 1.418567e-02
      vertex   -1.037165e-02 -3.664538e-03 1.418567e-02
      vertex   1.002351e-02 -4.530914e-03 1.418567e-02
    endloop
  endfacet
  facet normal -2.598935e-31 -6.006827e-15 1.000000e+00
    outer loop
      vertex   1.002351e-02 -4.530914e-03 1.418567e-02
      vertex   -1.037165e-02 -3.664538e-03 1.418567e-02
      vertex   -1.002351e-02 -4.530914e-03 1.418567e-02
    endloop
  endfacet
  facet normal -1.800465e-31 -4.161352e-15 1.000000e+00
    outer loop
      vertex   1.002351e-02 -4.530914e-03 1.418567e-02
      vertex   -1.002351e-02 -4.530914e-03 1.418567e-02
      vertex   9.603155e-03 -5.364644e-03 1.418567e-02
    endloop
  endfacet
  facet normal -1.315494e-30 -4.161352e-15 1.000000e+00
    outer loop
      vertex   9.603155e-03 -5.364644e-03 1.418567e-02
      vertex   -1.002351e-02 -4.530914e-03 1.418567e-02
      vertex   -9.603155e-03 -5.364644e-03 1.418567e-02
    endloop
  endfacet
  facet normal -2.758892e-30 -8.727309e-15 1.000000e+00
    outer loop
      vertex   9.603155e-03 -5.364644e-03 1.418567e-02
      vertex   -9.603155e-03 -5.364644e-03 1.418567e-02
      vertex   9.113606e-03 -6.159723e-03 1.418567e-02
    endloop
  endfacet
  facet normal -2.491791e-30 -8.727309e-15 1.000000e+00
    outer loop
      vertex   9.113606e-03 -6.159723e-03 1.418567e-02
      vertex   -9.603155e-03 -5.364644e-03 1.418567e-02
      vertex   -9.113606e-03 -6.159723e-03 1.418567e-02
    endloop
  endfacet
  facet normal -1.979329e-30 -6.932448e-15 1.000000e+00
    outer loop
      vertex   9.113606e-03 -6.159723e-03 1.418567e-02
      vertex   -9.113606e-03 -6.159723e-03 1.418567e-02
      vertex   8.558393e-03 -6.910420e-03 1.418567e-02
    endloop
  endfacet
  facet normal -7.025782e-31 -6.932448e-15 1.000000e+00
    outer loop
      vertex   8.558393e-03 -6.910420e-03 1.418567e-02
      vertex   -9.113606e-03 -6.159723e-03 1.418567e-02
      vertex   -8.558393e-03 -6.910420e-03 1.418567e-02
    endloop
  endfacet
  facet normal -5.016577e-31 -4.949935e-15 1.000000e+00
    outer loop
      vertex   8.558393e-03 -6.910420e-03 1.418567e-02
      vertex   -8.558393e-03 -6.910420e-03 1.418567e-02
      vertex   7.941517e-03 -7.611328e-03 1.418567e-02
    endloop
  endfacet
  facet normal -5.406252e-31 -4.949935e-15 1.000000e+00
    outer loop
      vertex   7.941517e-03 -7.611328e-03 1.418567e-02
      vertex   -8.558393e-03 -6.910420e-03 1.418567e-02
      vertex   -7.941517e-03 -7.611328e-03 1.418567e-02
    endloop
  endfacet
  facet normal -8.797721e-31 -8.055146e-15 1.000000e+00
    outer loop
      vertex   7.941517e-03 -7.611328e-03 1.418567e-02
      vertex   -7.941517e-03 -7.611328e-03 1.418567e-02
      vertex   7.267422e-03 -8.257395e-03 1.418567e-02
    endloop
  endfacet
  facet normal -1.922752e-30 -8.055146e-15 1.000000e+00
    outer loop
      vertex   7.267422e-03 -8.257395e-03 1.418567e-02
      vertex   -7.941517e-03 -7.611328e-03 1.418567e-02
      vertex   -7.267422e-03 -8.257395e-03 1.418567e-02
    endloop
  endfacet
  facet normal -7.059241e-31 -2.957387e-15 1.000000e+00
    outer loop
      vertex   7.267422e-03 -8.257395e-03 1.418567e-02
      vertex   -7.267422e-03 -8.257395e-03 1.418567e-02
      vertex   6.540965e-03 -8.843968e-03 1.418567e-02
    endloop
  endfacet
  facet normal 0.000000e+00 -2.957387e-15 1.000000e+00
    outer loop
      vertex   6.540965e-03 -8.843968e-03 1.418567e-02
      vertex   -7.267422e-03 -8.257395e-03 1.418567e-02
      vertex   -6.540965e-03 -8.843968e-03 1.418567e-02
    endloop
  endfacet
  facet normal 0.000000e+00 -9.953428e-15 1.000000e+00
    outer loop
      vertex   6.540965e-03 -8.843968e-03 1.418567e-02
      vertex   -6.540965e-03 -8.843968e-03 1.418567e-02
      vertex   5.767380e-03 -9.366821e-03 1.418567e-02
    endloop
  endfacet
  facet normal -4.490716e-30 -9.953428e-15 1.000000e+00
    outer loop
      vertex   5.767380e-03 -9.366821e-03 1.418567e-02
      vertex   -6.540965e-03 -8.843968e-03 1.418567e-02
      vertex   -5.767380e-03 -9.366821e-03 1.418567e-02
    endloop
  endfacet
  facet normal -1.718757e-30 -3.809532e-15 1.000000e+00
    outer loop
      vertex   5.767380e-03 -9.366821e-03 1.418567e-02
      vertex   -5.767380e-03 -9.366821e-03 1.418567e-02
      vertex   4.952241e-03 -9.822184e-03 1.418567e-02
    endloop
  endfacet
  facet normal 0.000000e+00 -3.809532e-15 1.000000e+00
    outer loop
      vertex   4.952241e-03 -9.822184e-03 1.418567e-02
      vertex   -5.767380e-03 -9.366821e-03 1.418567e-02
      vertex   -4.952241e-03 -9.822184e-03 1.418567e-02
    endloop
  endfacet
  facet normal 0.000000e+00 -4.510522e-15 1.000000e+00
    outer loop
      vertex   4.952241e-03 -9.822184e-03 1.418567e-02
      vertex   -4.952241e-03 -9.822184e-03 1.418567e-02
      vertex   4.101421e-03 -1.020678e-02 1.418567e-02
    endloop
  endfacet
  facet normal 0.000000e+00 -4.510522e-15 1.000000e+00
    outer loop
      vertex   4.101421e-03 -1.020678e-02 1.418567e-02
      vertex   -4.952241e-03 -9.822184e-03 1.418567e-02
      vertex   -4.101421e-03 -1.020678e-02 1.418567e-02
    endloop
  endfacet
  facet normal 0.000000e+00 -1.115381e-14 1.000000e+00
    outer loop
      vertex   4.101421e-03 -1.020678e-02 1.418567e-02
      vertex   -4.101421e-03 -1.020678e-02 1.418567e-02
      vertex   3.221050e-03 -1.051783e-02 1.418567e-02
    endloop
  endfacet
  facet normal -3.003489e-30 -1.115381e-14 1.000000e+00
    outer loop
      vertex   3.221050e-03 -1.051783e-02 1.418567e-02
      vertex   -4.101421e-03 -1.020678e-02 1.418567e-02
      vertex   -3.221050e-03 -1.051783e-02 1.418567e-02
    endloop
  endfacet
  facet normal -1.985454e-30 -7.373219e-15 1.000000e+00
    outer loop
      vertex   3.221050e-03 -1.051783e-02 1.418567e-02
      vertex   -3.221050e-03 -1.051783e-02 1.418567e-02
      vertex   2.317472e-03 -1.075311e-02 1.418567e-02
    endloop
  endfacet
  facet normal -5.519159e-30 -7.373219e-15 1.000000e+00
    outer loop
      vertex   2.317472e-03 -1.075311e-02 1.418567e-02
      vertex   -3.221050e-03 -1.051783e-02 1.418567e-02
      vertex   -2.317472e-03 -1.075311e-02 1.418567e-02
    endloop
  endfacet
  facet normal 0.000000e+00 0.000000e+00 1.000000e+00
    outer loop
      vertex   2.317472e-03 -1.075311e-02 1.418567e-02
      vertex   -2.317472e-03 -1.075311e-02 1.418567e-02
      vertex   1.397196e-03 -1.091090e-02 1.418567e-02
    endloop
  endfacet
  facet normal 0.000000e+00 0.000000e+00 1.000000e+00
    outer loop
      vertex   1.397196e-03 -1.091090e-02 1.418567e-02
      vertex   -2.317472e-03 -1.075311e-02 1.418567e-02
      vertex   -1.397196e-03 -1.091090e-02 1.418567e-02
    endloop
  endfacet
  facet normal 0.000000e+00 -2.190754e-14 1.000000e+00
    outer loop
      vertex   1.397196e-03 -1.091090e-02 1.418567e-02
      vertex   -1.397196e-03 -1.091090e-02 1.418567e-02
      vertex   4.668532e-04 -1.099009e-02 1.418567e-02
    endloop
  endfacet
  facet normal 0.000000e+00 -2.190754e-14 1.000000e+00
    outer loop
      vertex   4.668532e-04 -1.099009e-02 1.418567e-02
      vertex   -1.397196e-03 -1.091090e-02 1.418567e-02
      vertex   -4.668532e-04 -1.099009e-02 1.418567e-02
    endloop
  endfacet
  facet normal 2.223402e-31 -3.746121e-15 1.000000e+00
    outer loop
      vertex   -1.096037e-02 9.328652e-04 1.418567e-02
      vertex   1.096037e-02 9.328652e-04 1.418567e-02
      vertex   -1.084178e-02 1.859009e-03 1.418567e-02
    endloop
  endfacet
  facet normal 2.247724e-31 -3.746121e-15 1.000000e+00
    outer loop
      vertex   -1.084178e-02 1.859009e-03 1.418567e-02
      vertex   1.096037e-02 9.328652e-04 1.418567e-02
      vertex   1.084178e-02 1.859009e-03 1.418567e-02
    endloop
  endfacet
  facet normal 4.561416e-31 -7.602187e-15 1.000000e+00
    outer loop
      vertex   -1.084178e-02 1.859009e-03 1.418567e-02
      vertex   1.084178e-02 1.859009e-03 1.418567e-02
      vertex   -1.064506e-02 2.771759e-03 1.418567e-02
    endloop
  endfacet
  facet normal 3.097138e-31 -7.602187e-15 1.000000e+00
    outer loop
      vertex   -1.064506e-02 2.771759e-03 1.418567e-02
      vertex   1.084178e-02 1.859009e-03 1.418567e-02
      vertex   1.064506e-02 2.771759e-03 1.418567e-02
    endloop
  endfacet
  facet normal 3.166418e-31 -7.772241e-15 1.000000e+00
    outer loop
      vertex   -1.064506e-02 2.771759e-03 1.418567e-02
      vertex   1.064506e-02 2.771759e-03 1.418567e-02
      vertex   -1.037165e-02 3.664538e-03 1.418567e-02
    endloop
  endfacet
  facet normal 3.249889e-31 -7.772241e-15 1.000000e+00
    outer loop
      vertex   -1.037165e-02 3.664538e-03 1.418567e-02
      vertex   1.064506e-02 2.771759e-03 1.418567e-02
      vertex   1.037165e-02 3.664538e-03 1.418567e-02
    endloop
  endfacet
  facet normal 1.674465e-31 -4.004551e-15 1.000000e+00
    outer loop
      vertex   -1.037165e-02 3.664538e-03 1.418567e-02
      vertex   1.037165e-02 3.664538e-03 1.418567e-02
      vertex   -1.002351e-02 4.530914e-03 1.418567e-02
    endloop
  endfacet
  facet normal 3.465246e-31 -4.004551e-15 1.000000e+00
    outer loop
      vertex   -1.002351e-02 4.530914e-03 1.418567e-02
      vertex   1.037165e-02 3.664538e-03 1.418567e-02
      vertex   1.002351e-02 4.530914e-03 1.418567e-02
    endloop
  endfacet
  facet normal 5.401396e-31 -6.242028e-15 1.000000e+00
    outer loop
      vertex   -1.002351e-02 4.530914e-03 1.418567e-02
      vertex   1.002351e-02 4.530914e-03 1.418567e-02
      vertex   -9.603155e-03 5.364644e-03 1.418567e-02
    endloop
  endfacet
  facet normal 5.637831e-31 -6.242028e-15 1.000000e+00
    outer loop
      vertex   -9.603155e-03 5.364644e-03 1.418567e-02
      vertex   1.002351e-02 4.530914e-03 1.418567e-02
      vertex   9.603155e-03 5.364644e-03 1.418567e-02
    endloop
  endfacet
  facet normal 7.882549e-31 -8.727309e-15 1.000000e+00
    outer loop
      vertex   -9.603155e-03 5.364644e-03 1.418567e-02
      vertex   9.603155e-03 5.364644e-03 1.418567e-02
      vertex   -9.113606e-03 6.159723e-03 1.418567e-02
    endloop
  endfacet
  facet normal 8.305970e-31 -8.727309e-15 1.000000e+00
    outer loop
      vertex   -9.113606e-03 6.159723e-03 1.418567e-02
      vertex   9.603155e-03 5.364644e-03 1.418567e-02
      vertex   9.113606e-03 6.159723e-03 1.418567e-02
    endloop
  endfacet
  facet normal 4.398508e-31 -4.621632e-15 1.000000e+00
    outer loop
      vertex   -9.113606e-03 6.159723e-03 1.418567e-02
      vertex   9.113606e-03 6.159723e-03 1.418567e-02
      vertex   -8.558393e-03 6.910420e-03 1.418567e-02
    endloop
  endfacet
  facet normal -7.025782e-31 -4.621632e-15 1.000000e+00
    outer loop
      vertex   -8.558393e-03 6.910420e-03 1.418567e-02
      vertex   9.113606e-03 6.159723e-03 1.418567e-02
      vertex   8.558393e-03 6.910420e-03 1.418567e-02
    endloop
  endfacet
  facet normal -1.128730e-30 -7.424902e-15 1.000000e+00
    outer loop
      vertex   -8.558393e-03 6.910420e-03 1.418567e-02
      vertex   8.558393e-03 6.910420e-03 1.418567e-02
      vertex   -7.941517e-03 7.611328e-03 1.418567e-02
    endloop
  endfacet
  facet normal 4.054689e-31 -7.424902e-15 1.000000e+00
    outer loop
      vertex   -7.941517e-03 7.611328e-03 1.418567e-02
      vertex   8.558393e-03 6.910420e-03 1.418567e-02
      vertex   7.941517e-03 7.611328e-03 1.418567e-02
    endloop
  endfacet
  facet normal 2.932574e-31 -5.370097e-15 1.000000e+00
    outer loop
      vertex   -7.941517e-03 7.611328e-03 1.418567e-02
      vertex   7.941517e-03 7.611328e-03 1.418567e-02
      vertex   -7.267422e-03 8.257395e-03 1.418567e-02
    endloop
  endfacet
  facet normal 0.000000e+00 -5.370097e-15 1.000000e+00
    outer loop
      vertex   -7.267422e-03 8.257395e-03 1.418567e-02
      vertex   7.941517e-03 7.611328e-03 1.418567e-02
      vertex   7.267422e-03 8.257395e-03 1.418567e-02
    endloop
  endfacet
  facet normal 0.000000e+00 -5.914774e-15 1.000000e+00
    outer loop
      vertex   -7.267422e-03 8.257395e-03 1.418567e-02
      vertex   7.267422e-03 8.257395e-03 1.418567e-02
      vertex   -6.540965e-03 8.843968e-03 1.418567e-02
    endloop
  endfacet
  facet normal 7.843259e-31 -5.914774e-15 1.000000e+00
    outer loop
      vertex   -6.540965e-03 8.843968e-03 1.418567e-02
      vertex   7.267422e-03 8.257395e-03 1.418567e-02
      vertex   6.540965e-03 8.843968e-03 1.418567e-02
    endloop
  endfacet
  facet normal 8.799132e-31 -6.635619e-15 1.000000e+00
    outer loop
      vertex   -6.540965e-03 8.843968e-03 1.418567e-02
      vertex   6.540965e-03 8.843968e-03 1.418567e-02
      vertex   -5.767380e-03 9.366821e-03 1.418567e-02
    endloop
  endfacet
  facet normal 9.979369e-31 -6.635619e-15 1.000000e+00
    outer loop
      vertex   -5.767380e-03 9.366821e-03 1.418567e-02
      vertex   6.540965e-03 8.843968e-03 1.418567e-02
      vertex   5.767380e-03 9.366821e-03 1.418567e-02
    endloop
  endfacet
  facet normal 1.145838e-30 -7.619064e-15 1.000000e+00
    outer loop
      vertex   -5.767380e-03 9.366821e-03 1.418567e-02
      vertex   5.767380e-03 9.366821e-03 1.418567e-02
      vertex   -4.952241e-03 9.822184e-03 1.418567e-02
    endloop
  endfacet
  facet normal 0.000000e+00 -7.619064e-15 1.000000e+00
    outer loop
      vertex   -4.952241e-03 9.822184e-03 1.418567e-02
      vertex   5.767380e-03 9.366821e-03 1.418567e-02
      vertex   4.952241e-03 9.822184e-03 1.418567e-02
    endloop
  endfacet
  facet normal 0.000000e+00 -4.510522e-15 1.000000e+00
    outer loop
      vertex   -4.952241e-03 9.822184e-03 1.418567e-02
      vertex   4.952241e-03 9.822184e-03 1.418567e-02
      vertex   -4.101421e-03 1.020678e-02 1.418567e-02
    endloop
  endfacet
  facet normal 0.000000e+00 -4.510522e-15 1.000000e+00
    outer loop
      vertex   -4.101421e-03 1.020678e-02 1.418567e-02
      vertex   4.952241e-03 9.822184e-03 1.418567e-02
      vertex   4.101421e-03 1.020678e-02 1.418567e-02
    endloop
  endfacet
  facet normal 0.000000e+00 -5.576907e-15 1.000000e+00
    outer loop
      vertex   -4.101421e-03 1.020678e-02 1.418567e-02
      vertex   4.101421e-03 1.020678e-02 1.418567e-02
      vertex   -3.221050e-03 1.051783e-02 1.418567e-02
    endloop
  endfacet
  facet normal 0.000000e+00 -5.576907e-15 1.000000e+00
    outer loop
      vertex   -3.221050e-03 1.051783e-02 1.418567e-02
      vertex   4.101421e-03 1.020678e-02 1.418567e-02
      vertex   3.221050e-03 1.051783e-02 1.418567e-02
    endloop
  endfacet
  facet normal 0.000000e+00 -7.373219e-15 1.000000e+00
    outer loop
      vertex   -3.221050e-03 1.051783e-02 1.418567e-02
      vertex   3.221050e-03 1.051783e-02 1.418567e-02
      vertex   -2.317472e-03 1.075311e-02 1.418567e-02
    endloop
  endfacet
  facet normal 5.519159e-30 -7.373219e-15 1.000000e+00
    outer loop
      vertex   -2.317472e-03 1.075311e-02 1.418567e-02
      vertex   3.221050e-03 1.051783e-02 1.418567e-02
      vertex   2.317472e-03 1.075311e-02 1.418567e-02
    endloop
  endfacet
  facet normal 0.000000e+00 0.000000e+00 1.000000e+00
    outer loop
      vertex   -2.317472e-03 1.075311e-02 1.418567e-02
      vertex   2.317472e-03 1.075311e-02 1.418567e-02
      vertex   -1.397196e-03 1.091090e-02 1.418567e-02
    endloop
  endfacet
  facet normal -0.000000e+00 0.000000e+00 1.000000e+00
    outer loop
      vertex   -1.397196e-03 1.091090e-02 1.418567e-02
      vertex   2.317472e-03 1.075311e-02 1.418567e-02
      vertex   1.397196e-03 1.091090e-02 1.418567e-02
    endloop
  endfacet
  facet normal 0.000000e+00 -4.381509e-14 1.000000e+00
    outer loop
      vertex   -1.397196e-03 1.091090e-02 1.418567e-02
      vertex   1.397196e-03 1.091090e-02 1.418567e-02
      vertex   -4.668532e-04 1.099009e-02 1.418567e-02
    endloop
  endfacet
  facet normal -8.140359e-29 -4.381509e-14 1.000000e+00
    outer loop
      vertex   -4.668532e-04 1.099009e-02 1.418567e-02
      vertex   1.397196e-03 1.091090e-02 1.418567e-02
      vertex   4.668532e-04 1.099009e-02 1.418567e-02
    endloop
  endfacet
  facet normal 4.100066e-31 6.376649e-15 -1.000000e+00
    outer loop
      vertex   1.096037e-02 -9.328652e-04 -3.259181e-07
      vertex   -1.096037e-02 -9.328652e-04 -3.259181e-07
      vertex   1.100000e-02 1.349190e-18 -3.259181e-07
    endloop
  endfacet
  facet normal -3.904571e-31 6.376649e-15 -1.000000e+00
    outer loop
      vertex   1.100000e-02 1.349190e-18 -3.259181e-07
      vertex   -1.096037e-02 -9.328652e-04 -3.259181e-07
      vertex   -1.100000e-02 2.078271e-21 -3.259181e-07
    endloop
  endfacet
  facet normal -3.904537e-31 6.376592e-15 -1.000000e+00
    outer loop
      vertex   1.100000e-02 1.349190e-18 -3.259181e-07
      vertex   -1.100000e-02 2.078271e-21 -3.259181e-07
      vertex   1.096037e-02 9.328652e-04 -3.259181e-07
    endloop
  endfacet
  facet normal -1.766166e-30 6.376592e-15 -1.000000e+00
    outer loop
      vertex   1.096037e-02 9.328652e-04 -3.259181e-07
      vertex   -1.100000e-02 2.078271e-21 -3.259181e-07
      vertex   -1.096037e-02 9.328652e-04 -3.259181e-07
    endloop
  endfacet
  facet normal -1.766192e-30 6.376683e-15 -1.000000e+00
    outer loop
      vertex   1.096037e-02 9.328652e-04 -3.259181e-07
      vertex   -1.096037e-02 9.328652e-04 -3.259181e-07
      vertex   1.084178e-02 1.859009e-03 -3.259181e-07
    endloop
  endfacet
  facet normal -1.785512e-30 6.376683e-15 -1.000000e+00
    outer loop
      vertex   1.084178e-02 1.859009e-03 -3.259181e-07
      vertex   -1.096037e-02 9.328652e-04 -3.259181e-07
      vertex   -1.084178e-02 1.859009e-03 -3.259181e-07
    endloop
  endfacet
  facet normal -1.785518e-30 6.376704e-15 -1.000000e+00
    outer loop
      vertex   1.084178e-02 1.859009e-03 -3.259181e-07
      vertex   -1.084178e-02 1.859009e-03 -3.259181e-07
      vertex   1.064506e-02 2.771759e-03 -3.259181e-07
    endloop
  endfacet
  facet normal -3.247344e-30 6.376704e-15 -1.000000e+00
    outer loop
      vertex   1.064506e-02 2.771759e-03 -3.259181e-07
      vertex   -1.084178e-02 1.859009e-03 -3.259181e-07
      vertex   -1.064506e-02 2.771759e-03 -3.259181e-07
    endloop
  endfacet
  facet normal -3.247329e-30 6.376674e-15 -1.000000e+00
    outer loop
      vertex   1.064506e-02 2.771759e-03 -3.259181e-07
      vertex   -1.064506e-02 2.771759e-03 -3.259181e-07
      vertex   1.037165e-02 3.664538e-03 -3.259181e-07
    endloop
  endfacet
  facet normal -3.999520e-31 6.376674e-15 -1.000000e+00
    outer loop
      vertex   1.037165e-02 3.664538e-03 -3.259181e-07
      vertex   -1.064506e-02 2.771759e-03 -3.259181e-07
      vertex   -1.037165e-02 3.664538e-03 -3.259181e-07
    endloop
  endfacet
  facet normal -3.999493e-31 6.376632e-15 -1.000000e+00
    outer loop
      vertex   1.037165e-02 3.664538e-03 -3.259181e-07
      vertex   -1.037165e-02 3.664538e-03 -3.259181e-07
      vertex   1.002351e-02 4.530914e-03 -3.259181e-07
    endloop
  endfacet
  facet normal -2.758936e-31 6.376632e-15 -1.000000e+00
    outer loop
      vertex   1.002351e-02 4.530914e-03 -3.259181e-07
      vertex   -1.037165e-02 3.664538e-03 -3.259181e-07
      vertex   -1.002351e-02 4.530914e-03 -3.259181e-07
    endloop
  endfacet
  facet normal -2.758968e-31 6.376706e-15 -1.000000e+00
    outer loop
      vertex   1.002351e-02 4.530914e-03 -3.259181e-07
      vertex   -1.002351e-02 4.530914e-03 -3.259181e-07
      vertex   9.603155e-03 5.364644e-03 -3.259181e-07
    endloop
  endfacet
  facet normal -1.727842e-30 6.376706e-15 -1.000000e+00
    outer loop
      vertex   9.603155e-03 5.364644e-03 -3.259181e-07
      vertex   -1.002351e-02 4.530914e-03 -3.259181e-07
      vertex   -9.603155e-03 5.364644e-03 -3.259181e-07
    endloop
  endfacet
  facet normal -1.727820e-30 6.376625e-15 -1.000000e+00
    outer loop
      vertex   9.603155e-03 5.364644e-03 -3.259181e-07
      vertex   -9.603155e-03 5.364644e-03 -3.259181e-07
      vertex   9.113606e-03 6.159723e-03 -3.259181e-07
    endloop
  endfacet
  facet normal -2.124070e-30 6.376625e-15 -1.000000e+00
    outer loop
      vertex   9.113606e-03 6.159723e-03 -3.259181e-07
      vertex   -9.603155e-03 5.364644e-03 -3.259181e-07
      vertex   -9.113606e-03 6.159723e-03 -3.259181e-07
    endloop
  endfacet
  facet normal -2.124088e-30 6.376676e-15 -1.000000e+00
    outer loop
      vertex   9.113606e-03 6.159723e-03 -3.259181e-07
      vertex   -9.113606e-03 6.159723e-03 -3.259181e-07
      vertex   8.558393e-03 6.910420e-03 -3.259181e-07
    endloop
  endfacet
  facet normal -3.231264e-31 6.376676e-15 -1.000000e+00
    outer loop
      vertex   8.558393e-03 6.910420e-03 -3.259181e-07
      vertex   -9.113606e-03 6.159723e-03 -3.259181e-07
      vertex   -8.558393e-03 6.910420e-03 -3.259181e-07
    endloop
  endfacet
  facet normal -3.231274e-31 6.376697e-15 -1.000000e+00
    outer loop
      vertex   8.558393e-03 6.910420e-03 -3.259181e-07
      vertex   -8.558393e-03 6.910420e-03 -3.259181e-07
      vertex   7.941517e-03 7.611328e-03 -3.259181e-07
    endloop
  endfacet
  facet normal -3.482271e-31 6.376697e-15 -1.000000e+00
    outer loop
      vertex   7.941517e-03 7.611328e-03 -3.259181e-07
      vertex   -8.558393e-03 6.910420e-03 -3.259181e-07
      vertex   -7.941517e-03 7.611328e-03 -3.259181e-07
    endloop
  endfacet
  facet normal -3.482208e-31 6.376581e-15 -1.000000e+00
    outer loop
      vertex   7.941517e-03 7.611328e-03 -3.259181e-07
      vertex   -7.941517e-03 7.611328e-03 -3.259181e-07
      vertex   7.267422e-03 8.257395e-03 -3.259181e-07
    endloop
  endfacet
  facet normal -1.522081e-30 6.376581e-15 -1.000000e+00
    outer loop
      vertex   7.267422e-03 8.257395e-03 -3.259181e-07
      vertex   -7.941517e-03 7.611328e-03 -3.259181e-07
      vertex   -7.267422e-03 8.257395e-03 -3.259181e-07
    endloop
  endfacet
  facet normal -1.522127e-30 6.376775e-15 -1.000000e+00
    outer loop
      vertex   7.267422e-03 8.257395e-03 -3.259181e-07
      vertex   -7.267422e-03 8.257395e-03 -3.259181e-07
      vertex   6.540965e-03 8.843968e-03 -3.259181e-07
    endloop
  endfacet
  facet normal 0.000000e+00 6.376775e-15 -1.000000e+00
    outer loop
      vertex   6.540965e-03 8.843968e-03 -3.259181e-07
      vertex   -7.267422e-03 8.257395e-03 -3.259181e-07
      vertex   -6.540965e-03 8.843968e-03 -3.259181e-07
    endloop
  endfacet
  facet normal 0.000000e+00 6.376617e-15 -1.000000e+00
    outer loop
      vertex   6.540965e-03 8.843968e-03 -3.259181e-07
      vertex   -6.540965e-03 8.843968e-03 -3.259181e-07
      vertex   5.767380e-03 9.366821e-03 -3.259181e-07
    endloop
  endfacet
  facet normal -2.876956e-30 6.376617e-15 -1.000000e+00
    outer loop
      vertex   5.767380e-03 9.366821e-03 -3.259181e-07
      vertex   -6.540965e-03 8.843968e-03 -3.259181e-07
      vertex   -5.767380e-03 9.366821e-03 -3.259181e-07
    endloop
  endfacet
  facet normal -2.877009e-30 6.376734e-15 -1.000000e+00
    outer loop
      vertex   5.767380e-03 9.366821e-03 -3.259181e-07
      vertex   -5.767380e-03 9.366821e-03 -3.259181e-07
      vertex   4.952241e-03 9.822184e-03 -3.259181e-07
    endloop
  endfacet
  facet normal 0.000000e+00 6.376734e-15 -1.000000e+00
    outer loop
      vertex   4.952241e-03 9.822184e-03 -3.259181e-07
      vertex   -5.767380e-03 9.366821e-03 -3.259181e-07
      vertex   -4.952241e-03 9.822184e-03 -3.259181e-07
    endloop
  endfacet
  facet normal 0.000000e+00 6.376508e-15 -1.000000e+00
    outer loop
      vertex   4.952241e-03 9.822184e-03 -3.259181e-07
      vertex   -4.952241e-03 9.822184e-03 -3.259181e-07
      vertex   4.101421e-03 1.020678e-02 -3.259181e-07
    endloop
  endfacet
  facet normal 0.000000e+00 6.376508e-15 -1.000000e+00
    outer loop
      vertex   4.101421e-03 1.020678e-02 -3.259181e-07
      vertex   -4.952241e-03 9.822184e-03 -3.259181e-07
      vertex   -4.101421e-03 1.020678e-02 -3.259181e-07
    endloop
  endfacet
  facet normal 0.000000e+00 6.376647e-15 -1.000000e+00
    outer loop
      vertex   4.101421e-03 1.020678e-02 -3.259181e-07
      vertex   -4.101421e-03 1.020678e-02 -3.259181e-07
      vertex   3.221050e-03 1.051783e-02 -3.259181e-07
    endloop
  endfacet
  facet normal -1.717098e-30 6.376647e-15 -1.000000e+00
    outer loop
      vertex   3.221050e-03 1.051783e-02 -3.259181e-07
      vertex   -4.101421e-03 1.020678e-02 -3.259181e-07
      vertex   -3.221050e-03 1.051783e-02 -3.259181e-07
    endloop
  endfacet
  facet normal -1.717096e-30 6.376638e-15 -1.000000e+00
    outer loop
      vertex   3.221050e-03 1.051783e-02 -3.259181e-07
      vertex   -3.221050e-03 1.051783e-02 -3.259181e-07
      vertex   2.317472e-03 1.075311e-02 -3.259181e-07
    endloop
  endfacet
  facet normal -2.386588e-30 6.376638e-15 -1.000000e+00
    outer loop
      vertex   2.317472e-03 1.075311e-02 -3.259181e-07
      vertex   -3.221050e-03 1.051783e-02 -3.259181e-07
      vertex   -2.317472e-03 1.075311e-02 -3.259181e-07
    endloop
  endfacet
  facet normal -2.386730e-30 6.377017e-15 -1.000000e+00
    outer loop
      vertex   2.317472e-03 1.075311e-02 -3.259181e-07
      vertex   -2.317472e-03 1.075311e-02 -3.259181e-07
      vertex   1.397196e-03 1.091090e-02 -3.259181e-07
    endloop
  endfacet
  facet normal 0.000000e+00 6.377017e-15 -1.000000e+00
    outer loop
      vertex   1.397196e-03 1.091090e-02 -3.259181e-07
      vertex   -2.317472e-03 1.075311e-02 -3.259181e-07
      vertex   -1.397196e-03 1.091090e-02 -3.259181e-07
    endloop
  endfacet
  facet normal 0.000000e+00 6.376775e-15 -1.000000e+00
    outer loop
      vertex   1.397196e-03 1.091090e-02 -3.259181e-07
      vertex   -1.397196e-03 1.091090e-02 -3.259181e-07
      vertex   4.668532e-04 1.099009e-02 -3.259181e-07
    endloop
  endfacet
  facet normal 0.000000e+00 6.376775e-15 -1.000000e+00
    outer loop
      vertex   4.668532e-04 1.099009e-02 -3.259181e-07
      vertex   -1.397196e-03 1.091090e-02 -3.259181e-07
      vertex   -4.668532e-04 1.099009e-02 -3.259181e-07
    endloop
  endfacet
  facet normal 4.100088e-31 6.376683e-15 -1.000000e+00
    outer loop
      vertex   -1.096037e-02 -9.328652e-04 -3.259181e-07
      vertex   1.096037e-02 -9.328652e-04 -3.259181e-07
      vertex   -1.084178e-02 -1.859009e-03 -3.259181e-07
    endloop
  endfacet
  facet normal 4.463779e-31 6.376683e-15 -1.000000e+00
    outer loop
      vertex   -1.084178e-02 -1.859009e-03 -3.259181e-07
      vertex   1.096037e-02 -9.328652e-04 -3.259181e-07
      vertex   1.084178e-02 -1.859009e-03 -3.259181e-07
    endloop
  endfacet
  facet normal 4.463794e-31 6.376704e-15 -1.000000e+00
    outer loop
      vertex   -1.084178e-02 -1.859009e-03 -3.259181e-07
      vertex   1.084178e-02 -1.859009e-03 -3.259181e-07
      vertex   -1.064506e-02 -2.771759e-03 -3.259181e-07
    endloop
  endfacet
  facet normal 2.597875e-31 6.376704e-15 -1.000000e+00
    outer loop
      vertex   -1.064506e-02 -2.771759e-03 -3.259181e-07
      vertex   1.084178e-02 -1.859009e-03 -3.259181e-07
      vertex   1.064506e-02 -2.771759e-03 -3.259181e-07
    endloop
  endfacet
  facet normal 2.597863e-31 6.376674e-15 -1.000000e+00
    outer loop
      vertex   -1.064506e-02 -2.771759e-03 -3.259181e-07
      vertex   1.064506e-02 -2.771759e-03 -3.259181e-07
      vertex   -1.037165e-02 -3.664538e-03 -3.259181e-07
    endloop
  endfacet
  facet normal 3.999520e-31 6.376674e-15 -1.000000e+00
    outer loop
      vertex   -1.037165e-02 -3.664538e-03 -3.259181e-07
      vertex   1.064506e-02 -2.771759e-03 -3.259181e-07
      vertex   1.037165e-02 -3.664538e-03 -3.259181e-07
    endloop
  endfacet
  facet normal 3.999493e-31 6.376632e-15 -1.000000e+00
    outer loop
      vertex   -1.037165e-02 -3.664538e-03 -3.259181e-07
      vertex   1.037165e-02 -3.664538e-03 -3.259181e-07
      vertex   -1.002351e-02 -4.530914e-03 -3.259181e-07
    endloop
  endfacet
  facet normal 2.758936e-31 6.376632e-15 -1.000000e+00
    outer loop
      vertex   -1.002351e-02 -4.530914e-03 -3.259181e-07
      vertex   1.037165e-02 -3.664538e-03 -3.259181e-07
      vertex   1.002351e-02 -4.530914e-03 -3.259181e-07
    endloop
  endfacet
  facet normal 2.758968e-31 6.376706e-15 -1.000000e+00
    outer loop
      vertex   -1.002351e-02 -4.530914e-03 -3.259181e-07
      vertex   1.002351e-02 -4.530914e-03 -3.259181e-07
      vertex   -9.603155e-03 -5.364644e-03 -3.259181e-07
    endloop
  endfacet
  facet normal 8.639209e-31 6.376706e-15 -1.000000e+00
    outer loop
      vertex   -9.603155e-03 -5.364644e-03 -3.259181e-07
      vertex   1.002351e-02 -4.530914e-03 -3.259181e-07
      vertex   9.603155e-03 -5.364644e-03 -3.259181e-07
    endloop
  endfacet
  facet normal 8.639099e-31 6.376625e-15 -1.000000e+00
    outer loop
      vertex   -9.603155e-03 -5.364644e-03 -3.259181e-07
      vertex   9.603155e-03 -5.364644e-03 -3.259181e-07
      vertex   -9.113606e-03 -6.159723e-03 -3.259181e-07
    endloop
  endfacet
  facet normal 3.034386e-31 6.376625e-15 -1.000000e+00
    outer loop
      vertex   -9.113606e-03 -6.159723e-03 -3.259181e-07
      vertex   9.603155e-03 -5.364644e-03 -3.259181e-07
      vertex   9.113606e-03 -6.159723e-03 -3.259181e-07
    endloop
  endfacet
  facet normal 3.034411e-31 6.376676e-15 -1.000000e+00
    outer loop
      vertex   -9.113606e-03 -6.159723e-03 -3.259181e-07
      vertex   9.113606e-03 -6.159723e-03 -3.259181e-07
      vertex   -8.558393e-03 -6.910420e-03 -3.259181e-07
    endloop
  endfacet
  facet normal -6.462527e-31 6.376676e-15 -1.000000e+00
    outer loop
      vertex   -8.558393e-03 -6.910420e-03 -3.259181e-07
      vertex   9.113606e-03 -6.159723e-03 -3.259181e-07
      vertex   8.558393e-03 -6.910420e-03 -3.259181e-07
    endloop
  endfacet
  facet normal -6.462548e-31 6.376697e-15 -1.000000e+00
    outer loop
      vertex   -8.558393e-03 -6.910420e-03 -3.259181e-07
      vertex   8.558393e-03 -6.910420e-03 -3.259181e-07
      vertex   -7.941517e-03 -7.611328e-03 -3.259181e-07
    endloop
  endfacet
  facet normal 3.482271e-31 6.376697e-15 -1.000000e+00
    outer loop
      vertex   -7.941517e-03 -7.611328e-03 -3.259181e-07
      vertex   8.558393e-03 -6.910420e-03 -3.259181e-07
      vertex   7.941517e-03 -7.611328e-03 -3.259181e-07
    endloop
  endfacet
  facet normal 3.482208e-31 6.376581e-15 -1.000000e+00
    outer loop
      vertex   -7.941517e-03 -7.611328e-03 -3.259181e-07
      vertex   7.941517e-03 -7.611328e-03 -3.259181e-07
      vertex   -7.267422e-03 -8.257395e-03 -3.259181e-07
    endloop
  endfacet
  facet normal 0.000000e+00 6.376581e-15 -1.000000e+00
    outer loop
      vertex   -7.267422e-03 -8.257395e-03 -3.259181e-07
      vertex   7.941517e-03 -7.611328e-03 -3.259181e-07
      vertex   7.267422e-03 -8.257395e-03 -3.259181e-07
    endloop
  endfacet
  facet normal 0.000000e+00 6.376775e-15 -1.000000e+00
    outer loop
      vertex   -7.267422e-03 -8.257395e-03 -3.259181e-07
      vertex   7.267422e-03 -8.257395e-03 -3.259181e-07
      vertex   -6.540965e-03 -8.843968e-03 -3.259181e-07
    endloop
  endfacet
  facet normal 8.455894e-31 6.376775e-15 -1.000000e+00
    outer loop
      vertex   -6.540965e-03 -8.843968e-03 -3.259181e-07
      vertex   7.267422e-03 -8.257395e-03 -3.259181e-07
      vertex   6.540965e-03 -8.843968e-03 -3.259181e-07
    endloop
  endfacet
  facet normal 8.455685e-31 6.376617e-15 -1.000000e+00
    outer loop
      vertex   -6.540965e-03 -8.843968e-03 -3.259181e-07
      vertex   6.540965e-03 -8.843968e-03 -3.259181e-07
      vertex   -5.767380e-03 -9.366821e-03 -3.259181e-07
    endloop
  endfacet
  facet normal 9.589855e-31 6.376617e-15 -1.000000e+00
    outer loop
      vertex   -5.767380e-03 -9.366821e-03 -3.259181e-07
      vertex   6.540965e-03 -8.843968e-03 -3.259181e-07
      vertex   5.767380e-03 -9.366821e-03 -3.259181e-07
    endloop
  endfacet
  facet normal 9.590031e-31 6.376734e-15 -1.000000e+00
    outer loop
      vertex   -5.767380e-03 -9.366821e-03 -3.259181e-07
      vertex   5.767380e-03 -9.366821e-03 -3.259181e-07
      vertex   -4.952241e-03 -9.822184e-03 -3.259181e-07
    endloop
  endfacet
  facet normal 0.000000e+00 6.376734e-15 -1.000000e+00
    outer loop
      vertex   -4.952241e-03 -9.822184e-03 -3.259181e-07
      vertex   5.767380e-03 -9.366821e-03 -3.259181e-07
      vertex   4.952241e-03 -9.822184e-03 -3.259181e-07
    endloop
  endfacet
  facet normal 0.000000e+00 6.376508e-15 -1.000000e+00
    outer loop
      vertex   -4.952241e-03 -9.822184e-03 -3.259181e-07
      vertex   4.952241e-03 -9.822184e-03 -3.259181e-07
      vertex   -4.101421e-03 -1.020678e-02 -3.259181e-07
    endloop
  endfacet
  facet normal 0.000000e+00 6.376508e-15 -1.000000e+00
    outer loop
      vertex   -4.101421e-03 -1.020678e-02 -3.259181e-07
      vertex   4.952241e-03 -9.822184e-03 -3.259181e-07
      vertex   4.101421e-03 -1.020678e-02 -3.259181e-07
    endloop
  endfacet
  facet normal 0.000000e+00 6.376647e-15 -1.000000e+00
    outer loop
      vertex   -4.101421e-03 -1.020678e-02 -3.259181e-07
      vertex   4.101421e-03 -1.020678e-02 -3.259181e-07
      vertex   -3.221050e-03 -1.051783e-02 -3.259181e-07
    endloop
  endfacet
  facet normal 0.000000e+00 6.376647e-15 -1.000000e+00
    outer loop
      vertex   -3.221050e-03 -1.051783e-02 -3.259181e-07
      vertex   4.101421e-03 -1.020678e-02 -3.259181e-07
      vertex   3.221050e-03 -1.051783e-02 -3.259181e-07
    endloop
  endfacet
  facet normal 0.000000e+00 6.376638e-15 -1.000000e+00
    outer loop
      vertex   -3.221050e-03 -1.051783e-02 -3.259181e-07
      vertex   3.221050e-03 -1.051783e-02 -3.259181e-07
      vertex   -2.317472e-03 -1.075311e-02 -3.259181e-07
    endloop
  endfacet
  facet normal 2.386588e-30 6.376638e-15 -1.000000e+00
    outer loop
      vertex   -2.317472e-03 -1.075311e-02 -3.259181e-07
      vertex   3.221050e-03 -1.051783e-02 -3.259181e-07
      vertex   2.317472e-03 -1.075311e-02 -3.259181e-07
    endloop
  endfacet
  facet normal 2.386730e-30 6.377017e-15 -1.000000e+00
    outer loop
      vertex   -2.317472e-03 -1.075311e-02 -3.259181e-07
      vertex   2.317472e-03 -1.075311e-02 -3.259181e-07
      vertex   -1.397196e-03 -1.091090e-02 -3.259181e-07
    endloop
  endfacet
  facet normal 0.000000e+00 6.377017e-15 -1.000000e+00
    outer loop
      vertex   -1.397196e-03 -1.091090e-02 -3.259181e-07
      vertex   2.317472e-03 -1.075311e-02 -3.259181e-07
      vertex   1.397196e-03 -1.091090e-02 -3.259181e-07
    endloop
  endfacet
  facet normal 0.000000e+00 6.376106e-15 -1.000000e+00
    outer loop
      vertex   -1.397196e-03 -1.091090e-02 -3.259181e-07
      vertex   1.397196e-03 -1.091090e-02 -3.259181e-07
      vertex   -4.668532e-04 -1.099009e-02 -3.259181e-07
    endloop
  endfacet
  facet normal -1.184610e-29 6.376106e-15 -1.000000e+00
    outer loop
      vertex   -4.668532e-04 -1.099009e-02 -3.259181e-07
      vertex   1.397196e-03 -1.091090e-02 -3.259181e-07
      vertex   4.668532e-04 -1.099009e-02 -3.259181e-07
    endloop
  endfacet
endsolid
