solid ASCII
  facet normal 0.000000e+00 -0.000000e+00 -1.000000e+00
    outer loop
      vertex   -8.002591e-03 5.395852e-04 -2.481433e-02
      vertex   -8.002591e-03 -1.697710e-02 -2.481433e-02
      vertex   -3.269554e-02 -4.714058e-02 -2.481433e-02
    endloop
  endfacet
  facet normal 0.000000e+00 0.000000e+00 -1.000000e+00
    outer loop
      vertex   -3.269554e-02 -4.714058e-02 -2.481433e-02
      vertex   -8.002591e-03 -1.697710e-02 -2.481433e-02
      vertex   1.997410e-03 -1.697710e-02 -2.481433e-02
    endloop
  endfacet
  facet normal 0.000000e+00 0.000000e+00 -1.000000e+00
    outer loop
      vertex   -3.269554e-02 -4.714058e-02 -2.481433e-02
      vertex   1.997410e-03 -1.697710e-02 -2.481433e-02
      vertex   3.430446e-02 -4.714058e-02 -2.481433e-02
    endloop
  endfacet
  facet normal 0.000000e+00 0.000000e+00 -1.000000e+00
    outer loop
      vertex   3.430446e-02 -4.714058e-02 -2.481433e-02
      vertex   1.997410e-03 -1.697710e-02 -2.481433e-02
      vertex   3.430446e-02 3.085942e-02 -2.481433e-02
    endloop
  endfacet
  facet normal 0.000000e+00 0.000000e+00 -1.000000e+00
    outer loop
      vertex   3.430446e-02 3.085942e-02 -2.481433e-02
      vertex   1.997410e-03 -1.697710e-02 -2.481433e-02
      vertex   1.997410e-03 9.483857e-03 -2.481433e-02
    endloop
  endfacet
  facet normal 0.000000e+00 0.000000e+00 -1.000000e+00
    outer loop
      vertex   3.430446e-02 3.085942e-02 -2.481433e-02
      vertex   1.997410e-03 9.483857e-03 -2.481433e-02
      vertex   9.181057e-04 9.539236e-03 -2.481433e-02
    endloop
  endfacet
  facet normal -0.000000e+00 0.000000e+00 -1.000000e+00
    outer loop
      vertex   3.430446e-02 3.085942e-02 -2.481433e-02
      vertex   9.181057e-04 9.539236e-03 -2.481433e-02
      vertex   -3.269554e-02 3.085942e-02 -2.481433e-02
    endloop
  endfacet
  facet normal 0.000000e+00 0.000000e+00 -1.000000e+00
    outer loop
      vertex   -3.269554e-02 3.085942e-02 -2.481433e-02
      vertex   9.181057e-04 9.539236e-03 -2.481433e-02
      vertex   -1.600547e-04 9.464846e-03 -2.481433e-02
    endloop
  endfacet
  facet normal 0.000000e+00 0.000000e+00 -1.000000e+00
    outer loop
      vertex   -3.269554e-02 3.085942e-02 -2.481433e-02
      vertex   -1.600547e-04 9.464846e-03 -2.481433e-02
      vertex   -1.221525e-03 9.261760e-03 -2.481433e-02
    endloop
  endfacet
  facet normal -0.000000e+00 0.000000e+00 -1.000000e+00
    outer loop
      vertex   -1.221525e-03 9.261760e-03 -2.481433e-02
      vertex   -2.251000e-03 8.932906e-03 -2.481433e-02
      vertex   -3.269554e-02 3.085942e-02 -2.481433e-02
    endloop
  endfacet
  facet normal 0.000000e+00 0.000000e+00 -1.000000e+00
    outer loop
      vertex   -3.269554e-02 3.085942e-02 -2.481433e-02
      vertex   -2.251000e-03 8.932906e-03 -2.481433e-02
      vertex   -3.233636e-03 8.483027e-03 -2.481433e-02
    endloop
  endfacet
  facet normal 0.000000e+00 0.000000e+00 -1.000000e+00
    outer loop
      vertex   -3.269554e-02 3.085942e-02 -2.481433e-02
      vertex   -3.233636e-03 8.483027e-03 -2.481433e-02
      vertex   -4.155262e-03 7.918608e-03 -2.481433e-02
    endloop
  endfacet
  facet normal -0.000000e+00 0.000000e+00 -1.000000e+00
    outer loop
      vertex   -4.155262e-03 7.918608e-03 -2.481433e-02
      vertex   -5.002591e-03 7.247790e-03 -2.481433e-02
      vertex   -3.269554e-02 3.085942e-02 -2.481433e-02
    endloop
  endfacet
  facet normal 0.000000e+00 0.000000e+00 -1.000000e+00
    outer loop
      vertex   -3.269554e-02 3.085942e-02 -2.481433e-02
      vertex   -5.002591e-03 7.247790e-03 -2.481433e-02
      vertex   -5.763404e-03 6.480243e-03 -2.481433e-02
    endloop
  endfacet
  facet normal 0.000000e+00 0.000000e+00 -1.000000e+00
    outer loop
      vertex   -3.269554e-02 3.085942e-02 -2.481433e-02
      vertex   -5.763404e-03 6.480243e-03 -2.481433e-02
      vertex   -6.426730e-03 5.627036e-03 -2.481433e-02
    endloop
  endfacet
  facet normal -0.000000e+00 0.000000e+00 -1.000000e+00
    outer loop
      vertex   -6.426730e-03 5.627036e-03 -2.481433e-02
      vertex   -6.983006e-03 4.700472e-03 -2.481433e-02
      vertex   -3.269554e-02 3.085942e-02 -2.481433e-02
    endloop
  endfacet
  facet normal 0.000000e+00 0.000000e+00 -1.000000e+00
    outer loop
      vertex   -3.269554e-02 3.085942e-02 -2.481433e-02
      vertex   -6.983006e-03 4.700472e-03 -2.481433e-02
      vertex   -7.424210e-03 3.713911e-03 -2.481433e-02
    endloop
  endfacet
  facet normal 0.000000e+00 0.000000e+00 -1.000000e+00
    outer loop
      vertex   -3.269554e-02 3.085942e-02 -2.481433e-02
      vertex   -7.424210e-03 3.713911e-03 -2.481433e-02
      vertex   -7.743979e-03 2.681578e-03 -2.481433e-02
    endloop
  endfacet
  facet normal -0.000000e+00 0.000000e+00 -1.000000e+00
    outer loop
      vertex   -7.743979e-03 2.681578e-03 -2.481433e-02
      vertex   -7.937704e-03 1.618359e-03 -2.481433e-02
      vertex   -3.269554e-02 3.085942e-02 -2.481433e-02
    endloop
  endfacet
  facet normal 0.000000e+00 0.000000e+00 -1.000000e+00
    outer loop
      vertex   -3.269554e-02 3.085942e-02 -2.481433e-02
      vertex   -7.937704e-03 1.618359e-03 -2.481433e-02
      vertex   -8.002591e-03 5.395852e-04 -2.481433e-02
    endloop
  endfacet
  facet normal 0.000000e+00 0.000000e+00 -1.000000e+00
    outer loop
      vertex   -3.269554e-02 3.085942e-02 -2.481433e-02
      vertex   -8.002591e-03 5.395852e-04 -2.481433e-02
      vertex   -3.269554e-02 -4.714058e-02 -2.481433e-02
    endloop
  endfacet
endsolid
