solid ASCII
  facet normal 5.735764e-01 -8.191521e-01 0.000000e+00
    outer loop
      vertex   -2.478105e-02 -1.757034e-02 7.413686e-03
      vertex   -1.742897e-02 -1.242236e-02 8.724001e-03
      vertex   -2.478105e-02 -1.757034e-02 9.685674e-03
    endloop
  endfacet
  facet normal 5.735764e-01 -8.191521e-01 -1.291200e-07
    outer loop
      vertex   -2.478105e-02 -1.757034e-02 9.685674e-03
      vertex   -1.742897e-02 -1.242236e-02 8.724001e-03
      vertex   -1.747843e-02 -1.245699e-02 9.425527e-03
    endloop
  endfacet
  facet normal 5.735764e-01 -8.191521e-01 0.000000e+00
    outer loop
      vertex   -2.478105e-02 -1.757034e-02 9.685674e-03
      vertex   -1.747843e-02 -1.245699e-02 9.425527e-03
      vertex   -1.747843e-02 -1.245699e-02 9.685674e-03
    endloop
  endfacet
  facet normal 5.735762e-01 -8.191522e-01 1.319869e-06
    outer loop
      vertex   -2.478105e-02 -1.757034e-02 7.413686e-03
      vertex   -2.436946e-02 -1.728214e-02 6.868944e-03
      vertex   -1.742897e-02 -1.242236e-02 8.724001e-03
    endloop
  endfacet
  facet normal 5.735767e-01 -8.191519e-01 -1.112799e-06
    outer loop
      vertex   -1.742897e-02 -1.242236e-02 8.724001e-03
      vertex   -2.436946e-02 -1.728214e-02 6.868944e-03
      vertex   -1.728158e-02 -1.231915e-02 8.036353e-03
    endloop
  endfacet
  facet normal 5.735768e-01 -8.191518e-01 -1.944185e-06
    outer loop
      vertex   -1.728158e-02 -1.231915e-02 8.036353e-03
      vertex   -2.436946e-02 -1.728214e-02 6.868944e-03
      vertex   -2.392639e-02 -1.697190e-02 6.349491e-03
    endloop
  endfacet
  facet normal 5.735761e-01 -8.191523e-01 1.841113e-06
    outer loop
      vertex   -1.728158e-02 -1.231915e-02 8.036353e-03
      vertex   -2.392639e-02 -1.697190e-02 6.349491e-03
      vertex   -2.345337e-02 -1.664069e-02 5.857144e-03
    endloop
  endfacet
  facet normal 5.735762e-01 -8.191522e-01 1.508622e-06
    outer loop
      vertex   -1.728158e-02 -1.231915e-02 8.036353e-03
      vertex   -2.345337e-02 -1.664069e-02 5.857144e-03
      vertex   -1.703916e-02 -1.214940e-02 7.376188e-03
    endloop
  endfacet
  facet normal 5.735767e-01 -8.191518e-01 -1.874492e-06
    outer loop
      vertex   -1.703916e-02 -1.214940e-02 7.376188e-03
      vertex   -2.345337e-02 -1.664069e-02 5.857144e-03
      vertex   -2.295208e-02 -1.628968e-02 5.393625e-03
    endloop
  endfacet
  facet normal 5.735763e-01 -8.191522e-01 3.226894e-07
    outer loop
      vertex   -1.703916e-02 -1.214940e-02 7.376188e-03
      vertex   -2.295208e-02 -1.628968e-02 5.393625e-03
      vertex   -2.242425e-02 -1.592009e-02 4.960557e-03
    endloop
  endfacet
  facet normal 5.735765e-01 -8.191520e-01 -4.283631e-07
    outer loop
      vertex   -2.242425e-02 -1.592009e-02 4.960557e-03
      vertex   -2.187174e-02 -1.553322e-02 4.559455e-03
      vertex   -1.703916e-02 -1.214940e-02 7.376188e-03
    endloop
  endfacet
  facet normal 5.735765e-01 -8.191520e-01 -4.224023e-07
    outer loop
      vertex   -1.703916e-02 -1.214940e-02 7.376188e-03
      vertex   -2.187174e-02 -1.553322e-02 4.559455e-03
      vertex   -1.670651e-02 -1.191648e-02 6.756566e-03
    endloop
  endfacet
  facet normal 5.735763e-01 -8.191521e-01 1.240933e-07
    outer loop
      vertex   -1.670651e-02 -1.191648e-02 6.756566e-03
      vertex   -2.187174e-02 -1.553322e-02 4.559455e-03
      vertex   -2.129649e-02 -1.513042e-02 4.191722e-03
    endloop
  endfacet
  facet normal 5.735759e-01 -8.191524e-01 1.313041e-06
    outer loop
      vertex   -1.670651e-02 -1.191648e-02 6.756566e-03
      vertex   -2.129649e-02 -1.513042e-02 4.191722e-03
      vertex   -2.070049e-02 -1.471310e-02 3.858644e-03
    endloop
  endfacet
  facet normal 5.735769e-01 -8.191517e-01 -8.731713e-07
    outer loop
      vertex   -1.670651e-02 -1.191648e-02 6.756566e-03
      vertex   -2.070049e-02 -1.471310e-02 3.858644e-03
      vertex   -1.629022e-02 -1.162499e-02 6.189744e-03
    endloop
  endfacet
  facet normal 5.735771e-01 -8.191516e-01 -1.276862e-06
    outer loop
      vertex   -1.629022e-02 -1.162499e-02 6.189744e-03
      vertex   -2.070049e-02 -1.471310e-02 3.858644e-03
      vertex   -2.008585e-02 -1.428272e-02 3.561388e-03
    endloop
  endfacet
  facet normal 5.735763e-01 -8.191522e-01 4.603772e-07
    outer loop
      vertex   -1.629022e-02 -1.162499e-02 6.189744e-03
      vertex   -2.008585e-02 -1.428272e-02 3.561388e-03
      vertex   -1.945471e-02 -1.384079e-02 3.300993e-03
    endloop
  endfacet
  facet normal 5.735761e-01 -8.191523e-01 7.109217e-07
    outer loop
      vertex   -1.629022e-02 -1.162499e-02 6.189744e-03
      vertex   -1.945471e-02 -1.384079e-02 3.300993e-03
      vertex   -1.579852e-02 -1.128070e-02 5.686938e-03
    endloop
  endfacet
  facet normal 5.735764e-01 -8.191521e-01 9.534577e-08
    outer loop
      vertex   -1.579852e-02 -1.128070e-02 5.686938e-03
      vertex   -1.945471e-02 -1.384079e-02 3.300993e-03
      vertex   -1.880927e-02 -1.338885e-02 3.078371e-03
    endloop
  endfacet
  facet normal 5.735759e-01 -8.191524e-01 8.701186e-07
    outer loop
      vertex   -1.579852e-02 -1.128070e-02 5.686938e-03
      vertex   -1.880927e-02 -1.338885e-02 3.078371e-03
      vertex   -1.815180e-02 -1.292849e-02 2.894300e-03
    endloop
  endfacet
  facet normal 5.735763e-01 -8.191522e-01 4.523260e-07
    outer loop
      vertex   -1.579852e-02 -1.128070e-02 5.686938e-03
      vertex   -1.815180e-02 -1.292849e-02 2.894300e-03
      vertex   -1.524113e-02 -1.089041e-02 5.258094e-03
    endloop
  endfacet
  facet normal 5.735771e-01 -8.191516e-01 -1.079688e-06
    outer loop
      vertex   -1.524113e-02 -1.089041e-02 5.258094e-03
      vertex   -1.815180e-02 -1.292849e-02 2.894300e-03
      vertex   -1.748460e-02 -1.246130e-02 2.749424e-03
    endloop
  endfacet
  facet normal 5.735767e-01 -8.191518e-01 -5.665600e-07
    outer loop
      vertex   -1.524113e-02 -1.089041e-02 5.258094e-03
      vertex   -1.748460e-02 -1.246130e-02 2.749424e-03
      vertex   -1.681000e-02 -1.198894e-02 2.644251e-03
    endloop
  endfacet
  facet normal 5.735760e-01 -8.191523e-01 5.013053e-08
    outer loop
      vertex   -1.681000e-02 -1.198894e-02 2.644251e-03
      vertex   -1.613036e-02 -1.151306e-02 2.579148e-03
      vertex   -1.524113e-02 -1.089041e-02 5.258094e-03
    endloop
  endfacet
  facet normal 5.735760e-01 -8.191524e-01 7.624274e-08
    outer loop
      vertex   -1.524113e-02 -1.089041e-02 5.258094e-03
      vertex   -1.613036e-02 -1.151306e-02 2.579148e-03
      vertex   -1.462909e-02 -1.046186e-02 4.911696e-03
    endloop
  endfacet
  facet normal 5.735762e-01 -8.191522e-01 -9.655104e-08
    outer loop
      vertex   -1.462909e-02 -1.046186e-02 4.911696e-03
      vertex   -1.613036e-02 -1.151306e-02 2.579148e-03
      vertex   -1.544806e-02 -1.103530e-02 2.554343e-03
    endloop
  endfacet
  facet normal -8.261676e-01 3.150469e-04 -5.634244e-01
    outer loop
      vertex   -2.502749e-02 -1.757034e-02 7.775047e-03
      vertex   -2.508728e-02 -9.292902e-03 7.867349e-03
      vertex   -2.478105e-02 -1.757034e-02 7.413686e-03
    endloop
  endfacet
  facet normal -8.236718e-01 6.069893e-04 -5.670665e-01
    outer loop
      vertex   -2.478105e-02 -1.757034e-02 7.413686e-03
      vertex   -2.508728e-02 -9.292902e-03 7.867349e-03
      vertex   -2.465348e-02 -8.989150e-03 7.237570e-03
    endloop
  endfacet
  facet normal -7.977312e-01 -5.164079e-04 -6.030130e-01
    outer loop
      vertex   -2.478105e-02 -1.757034e-02 7.413686e-03
      vertex   -2.465348e-02 -8.989150e-03 7.237570e-03
      vertex   -2.436946e-02 -1.728214e-02 6.868944e-03
    endloop
  endfacet
  facet normal -7.843561e-01 7.105343e-04 -6.203104e-01
    outer loop
      vertex   -2.436946e-02 -1.728214e-02 6.868944e-03
      vertex   -2.465348e-02 -8.989150e-03 7.237570e-03
      vertex   -2.417893e-02 -8.656864e-03 6.637898e-03
    endloop
  endfacet
  facet normal -7.606526e-01 -5.858543e-04 -6.491589e-01
    outer loop
      vertex   -2.436946e-02 -1.728214e-02 6.868944e-03
      vertex   -2.417893e-02 -8.656864e-03 6.637898e-03
      vertex   -2.392639e-02 -1.697190e-02 6.349491e-03
    endloop
  endfacet
  facet normal -7.415873e-01 7.457503e-04 -6.708560e-01
    outer loop
      vertex   -2.392639e-02 -1.697190e-02 6.349491e-03
      vertex   -2.417893e-02 -8.656864e-03 6.637898e-03
      vertex   -2.366571e-02 -8.297504e-03 6.070967e-03
    endloop
  endfacet
  facet normal -7.209249e-01 -5.866294e-04 -6.930130e-01
    outer loop
      vertex   -2.392639e-02 -1.697190e-02 6.349491e-03
      vertex   -2.366571e-02 -8.297504e-03 6.070967e-03
      vertex   -2.345337e-02 -1.664069e-02 5.857144e-03
    endloop
  endfacet
  facet normal -6.955421e-01 7.121674e-04 -7.184850e-01
    outer loop
      vertex   -2.345337e-02 -1.664069e-02 5.857144e-03
      vertex   -2.366571e-02 -8.297504e-03 6.070967e-03
      vertex   -2.311607e-02 -7.912645e-03 5.539263e-03
    endloop
  endfacet
  facet normal -6.787034e-01 -5.186607e-04 -7.344123e-01
    outer loop
      vertex   -2.345337e-02 -1.664069e-02 5.857144e-03
      vertex   -2.311607e-02 -7.912645e-03 5.539263e-03
      vertex   -2.295208e-02 -1.628968e-02 5.393625e-03
    endloop
  endfacet
  facet normal -6.464153e-01 6.101851e-04 -7.629855e-01
    outer loop
      vertex   -2.295208e-02 -1.628968e-02 5.393625e-03
      vertex   -2.311607e-02 -7.912645e-03 5.539263e-03
      vertex   -2.253243e-02 -7.503979e-03 5.045123e-03
    endloop
  endfacet
  facet normal -6.341399e-01 -3.820496e-04 -7.732183e-01
    outer loop
      vertex   -2.295208e-02 -1.628968e-02 5.393625e-03
      vertex   -2.253243e-02 -7.503979e-03 5.045123e-03
      vertex   -2.242425e-02 -1.592009e-02 4.960557e-03
    endloop
  endfacet
  facet normal -5.944117e-01 4.395362e-04 -8.041608e-01
    outer loop
      vertex   -2.242425e-02 -1.592009e-02 4.960557e-03
      vertex   -2.253243e-02 -7.503979e-03 5.045123e-03
      vertex   -2.191736e-02 -7.073298e-03 4.590713e-03
    endloop
  endfacet
  facet normal -5.873983e-01 -1.770657e-04 -8.092979e-01
    outer loop
      vertex   -2.242425e-02 -1.592009e-02 4.960557e-03
      vertex   -2.191736e-02 -7.073298e-03 4.590713e-03
      vertex   -2.187174e-02 -1.553322e-02 4.559455e-03
    endloop
  endfacet
  facet normal -5.387094e-01 2.081151e-04 -8.424916e-01
    outer loop
      vertex   -2.187174e-02 -1.553322e-02 4.559455e-03
      vertex   -2.191736e-02 -7.073298e-03 4.590713e-03
      vertex   -2.129649e-02 -1.513042e-02 4.191722e-03
    endloop
  endfacet
  facet normal -5.396983e-01 1.005551e-04 -8.418585e-01
    outer loop
      vertex   -2.129649e-02 -1.513042e-02 4.191722e-03
      vertex   -2.191736e-02 -7.073298e-03 4.590713e-03
      vertex   -2.127354e-02 -6.622493e-03 4.178030e-03
    endloop
  endfacet
  facet normal -4.877980e-01 -8.944978e-05 -8.729565e-01
    outer loop
      vertex   -2.129649e-02 -1.513042e-02 4.191722e-03
      vertex   -2.127354e-02 -6.622493e-03 4.178030e-03
      vertex   -2.070049e-02 -1.471310e-02 3.858644e-03
    endloop
  endfacet
  facet normal -4.829100e-01 3.638789e-04 -8.756699e-01
    outer loop
      vertex   -2.070049e-02 -1.471310e-02 3.858644e-03
      vertex   -2.127354e-02 -6.622493e-03 4.178030e-03
      vertex   -2.060381e-02 -6.153542e-03 3.808884e-03
    endloop
  endfacet
  facet normal -4.352000e-01 -3.183916e-04 -9.003337e-01
    outer loop
      vertex   -2.070049e-02 -1.471310e-02 3.858644e-03
      vertex   -2.060381e-02 -6.153542e-03 3.808884e-03
      vertex   -2.008585e-02 -1.428272e-02 3.561388e-03
    endloop
  endfacet
  facet normal -4.239865e-01 5.585099e-04 -9.056684e-01
    outer loop
      vertex   -2.008585e-02 -1.428272e-02 3.561388e-03
      vertex   -2.060381e-02 -6.153542e-03 3.808884e-03
      vertex   -1.991111e-02 -5.668506e-03 3.484896e-03
    endloop
  endfacet
  facet normal -3.811043e-01 -4.788650e-04 -9.245319e-01
    outer loop
      vertex   -2.008585e-02 -1.428272e-02 3.561388e-03
      vertex   -1.991111e-02 -5.668506e-03 3.484896e-03
      vertex   -1.945471e-02 -1.384079e-02 3.300993e-03
    endloop
  endfacet
  facet normal -3.631696e-01 6.845609e-04 -9.317228e-01
    outer loop
      vertex   -1.945471e-02 -1.384079e-02 3.300993e-03
      vertex   -1.991111e-02 -5.668506e-03 3.484896e-03
      vertex   -1.919847e-02 -5.169512e-03 3.207489e-03
    endloop
  endfacet
  facet normal -3.257099e-01 -5.706034e-04 -9.454696e-01
    outer loop
      vertex   -1.945471e-02 -1.384079e-02 3.300993e-03
      vertex   -1.919847e-02 -5.169512e-03 3.207489e-03
      vertex   -1.880927e-02 -1.338885e-02 3.078371e-03
    endloop
  endfacet
  facet normal -3.007235e-01 7.420163e-04 -9.537111e-01
    outer loop
      vertex   -1.880927e-02 -1.338885e-02 3.078371e-03
      vertex   -1.919847e-02 -5.169512e-03 3.207489e-03
      vertex   -1.846903e-02 -4.658751e-03 2.977879e-03
    endloop
  endfacet
  facet normal -2.692163e-01 -5.937576e-04 -9.630795e-01
    outer loop
      vertex   -1.880927e-02 -1.338885e-02 3.078371e-03
      vertex   -1.846903e-02 -4.658751e-03 2.977879e-03
      vertex   -1.815180e-02 -1.292849e-02 2.894300e-03
    endloop
  endfacet
  facet normal -2.369127e-01 7.308343e-04 -9.715307e-01
    outer loop
      vertex   -1.815180e-02 -1.292849e-02 2.894300e-03
      vertex   -1.846903e-02 -4.658751e-03 2.977879e-03
      vertex   -1.772598e-02 -4.138465e-03 2.797075e-03
    endloop
  endfacet
  facet normal -2.118275e-01 -5.482608e-04 -9.773069e-01
    outer loop
      vertex   -1.815180e-02 -1.292849e-02 2.894300e-03
      vertex   -1.772598e-02 -4.138465e-03 2.797075e-03
      vertex   -1.748460e-02 -1.246130e-02 2.749424e-03
    endloop
  endfacet
  facet normal -1.720128e-01 6.510702e-04 -9.850945e-01
    outer loop
      vertex   -1.748460e-02 -1.246130e-02 2.749424e-03
      vertex   -1.772598e-02 -4.138465e-03 2.797075e-03
      vertex   -1.697260e-02 -3.610938e-03 2.665870e-03
    endloop
  endfacet
  facet normal -1.537469e-01 -4.340939e-04 -9.881102e-01
    outer loop
      vertex   -1.748460e-02 -1.246130e-02 2.749424e-03
      vertex   -1.697260e-02 -3.610938e-03 2.665870e-03
      vertex   -1.681000e-02 -1.198894e-02 2.644251e-03
    endloop
  endfacet
  facet normal -1.063068e-01 5.026815e-04 -9.943332e-01
    outer loop
      vertex   -1.681000e-02 -1.198894e-02 2.644251e-03
      vertex   -1.697260e-02 -3.610938e-03 2.665870e-03
      vertex   -1.621217e-02 -3.078485e-03 2.584841e-03
    endloop
  endfacet
  facet normal -9.517984e-02 -2.513635e-04 -9.954601e-01
    outer loop
      vertex   -1.681000e-02 -1.198894e-02 2.644251e-03
      vertex   -1.621217e-02 -3.078485e-03 2.584841e-03
      vertex   -1.613036e-02 -1.151306e-02 2.579148e-03
    endloop
  endfacet
  facet normal -4.008086e-02 2.856366e-04 -9.991964e-01
    outer loop
      vertex   -1.613036e-02 -1.151306e-02 2.579148e-03
      vertex   -1.621217e-02 -3.078485e-03 2.584841e-03
      vertex   -1.544806e-02 -2.543443e-03 2.554343e-03
    endloop
  endfacet
  facet normal -3.633106e-02 0.000000e+00 -9.993398e-01
    outer loop
      vertex   -1.613036e-02 -1.151306e-02 2.579148e-03
      vertex   -1.544806e-02 -2.543443e-03 2.554343e-03
      vertex   -1.544806e-02 -1.103530e-02 2.554343e-03
    endloop
  endfacet
  facet normal -8.469221e-01 -1.884395e-04 -5.317169e-01
    outer loop
      vertex   -2.502749e-02 -1.757034e-02 7.775047e-03
      vertex   -2.526006e-02 -1.757034e-02 8.145487e-03
      vertex   -2.508728e-02 -9.292902e-03 7.867349e-03
    endloop
  endfacet
  facet normal -8.594288e-01 7.601790e-04 -5.112550e-01
    outer loop
      vertex   -2.508728e-02 -9.292902e-03 7.867349e-03
      vertex   -2.526006e-02 -1.757034e-02 8.145487e-03
      vertex   -2.547843e-02 -9.566787e-03 8.524471e-03
    endloop
  endfacet
  facet normal -8.664574e-01 -0.000000e+00 -4.992510e-01
    outer loop
      vertex   -2.547843e-02 -9.566787e-03 8.524471e-03
      vertex   -2.526006e-02 -1.757034e-02 8.145487e-03
      vertex   -2.547843e-02 -1.757034e-02 8.524471e-03
    endloop
  endfacet
  facet normal -1.000000e+00 0.000000e+00 0.000000e+00
    outer loop
      vertex   -2.547843e-02 -9.566787e-03 8.524471e-03
      vertex   -2.547843e-02 -1.757034e-02 8.524471e-03
      vertex   -2.547843e-02 -9.566787e-03 9.685674e-03
    endloop
  endfacet
  facet normal -1.000000e+00 -0.000000e+00 0.000000e+00
    outer loop
      vertex   -2.547843e-02 -9.566787e-03 9.685674e-03
      vertex   -2.547843e-02 -1.757034e-02 8.524471e-03
      vertex   -2.547843e-02 -1.757034e-02 1.418567e-02
    endloop
  endfacet
  facet normal -1.000000e+00 0.000000e+00 0.000000e+00
    outer loop
      vertex   -2.547843e-02 -9.566787e-03 9.685674e-03
      vertex   -2.547843e-02 -1.757034e-02 1.418567e-02
      vertex   -2.547843e-02 -8.834323e-03 9.685674e-03
    endloop
  endfacet
  facet normal -1.000000e+00 0.000000e+00 0.000000e+00
    outer loop
      vertex   -2.547843e-02 -8.834323e-03 9.685674e-03
      vertex   -2.547843e-02 -1.757034e-02 1.418567e-02
      vertex   -2.547843e-02 1.042966e-02 1.418567e-02
    endloop
  endfacet
  facet normal -1.000000e+00 0.000000e+00 0.000000e+00
    outer loop
      vertex   -2.547843e-02 -8.834323e-03 9.685674e-03
      vertex   -2.547843e-02 1.042966e-02 1.418567e-02
      vertex   -2.547843e-02 1.042966e-02 8.524471e-03
    endloop
  endfacet
  facet normal -1.000000e+00 0.000000e+00 0.000000e+00
    outer loop
      vertex   -2.547843e-02 1.042966e-02 8.524471e-03
      vertex   -2.547843e-02 -8.834323e-03 8.524471e-03
      vertex   -2.547843e-02 -8.834323e-03 9.685674e-03
    endloop
  endfacet
  facet normal 0.000000e+00 1.000000e+00 0.000000e+00
    outer loop
      vertex   -1.747843e-02 1.042966e-02 1.418567e-02
      vertex   -1.747843e-02 1.042966e-02 9.425527e-03
      vertex   -2.547843e-02 1.042966e-02 1.418567e-02
    endloop
  endfacet
  facet normal 0.000000e+00 1.000000e+00 0.000000e+00
    outer loop
      vertex   -2.547843e-02 1.042966e-02 1.418567e-02
      vertex   -1.747843e-02 1.042966e-02 9.425527e-03
      vertex   -2.547843e-02 1.042966e-02 8.524471e-03
    endloop
  endfacet
  facet normal -0.000000e+00 1.000000e+00 0.000000e+00
    outer loop
      vertex   -2.547843e-02 1.042966e-02 8.524471e-03
      vertex   -1.747843e-02 1.042966e-02 9.425527e-03
      vertex   -2.483200e-02 1.042966e-02 7.486020e-03
    endloop
  endfacet
  facet normal -0.000000e+00 1.000000e+00 0.000000e+00
    outer loop
      vertex   -2.483200e-02 1.042966e-02 7.486020e-03
      vertex   -1.747843e-02 1.042966e-02 9.425527e-03
      vertex   -2.407931e-02 1.042966e-02 6.521811e-03
    endloop
  endfacet
  facet normal -0.000000e+00 1.000000e+00 0.000000e+00
    outer loop
      vertex   -2.407931e-02 1.042966e-02 6.521811e-03
      vertex   -1.747843e-02 1.042966e-02 9.425527e-03
      vertex   -2.322880e-02 1.042966e-02 5.642672e-03
    endloop
  endfacet
  facet normal 0.000000e+00 1.000000e+00 0.000000e+00
    outer loop
      vertex   -2.322880e-02 1.042966e-02 5.642672e-03
      vertex   -1.747843e-02 1.042966e-02 9.425527e-03
      vertex   -1.741387e-02 1.042966e-02 8.624594e-03
    endloop
  endfacet
  facet normal -0.000000e+00 1.000000e+00 0.000000e+00
    outer loop
      vertex   -2.322880e-02 1.042966e-02 5.642672e-03
      vertex   -1.741387e-02 1.042966e-02 8.624594e-03
      vertex   -2.229003e-02 1.042966e-02 4.858475e-03
    endloop
  endfacet
  facet normal 0.000000e+00 1.000000e+00 0.000000e+00
    outer loop
      vertex   -2.229003e-02 1.042966e-02 4.858475e-03
      vertex   -1.741387e-02 1.042966e-02 8.624594e-03
      vertex   -1.722183e-02 1.042966e-02 7.844346e-03
    endloop
  endfacet
  facet normal -0.000000e+00 1.000000e+00 0.000000e+00
    outer loop
      vertex   -2.229003e-02 1.042966e-02 4.858475e-03
      vertex   -1.722183e-02 1.042966e-02 7.844346e-03
      vertex   -2.127354e-02 1.042966e-02 4.178030e-03
    endloop
  endfacet
  facet normal -0.000000e+00 1.000000e+00 0.000000e+00
    outer loop
      vertex   -2.127354e-02 1.042966e-02 4.178030e-03
      vertex   -1.722183e-02 1.042966e-02 7.844346e-03
      vertex   -2.019075e-02 1.042966e-02 3.608977e-03
    endloop
  endfacet
  facet normal 0.000000e+00 1.000000e+00 0.000000e+00
    outer loop
      vertex   -2.019075e-02 1.042966e-02 3.608977e-03
      vertex   -1.722183e-02 1.042966e-02 7.844346e-03
      vertex   -1.690730e-02 1.042966e-02 7.104935e-03
    endloop
  endfacet
  facet normal -0.000000e+00 1.000000e+00 0.000000e+00
    outer loop
      vertex   -2.019075e-02 1.042966e-02 3.608977e-03
      vertex   -1.690730e-02 1.042966e-02 7.104935e-03
      vertex   -1.905383e-02 1.042966e-02 3.157707e-03
    endloop
  endfacet
  facet normal 0.000000e+00 1.000000e+00 0.000000e+00
    outer loop
      vertex   -1.905383e-02 1.042966e-02 3.157707e-03
      vertex   -1.690730e-02 1.042966e-02 7.104935e-03
      vertex   -1.647838e-02 1.042966e-02 6.425456e-03
    endloop
  endfacet
  facet normal -0.000000e+00 1.000000e+00 0.000000e+00
    outer loop
      vertex   -1.905383e-02 1.042966e-02 3.157707e-03
      vertex   -1.647838e-02 1.042966e-02 6.425456e-03
      vertex   -1.787553e-02 1.042966e-02 2.829290e-03
    endloop
  endfacet
  facet normal 0.000000e+00 1.000000e+00 0.000000e+00
    outer loop
      vertex   -1.787553e-02 1.042966e-02 2.829290e-03
      vertex   -1.647838e-02 1.042966e-02 6.425456e-03
      vertex   -1.594615e-02 1.042966e-02 5.823459e-03
    endloop
  endfacet
  facet normal -0.000000e+00 1.000000e+00 0.000000e+00
    outer loop
      vertex   -1.787553e-02 1.042966e-02 2.829290e-03
      vertex   -1.594615e-02 1.042966e-02 5.823459e-03
      vertex   -1.666909e-02 1.042966e-02 2.627413e-03
    endloop
  endfacet
  facet normal 0.000000e+00 1.000000e+00 0.000000e+00
    outer loop
      vertex   -1.666909e-02 1.042966e-02 2.627413e-03
      vertex   -1.594615e-02 1.042966e-02 5.823459e-03
      vertex   -1.532437e-02 1.042966e-02 5.314491e-03
    endloop
  endfacet
  facet normal -0.000000e+00 1.000000e+00 0.000000e+00
    outer loop
      vertex   -1.666909e-02 1.042966e-02 2.627413e-03
      vertex   -1.532437e-02 1.042966e-02 5.314491e-03
      vertex   -1.544806e-02 1.042966e-02 2.554343e-03
    endloop
  endfacet
  facet normal 0.000000e+00 1.000000e+00 0.000000e+00
    outer loop
      vertex   -1.544806e-02 1.042966e-02 2.554343e-03
      vertex   -1.532437e-02 1.042966e-02 5.314491e-03
      vertex   -1.462909e-02 1.042966e-02 4.911696e-03
    endloop
  endfacet
  facet normal -3.988118e-02 0.000000e+00 -9.992044e-01
    outer loop
      vertex   -1.544806e-02 -1.810979e-03 2.554343e-03
      vertex   -1.621217e-02 -2.346020e-03 2.584841e-03
      vertex   -1.544806e-02 1.042966e-02 2.554343e-03
    endloop
  endfacet
  facet normal -5.973596e-02 1.189888e-03 -9.982135e-01
    outer loop
      vertex   -1.544806e-02 1.042966e-02 2.554343e-03
      vertex   -1.621217e-02 -2.346020e-03 2.584841e-03
      vertex   -1.666909e-02 1.042966e-02 2.627413e-03
    endloop
  endfacet
  facet normal -1.056372e-01 -4.644242e-04 -9.944046e-01
    outer loop
      vertex   -1.666909e-02 1.042966e-02 2.627413e-03
      vertex   -1.621217e-02 -2.346020e-03 2.584841e-03
      vertex   -1.697260e-02 -2.878473e-03 2.665870e-03
    endloop
  endfacet
  facet normal -1.650385e-01 9.137618e-04 -9.862867e-01
    outer loop
      vertex   -1.666909e-02 1.042966e-02 2.627413e-03
      vertex   -1.697260e-02 -2.878473e-03 2.665870e-03
      vertex   -1.787553e-02 1.042966e-02 2.829290e-03
    endloop
  endfacet
  facet normal -1.718667e-01 4.361519e-04 -9.851201e-01
    outer loop
      vertex   -1.787553e-02 1.042966e-02 2.829290e-03
      vertex   -1.697260e-02 -2.878473e-03 2.665870e-03
      vertex   -1.772598e-02 -3.406000e-03 2.797075e-03
    endloop
  endfacet
  facet normal -2.362374e-01 -2.908538e-04 -9.716953e-01
    outer loop
      vertex   -1.787553e-02 1.042966e-02 2.829290e-03
      vertex   -1.772598e-02 -3.406000e-03 2.797075e-03
      vertex   -1.846903e-02 -3.926286e-03 2.977879e-03
    endloop
  endfacet
  facet normal -2.684874e-01 1.129500e-03 -9.632825e-01
    outer loop
      vertex   -1.787553e-02 1.042966e-02 2.829290e-03
      vertex   -1.846903e-02 -3.926286e-03 2.977879e-03
      vertex   -1.905383e-02 1.042966e-02 3.157707e-03
    endloop
  endfacet
  facet normal -3.000759e-01 -2.746122e-04 -9.539153e-01
    outer loop
      vertex   -1.905383e-02 1.042966e-02 3.157707e-03
      vertex   -1.846903e-02 -3.926286e-03 2.977879e-03
      vertex   -1.919847e-02 -4.437047e-03 3.207489e-03
    endloop
  endfacet
  facet normal -3.630038e-01 4.117369e-04 -9.317876e-01
    outer loop
      vertex   -1.905383e-02 1.042966e-02 3.157707e-03
      vertex   -1.919847e-02 -4.437047e-03 3.207489e-03
      vertex   -1.991111e-02 -4.936041e-03 3.484896e-03
    endloop
  endfacet
  facet normal -3.689215e-01 7.914512e-04 -9.294602e-01
    outer loop
      vertex   -1.905383e-02 1.042966e-02 3.157707e-03
      vertex   -1.991111e-02 -4.936041e-03 3.484896e-03
      vertex   -2.019075e-02 1.042966e-02 3.608977e-03
    endloop
  endfacet
  facet normal -4.234411e-01 -3.908292e-04 -9.059236e-01
    outer loop
      vertex   -2.019075e-02 1.042966e-02 3.608977e-03
      vertex   -1.991111e-02 -4.936041e-03 3.484896e-03
      vertex   -2.060381e-02 -5.421078e-03 3.808884e-03
    endloop
  endfacet
  facet normal -4.652105e-01 9.590163e-04 -8.851996e-01
    outer loop
      vertex   -2.019075e-02 1.042966e-02 3.608977e-03
      vertex   -2.060381e-02 -5.421078e-03 3.808884e-03
      vertex   -2.127354e-02 1.042966e-02 4.178030e-03
    endloop
  endfacet
  facet normal -4.827146e-01 -0.000000e+00 -8.757777e-01
    outer loop
      vertex   -2.127354e-02 1.042966e-02 4.178030e-03
      vertex   -2.060381e-02 -5.421078e-03 3.808884e-03
      vertex   -2.127354e-02 -5.890028e-03 4.178030e-03
    endloop
  endfacet
  facet normal -5.396484e-01 -0.000000e+00 -8.418905e-01
    outer loop
      vertex   -2.127354e-02 1.042966e-02 4.178030e-03
      vertex   -2.127354e-02 -5.890028e-03 4.178030e-03
      vertex   -2.191736e-02 -6.340833e-03 4.590713e-03
    endloop
  endfacet
  facet normal -5.562772e-01 9.064582e-04 -8.309963e-01
    outer loop
      vertex   -2.127354e-02 1.042966e-02 4.178030e-03
      vertex   -2.191736e-02 -6.340833e-03 4.590713e-03
      vertex   -2.229003e-02 1.042966e-02 4.858475e-03
    endloop
  endfacet
  facet normal -5.940508e-01 -3.571418e-04 -8.044274e-01
    outer loop
      vertex   -2.229003e-02 1.042966e-02 4.858475e-03
      vertex   -2.191736e-02 -6.340833e-03 4.590713e-03
      vertex   -2.253243e-02 -6.771514e-03 5.045123e-03
    endloop
  endfacet
  facet normal -6.410953e-01 7.069429e-04 -7.674610e-01
    outer loop
      vertex   -2.229003e-02 1.042966e-02 4.858475e-03
      vertex   -2.253243e-02 -6.771514e-03 5.045123e-03
      vertex   -2.322880e-02 1.042966e-02 5.642672e-03
    endloop
  endfacet
  facet normal -6.463068e-01 3.436933e-04 -7.630776e-01
    outer loop
      vertex   -2.322880e-02 1.042966e-02 5.642672e-03
      vertex   -2.253243e-02 -6.771514e-03 5.045123e-03
      vertex   -2.311607e-02 -7.180181e-03 5.539263e-03
    endloop
  endfacet
  facet normal -6.952018e-01 -2.292207e-04 -7.188146e-01
    outer loop
      vertex   -2.322880e-02 1.042966e-02 5.642672e-03
      vertex   -2.311607e-02 -7.180181e-03 5.539263e-03
      vertex   -2.366571e-02 -7.565039e-03 6.070967e-03
    endloop
  endfacet
  facet normal -7.187129e-01 9.011491e-04 -6.953064e-01
    outer loop
      vertex   -2.322880e-02 1.042966e-02 5.642672e-03
      vertex   -2.366571e-02 -7.565039e-03 6.070967e-03
      vertex   -2.407931e-02 1.042966e-02 6.521811e-03
    endloop
  endfacet
  facet normal -7.412824e-01 -2.217376e-04 -6.711932e-01
    outer loop
      vertex   -2.407931e-02 1.042966e-02 6.521811e-03
      vertex   -2.366571e-02 -7.565039e-03 6.070967e-03
      vertex   -2.417893e-02 -7.924399e-03 6.637898e-03
    endloop
  endfacet
  facet normal -7.842544e-01 3.325148e-04 -6.204393e-01
    outer loop
      vertex   -2.407931e-02 1.042966e-02 6.521811e-03
      vertex   -2.417893e-02 -7.924399e-03 6.637898e-03
      vertex   -2.465348e-02 -8.256685e-03 7.237570e-03
    endloop
  endfacet
  facet normal -7.882588e-01 6.507486e-04 -6.153435e-01
    outer loop
      vertex   -2.407931e-02 1.042966e-02 6.521811e-03
      vertex   -2.465348e-02 -8.256685e-03 7.237570e-03
      vertex   -2.483200e-02 1.042966e-02 7.486020e-03
    endloop
  endfacet
  facet normal -8.234623e-01 -3.234102e-04 -5.673709e-01
    outer loop
      vertex   -2.483200e-02 1.042966e-02 7.486020e-03
      vertex   -2.465348e-02 -8.256685e-03 7.237570e-03
      vertex   -2.508728e-02 -8.560438e-03 7.867349e-03
    endloop
  endfacet
  facet normal -8.489529e-01 8.004407e-04 -5.284679e-01
    outer loop
      vertex   -2.483200e-02 1.042966e-02 7.486020e-03
      vertex   -2.508728e-02 -8.560438e-03 7.867349e-03
      vertex   -2.547843e-02 1.042966e-02 8.524471e-03
    endloop
  endfacet
  facet normal -8.592898e-01 -0.000000e+00 -5.114891e-01
    outer loop
      vertex   -2.547843e-02 1.042966e-02 8.524471e-03
      vertex   -2.508728e-02 -8.560438e-03 7.867349e-03
      vertex   -2.547843e-02 -8.834323e-03 8.524471e-03
    endloop
  endfacet
  facet normal -9.446189e-01 0.000000e+00 3.281693e-01
    outer loop
      vertex   -1.428226e-02 1.602966e-02 5.910039e-03
      vertex   -1.462909e-02 -1.237531e-03 4.911696e-03
      vertex   -1.428226e-02 -1.773812e-02 5.910039e-03
    endloop
  endfacet
  facet normal -9.446189e-01 0.000000e+00 3.281693e-01
    outer loop
      vertex   -1.428226e-02 -1.773812e-02 5.910039e-03
      vertex   -1.462909e-02 -1.237531e-03 4.911696e-03
      vertex   -1.462909e-02 -1.969996e-03 4.911696e-03
    endloop
  endfacet
  facet normal -9.446189e-01 0.000000e+00 3.281693e-01
    outer loop
      vertex   -1.428226e-02 -1.773812e-02 5.910039e-03
      vertex   -1.462909e-02 -1.969996e-03 4.911696e-03
      vertex   -1.462909e-02 -1.046186e-02 4.911696e-03
    endloop
  endfacet
  facet normal -9.446189e-01 0.000000e+00 3.281693e-01
    outer loop
      vertex   -1.462909e-02 -1.237531e-03 4.911696e-03
      vertex   -1.428226e-02 1.602966e-02 5.910039e-03
      vertex   -1.462909e-02 1.042966e-02 4.911696e-03
    endloop
  endfacet
  facet normal -9.446187e-01 -1.320255e-07 3.281699e-01
    outer loop
      vertex   -1.462909e-02 1.042966e-02 4.911696e-03
      vertex   -1.428226e-02 1.602966e-02 5.910039e-03
      vertex   -1.574892e-02 1.602966e-02 1.688325e-03
    endloop
  endfacet
  facet normal -9.446187e-01 -1.598793e-07 3.281699e-01
    outer loop
      vertex   -1.462909e-02 1.042966e-02 4.911696e-03
      vertex   -1.574892e-02 1.602966e-02 1.688325e-03
      vertex   -1.544806e-02 1.042966e-02 2.554343e-03
    endloop
  endfacet
  facet normal -9.446184e-01 0.000000e+00 3.281708e-01
    outer loop
      vertex   -1.544806e-02 1.042966e-02 2.554343e-03
      vertex   -1.574892e-02 1.602966e-02 1.688325e-03
      vertex   -1.544806e-02 -1.810979e-03 2.554343e-03
    endloop
  endfacet
  facet normal -9.446184e-01 0.000000e+00 3.281708e-01
    outer loop
      vertex   -1.544806e-02 -1.810979e-03 2.554343e-03
      vertex   -1.574892e-02 1.602966e-02 1.688325e-03
      vertex   -1.574892e-02 -1.807046e-02 1.688325e-03
    endloop
  endfacet
  facet normal -9.446184e-01 0.000000e+00 3.281708e-01
    outer loop
      vertex   -1.544806e-02 -1.810979e-03 2.554343e-03
      vertex   -1.574892e-02 -1.807046e-02 1.688325e-03
      vertex   -1.544806e-02 -2.543443e-03 2.554343e-03
    endloop
  endfacet
  facet normal -9.446184e-01 0.000000e+00 3.281708e-01
    outer loop
      vertex   -1.544806e-02 -2.543443e-03 2.554343e-03
      vertex   -1.574892e-02 -1.807046e-02 1.688325e-03
      vertex   -1.544806e-02 -1.103530e-02 2.554343e-03
    endloop
  endfacet
  facet normal -9.446184e-01 0.000000e+00 3.281708e-01
    outer loop
      vertex   -1.544806e-02 -1.103530e-02 2.554343e-03
      vertex   -1.574892e-02 -1.807046e-02 1.688325e-03
      vertex   -1.544806e-02 -1.176777e-02 2.554343e-03
    endloop
  endfacet
  facet normal -9.446187e-01 0.000000e+00 3.281699e-01
    outer loop
      vertex   -1.544806e-02 -1.103530e-02 2.554343e-03
      vertex   -1.544806e-02 -1.176777e-02 2.554343e-03
      vertex   -1.462909e-02 -1.119432e-02 4.911696e-03
    endloop
  endfacet
  facet normal -9.446184e-01 0.000000e+00 3.281708e-01
    outer loop
      vertex   -1.544806e-02 -1.176777e-02 2.554343e-03
      vertex   -1.574892e-02 -1.807046e-02 1.688325e-03
      vertex   -1.544806e-02 -1.617993e-02 2.554343e-03
    endloop
  endfacet
  facet normal -9.446184e-01 3.316657e-08 3.281707e-01
    outer loop
      vertex   -1.544806e-02 -1.617993e-02 2.554343e-03
      vertex   -1.574892e-02 -1.807046e-02 1.688325e-03
      vertex   -1.545720e-02 -1.891306e-02 2.528021e-03
    endloop
  endfacet
  facet normal -9.446187e-01 4.252321e-08 3.281699e-01
    outer loop
      vertex   -1.544806e-02 -1.617993e-02 2.554343e-03
      vertex   -1.545720e-02 -1.891306e-02 2.528021e-03
      vertex   -1.462909e-02 -1.561909e-02 4.911696e-03
    endloop
  endfacet
  facet normal -9.446188e-01 2.113969e-07 3.281697e-01
    outer loop
      vertex   -1.462909e-02 -1.561909e-02 4.911696e-03
      vertex   -1.545720e-02 -1.891306e-02 2.528021e-03
      vertex   -1.428226e-02 -1.773812e-02 5.910039e-03
    endloop
  endfacet
  facet normal -9.446189e-01 0.000000e+00 3.281693e-01
    outer loop
      vertex   -1.462909e-02 -1.561909e-02 4.911696e-03
      vertex   -1.428226e-02 -1.773812e-02 5.910039e-03
      vertex   -1.462909e-02 -1.119432e-02 4.911696e-03
    endloop
  endfacet
  facet normal -9.446189e-01 0.000000e+00 3.281693e-01
    outer loop
      vertex   -1.462909e-02 -1.119432e-02 4.911696e-03
      vertex   -1.428226e-02 -1.773812e-02 5.910039e-03
      vertex   -1.462909e-02 -1.046186e-02 4.911696e-03
    endloop
  endfacet
  facet normal -9.446187e-01 0.000000e+00 3.281699e-01
    outer loop
      vertex   -1.462909e-02 -1.119432e-02 4.911696e-03
      vertex   -1.462909e-02 -1.046186e-02 4.911696e-03
      vertex   -1.544806e-02 -1.103530e-02 2.554343e-03
    endloop
  endfacet
  facet normal -9.446187e-01 0.000000e+00 3.281699e-01
    outer loop
      vertex   -1.544806e-02 -2.543443e-03 2.554343e-03
      vertex   -1.462909e-02 -1.969996e-03 4.911696e-03
      vertex   -1.544806e-02 -1.810979e-03 2.554343e-03
    endloop
  endfacet
  facet normal -9.446187e-01 0.000000e+00 3.281699e-01
    outer loop
      vertex   -1.544806e-02 -1.810979e-03 2.554343e-03
      vertex   -1.462909e-02 -1.969996e-03 4.911696e-03
      vertex   -1.462909e-02 -1.237531e-03 4.911696e-03
    endloop
  endfacet
  facet normal 9.975240e-01 -0.000000e+00 7.032711e-02
    outer loop
      vertex   -1.747843e-02 -3.232662e-03 9.425527e-03
      vertex   -1.742897e-02 -3.198031e-03 8.724001e-03
      vertex   -1.747843e-02 1.042966e-02 9.425527e-03
    endloop
  endfacet
  facet normal 9.967663e-01 -5.188628e-04 8.035301e-02
    outer loop
      vertex   -1.747843e-02 1.042966e-02 9.425527e-03
      vertex   -1.742897e-02 -3.198031e-03 8.724001e-03
      vertex   -1.741387e-02 1.042966e-02 8.624594e-03
    endloop
  endfacet
  facet normal 9.777760e-01 4.453551e-04 2.096517e-01
    outer loop
      vertex   -1.741387e-02 1.042966e-02 8.624594e-03
      vertex   -1.742897e-02 -3.198031e-03 8.724001e-03
      vertex   -1.728158e-02 -3.094822e-03 8.036353e-03
    endloop
  endfacet
  facet normal 9.710233e-01 -8.964625e-04 2.389833e-01
    outer loop
      vertex   -1.741387e-02 1.042966e-02 8.624594e-03
      vertex   -1.728158e-02 -3.094822e-03 8.036353e-03
      vertex   -1.722183e-02 1.042966e-02 7.844346e-03
    endloop
  endfacet
  facet normal 9.386481e-01 7.498992e-04 3.448756e-01
    outer loop
      vertex   -1.722183e-02 1.042966e-02 7.844346e-03
      vertex   -1.728158e-02 -3.094822e-03 8.036353e-03
      vertex   -1.703916e-02 -2.925078e-03 7.376188e-03
    endloop
  endfacet
  facet normal 9.202014e-01 -1.134896e-03 3.914435e-01
    outer loop
      vertex   -1.722183e-02 1.042966e-02 7.844346e-03
      vertex   -1.703916e-02 -2.925078e-03 7.376188e-03
      vertex   -1.690730e-02 1.042966e-02 7.104935e-03
    endloop
  endfacet
  facet normal 8.809182e-01 9.149313e-04 4.732678e-01
    outer loop
      vertex   -1.690730e-02 1.042966e-02 7.104935e-03
      vertex   -1.703916e-02 -2.925078e-03 7.376188e-03
      vertex   -1.670651e-02 -2.692157e-03 6.756566e-03
    endloop
  endfacet
  facet normal 8.456151e-01 -1.232112e-03 5.337917e-01
    outer loop
      vertex   -1.690730e-02 1.042966e-02 7.104935e-03
      vertex   -1.670651e-02 -2.692157e-03 6.756566e-03
      vertex   -1.647838e-02 1.042966e-02 6.425456e-03
    endloop
  endfacet
  facet normal 8.057522e-01 9.360905e-04 5.922521e-01
    outer loop
      vertex   -1.647838e-02 1.042966e-02 6.425456e-03
      vertex   -1.670651e-02 -2.692157e-03 6.756566e-03
      vertex   -1.629022e-02 -2.400666e-03 6.189744e-03
    endloop
  endfacet
  facet normal 7.491887e-01 -1.181336e-03 6.623556e-01
    outer loop
      vertex   -1.647838e-02 1.042966e-02 6.425456e-03
      vertex   -1.629022e-02 -2.400666e-03 6.189744e-03
      vertex   -1.594615e-02 1.042966e-02 5.823459e-03
    endloop
  endfacet
  facet normal 7.146820e-01 8.029697e-04 6.994491e-01
    outer loop
      vertex   -1.594615e-02 1.042966e-02 5.823459e-03
      vertex   -1.629022e-02 -2.400666e-03 6.189744e-03
      vertex   -1.579852e-02 -2.056372e-03 5.686938e-03
    endloop
  endfacet
  facet normal 6.334142e-01 -9.710499e-04 7.738123e-01
    outer loop
      vertex   -1.594615e-02 1.042966e-02 5.823459e-03
      vertex   -1.579852e-02 -2.056372e-03 5.686938e-03
      vertex   -1.532437e-02 1.042966e-02 5.314491e-03
    endloop
  endfacet
  facet normal 6.095679e-01 4.988921e-04 7.927337e-01
    outer loop
      vertex   -1.532437e-02 1.042966e-02 5.314491e-03
      vertex   -1.579852e-02 -2.056372e-03 5.686938e-03
      vertex   -1.524113e-02 -1.666087e-03 5.258094e-03
    endloop
  endfacet
  facet normal 5.012806e-01 -5.846090e-04 8.652846e-01
    outer loop
      vertex   -1.532437e-02 1.042966e-02 5.314491e-03
      vertex   -1.524113e-02 -1.666087e-03 5.258094e-03
      vertex   -1.462909e-02 1.042966e-02 4.911696e-03
    endloop
  endfacet
  facet normal 4.925550e-01 0.000000e+00 8.702813e-01
    outer loop
      vertex   -1.462909e-02 1.042966e-02 4.911696e-03
      vertex   -1.524113e-02 -1.666087e-03 5.258094e-03
      vertex   -1.462909e-02 -1.237531e-03 4.911696e-03
    endloop
  endfacet
  facet normal 5.650175e-01 -8.250789e-01 2.344608e-07
    outer loop
      vertex   -1.462909e-02 -1.561909e-02 4.911696e-03
      vertex   -1.524113e-02 -1.603822e-02 5.258094e-03
      vertex   -1.544806e-02 -1.617993e-02 2.554343e-03
    endloop
  endfacet
  facet normal 5.650185e-01 -8.250782e-01 1.171918e-07
    outer loop
      vertex   -1.544806e-02 -1.617993e-02 2.554343e-03
      vertex   -1.524113e-02 -1.603822e-02 5.258094e-03
      vertex   -1.579852e-02 -1.641992e-02 5.686938e-03
    endloop
  endfacet
  facet normal 5.650176e-01 -8.250789e-01 -3.961673e-08
    outer loop
      vertex   -1.544806e-02 -1.617993e-02 2.554343e-03
      vertex   -1.579852e-02 -1.641992e-02 5.686938e-03
      vertex   -1.646754e-02 -1.687807e-02 2.606375e-03
    endloop
  endfacet
  facet normal 5.650173e-01 -8.250791e-01 4.765384e-08
    outer loop
      vertex   -1.646754e-02 -1.687807e-02 2.606375e-03
      vertex   -1.579852e-02 -1.641992e-02 5.686938e-03
      vertex   -1.629022e-02 -1.675664e-02 6.189744e-03
    endloop
  endfacet
  facet normal 5.650182e-01 -8.250784e-01 -1.844794e-08
    outer loop
      vertex   -1.646754e-02 -1.687807e-02 2.606375e-03
      vertex   -1.629022e-02 -1.675664e-02 6.189744e-03
      vertex   -1.747843e-02 -1.757034e-02 2.748277e-03
    endloop
  endfacet
  facet normal 5.650186e-01 -8.250781e-01 -2.422690e-07
    outer loop
      vertex   -1.747843e-02 -1.757034e-02 2.748277e-03
      vertex   -1.629022e-02 -1.675664e-02 6.189744e-03
      vertex   -1.670651e-02 -1.704172e-02 6.756566e-03
    endloop
  endfacet
  facet normal 5.650168e-01 -8.250794e-01 2.672901e-07
    outer loop
      vertex   -1.747843e-02 -1.757034e-02 2.748277e-03
      vertex   -1.670651e-02 -1.704172e-02 6.756566e-03
      vertex   -1.703916e-02 -1.726952e-02 7.376188e-03
    endloop
  endfacet
  facet normal 5.650184e-01 -8.250783e-01 5.439858e-08
    outer loop
      vertex   -1.703916e-02 -1.726952e-02 7.376188e-03
      vertex   -1.728158e-02 -1.743553e-02 8.036353e-03
      vertex   -1.747843e-02 -1.757034e-02 2.748277e-03
    endloop
  endfacet
  facet normal 5.650193e-01 -8.250777e-01 4.669210e-09
    outer loop
      vertex   -1.747843e-02 -1.757034e-02 2.748277e-03
      vertex   -1.728158e-02 -1.743553e-02 8.036353e-03
      vertex   -1.742897e-02 -1.753647e-02 8.724001e-03
    endloop
  endfacet
  facet normal 5.650197e-01 -8.250774e-01 0.000000e+00
    outer loop
      vertex   -1.747843e-02 -1.757034e-02 2.748277e-03
      vertex   -1.742897e-02 -1.753647e-02 8.724001e-03
      vertex   -1.747843e-02 -1.757034e-02 9.425527e-03
    endloop
  endfacet
  facet normal -5.696957e-02 -0.000000e+00 -9.983759e-01
    outer loop
      vertex   -1.544806e-02 -1.176777e-02 2.554343e-03
      vertex   -1.544806e-02 -1.617993e-02 2.554343e-03
      vertex   -1.660550e-02 -1.257822e-02 2.620389e-03
    endloop
  endfacet
  facet normal -5.205359e-02 1.584688e-03 -9.986430e-01
    outer loop
      vertex   -1.660550e-02 -1.257822e-02 2.620389e-03
      vertex   -1.544806e-02 -1.617993e-02 2.554343e-03
      vertex   -1.646754e-02 -1.687807e-02 2.606375e-03
    endloop
  endfacet
  facet normal -1.382002e-01 -1.206157e-03 -9.904036e-01
    outer loop
      vertex   -1.660550e-02 -1.257822e-02 2.620389e-03
      vertex   -1.646754e-02 -1.687807e-02 2.606375e-03
      vertex   -1.747843e-02 -1.757034e-02 2.748277e-03
    endloop
  endfacet
  facet normal -1.584840e-01 2.418735e-03 -9.873586e-01
    outer loop
      vertex   -1.660550e-02 -1.257822e-02 2.620389e-03
      vertex   -1.747843e-02 -1.757034e-02 2.748277e-03
      vertex   -1.775047e-02 -1.337994e-02 2.802209e-03
    endloop
  endfacet
  facet normal -2.337561e-01 -2.661860e-03 -9.722916e-01
    outer loop
      vertex   -1.775047e-02 -1.337994e-02 2.802209e-03
      vertex   -1.747843e-02 -1.757034e-02 2.748277e-03
      vertex   -1.865052e-02 -1.757034e-02 3.030068e-03
    endloop
  endfacet
  facet normal -2.568213e-01 2.609615e-03 -9.664554e-01
    outer loop
      vertex   -1.775047e-02 -1.337994e-02 2.802209e-03
      vertex   -1.865052e-02 -1.757034e-02 3.030068e-03
      vertex   -1.887143e-02 -1.416484e-02 3.097968e-03
    endloop
  endfacet
  facet normal -3.338887e-01 -2.865242e-03 -9.426081e-01
    outer loop
      vertex   -1.887143e-02 -1.416484e-02 3.097968e-03
      vertex   -1.865052e-02 -1.757034e-02 3.030068e-03
      vertex   -1.978683e-02 -1.757034e-02 3.432568e-03
    endloop
  endfacet
  facet normal -3.525524e-01 2.821652e-03 -9.357878e-01
    outer loop
      vertex   -1.887143e-02 -1.416484e-02 3.097968e-03
      vertex   -1.978683e-02 -1.757034e-02 3.432568e-03
      vertex   -1.995707e-02 -1.492502e-02 3.504684e-03
    endloop
  endfacet
  facet normal -4.303793e-01 -3.090756e-03 -9.026428e-01
    outer loop
      vertex   -1.995707e-02 -1.492502e-02 3.504684e-03
      vertex   -1.978683e-02 -1.757034e-02 3.432568e-03
      vertex   -2.087495e-02 -1.757034e-02 3.951386e-03
    endloop
  endfacet
  facet normal -4.447091e-01 3.058944e-03 -8.956698e-01
    outer loop
      vertex   -1.995707e-02 -1.492502e-02 3.504684e-03
      vertex   -2.087495e-02 -1.757034e-02 3.951386e-03
      vertex   -2.099644e-02 -1.565279e-02 4.018253e-03
    endloop
  endfacet
  facet normal -5.221748e-01 -3.342586e-03 -8.528319e-01
    outer loop
      vertex   -2.099644e-02 -1.565279e-02 4.018253e-03
      vertex   -2.087495e-02 -1.757034e-02 3.951386e-03
      vertex   -2.190304e-02 -1.757034e-02 4.580864e-03
    endloop
  endfacet
  facet normal -5.323586e-01 3.326320e-03 -8.465124e-01
    outer loop
      vertex   -2.099644e-02 -1.565279e-02 4.018253e-03
      vertex   -2.190304e-02 -1.757034e-02 4.580864e-03
      vertex   -2.197904e-02 -1.634081e-02 4.633494e-03
    endloop
  endfacet
  facet normal -6.082739e-01 -3.626365e-03 -7.937189e-01
    outer loop
      vertex   -2.197904e-02 -1.634081e-02 4.633494e-03
      vertex   -2.190304e-02 -1.757034e-02 4.580864e-03
      vertex   -2.285986e-02 -1.757034e-02 5.314135e-03
    endloop
  endfacet
  facet normal -6.146187e-01 3.633089e-03 -7.888160e-01
    outer loop
      vertex   -2.197904e-02 -1.634081e-02 4.633494e-03
      vertex   -2.285986e-02 -1.757034e-02 5.314135e-03
      vertex   -2.289497e-02 -1.698215e-02 5.344200e-03
    endloop
  endfacet
  facet normal -6.877397e-01 -3.945180e-03 -7.259467e-01
    outer loop
      vertex   -2.289497e-02 -1.698215e-02 5.344200e-03
      vertex   -2.285986e-02 -1.757034e-02 5.314135e-03
      vertex   -2.373498e-02 -1.757034e-02 6.143202e-03
    endloop
  endfacet
  facet normal 0.000000e+00 -1.000000e+00 0.000000e+00
    outer loop
      vertex   -1.747843e-02 -1.757034e-02 2.748277e-03
      vertex   -1.747843e-02 -1.757034e-02 9.425527e-03
      vertex   -1.865052e-02 -1.757034e-02 3.030068e-03
    endloop
  endfacet
  facet normal 0.000000e+00 -1.000000e+00 0.000000e+00
    outer loop
      vertex   -1.865052e-02 -1.757034e-02 3.030068e-03
      vertex   -1.747843e-02 -1.757034e-02 9.425527e-03
      vertex   -1.978683e-02 -1.757034e-02 3.432568e-03
    endloop
  endfacet
  facet normal 0.000000e+00 -1.000000e+00 0.000000e+00
    outer loop
      vertex   -1.978683e-02 -1.757034e-02 3.432568e-03
      vertex   -1.747843e-02 -1.757034e-02 9.425527e-03
      vertex   -2.087495e-02 -1.757034e-02 3.951386e-03
    endloop
  endfacet
  facet normal 0.000000e+00 -1.000000e+00 0.000000e+00
    outer loop
      vertex   -2.087495e-02 -1.757034e-02 3.951386e-03
      vertex   -1.747843e-02 -1.757034e-02 9.425527e-03
      vertex   -2.190304e-02 -1.757034e-02 4.580864e-03
    endloop
  endfacet
  facet normal 0.000000e+00 -1.000000e+00 0.000000e+00
    outer loop
      vertex   -2.190304e-02 -1.757034e-02 4.580864e-03
      vertex   -1.747843e-02 -1.757034e-02 9.425527e-03
      vertex   -2.373498e-02 -1.757034e-02 9.685674e-03
    endloop
  endfacet
  facet normal 0.000000e+00 -1.000000e+00 0.000000e+00
    outer loop
      vertex   -2.190304e-02 -1.757034e-02 4.580864e-03
      vertex   -2.373498e-02 -1.757034e-02 9.685674e-03
      vertex   -2.285986e-02 -1.757034e-02 5.314135e-03
    endloop
  endfacet
  facet normal 0.000000e+00 -1.000000e+00 0.000000e+00
    outer loop
      vertex   -2.285986e-02 -1.757034e-02 5.314135e-03
      vertex   -2.373498e-02 -1.757034e-02 9.685674e-03
      vertex   -2.373498e-02 -1.757034e-02 6.143202e-03
    endloop
  endfacet
  facet normal 0.000000e+00 -1.000000e+00 0.000000e+00
    outer loop
      vertex   -1.747843e-02 -1.757034e-02 9.425527e-03
      vertex   -1.747843e-02 -1.757034e-02 1.418567e-02
      vertex   -2.373498e-02 -1.757034e-02 9.685674e-03
    endloop
  endfacet
  facet normal 0.000000e+00 -1.000000e+00 0.000000e+00
    outer loop
      vertex   -2.373498e-02 -1.757034e-02 9.685674e-03
      vertex   -1.747843e-02 -1.757034e-02 1.418567e-02
      vertex   -2.547843e-02 -1.757034e-02 1.418567e-02
    endloop
  endfacet
  facet normal 0.000000e+00 -1.000000e+00 0.000000e+00
    outer loop
      vertex   -2.373498e-02 -1.757034e-02 9.685674e-03
      vertex   -2.547843e-02 -1.757034e-02 1.418567e-02
      vertex   -2.478105e-02 -1.757034e-02 9.685674e-03
    endloop
  endfacet
  facet normal -0.000000e+00 -1.000000e+00 0.000000e+00
    outer loop
      vertex   -2.478105e-02 -1.757034e-02 9.685674e-03
      vertex   -2.547843e-02 -1.757034e-02 1.418567e-02
      vertex   -2.547843e-02 -1.757034e-02 8.524471e-03
    endloop
  endfacet
  facet normal 0.000000e+00 -1.000000e+00 0.000000e+00
    outer loop
      vertex   -2.478105e-02 -1.757034e-02 9.685674e-03
      vertex   -2.547843e-02 -1.757034e-02 8.524471e-03
      vertex   -2.526006e-02 -1.757034e-02 8.145487e-03
    endloop
  endfacet
  facet normal 0.000000e+00 -1.000000e+00 0.000000e+00
    outer loop
      vertex   -2.526006e-02 -1.757034e-02 8.145487e-03
      vertex   -2.502749e-02 -1.757034e-02 7.775047e-03
      vertex   -2.478105e-02 -1.757034e-02 9.685674e-03
    endloop
  endfacet
  facet normal 0.000000e+00 -1.000000e+00 -0.000000e+00
    outer loop
      vertex   -2.478105e-02 -1.757034e-02 9.685674e-03
      vertex   -2.502749e-02 -1.757034e-02 7.775047e-03
      vertex   -2.478105e-02 -1.757034e-02 7.413686e-03
    endloop
  endfacet
  facet normal 1.000000e+00 0.000000e+00 -0.000000e+00
    outer loop
      vertex   -1.747843e-02 1.042966e-02 9.425527e-03
      vertex   -1.747843e-02 1.042966e-02 1.418567e-02
      vertex   -1.747843e-02 -3.232662e-03 9.685674e-03
    endloop
  endfacet
  facet normal 1.000000e+00 0.000000e+00 -0.000000e+00
    outer loop
      vertex   -1.747843e-02 -3.232662e-03 9.685674e-03
      vertex   -1.747843e-02 1.042966e-02 1.418567e-02
      vertex   -1.747843e-02 -1.757034e-02 1.418567e-02
    endloop
  endfacet
  facet normal 1.000000e+00 0.000000e+00 0.000000e+00
    outer loop
      vertex   -1.747843e-02 -3.232662e-03 9.685674e-03
      vertex   -1.747843e-02 -1.757034e-02 1.418567e-02
      vertex   -1.747843e-02 -3.965127e-03 9.685674e-03
    endloop
  endfacet
  facet normal 1.000000e+00 0.000000e+00 0.000000e+00
    outer loop
      vertex   -1.747843e-02 -3.965127e-03 9.685674e-03
      vertex   -1.747843e-02 -1.757034e-02 1.418567e-02
      vertex   -1.747843e-02 -1.245699e-02 9.685674e-03
    endloop
  endfacet
  facet normal 1.000000e+00 0.000000e+00 0.000000e+00
    outer loop
      vertex   -1.747843e-02 -3.965127e-03 9.685674e-03
      vertex   -1.747843e-02 -1.245699e-02 9.685674e-03
      vertex   -1.747843e-02 -3.965127e-03 9.425527e-03
    endloop
  endfacet
  facet normal 1.000000e+00 0.000000e+00 0.000000e+00
    outer loop
      vertex   -1.747843e-02 -3.965127e-03 9.425527e-03
      vertex   -1.747843e-02 -1.245699e-02 9.685674e-03
      vertex   -1.747843e-02 -1.245699e-02 9.425527e-03
    endloop
  endfacet
  facet normal 1.000000e+00 0.000000e+00 0.000000e+00
    outer loop
      vertex   -1.747843e-02 -1.245699e-02 9.685674e-03
      vertex   -1.747843e-02 -1.757034e-02 1.418567e-02
      vertex   -1.747843e-02 -1.318945e-02 9.685674e-03
    endloop
  endfacet
  facet normal 1.000000e+00 0.000000e+00 0.000000e+00
    outer loop
      vertex   -1.747843e-02 -1.318945e-02 9.685674e-03
      vertex   -1.747843e-02 -1.757034e-02 1.418567e-02
      vertex   -1.747843e-02 -1.757034e-02 9.425527e-03
    endloop
  endfacet
  facet normal 1.000000e+00 0.000000e+00 0.000000e+00
    outer loop
      vertex   -1.747843e-02 -1.318945e-02 9.685674e-03
      vertex   -1.747843e-02 -1.757034e-02 9.425527e-03
      vertex   -1.747843e-02 -1.318945e-02 9.425527e-03
    endloop
  endfacet
  facet normal 1.000000e+00 0.000000e+00 0.000000e+00
    outer loop
      vertex   -1.747843e-02 -3.232662e-03 9.685674e-03
      vertex   -1.747843e-02 -3.232662e-03 9.425527e-03
      vertex   -1.747843e-02 1.042966e-02 9.425527e-03
    endloop
  endfacet
  facet normal 0.000000e+00 0.000000e+00 -1.000000e+00
    outer loop
      vertex   -2.373498e-02 -1.757034e-02 9.685674e-03
      vertex   -2.478105e-02 -1.757034e-02 9.685674e-03
      vertex   -1.747843e-02 -1.318945e-02 9.685674e-03
    endloop
  endfacet
  facet normal -0.000000e+00 0.000000e+00 -1.000000e+00
    outer loop
      vertex   -1.747843e-02 -1.318945e-02 9.685674e-03
      vertex   -2.478105e-02 -1.757034e-02 9.685674e-03
      vertex   -1.747843e-02 -1.245699e-02 9.685674e-03
    endloop
  endfacet
  facet normal -5.735762e-01 8.191522e-01 -2.143481e-07
    outer loop
      vertex   -1.544806e-02 -2.543443e-03 2.554343e-03
      vertex   -1.621217e-02 -3.078485e-03 2.584841e-03
      vertex   -1.462909e-02 -1.969996e-03 4.911696e-03
    endloop
  endfacet
  facet normal -5.735764e-01 8.191520e-01 7.330112e-08
    outer loop
      vertex   -1.462909e-02 -1.969996e-03 4.911696e-03
      vertex   -1.621217e-02 -3.078485e-03 2.584841e-03
      vertex   -1.697260e-02 -3.610938e-03 2.665870e-03
    endloop
  endfacet
  facet normal -5.735765e-01 8.191520e-01 8.804673e-08
    outer loop
      vertex   -1.462909e-02 -1.969996e-03 4.911696e-03
      vertex   -1.697260e-02 -3.610938e-03 2.665870e-03
      vertex   -1.524113e-02 -2.398551e-03 5.258094e-03
    endloop
  endfacet
  facet normal -5.735764e-01 8.191521e-01 1.677802e-08
    outer loop
      vertex   -1.524113e-02 -2.398551e-03 5.258094e-03
      vertex   -1.697260e-02 -3.610938e-03 2.665870e-03
      vertex   -1.772598e-02 -4.138465e-03 2.797075e-03
    endloop
  endfacet
  facet normal -5.735762e-01 8.191522e-01 -1.976843e-07
    outer loop
      vertex   -1.524113e-02 -2.398551e-03 5.258094e-03
      vertex   -1.772598e-02 -4.138465e-03 2.797075e-03
      vertex   -1.846903e-02 -4.658751e-03 2.977879e-03
    endloop
  endfacet
  facet normal -5.735762e-01 8.191522e-01 -2.965074e-07
    outer loop
      vertex   -1.524113e-02 -2.398551e-03 5.258094e-03
      vertex   -1.846903e-02 -4.658751e-03 2.977879e-03
      vertex   -1.579852e-02 -2.788837e-03 5.686938e-03
    endloop
  endfacet
  facet normal -5.735768e-01 8.191518e-01 5.591416e-07
    outer loop
      vertex   -1.579852e-02 -2.788837e-03 5.686938e-03
      vertex   -1.846903e-02 -4.658751e-03 2.977879e-03
      vertex   -1.919847e-02 -5.169512e-03 3.207489e-03
    endloop
  endfacet
  facet normal -5.735762e-01 8.191522e-01 -5.351482e-07
    outer loop
      vertex   -1.579852e-02 -2.788837e-03 5.686938e-03
      vertex   -1.919847e-02 -5.169512e-03 3.207489e-03
      vertex   -1.991111e-02 -5.668506e-03 3.484896e-03
    endloop
  endfacet
  facet normal -5.735764e-01 8.191521e-01 -1.263478e-07
    outer loop
      vertex   -1.579852e-02 -2.788837e-03 5.686938e-03
      vertex   -1.991111e-02 -5.668506e-03 3.484896e-03
      vertex   -1.629022e-02 -3.133130e-03 6.189744e-03
    endloop
  endfacet
  facet normal -5.735769e-01 8.191518e-01 8.012073e-07
    outer loop
      vertex   -1.629022e-02 -3.133130e-03 6.189744e-03
      vertex   -1.991111e-02 -5.668506e-03 3.484896e-03
      vertex   -2.060381e-02 -6.153542e-03 3.808884e-03
    endloop
  endfacet
  facet normal -5.735760e-01 8.191523e-01 -1.476800e-06
    outer loop
      vertex   -1.629022e-02 -3.133130e-03 6.189744e-03
      vertex   -2.060381e-02 -6.153542e-03 3.808884e-03
      vertex   -2.127354e-02 -6.622493e-03 4.178030e-03
    endloop
  endfacet
  facet normal -5.735764e-01 8.191520e-01 1.251900e-07
    outer loop
      vertex   -1.629022e-02 -3.133130e-03 6.189744e-03
      vertex   -2.127354e-02 -6.622493e-03 4.178030e-03
      vertex   -1.670651e-02 -3.424621e-03 6.756566e-03
    endloop
  endfacet
  facet normal -5.735764e-01 8.191521e-01 7.150887e-08
    outer loop
      vertex   -1.670651e-02 -3.424621e-03 6.756566e-03
      vertex   -2.127354e-02 -6.622493e-03 4.178030e-03
      vertex   -2.191736e-02 -7.073298e-03 4.590713e-03
    endloop
  endfacet
  facet normal -5.735768e-01 8.191518e-01 1.446730e-06
    outer loop
      vertex   -1.670651e-02 -3.424621e-03 6.756566e-03
      vertex   -2.191736e-02 -7.073298e-03 4.590713e-03
      vertex   -2.253243e-02 -7.503979e-03 5.045123e-03
    endloop
  endfacet
  facet normal -5.735766e-01 8.191519e-01 3.347786e-07
    outer loop
      vertex   -1.670651e-02 -3.424621e-03 6.756566e-03
      vertex   -2.253243e-02 -7.503979e-03 5.045123e-03
      vertex   -1.703916e-02 -3.657543e-03 7.376188e-03
    endloop
  endfacet
  facet normal -5.735762e-01 8.191522e-01 -8.632952e-07
    outer loop
      vertex   -1.703916e-02 -3.657543e-03 7.376188e-03
      vertex   -2.253243e-02 -7.503979e-03 5.045123e-03
      vertex   -2.311607e-02 -7.912645e-03 5.539263e-03
    endloop
  endfacet
  facet normal -5.735763e-01 8.191521e-01 -3.838837e-07
    outer loop
      vertex   -1.703916e-02 -3.657543e-03 7.376188e-03
      vertex   -2.311607e-02 -7.912645e-03 5.539263e-03
      vertex   -2.366571e-02 -8.297504e-03 6.070967e-03
    endloop
  endfacet
  facet normal -5.735763e-01 8.191522e-01 -8.107417e-07
    outer loop
      vertex   -1.703916e-02 -3.657543e-03 7.376188e-03
      vertex   -2.366571e-02 -8.297504e-03 6.070967e-03
      vertex   -1.728158e-02 -3.827287e-03 8.036353e-03
    endloop
  endfacet
  facet normal -5.735765e-01 8.191520e-01 1.866342e-07
    outer loop
      vertex   -1.728158e-02 -3.827287e-03 8.036353e-03
      vertex   -2.366571e-02 -8.297504e-03 6.070967e-03
      vertex   -2.417893e-02 -8.656864e-03 6.637898e-03
    endloop
  endfacet
  facet normal -5.735766e-01 8.191519e-01 7.927396e-07
    outer loop
      vertex   -1.728158e-02 -3.827287e-03 8.036353e-03
      vertex   -2.417893e-02 -8.656864e-03 6.637898e-03
      vertex   -1.742897e-02 -3.930496e-03 8.724001e-03
    endloop
  endfacet
  facet normal -5.735764e-01 8.191520e-01 1.342323e-07
    outer loop
      vertex   -1.742897e-02 -3.930496e-03 8.724001e-03
      vertex   -2.417893e-02 -8.656864e-03 6.637898e-03
      vertex   -2.465348e-02 -8.989150e-03 7.237570e-03
    endloop
  endfacet
  facet normal -5.735765e-01 8.191520e-01 6.643473e-07
    outer loop
      vertex   -1.742897e-02 -3.930496e-03 8.724001e-03
      vertex   -2.465348e-02 -8.989150e-03 7.237570e-03
      vertex   -2.508728e-02 -9.292902e-03 7.867349e-03
    endloop
  endfacet
  facet normal -5.735764e-01 8.191520e-01 -2.241573e-07
    outer loop
      vertex   -1.742897e-02 -3.930496e-03 8.724001e-03
      vertex   -2.508728e-02 -9.292902e-03 7.867349e-03
      vertex   -1.747843e-02 -3.965127e-03 9.425527e-03
    endloop
  endfacet
  facet normal -5.735764e-01 8.191521e-01 -8.207620e-07
    outer loop
      vertex   -1.747843e-02 -3.965127e-03 9.425527e-03
      vertex   -2.508728e-02 -9.292902e-03 7.867349e-03
      vertex   -2.547843e-02 -9.566787e-03 8.524471e-03
    endloop
  endfacet
  facet normal -5.735764e-01 8.191521e-01 0.000000e+00
    outer loop
      vertex   -1.747843e-02 -3.965127e-03 9.425527e-03
      vertex   -2.547843e-02 -9.566787e-03 8.524471e-03
      vertex   -2.547843e-02 -9.566787e-03 9.685674e-03
    endloop
  endfacet
  facet normal -5.735764e-01 8.191521e-01 0.000000e+00
    outer loop
      vertex   -2.547843e-02 -9.566787e-03 9.685674e-03
      vertex   -1.747843e-02 -3.965127e-03 9.685674e-03
      vertex   -1.747843e-02 -3.965127e-03 9.425527e-03
    endloop
  endfacet
  facet normal 5.735764e-01 -8.191521e-01 2.826550e-08
    outer loop
      vertex   -1.544806e-02 -1.810979e-03 2.554343e-03
      vertex   -1.462909e-02 -1.237531e-03 4.911696e-03
      vertex   -1.621217e-02 -2.346020e-03 2.584841e-03
    endloop
  endfacet
  facet normal 5.735763e-01 -8.191521e-01 5.298350e-08
    outer loop
      vertex   -1.621217e-02 -2.346020e-03 2.584841e-03
      vertex   -1.462909e-02 -1.237531e-03 4.911696e-03
      vertex   -1.697260e-02 -2.878473e-03 2.665870e-03
    endloop
  endfacet
  facet normal 5.735764e-01 -8.191521e-01 -3.971254e-08
    outer loop
      vertex   -1.697260e-02 -2.878473e-03 2.665870e-03
      vertex   -1.462909e-02 -1.237531e-03 4.911696e-03
      vertex   -1.524113e-02 -1.666087e-03 5.258094e-03
    endloop
  endfacet
  facet normal 5.735764e-01 -8.191521e-01 -1.677802e-08
    outer loop
      vertex   -1.697260e-02 -2.878473e-03 2.665870e-03
      vertex   -1.524113e-02 -1.666087e-03 5.258094e-03
      vertex   -1.772598e-02 -3.406000e-03 2.797075e-03
    endloop
  endfacet
  facet normal 5.735762e-01 -8.191522e-01 1.976843e-07
    outer loop
      vertex   -1.772598e-02 -3.406000e-03 2.797075e-03
      vertex   -1.524113e-02 -1.666087e-03 5.258094e-03
      vertex   -1.846903e-02 -3.926286e-03 2.977879e-03
    endloop
  endfacet
  facet normal 5.735762e-01 -8.191522e-01 2.965074e-07
    outer loop
      vertex   -1.846903e-02 -3.926286e-03 2.977879e-03
      vertex   -1.524113e-02 -1.666087e-03 5.258094e-03
      vertex   -1.579852e-02 -2.056372e-03 5.686938e-03
    endloop
  endfacet
  facet normal 5.735768e-01 -8.191518e-01 -5.591416e-07
    outer loop
      vertex   -1.846903e-02 -3.926286e-03 2.977879e-03
      vertex   -1.579852e-02 -2.056372e-03 5.686938e-03
      vertex   -1.919847e-02 -4.437047e-03 3.207489e-03
    endloop
  endfacet
  facet normal 5.735762e-01 -8.191522e-01 5.351482e-07
    outer loop
      vertex   -1.919847e-02 -4.437047e-03 3.207489e-03
      vertex   -1.579852e-02 -2.056372e-03 5.686938e-03
      vertex   -1.991111e-02 -4.936041e-03 3.484896e-03
    endloop
  endfacet
  facet normal 5.735764e-01 -8.191521e-01 1.263478e-07
    outer loop
      vertex   -1.991111e-02 -4.936041e-03 3.484896e-03
      vertex   -1.579852e-02 -2.056372e-03 5.686938e-03
      vertex   -1.629022e-02 -2.400666e-03 6.189744e-03
    endloop
  endfacet
  facet normal 5.735769e-01 -8.191518e-01 -8.012073e-07
    outer loop
      vertex   -1.991111e-02 -4.936041e-03 3.484896e-03
      vertex   -1.629022e-02 -2.400666e-03 6.189744e-03
      vertex   -2.060381e-02 -5.421078e-03 3.808884e-03
    endloop
  endfacet
  facet normal 5.735760e-01 -8.191523e-01 1.476800e-06
    outer loop
      vertex   -2.060381e-02 -5.421078e-03 3.808884e-03
      vertex   -1.629022e-02 -2.400666e-03 6.189744e-03
      vertex   -2.127354e-02 -5.890028e-03 4.178030e-03
    endloop
  endfacet
  facet normal 5.735765e-01 -8.191520e-01 -4.573918e-07
    outer loop
      vertex   -2.127354e-02 -5.890028e-03 4.178030e-03
      vertex   -1.629022e-02 -2.400666e-03 6.189744e-03
      vertex   -1.670651e-02 -2.692157e-03 6.756566e-03
    endloop
  endfacet
  facet normal 5.735764e-01 -8.191521e-01 -1.158472e-07
    outer loop
      vertex   -2.127354e-02 -5.890028e-03 4.178030e-03
      vertex   -1.670651e-02 -2.692157e-03 6.756566e-03
      vertex   -2.191736e-02 -6.340833e-03 4.590713e-03
    endloop
  endfacet
  facet normal 5.735768e-01 -8.191518e-01 -1.487313e-06
    outer loop
      vertex   -2.191736e-02 -6.340833e-03 4.590713e-03
      vertex   -1.670651e-02 -2.692157e-03 6.756566e-03
      vertex   -2.253243e-02 -6.771514e-03 5.045123e-03
    endloop
  endfacet
  facet normal 5.735765e-01 -8.191520e-01 -1.388931e-08
    outer loop
      vertex   -2.253243e-02 -6.771514e-03 5.045123e-03
      vertex   -1.670651e-02 -2.692157e-03 6.756566e-03
      vertex   -1.703916e-02 -2.925078e-03 7.376188e-03
    endloop
  endfacet
  facet normal 5.735764e-01 -8.191520e-01 2.051009e-07
    outer loop
      vertex   -2.253243e-02 -6.771514e-03 5.045123e-03
      vertex   -1.703916e-02 -2.925078e-03 7.376188e-03
      vertex   -2.311607e-02 -7.180181e-03 5.539263e-03
    endloop
  endfacet
  facet normal 5.735762e-01 -8.191522e-01 1.146821e-06
    outer loop
      vertex   -2.311607e-02 -7.180181e-03 5.539263e-03
      vertex   -1.703916e-02 -2.925078e-03 7.376188e-03
      vertex   -2.366571e-02 -7.565039e-03 6.070967e-03
    endloop
  endfacet
  facet normal 5.735763e-01 -8.191522e-01 8.107417e-07
    outer loop
      vertex   -2.366571e-02 -7.565039e-03 6.070967e-03
      vertex   -1.703916e-02 -2.925078e-03 7.376188e-03
      vertex   -1.728158e-02 -3.094822e-03 8.036353e-03
    endloop
  endfacet
  facet normal 5.735765e-01 -8.191520e-01 -1.866342e-07
    outer loop
      vertex   -2.366571e-02 -7.565039e-03 6.070967e-03
      vertex   -1.728158e-02 -3.094822e-03 8.036353e-03
      vertex   -2.417893e-02 -7.924399e-03 6.637898e-03
    endloop
  endfacet
  facet normal 5.735766e-01 -8.191519e-01 -7.927396e-07
    outer loop
      vertex   -2.417893e-02 -7.924399e-03 6.637898e-03
      vertex   -1.728158e-02 -3.094822e-03 8.036353e-03
      vertex   -1.742897e-02 -3.198031e-03 8.724001e-03
    endloop
  endfacet
  facet normal 5.735764e-01 -8.191520e-01 -1.342323e-07
    outer loop
      vertex   -2.417893e-02 -7.924399e-03 6.637898e-03
      vertex   -1.742897e-02 -3.198031e-03 8.724001e-03
      vertex   -2.465348e-02 -8.256685e-03 7.237570e-03
    endloop
  endfacet
  facet normal 5.735765e-01 -8.191520e-01 -6.643473e-07
    outer loop
      vertex   -2.465348e-02 -8.256685e-03 7.237570e-03
      vertex   -1.742897e-02 -3.198031e-03 8.724001e-03
      vertex   -2.508728e-02 -8.560438e-03 7.867349e-03
    endloop
  endfacet
  facet normal 5.735764e-01 -8.191520e-01 2.241573e-07
    outer loop
      vertex   -2.508728e-02 -8.560438e-03 7.867349e-03
      vertex   -1.742897e-02 -3.198031e-03 8.724001e-03
      vertex   -1.747843e-02 -3.232662e-03 9.425527e-03
    endloop
  endfacet
  facet normal 5.735764e-01 -8.191521e-01 8.207620e-07
    outer loop
      vertex   -2.508728e-02 -8.560438e-03 7.867349e-03
      vertex   -1.747843e-02 -3.232662e-03 9.425527e-03
      vertex   -2.547843e-02 -8.834323e-03 8.524471e-03
    endloop
  endfacet
  facet normal 5.735764e-01 -8.191521e-01 0.000000e+00
    outer loop
      vertex   -2.547843e-02 -8.834323e-03 8.524471e-03
      vertex   -1.747843e-02 -3.232662e-03 9.425527e-03
      vertex   -2.547843e-02 -8.834323e-03 9.685674e-03
    endloop
  endfacet
  facet normal 5.735764e-01 -8.191521e-01 0.000000e+00
    outer loop
      vertex   -2.547843e-02 -8.834323e-03 9.685674e-03
      vertex   -1.747843e-02 -3.232662e-03 9.425527e-03
      vertex   -1.747843e-02 -3.232662e-03 9.685674e-03
    endloop
  endfacet
  facet normal -5.735764e-01 8.191521e-01 0.000000e+00
    outer loop
      vertex   -1.747843e-02 -1.318945e-02 9.685674e-03
      vertex   -1.747843e-02 -1.318945e-02 9.425527e-03
      vertex   -2.373498e-02 -1.757034e-02 9.685674e-03
    endloop
  endfacet
  facet normal -5.735764e-01 8.191521e-01 1.264057e-07
    outer loop
      vertex   -2.373498e-02 -1.757034e-02 9.685674e-03
      vertex   -1.747843e-02 -1.318945e-02 9.425527e-03
      vertex   -1.742897e-02 -1.315482e-02 8.724001e-03
    endloop
  endfacet
  facet normal -5.735764e-01 8.191520e-01 0.000000e+00
    outer loop
      vertex   -2.373498e-02 -1.757034e-02 9.685674e-03
      vertex   -1.742897e-02 -1.315482e-02 8.724001e-03
      vertex   -2.373498e-02 -1.757034e-02 6.143202e-03
    endloop
  endfacet
  facet normal -5.735767e-01 8.191518e-01 1.096770e-06
    outer loop
      vertex   -2.373498e-02 -1.757034e-02 6.143202e-03
      vertex   -1.742897e-02 -1.315482e-02 8.724001e-03
      vertex   -1.728158e-02 -1.305161e-02 8.036353e-03
    endloop
  endfacet
  facet normal -5.735764e-01 8.191521e-01 -5.098424e-07
    outer loop
      vertex   -2.373498e-02 -1.757034e-02 6.143202e-03
      vertex   -1.728158e-02 -1.305161e-02 8.036353e-03
      vertex   -2.289497e-02 -1.698215e-02 5.344200e-03
    endloop
  endfacet
  facet normal -5.735761e-01 8.191523e-01 -1.455878e-06
    outer loop
      vertex   -2.289497e-02 -1.698215e-02 5.344200e-03
      vertex   -1.728158e-02 -1.305161e-02 8.036353e-03
      vertex   -1.703916e-02 -1.288187e-02 7.376188e-03
    endloop
  endfacet
  facet normal -5.735767e-01 8.191518e-01 1.254033e-06
    outer loop
      vertex   -2.289497e-02 -1.698215e-02 5.344200e-03
      vertex   -1.703916e-02 -1.288187e-02 7.376188e-03
      vertex   -2.197904e-02 -1.634081e-02 4.633494e-03
    endloop
  endfacet
  facet normal -5.735764e-01 8.191520e-01 4.484393e-07
    outer loop
      vertex   -2.197904e-02 -1.634081e-02 4.633494e-03
      vertex   -1.703916e-02 -1.288187e-02 7.376188e-03
      vertex   -1.670651e-02 -1.264895e-02 6.756566e-03
    endloop
  endfacet
  facet normal -5.735762e-01 8.191522e-01 -4.779043e-07
    outer loop
      vertex   -2.197904e-02 -1.634081e-02 4.633494e-03
      vertex   -1.670651e-02 -1.264895e-02 6.756566e-03
      vertex   -2.099644e-02 -1.565279e-02 4.018253e-03
    endloop
  endfacet
  facet normal -5.735765e-01 8.191520e-01 3.433399e-07
    outer loop
      vertex   -2.099644e-02 -1.565279e-02 4.018253e-03
      vertex   -1.670651e-02 -1.264895e-02 6.756566e-03
      vertex   -1.995707e-02 -1.492502e-02 3.504684e-03
    endloop
  endfacet
  facet normal -5.735769e-01 8.191517e-01 8.971632e-07
    outer loop
      vertex   -1.995707e-02 -1.492502e-02 3.504684e-03
      vertex   -1.670651e-02 -1.264895e-02 6.756566e-03
      vertex   -1.629022e-02 -1.235746e-02 6.189744e-03
    endloop
  endfacet
  facet normal -5.735760e-01 8.191523e-01 -8.687376e-07
    outer loop
      vertex   -1.995707e-02 -1.492502e-02 3.504684e-03
      vertex   -1.629022e-02 -1.235746e-02 6.189744e-03
      vertex   -1.887143e-02 -1.416484e-02 3.097968e-03
    endloop
  endfacet
  facet normal -5.735761e-01 8.191522e-01 -7.476734e-07
    outer loop
      vertex   -1.887143e-02 -1.416484e-02 3.097968e-03
      vertex   -1.629022e-02 -1.235746e-02 6.189744e-03
      vertex   -1.579852e-02 -1.201316e-02 5.686938e-03
    endloop
  endfacet
  facet normal -5.735765e-01 8.191520e-01 -6.302094e-08
    outer loop
      vertex   -1.887143e-02 -1.416484e-02 3.097968e-03
      vertex   -1.579852e-02 -1.201316e-02 5.686938e-03
      vertex   -1.775047e-02 -1.337994e-02 2.802209e-03
    endloop
  endfacet
  facet normal -5.735762e-01 8.191522e-01 -3.690423e-07
    outer loop
      vertex   -1.775047e-02 -1.337994e-02 2.802209e-03
      vertex   -1.579852e-02 -1.201316e-02 5.686938e-03
      vertex   -1.524113e-02 -1.162288e-02 5.258094e-03
    endloop
  endfacet
  facet normal -5.735767e-01 8.191519e-01 3.023996e-07
    outer loop
      vertex   -1.775047e-02 -1.337994e-02 2.802209e-03
      vertex   -1.524113e-02 -1.162288e-02 5.258094e-03
      vertex   -1.660550e-02 -1.257822e-02 2.620389e-03
    endloop
  endfacet
  facet normal -5.735769e-01 8.191518e-01 4.433997e-07
    outer loop
      vertex   -1.660550e-02 -1.257822e-02 2.620389e-03
      vertex   -1.524113e-02 -1.162288e-02 5.258094e-03
      vertex   -1.462909e-02 -1.119432e-02 4.911696e-03
    endloop
  endfacet
  facet normal -5.735763e-01 8.191521e-01 -2.301045e-07
    outer loop
      vertex   -1.660550e-02 -1.257822e-02 2.620389e-03
      vertex   -1.462909e-02 -1.119432e-02 4.911696e-03
      vertex   -1.544806e-02 -1.176777e-02 2.554343e-03
    endloop
  endfacet
  facet normal 9.975240e-01 -0.000000e+00 7.032711e-02
    outer loop
      vertex   -1.747843e-02 -1.757034e-02 9.425527e-03
      vertex   -1.742897e-02 -1.753647e-02 8.724001e-03
      vertex   -1.747843e-02 -1.318945e-02 9.425527e-03
    endloop
  endfacet
  facet normal 9.975240e-01 0.000000e+00 7.032711e-02
    outer loop
      vertex   -1.747843e-02 -1.318945e-02 9.425527e-03
      vertex   -1.742897e-02 -1.753647e-02 8.724001e-03
      vertex   -1.742897e-02 -1.315482e-02 8.724001e-03
    endloop
  endfacet
  facet normal 9.777898e-01 0.000000e+00 2.095878e-01
    outer loop
      vertex   -1.742897e-02 -1.315482e-02 8.724001e-03
      vertex   -1.742897e-02 -1.753647e-02 8.724001e-03
      vertex   -1.728158e-02 -1.743553e-02 8.036353e-03
    endloop
  endfacet
  facet normal 9.777898e-01 0.000000e+00 2.095878e-01
    outer loop
      vertex   -1.742897e-02 -1.315482e-02 8.724001e-03
      vertex   -1.728158e-02 -1.743553e-02 8.036353e-03
      vertex   -1.728158e-02 -1.305161e-02 8.036353e-03
    endloop
  endfacet
  facet normal 9.387108e-01 0.000000e+00 3.447058e-01
    outer loop
      vertex   -1.728158e-02 -1.305161e-02 8.036353e-03
      vertex   -1.728158e-02 -1.743553e-02 8.036353e-03
      vertex   -1.703916e-02 -1.726952e-02 7.376188e-03
    endloop
  endfacet
  facet normal 9.387108e-01 0.000000e+00 3.447058e-01
    outer loop
      vertex   -1.728158e-02 -1.305161e-02 8.036353e-03
      vertex   -1.703916e-02 -1.726952e-02 7.376188e-03
      vertex   -1.703916e-02 -1.288187e-02 7.376188e-03
    endloop
  endfacet
  facet normal 8.810619e-01 0.000000e+00 4.730010e-01
    outer loop
      vertex   -1.703916e-02 -1.288187e-02 7.376188e-03
      vertex   -1.703916e-02 -1.726952e-02 7.376188e-03
      vertex   -1.670651e-02 -1.704172e-02 6.756566e-03
    endloop
  endfacet
  facet normal 8.810619e-01 0.000000e+00 4.730010e-01
    outer loop
      vertex   -1.703916e-02 -1.288187e-02 7.376188e-03
      vertex   -1.670651e-02 -1.704172e-02 6.756566e-03
      vertex   -1.670651e-02 -1.264895e-02 6.756566e-03
    endloop
  endfacet
  facet normal 8.059822e-01 0.000000e+00 5.919397e-01
    outer loop
      vertex   -1.670651e-02 -1.264895e-02 6.756566e-03
      vertex   -1.670651e-02 -1.704172e-02 6.756566e-03
      vertex   -1.629022e-02 -1.675664e-02 6.189744e-03
    endloop
  endfacet
  facet normal 8.059822e-01 0.000000e+00 5.919397e-01
    outer loop
      vertex   -1.670651e-02 -1.264895e-02 6.756566e-03
      vertex   -1.629022e-02 -1.675664e-02 6.189744e-03
      vertex   -1.629022e-02 -1.235746e-02 6.189744e-03
    endloop
  endfacet
  facet normal 7.149571e-01 0.000000e+00 6.991683e-01
    outer loop
      vertex   -1.629022e-02 -1.235746e-02 6.189744e-03
      vertex   -1.629022e-02 -1.675664e-02 6.189744e-03
      vertex   -1.579852e-02 -1.641992e-02 5.686938e-03
    endloop
  endfacet
  facet normal 7.149571e-01 0.000000e+00 6.991683e-01
    outer loop
      vertex   -1.629022e-02 -1.235746e-02 6.189744e-03
      vertex   -1.579852e-02 -1.641992e-02 5.686938e-03
      vertex   -1.579852e-02 -1.201316e-02 5.686938e-03
    endloop
  endfacet
  facet normal 6.097875e-01 0.000000e+00 7.925650e-01
    outer loop
      vertex   -1.579852e-02 -1.201316e-02 5.686938e-03
      vertex   -1.579852e-02 -1.641992e-02 5.686938e-03
      vertex   -1.524113e-02 -1.603822e-02 5.258094e-03
    endloop
  endfacet
  facet normal 6.097875e-01 0.000000e+00 7.925650e-01
    outer loop
      vertex   -1.579852e-02 -1.201316e-02 5.686938e-03
      vertex   -1.524113e-02 -1.603822e-02 5.258094e-03
      vertex   -1.524113e-02 -1.162288e-02 5.258094e-03
    endloop
  endfacet
  facet normal 4.925550e-01 0.000000e+00 8.702813e-01
    outer loop
      vertex   -1.524113e-02 -1.162288e-02 5.258094e-03
      vertex   -1.524113e-02 -1.603822e-02 5.258094e-03
      vertex   -1.462909e-02 -1.561909e-02 4.911696e-03
    endloop
  endfacet
  facet normal 4.925550e-01 0.000000e+00 8.702813e-01
    outer loop
      vertex   -1.524113e-02 -1.162288e-02 5.258094e-03
      vertex   -1.462909e-02 -1.561909e-02 4.911696e-03
      vertex   -1.462909e-02 -1.119432e-02 4.911696e-03
    endloop
  endfacet
  facet normal 9.975240e-01 -0.000000e+00 7.032711e-02
    outer loop
      vertex   -1.747843e-02 -1.245699e-02 9.425527e-03
      vertex   -1.742897e-02 -1.242236e-02 8.724001e-03
      vertex   -1.747843e-02 -3.965127e-03 9.425527e-03
    endloop
  endfacet
  facet normal 9.975240e-01 0.000000e+00 7.032711e-02
    outer loop
      vertex   -1.747843e-02 -3.965127e-03 9.425527e-03
      vertex   -1.742897e-02 -1.242236e-02 8.724001e-03
      vertex   -1.742897e-02 -3.930496e-03 8.724001e-03
    endloop
  endfacet
  facet normal 9.777898e-01 0.000000e+00 2.095878e-01
    outer loop
      vertex   -1.742897e-02 -3.930496e-03 8.724001e-03
      vertex   -1.742897e-02 -1.242236e-02 8.724001e-03
      vertex   -1.728158e-02 -1.231915e-02 8.036353e-03
    endloop
  endfacet
  facet normal 9.777898e-01 0.000000e+00 2.095878e-01
    outer loop
      vertex   -1.742897e-02 -3.930496e-03 8.724001e-03
      vertex   -1.728158e-02 -1.231915e-02 8.036353e-03
      vertex   -1.728158e-02 -3.827287e-03 8.036353e-03
    endloop
  endfacet
  facet normal 9.387108e-01 0.000000e+00 3.447058e-01
    outer loop
      vertex   -1.728158e-02 -3.827287e-03 8.036353e-03
      vertex   -1.728158e-02 -1.231915e-02 8.036353e-03
      vertex   -1.703916e-02 -1.214940e-02 7.376188e-03
    endloop
  endfacet
  facet normal 9.387108e-01 0.000000e+00 3.447058e-01
    outer loop
      vertex   -1.728158e-02 -3.827287e-03 8.036353e-03
      vertex   -1.703916e-02 -1.214940e-02 7.376188e-03
      vertex   -1.703916e-02 -3.657543e-03 7.376188e-03
    endloop
  endfacet
  facet normal 8.810619e-01 0.000000e+00 4.730010e-01
    outer loop
      vertex   -1.703916e-02 -3.657543e-03 7.376188e-03
      vertex   -1.703916e-02 -1.214940e-02 7.376188e-03
      vertex   -1.670651e-02 -1.191648e-02 6.756566e-03
    endloop
  endfacet
  facet normal 8.810619e-01 0.000000e+00 4.730010e-01
    outer loop
      vertex   -1.703916e-02 -3.657543e-03 7.376188e-03
      vertex   -1.670651e-02 -1.191648e-02 6.756566e-03
      vertex   -1.670651e-02 -3.424621e-03 6.756566e-03
    endloop
  endfacet
  facet normal 8.059822e-01 0.000000e+00 5.919397e-01
    outer loop
      vertex   -1.670651e-02 -3.424621e-03 6.756566e-03
      vertex   -1.670651e-02 -1.191648e-02 6.756566e-03
      vertex   -1.629022e-02 -1.162499e-02 6.189744e-03
    endloop
  endfacet
  facet normal 8.059822e-01 0.000000e+00 5.919397e-01
    outer loop
      vertex   -1.670651e-02 -3.424621e-03 6.756566e-03
      vertex   -1.629022e-02 -1.162499e-02 6.189744e-03
      vertex   -1.629022e-02 -3.133130e-03 6.189744e-03
    endloop
  endfacet
  facet normal 7.149571e-01 0.000000e+00 6.991683e-01
    outer loop
      vertex   -1.629022e-02 -3.133130e-03 6.189744e-03
      vertex   -1.629022e-02 -1.162499e-02 6.189744e-03
      vertex   -1.579852e-02 -1.128070e-02 5.686938e-03
    endloop
  endfacet
  facet normal 7.149571e-01 0.000000e+00 6.991683e-01
    outer loop
      vertex   -1.629022e-02 -3.133130e-03 6.189744e-03
      vertex   -1.579852e-02 -1.128070e-02 5.686938e-03
      vertex   -1.579852e-02 -2.788837e-03 5.686938e-03
    endloop
  endfacet
  facet normal 6.097875e-01 0.000000e+00 7.925650e-01
    outer loop
      vertex   -1.579852e-02 -2.788837e-03 5.686938e-03
      vertex   -1.579852e-02 -1.128070e-02 5.686938e-03
      vertex   -1.524113e-02 -1.089041e-02 5.258094e-03
    endloop
  endfacet
  facet normal 6.097875e-01 0.000000e+00 7.925650e-01
    outer loop
      vertex   -1.579852e-02 -2.788837e-03 5.686938e-03
      vertex   -1.524113e-02 -1.089041e-02 5.258094e-03
      vertex   -1.524113e-02 -2.398551e-03 5.258094e-03
    endloop
  endfacet
  facet normal 4.925550e-01 0.000000e+00 8.702813e-01
    outer loop
      vertex   -1.524113e-02 -2.398551e-03 5.258094e-03
      vertex   -1.524113e-02 -1.089041e-02 5.258094e-03
      vertex   -1.462909e-02 -1.046186e-02 4.911696e-03
    endloop
  endfacet
  facet normal 4.925550e-01 0.000000e+00 8.702813e-01
    outer loop
      vertex   -1.524113e-02 -2.398551e-03 5.258094e-03
      vertex   -1.462909e-02 -1.046186e-02 4.911696e-03
      vertex   -1.462909e-02 -1.969996e-03 4.911696e-03
    endloop
  endfacet
  facet normal 0.000000e+00 0.000000e+00 -1.000000e+00
    outer loop
      vertex   -2.547843e-02 -9.566787e-03 9.685674e-03
      vertex   -2.547843e-02 -8.834323e-03 9.685674e-03
      vertex   -1.747843e-02 -3.965127e-03 9.685674e-03
    endloop
  endfacet
  facet normal -0.000000e+00 0.000000e+00 -1.000000e+00
    outer loop
      vertex   -1.747843e-02 -3.965127e-03 9.685674e-03
      vertex   -2.547843e-02 -8.834323e-03 9.685674e-03
      vertex   -1.747843e-02 -3.232662e-03 9.685674e-03
    endloop
  endfacet
endsolid
