solid ASCII
  facet normal 9.981960e-01 -6.004014e-02 0.000000e+00
    outer loop
      vertex   -8.002591e-03 5.395852e-04 -2.481433e-02
      vertex   -7.937704e-03 1.618359e-03 -2.481433e-02
      vertex   -8.002591e-03 5.395852e-04 2.664535e-17
    endloop
  endfacet
  facet normal 9.981065e-01 -6.150912e-02 -6.409584e-05
    outer loop
      vertex   -8.002591e-03 5.395852e-04 2.664535e-17
      vertex   -7.937704e-03 1.618359e-03 -2.481433e-02
      vertex   -7.934490e-03 1.644653e-03 2.770851e-17
    endloop
  endfacet
  facet normal 9.838026e-01 -1.792551e-01 6.252245e-05
    outer loop
      vertex   -7.934490e-03 1.644653e-03 2.770851e-17
      vertex   -7.937704e-03 1.618359e-03 -2.481433e-02
      vertex   -7.743979e-03 2.681578e-03 -2.481433e-02
    endloop
  endfacet
  facet normal 9.830017e-01 -1.835965e-01 -1.250441e-04
    outer loop
      vertex   -7.934490e-03 1.644653e-03 2.770851e-17
      vertex   -7.743979e-03 2.681578e-03 -2.481433e-02
      vertex   -7.731219e-03 2.732997e-03 2.780021e-17
    endloop
  endfacet
  facet normal 9.552237e-01 -2.958845e-01 1.219182e-04
    outer loop
      vertex   -7.731219e-03 2.732997e-03 2.780021e-17
      vertex   -7.743979e-03 2.681578e-03 -2.481433e-02
      vertex   -7.424210e-03 3.713911e-03 -2.481433e-02
    endloop
  endfacet
  facet normal 9.530206e-01 -3.029055e-01 -1.828789e-04
    outer loop
      vertex   -7.731219e-03 2.732997e-03 2.780021e-17
      vertex   -7.424210e-03 3.713911e-03 -2.481433e-02
      vertex   -7.395853e-03 3.788148e-03 2.787443e-17
    endloop
  endfacet
  facet normal 9.128709e-01 -4.082484e-01 1.781557e-04
    outer loop
      vertex   -7.395853e-03 3.788148e-03 2.787443e-17
      vertex   -7.424210e-03 3.713911e-03 -2.481433e-02
      vertex   -6.983006e-03 4.700472e-03 -2.481433e-02
    endloop
  endfacet
  facet normal 9.086170e-01 -4.176303e-01 -2.375535e-04
    outer loop
      vertex   -7.395853e-03 3.788148e-03 2.787443e-17
      vertex   -6.983006e-03 4.700472e-03 -2.481433e-02
      vertex   -6.933467e-03 4.794136e-03 2.793006e-17
    endloop
  endfacet
  facet normal 8.573551e-01 -5.147253e-01 2.312781e-04
    outer loop
      vertex   -6.933467e-03 4.794136e-03 2.793006e-17
      vertex   -6.983006e-03 4.700472e-03 -2.481433e-02
      vertex   -6.426730e-03 5.627036e-03 -2.481433e-02
    endloop
  endfacet
  facet normal 8.504628e-01 -5.260351e-01 -2.890897e-04
    outer loop
      vertex   -6.933467e-03 4.794136e-03 2.793006e-17
      vertex   -6.426730e-03 5.627036e-03 -2.481433e-02
      vertex   -6.351060e-03 5.735738e-03 2.796624e-17
    endloop
  endfacet
  facet normal 7.894771e-01 -6.137799e-01 2.812571e-04
    outer loop
      vertex   -6.351060e-03 5.735738e-03 2.796624e-17
      vertex   -6.426730e-03 5.627036e-03 -2.481433e-02
      vertex   -5.763404e-03 6.480243e-03 -2.481433e-02
    endloop
  endfacet
  facet normal 7.794383e-01 -6.264789e-01 -3.374943e-04
    outer loop
      vertex   -6.351060e-03 5.735738e-03 2.796624e-17
      vertex   -5.763404e-03 6.480243e-03 -2.481433e-02
      vertex   -5.657445e-03 6.598704e-03 2.798243e-17
    endloop
  endfacet
  facet normal 7.102154e-01 -7.039843e-01 3.280944e-04
    outer loop
      vertex   -5.657445e-03 6.598704e-03 2.798243e-17
      vertex   -5.763404e-03 6.480243e-03 -2.481433e-02
      vertex   -5.002591e-03 7.247790e-03 -2.481433e-02
    endloop
  endfacet
  facet normal 6.966178e-01 -7.174424e-01 -3.827825e-04
    outer loop
      vertex   -5.657445e-03 6.598704e-03 2.798243e-17
      vertex   -5.002591e-03 7.247790e-03 -2.481433e-02
      vertex   -4.863119e-03 7.369974e-03 2.797839e-17
    endloop
  endfacet
  facet normal 6.207124e-01 -7.840383e-01 3.717702e-04
    outer loop
      vertex   -4.863119e-03 7.369974e-03 2.797839e-17
      vertex   -5.002591e-03 7.247790e-03 -2.481433e-02
      vertex   -4.155262e-03 7.918608e-03 -2.481433e-02
    endloop
  endfacet
  facet normal 6.032558e-01 -7.975477e-01 -4.248865e-04
    outer loop
      vertex   -4.863119e-03 7.369974e-03 2.797839e-17
      vertex   -4.155262e-03 7.918608e-03 -2.481433e-02
      vertex   -3.980102e-03 8.037878e-03 2.795417e-17
    endloop
  endfacet
  facet normal 5.222597e-01 -8.527864e-01 4.123542e-04
    outer loop
      vertex   -3.980102e-03 8.037878e-03 2.795417e-17
      vertex   -4.155262e-03 7.918608e-03 -2.481433e-02
      vertex   -3.233636e-03 8.483027e-03 -2.481433e-02
    endloop
  endfacet
  facet normal 5.007635e-01 -8.655840e-01 -4.638756e-04
    outer loop
      vertex   -3.980102e-03 8.037878e-03 2.795417e-17
      vertex   -3.233636e-03 8.483027e-03 -2.481433e-02
      vertex   -3.021758e-03 8.592305e-03 2.791015e-17
    endloop
  endfacet
  facet normal 4.162763e-01 -9.092381e-01 4.497656e-04
    outer loop
      vertex   -3.021758e-03 8.592305e-03 2.791015e-17
      vertex   -3.233636e-03 8.483027e-03 -2.481433e-02
      vertex   -2.251000e-03 8.932906e-03 -2.481433e-02
    endloop
  endfacet
  facet normal 3.906933e-01 -9.205208e-01 -4.997359e-04
    outer loop
      vertex   -3.021758e-03 8.592305e-03 2.791015e-17
      vertex   -2.251000e-03 8.932906e-03 -2.481433e-02
      vertex   -2.002590e-03 9.024867e-03 2.784698e-17
    endloop
  endfacet
  facet normal 3.042902e-01 -9.525792e-01 4.840297e-04
    outer loop
      vertex   -2.002590e-03 9.024867e-03 2.784698e-17
      vertex   -2.251000e-03 8.932906e-03 -2.481433e-02
      vertex   -1.221525e-03 9.261760e-03 -2.481433e-02
    endloop
  endfacet
  facet normal 2.747108e-01 -9.615268e-01 -5.324441e-04
    outer loop
      vertex   -2.002590e-03 9.024867e-03 2.784698e-17
      vertex   -1.221525e-03 9.261760e-03 -2.481433e-02
      vertex   -9.380222e-04 9.329017e-03 2.776564e-17
    endloop
  endfacet
  facet normal 1.879162e-01 -9.821849e-01 5.151731e-04
    outer loop
      vertex   -9.380222e-04 9.329017e-03 2.776564e-17
      vertex   -1.221525e-03 9.261760e-03 -2.481433e-02
      vertex   -1.600547e-04 9.464846e-03 -2.481433e-02
    endloop
  endfacet
  facet normal 1.545706e-01 -9.879816e-01 -5.619938e-04
    outer loop
      vertex   -9.380222e-04 9.329017e-03 2.776564e-17
      vertex   -1.600547e-04 9.464846e-03 -2.481433e-02
      vertex   1.558358e-04 9.500152e-03 2.766733e-17
    endloop
  endfacet
  facet normal 6.883365e-02 -9.976280e-01 5.431769e-04
    outer loop
      vertex   1.558358e-04 9.500152e-03 2.766733e-17
      vertex   -1.600547e-04 9.464846e-03 -2.481433e-02
      vertex   9.181057e-04 9.539236e-03 -2.481433e-02
    endloop
  endfacet
  facet normal 3.209128e-02 -9.994848e-01 -5.884343e-04
    outer loop
      vertex   1.558358e-04 9.500152e-03 2.766733e-17
      vertex   9.181057e-04 9.539236e-03 -2.481433e-02
      vertex   1.262430e-03 9.535682e-03 2.755356e-17
    endloop
  endfacet
  facet normal -5.124221e-02 -9.986861e-01 5.680173e-04
    outer loop
      vertex   1.262430e-03 9.535682e-03 2.755356e-17
      vertex   9.181057e-04 9.539236e-03 -2.481433e-02
      vertex   1.997410e-03 9.483857e-03 -2.481433e-02
    endloop
  endfacet
  facet normal -7.033756e-02 -9.975232e-01 0.000000e+00
    outer loop
      vertex   1.262430e-03 9.535682e-03 2.755356e-17
      vertex   1.997410e-03 9.483857e-03 -2.481433e-02
      vertex   1.997410e-03 9.483857e-03 -1.100000e-02
    endloop
  endfacet
  facet normal -7.627179e-02 -9.970870e-01 -3.985584e-04
    outer loop
      vertex   1.997410e-03 9.483857e-03 -1.100000e-02
      vertex   2.025455e-03 9.481376e-03 -1.016082e-02
      vertex   1.262430e-03 9.535682e-03 2.755356e-17
    endloop
  endfacet
  facet normal -9.087300e-02 -9.958614e-01 -1.501585e-03
    outer loop
      vertex   1.262430e-03 9.535682e-03 2.755356e-17
      vertex   2.025455e-03 9.481376e-03 -1.016082e-02
      vertex   2.365013e-03 9.435071e-03 2.742605e-17
    endloop
  endfacet
  facet normal -9.618994e-02 -9.953621e-01 -1.321627e-03
    outer loop
      vertex   2.365013e-03 9.435071e-03 2.742605e-17
      vertex   2.025455e-03 9.481376e-03 -1.016082e-02
      vertex   2.110117e-03 9.472058e-03 -9.304538e-03
    endloop
  endfacet
  facet normal -1.301302e-01 -9.914968e-01 -3.764770e-04
    outer loop
      vertex   2.365013e-03 9.435071e-03 2.742605e-17
      vertex   2.110117e-03 9.472058e-03 -9.304538e-03
      vertex   2.252188e-03 9.453084e-03 -8.441502e-03
    endloop
  endfacet
  facet normal -1.549642e-01 -9.879201e-01 -3.692455e-05
    outer loop
      vertex   2.252188e-03 9.453084e-03 -8.441502e-03
      vertex   2.452458e-03 9.421638e-03 -7.582054e-03
      vertex   2.365013e-03 9.435071e-03 2.742605e-17
    endloop
  endfacet
  facet normal -1.768398e-01 -9.842396e-01 -2.957381e-04
    outer loop
      vertex   2.365013e-03 9.435071e-03 2.742605e-17
      vertex   2.452458e-03 9.421638e-03 -7.582054e-03
      vertex   2.711690e-03 9.374807e-03 -6.736532e-03
    endloop
  endfacet
  facet normal -2.040709e-01 -9.789546e-01 -1.744391e-03
    outer loop
      vertex   2.365013e-03 9.435071e-03 2.742605e-17
      vertex   2.711690e-03 9.374807e-03 -6.736532e-03
      vertex   3.027903e-03 9.307425e-03 -5.914524e-03
    endloop
  endfacet
  facet normal -2.124628e-01 -9.771654e-01 -2.723562e-03
    outer loop
      vertex   2.365013e-03 9.435071e-03 2.742605e-17
      vertex   3.027903e-03 9.307425e-03 -5.914524e-03
      vertex   3.446900e-03 9.199839e-03 2.728672e-17
    endloop
  endfacet
  facet normal -2.459089e-01 -9.692929e-01 -2.109736e-04
    outer loop
      vertex   3.446900e-03 9.199839e-03 2.728672e-17
      vertex   3.027903e-03 9.307425e-03 -5.914524e-03
      vertex   3.394007e-03 9.214373e-03 -5.123954e-03
    endloop
  endfacet
  facet normal -2.894567e-01 -9.571911e-01 2.728770e-04
    outer loop
      vertex   3.446900e-03 9.199839e-03 2.728672e-17
      vertex   3.394007e-03 9.214373e-03 -5.123954e-03
      vertex   3.802356e-03 9.091101e-03 -4.372534e-03
    endloop
  endfacet
  facet normal -3.308355e-01 -9.436822e-01 -3.426876e-03
    outer loop
      vertex   3.446900e-03 9.199839e-03 2.728672e-17
      vertex   3.802356e-03 9.091101e-03 -4.372534e-03
      vertex   4.491717e-03 8.833547e-03 2.713769e-17
    endloop
  endfacet
  facet normal -3.313264e-01 -9.435103e-01 -3.339364e-03
    outer loop
      vertex   4.491717e-03 8.833547e-03 2.713769e-17
      vertex   3.802356e-03 9.091101e-03 -4.372534e-03
      vertex   4.245303e-03 8.933061e-03 -3.667974e-03
    endloop
  endfacet
  facet normal -3.889869e-01 -9.212426e-01 1.138391e-03
    outer loop
      vertex   4.491717e-03 8.833547e-03 2.713769e-17
      vertex   4.245303e-03 8.933061e-03 -3.667974e-03
      vertex   4.722143e-03 8.732534e-03 -3.008514e-03
    endloop
  endfacet
  facet normal -4.403005e-01 -8.978433e-01 -3.577433e-03
    outer loop
      vertex   4.722143e-03 8.732534e-03 -3.008514e-03
      vertex   5.254749e-03 8.468770e-03 -2.362301e-03
      vertex   4.491717e-03 8.833547e-03 2.713769e-17
    endloop
  endfacet
  facet normal -4.441992e-01 -8.959134e-01 -5.134728e-03
    outer loop
      vertex   4.491717e-03 8.833547e-03 2.713769e-17
      vertex   5.254749e-03 8.468770e-03 -2.362301e-03
      vertex   5.483654e-03 8.341739e-03 2.698121e-17
    endloop
  endfacet
  facet normal -5.071798e-01 -8.618357e-01 2.800525e-03
    outer loop
      vertex   5.483654e-03 8.341739e-03 2.698121e-17
      vertex   5.254749e-03 8.468770e-03 -2.362301e-03
      vertex   5.824209e-03 8.135627e-03 -1.754014e-03
    endloop
  endfacet
  facet normal -5.508283e-01 -8.345713e-01 -8.877996e-03
    outer loop
      vertex   5.483654e-03 8.341739e-03 2.698121e-17
      vertex   5.824209e-03 8.135627e-03 -1.754014e-03
      vertex   6.407697e-03 7.731858e-03 2.681964e-17
    endloop
  endfacet
  facet normal -5.698130e-01 -8.217743e-01 3.832694e-04
    outer loop
      vertex   6.407697e-03 7.731858e-03 2.681964e-17
      vertex   5.824209e-03 8.135627e-03 -1.754014e-03
      vertex   6.402383e-03 7.734978e-03 -1.209753e-03
    endloop
  endfacet
  facet normal -6.315612e-01 -7.753256e-01 7.742983e-04
    outer loop
      vertex   6.407697e-03 7.731858e-03 2.681964e-17
      vertex   6.402383e-03 7.734978e-03 -1.209753e-03
      vertex   6.957679e-03 7.283114e-03 -7.438096e-04
    endloop
  endfacet
  facet normal -6.490153e-01 -7.604831e-01 -2.108607e-02
    outer loop
      vertex   6.407697e-03 7.731858e-03 2.681964e-17
      vertex   6.957679e-03 7.283114e-03 -7.438096e-04
      vertex   7.249864e-03 7.013131e-03 2.665543e-17
    endloop
  endfacet
  facet normal -6.979243e-01 -7.160295e-01 1.426193e-02
    outer loop
      vertex   7.249864e-03 7.013131e-03 2.665543e-17
      vertex   6.957679e-03 7.283114e-03 -7.438096e-04
      vertex   7.486799e-03 6.775290e-03 -3.462984e-04
    endloop
  endfacet
  facet normal -7.370263e-01 -6.746236e-01 -4.092927e-02
    outer loop
      vertex   7.249864e-03 7.013131e-03 2.665543e-17
      vertex   7.486799e-03 6.775290e-03 -3.462984e-04
      vertex   7.997410e-03 6.196438e-03 2.664535e-17
    endloop
  endfacet
  facet normal 1.000000e+00 0.000000e+00 -0.000000e+00
    outer loop
      vertex   -8.002591e-03 5.395852e-04 -2.481433e-02
      vertex   -8.002591e-03 5.395852e-04 2.664535e-17
      vertex   -8.002591e-03 -1.697710e-02 -2.481433e-02
    endloop
  endfacet
  facet normal 1.000000e+00 0.000000e+00 0.000000e+00
    outer loop
      vertex   -8.002591e-03 -1.697710e-02 -2.481433e-02
      vertex   -8.002591e-03 5.395852e-04 2.664535e-17
      vertex   -8.002591e-03 -1.697710e-02 2.664535e-17
    endloop
  endfacet
  facet normal -1.812503e-14 -2.036720e-13 -1.000000e+00
    outer loop
      vertex   -5.000000e-04 -1.978645e-07 5.993565e-19
      vertex   -4.829117e-04 -1.296006e-04 2.664535e-17
      vertex   -8.002591e-03 5.395852e-04 2.664535e-17
    endloop
  endfacet
  facet normal 1.998613e-14 2.245852e-13 -1.000000e+00
    outer loop
      vertex   -8.002591e-03 5.395852e-04 2.664535e-17
      vertex   -4.829117e-04 -1.296006e-04 2.664535e-17
      vertex   -4.329138e-04 -2.501713e-04 5.662170e-19
    endloop
  endfacet
  facet normal -3.445211e-15 -0.000000e+00 -1.000000e+00
    outer loop
      vertex   -8.002591e-03 5.395852e-04 2.664535e-17
      vertex   -4.329138e-04 -2.501713e-04 5.662170e-19
      vertex   -8.002591e-03 -1.697710e-02 2.664535e-17
    endloop
  endfacet
  facet normal -1.876690e-15 -7.098253e-16 -1.000000e+00
    outer loop
      vertex   -8.002591e-03 -1.697710e-02 2.664535e-17
      vertex   -4.329138e-04 -2.501713e-04 5.662170e-19
      vertex   -3.534134e-04 -3.536933e-04 4.905021e-19
    endloop
  endfacet
  facet normal -1.670582e-15 -8.046648e-16 -1.000000e+00
    outer loop
      vertex   -8.002591e-03 -1.697710e-02 2.664535e-17
      vertex   -3.534134e-04 -3.536933e-04 4.905021e-19
      vertex   -2.498286e-04 -4.331116e-04 3.813603e-19
    endloop
  endfacet
  facet normal -1.488607e-15 -8.899413e-16 -1.000000e+00
    outer loop
      vertex   -2.498286e-04 -4.331116e-04 3.813603e-19
      vertex   -1.292184e-04 -4.830141e-04 2.462294e-19
      vertex   -8.002591e-03 -1.697710e-02 2.664535e-17
    endloop
  endfacet
  facet normal -1.302295e-15 -9.788764e-16 -1.000000e+00
    outer loop
      vertex   -8.002591e-03 -1.697710e-02 2.664535e-17
      vertex   -1.292184e-04 -4.830141e-04 2.462294e-19
      vertex   1.978645e-07 -5.000000e-04 9.431829e-20
    endloop
  endfacet
  facet normal 0.000000e+00 -1.611390e-15 -1.000000e+00
    outer loop
      vertex   -8.002591e-03 -1.697710e-02 2.664535e-17
      vertex   1.978645e-07 -5.000000e-04 9.431829e-20
      vertex   7.997410e-03 -1.697710e-02 2.664535e-17
    endloop
  endfacet
  facet normal -9.499342e-16 -2.072444e-15 -1.000000e+00
    outer loop
      vertex   7.997410e-03 -1.697710e-02 2.664535e-17
      vertex   1.978645e-07 -5.000000e-04 9.431829e-20
      vertex   1.296006e-04 -4.829117e-04 -6.402039e-20
    endloop
  endfacet
  facet normal -5.055616e-16 -1.860476e-15 -1.000000e+00
    outer loop
      vertex   7.997410e-03 -1.697710e-02 2.664535e-17
      vertex   1.296006e-04 -4.829117e-04 -6.402039e-20
      vertex   2.501713e-04 -4.329138e-04 -2.179962e-19
    endloop
  endfacet
  facet normal -7.127822e-17 -1.657111e-15 -1.000000e+00
    outer loop
      vertex   2.501713e-04 -4.329138e-04 -2.179962e-19
      vertex   3.536933e-04 -3.534134e-04 -3.571159e-19
      vertex   7.997410e-03 -1.697710e-02 2.664535e-17
    endloop
  endfacet
  facet normal 4.208962e-16 -1.430805e-15 -1.000000e+00
    outer loop
      vertex   7.997410e-03 -1.697710e-02 2.664535e-17
      vertex   3.536933e-04 -3.534134e-04 -3.571159e-19
      vertex   4.331116e-04 -2.498286e-04 -4.718988e-19
    endloop
  endfacet
  facet normal 1.080984e-15 -1.132305e-15 -1.000000e+00
    outer loop
      vertex   7.997410e-03 -1.697710e-02 2.664535e-17
      vertex   4.331116e-04 -2.498286e-04 -4.718988e-19
      vertex   4.830141e-04 -1.292184e-04 -5.545225e-19
    endloop
  endfacet
  facet normal 3.619702e-15 0.000000e+00 -1.000000e+00
    outer loop
      vertex   7.997410e-03 -1.697710e-02 2.664535e-17
      vertex   4.830141e-04 -1.292184e-04 -5.545225e-19
      vertex   7.997410e-03 6.196438e-03 2.664535e-17
    endloop
  endfacet
  facet normal 4.397159e-15 -9.235588e-16 -1.000000e+00
    outer loop
      vertex   7.997410e-03 6.196438e-03 2.664535e-17
      vertex   4.830141e-04 -1.292184e-04 -5.545225e-19
      vertex   5.000000e-04 1.978645e-07 -5.993565e-19
    endloop
  endfacet
  facet normal 2.063039e-15 1.900710e-15 -1.000000e+00
    outer loop
      vertex   7.997410e-03 6.196438e-03 2.664535e-17
      vertex   5.000000e-04 1.978645e-07 -5.993565e-19
      vertex   7.249864e-03 7.013131e-03 2.665543e-17
    endloop
  endfacet
  facet normal 1.713913e-15 2.236740e-15 -1.000000e+00
    outer loop
      vertex   7.249864e-03 7.013131e-03 2.665543e-17
      vertex   5.000000e-04 1.978645e-07 -5.993565e-19
      vertex   6.407697e-03 7.731858e-03 2.681964e-17
    endloop
  endfacet
  facet normal 3.991702e-15 4.963006e-16 -1.000000e+00
    outer loop
      vertex   6.407697e-03 7.731858e-03 2.681964e-17
      vertex   5.000000e-04 1.978645e-07 -5.993565e-19
      vertex   4.829117e-04 1.296006e-04 -6.033453e-19
    endloop
  endfacet
  facet normal 1.456679e-15 2.471960e-15 -1.000000e+00
    outer loop
      vertex   6.407697e-03 7.731858e-03 2.681964e-17
      vertex   4.829117e-04 1.296006e-04 -6.033453e-19
      vertex   5.483654e-03 8.341739e-03 2.698121e-17
    endloop
  endfacet
  facet normal 1.158024e-15 2.653824e-15 -1.000000e+00
    outer loop
      vertex   5.483654e-03 8.341739e-03 2.698121e-17
      vertex   4.829117e-04 1.296006e-04 -6.033453e-19
      vertex   4.491717e-03 8.833547e-03 2.713769e-17
    endloop
  endfacet
  facet normal 3.289621e-15 1.672068e-15 -1.000000e+00
    outer loop
      vertex   4.491717e-03 8.833547e-03 2.713769e-17
      vertex   4.829117e-04 1.296006e-04 -6.033453e-19
      vertex   4.329138e-04 2.501713e-04 -5.662170e-19
    endloop
  endfacet
  facet normal 8.482730e-16 2.826503e-15 -1.000000e+00
    outer loop
      vertex   4.491717e-03 8.833547e-03 2.713769e-17
      vertex   4.329138e-04 2.501713e-04 -5.662170e-19
      vertex   3.446900e-03 9.199839e-03 2.728672e-17
    endloop
  endfacet
  facet normal 5.105093e-16 2.940252e-15 -1.000000e+00
    outer loop
      vertex   3.446900e-03 9.199839e-03 2.728672e-17
      vertex   4.329138e-04 2.501713e-04 -5.662170e-19
      vertex   2.365013e-03 9.435071e-03 2.742605e-17
    endloop
  endfacet
  facet normal 2.367599e-15 2.549601e-15 -1.000000e+00
    outer loop
      vertex   2.365013e-03 9.435071e-03 2.742605e-17
      vertex   4.329138e-04 2.501713e-04 -5.662170e-19
      vertex   3.534134e-04 3.536933e-04 -4.905021e-19
    endloop
  endfacet
  facet normal 1.615936e-16 3.038250e-15 -1.000000e+00
    outer loop
      vertex   2.365013e-03 9.435071e-03 2.742605e-17
      vertex   3.534134e-04 3.536933e-04 -4.905021e-19
      vertex   1.262430e-03 9.535682e-03 2.755356e-17
    endloop
  endfacet
  facet normal 1.197170e-15 2.935728e-15 -1.000000e+00
    outer loop
      vertex   1.262430e-03 9.535682e-03 2.755356e-17
      vertex   3.534134e-04 3.536933e-04 -4.905021e-19
      vertex   2.498286e-04 4.331116e-04 -3.813603e-19
    endloop
  endfacet
  facet normal 1.427940e-16 3.053020e-15 -1.000000e+00
    outer loop
      vertex   1.262430e-03 9.535682e-03 2.755356e-17
      vertex   2.498286e-04 4.331116e-04 -3.813603e-19
      vertex   1.292184e-04 4.830141e-04 -2.462294e-19
    endloop
  endfacet
  facet normal -2.022228e-16 3.096209e-15 -1.000000e+00
    outer loop
      vertex   1.262430e-03 9.535682e-03 2.755356e-17
      vertex   1.292184e-04 4.830141e-04 -2.462294e-19
      vertex   1.558358e-04 9.500152e-03 2.766733e-17
    endloop
  endfacet
  facet normal -7.672214e-16 3.097877e-15 -1.000000e+00
    outer loop
      vertex   1.558358e-04 9.500152e-03 2.766733e-17
      vertex   1.292184e-04 4.830141e-04 -2.462294e-19
      vertex   -1.978645e-07 5.000000e-04 -9.431829e-20
    endloop
  endfacet
  facet normal -5.740092e-16 3.094527e-15 -1.000000e+00
    outer loop
      vertex   1.558358e-04 9.500152e-03 2.766733e-17
      vertex   -1.978645e-07 5.000000e-04 -9.431829e-20
      vertex   -9.380222e-04 9.329017e-03 2.776564e-17
    endloop
  endfacet
  facet normal -1.617621e-15 2.983674e-15 -1.000000e+00
    outer loop
      vertex   -9.380222e-04 9.329017e-03 2.776564e-17
      vertex   -1.978645e-07 5.000000e-04 -9.431829e-20
      vertex   -1.296006e-04 4.829117e-04 6.402039e-20
    endloop
  endfacet
  facet normal -2.481579e-15 2.904719e-15 -1.000000e+00
    outer loop
      vertex   -9.380222e-04 9.329017e-03 2.776564e-17
      vertex   -1.296006e-04 4.829117e-04 6.402039e-20
      vertex   -2.501713e-04 4.329138e-04 2.179962e-19
    endloop
  endfacet
  facet normal -9.403460e-16 3.023888e-15 -1.000000e+00
    outer loop
      vertex   -9.380222e-04 9.329017e-03 2.776564e-17
      vertex   -2.501713e-04 4.329138e-04 2.179962e-19
      vertex   -2.002590e-03 9.024867e-03 2.784698e-17
    endloop
  endfacet
  facet normal -3.296957e-15 2.543233e-15 -1.000000e+00
    outer loop
      vertex   -2.002590e-03 9.024867e-03 2.784698e-17
      vertex   -2.501713e-04 4.329138e-04 2.179962e-19
      vertex   -3.536933e-04 3.534134e-04 3.571159e-19
    endloop
  endfacet
  facet normal -1.302367e-15 2.922509e-15 -1.000000e+00
    outer loop
      vertex   -2.002590e-03 9.024867e-03 2.784698e-17
      vertex   -3.536933e-04 3.534134e-04 3.571159e-19
      vertex   -3.021758e-03 8.592305e-03 2.791015e-17
    endloop
  endfacet
  facet normal -4.082734e-15 2.022121e-15 -1.000000e+00
    outer loop
      vertex   -3.021758e-03 8.592305e-03 2.791015e-17
      vertex   -3.536933e-04 3.534134e-04 3.571159e-19
      vertex   -4.331116e-04 2.498286e-04 4.718988e-19
    endloop
  endfacet
  facet normal -1.652119e-15 2.776333e-15 -1.000000e+00
    outer loop
      vertex   -3.021758e-03 8.592305e-03 2.791015e-17
      vertex   -4.331116e-04 2.498286e-04 4.718988e-19
      vertex   -3.980102e-03 8.037878e-03 2.795417e-17
    endloop
  endfacet
  facet normal -4.847986e-15 1.320807e-15 -1.000000e+00
    outer loop
      vertex   -3.980102e-03 8.037878e-03 2.795417e-17
      vertex   -4.331116e-04 2.498286e-04 4.718988e-19
      vertex   -4.830141e-04 1.292184e-04 5.545225e-19
    endloop
  endfacet
  facet normal -1.984273e-15 2.587097e-15 -1.000000e+00
    outer loop
      vertex   -3.980102e-03 8.037878e-03 2.795417e-17
      vertex   -4.830141e-04 1.292184e-04 5.545225e-19
      vertex   -4.863119e-03 7.369974e-03 2.797839e-17
    endloop
  endfacet
  facet normal -2.319936e-15 2.384047e-15 -1.000000e+00
    outer loop
      vertex   -4.863119e-03 7.369974e-03 2.797839e-17
      vertex   -4.830141e-04 1.292184e-04 5.545225e-19
      vertex   -5.657445e-03 6.598704e-03 2.798243e-17
    endloop
  endfacet
  facet normal -2.632125e-15 2.134351e-15 -1.000000e+00
    outer loop
      vertex   -5.657445e-03 6.598704e-03 2.798243e-17
      vertex   -4.830141e-04 1.292184e-04 5.545225e-19
      vertex   -6.351060e-03 5.735738e-03 2.796624e-17
    endloop
  endfacet
  facet normal -4.444947e-15 2.369668e-16 -1.000000e+00
    outer loop
      vertex   -6.351060e-03 5.735738e-03 2.796624e-17
      vertex   -4.830141e-04 1.292184e-04 5.545225e-19
      vertex   -5.000000e-04 -1.978645e-07 5.993565e-19
    endloop
  endfacet
  facet normal -2.888262e-15 1.824896e-15 -1.000000e+00
    outer loop
      vertex   -6.351060e-03 5.735738e-03 2.796624e-17
      vertex   -5.000000e-04 -1.978645e-07 5.993565e-19
      vertex   -6.933467e-03 4.794136e-03 2.793006e-17
    endloop
  endfacet
  facet normal -3.133644e-15 1.495620e-15 -1.000000e+00
    outer loop
      vertex   -6.933467e-03 4.794136e-03 2.793006e-17
      vertex   -5.000000e-04 -1.978645e-07 5.993565e-19
      vertex   -7.395853e-03 3.788148e-03 2.787443e-17
    endloop
  endfacet
  facet normal -3.334422e-15 1.130148e-15 -1.000000e+00
    outer loop
      vertex   -7.395853e-03 3.788148e-03 2.787443e-17
      vertex   -5.000000e-04 -1.978645e-07 5.993565e-19
      vertex   -7.731219e-03 2.732997e-03 2.780021e-17
    endloop
  endfacet
  facet normal -3.483802e-15 7.349325e-16 -1.000000e+00
    outer loop
      vertex   -7.731219e-03 2.732997e-03 2.780021e-17
      vertex   -5.000000e-04 -1.978645e-07 5.993565e-19
      vertex   -7.934490e-03 1.644653e-03 2.770851e-17
    endloop
  endfacet
  facet normal -3.387364e-15 1.170820e-15 -1.000000e+00
    outer loop
      vertex   -7.934490e-03 1.644653e-03 2.770851e-17
      vertex   -5.000000e-04 -1.978645e-07 5.993565e-19
      vertex   -8.002591e-03 5.395852e-04 2.664535e-17
    endloop
  endfacet
  facet normal -5.612932e-01 0.000000e+00 8.276170e-01
    outer loop
      vertex   7.997410e-03 6.196438e-03 2.664535e-17
      vertex   7.486799e-03 6.775290e-03 -3.462984e-04
      vertex   7.997410e-03 -1.697710e-02 2.664535e-17
    endloop
  endfacet
  facet normal -5.826922e-01 -6.776099e-04 8.126927e-01
    outer loop
      vertex   7.997410e-03 -1.697710e-02 2.664535e-17
      vertex   7.486799e-03 6.775290e-03 -3.462984e-04
      vertex   6.935967e-03 -1.697710e-02 -7.610432e-04
    endloop
  endfacet
  facet normal -6.006676e-01 -3.036940e-05 7.994989e-01
    outer loop
      vertex   6.935967e-03 -1.697710e-02 -7.610432e-04
      vertex   7.486799e-03 6.775290e-03 -3.462984e-04
      vertex   6.957679e-03 7.283114e-03 -7.438096e-04
    endloop
  endfacet
  facet normal -6.427690e-01 3.106284e-05 7.660600e-01
    outer loop
      vertex   6.935967e-03 -1.697710e-02 -7.610432e-04
      vertex   6.957679e-03 7.283114e-03 -7.438096e-04
      vertex   6.402383e-03 7.734978e-03 -1.209753e-03
    endloop
  endfacet
  facet normal -6.608169e-01 -6.403057e-04 7.505469e-01
    outer loop
      vertex   6.935967e-03 -1.697710e-02 -7.610432e-04
      vertex   6.402383e-03 7.734978e-03 -1.209753e-03
      vertex   5.955692e-03 -1.697710e-02 -1.624124e-03
    endloop
  endfacet
  facet normal -6.853636e-01 1.780932e-04 7.282010e-01
    outer loop
      vertex   5.955692e-03 -1.697710e-02 -1.624124e-03
      vertex   6.402383e-03 7.734978e-03 -1.209753e-03
      vertex   5.824209e-03 8.135627e-03 -1.754014e-03
    endloop
  endfacet
  facet normal -7.301007e-01 -2.881731e-04 6.833395e-01
    outer loop
      vertex   5.955692e-03 -1.697710e-02 -1.624124e-03
      vertex   5.824209e-03 8.135627e-03 -1.754014e-03
      vertex   5.254749e-03 8.468770e-03 -2.362301e-03
    endloop
  endfacet
  facet normal -7.323563e-01 -4.204541e-04 6.809215e-01
    outer loop
      vertex   5.955692e-03 -1.697710e-02 -1.624124e-03
      vertex   5.254749e-03 8.468770e-03 -2.362301e-03
      vertex   5.066353e-03 -1.697710e-02 -2.580641e-03
    endloop
  endfacet
  facet normal -7.716264e-01 2.550922e-04 6.360760e-01
    outer loop
      vertex   5.066353e-03 -1.697710e-02 -2.580641e-03
      vertex   5.254749e-03 8.468770e-03 -2.362301e-03
      vertex   4.722143e-03 8.732534e-03 -3.008514e-03
    endloop
  endfacet
  facet normal -7.965974e-01 -6.045686e-04 6.045099e-01
    outer loop
      vertex   5.066353e-03 -1.697710e-02 -2.580641e-03
      vertex   4.722143e-03 8.732534e-03 -3.008514e-03
      vertex   4.276814e-03 -1.697710e-02 -3.621061e-03
    endloop
  endfacet
  facet normal -8.103397e-01 7.541945e-05 5.859604e-01
    outer loop
      vertex   4.276814e-03 -1.697710e-02 -3.621061e-03
      vertex   4.722143e-03 8.732534e-03 -3.008514e-03
      vertex   4.245303e-03 8.933061e-03 -3.667974e-03
    endloop
  endfacet
  facet normal -8.465995e-01 -6.596019e-05 5.322304e-01
    outer loop
      vertex   4.276814e-03 -1.697710e-02 -3.621061e-03
      vertex   4.245303e-03 8.933061e-03 -3.667974e-03
      vertex   3.802356e-03 9.091101e-03 -4.372534e-03
    endloop
  endfacet
  facet normal -8.528998e-01 -4.733991e-04 5.220744e-01
    outer loop
      vertex   4.276814e-03 -1.697710e-02 -3.621061e-03
      vertex   3.802356e-03 9.091101e-03 -4.372534e-03
      vertex   3.594943e-03 -1.697710e-02 -4.735018e-03
    endloop
  endfacet
  facet normal -8.786159e-01 3.506242e-04 4.775291e-01
    outer loop
      vertex   3.594943e-03 -1.697710e-02 -4.735018e-03
      vertex   3.802356e-03 9.091101e-03 -4.372534e-03
      vertex   3.394007e-03 9.214373e-03 -5.123954e-03
    endloop
  endfacet
  facet normal -9.007025e-01 -4.587378e-04 4.344362e-01
    outer loop
      vertex   3.594943e-03 -1.697710e-02 -4.735018e-03
      vertex   3.394007e-03 9.214373e-03 -5.123954e-03
      vertex   3.027534e-03 -1.697710e-02 -5.911408e-03
    endloop
  endfacet
  facet normal -9.074206e-01 6.256752e-05 4.202236e-01
    outer loop
      vertex   3.027534e-03 -1.697710e-02 -5.911408e-03
      vertex   3.394007e-03 9.214373e-03 -5.123954e-03
      vertex   3.027903e-03 9.307425e-03 -5.914524e-03
    endloop
  endfacet
  facet normal -9.333228e-01 5.567935e-05 3.590385e-01
    outer loop
      vertex   3.027534e-03 -1.697710e-02 -5.911408e-03
      vertex   3.027903e-03 9.307425e-03 -5.914524e-03
      vertex   2.711690e-03 9.374807e-03 -6.736532e-03
    endloop
  endfacet
  facet normal -9.395293e-01 -5.375590e-04 3.424681e-01
    outer loop
      vertex   3.027534e-03 -1.697710e-02 -5.911408e-03
      vertex   2.711690e-03 9.374807e-03 -6.736532e-03
      vertex   2.580243e-03 -1.697710e-02 -7.138510e-03
    endloop
  endfacet
  facet normal -9.560688e-01 2.973685e-04 2.931423e-01
    outer loop
      vertex   2.580243e-03 -1.697710e-02 -7.138510e-03
      vertex   2.711690e-03 9.374807e-03 -6.736532e-03
      vertex   2.452458e-03 9.421638e-03 -7.582054e-03
    endloop
  endfacet
  facet normal -9.689930e-01 -5.389914e-04 2.470875e-01
    outer loop
      vertex   2.580243e-03 -1.697710e-02 -7.138510e-03
      vertex   2.452458e-03 9.421638e-03 -7.582054e-03
      vertex   2.257526e-03 -1.697710e-02 -8.404093e-03
    endloop
  endfacet
  facet normal -9.739075e-01 1.245083e-04 2.269455e-01
    outer loop
      vertex   2.257526e-03 -1.697710e-02 -8.404093e-03
      vertex   2.452458e-03 9.421638e-03 -7.582054e-03
      vertex   2.252188e-03 9.453084e-03 -8.441502e-03
    endloop
  endfacet
  facet normal -9.867197e-01 3.061020e-05 1.624320e-01
    outer loop
      vertex   2.257526e-03 -1.697710e-02 -8.404093e-03
      vertex   2.252188e-03 9.453084e-03 -8.441502e-03
      vertex   2.110117e-03 9.472058e-03 -9.304538e-03
    endloop
  endfacet
  facet normal -9.888003e-01 -4.299497e-04 1.492444e-01
    outer loop
      vertex   2.257526e-03 -1.697710e-02 -8.404093e-03
      vertex   2.110117e-03 9.472058e-03 -9.304538e-03
      vertex   2.062601e-03 -1.697710e-02 -9.695547e-03
    endloop
  endfacet
  facet normal -9.951473e-01 3.331601e-04 9.839633e-02
    outer loop
      vertex   2.062601e-03 -1.697710e-02 -9.695547e-03
      vertex   2.110117e-03 9.472058e-03 -9.304538e-03
      vertex   2.025455e-03 9.481376e-03 -1.016082e-02
    endloop
  endfacet
  facet normal -9.987534e-01 -5.244661e-04 4.991382e-02
    outer loop
      vertex   2.062601e-03 -1.697710e-02 -9.695547e-03
      vertex   2.025455e-03 9.481376e-03 -1.016082e-02
      vertex   1.997410e-03 -1.697710e-02 -1.100000e-02
    endloop
  endfacet
  facet normal -9.994420e-01 0.000000e+00 3.340101e-02
    outer loop
      vertex   1.997410e-03 -1.697710e-02 -1.100000e-02
      vertex   2.025455e-03 9.481376e-03 -1.016082e-02
      vertex   1.997410e-03 9.483857e-03 -1.100000e-02
    endloop
  endfacet
  facet normal 0.000000e+00 1.000000e+00 -0.000000e+00
    outer loop
      vertex   1.997410e-03 -1.697710e-02 -2.481433e-02
      vertex   -8.002591e-03 -1.697710e-02 -2.481433e-02
      vertex   1.997410e-03 -1.697710e-02 -1.100000e-02
    endloop
  endfacet
  facet normal 0.000000e+00 1.000000e+00 0.000000e+00
    outer loop
      vertex   1.997410e-03 -1.697710e-02 -1.100000e-02
      vertex   -8.002591e-03 -1.697710e-02 -2.481433e-02
      vertex   -8.002591e-03 -1.697710e-02 2.664535e-17
    endloop
  endfacet
  facet normal 0.000000e+00 1.000000e+00 -0.000000e+00
    outer loop
      vertex   1.997410e-03 -1.697710e-02 -1.100000e-02
      vertex   -8.002591e-03 -1.697710e-02 2.664535e-17
      vertex   2.062601e-03 -1.697710e-02 -9.695547e-03
    endloop
  endfacet
  facet normal 0.000000e+00 1.000000e+00 -0.000000e+00
    outer loop
      vertex   2.062601e-03 -1.697710e-02 -9.695547e-03
      vertex   -8.002591e-03 -1.697710e-02 2.664535e-17
      vertex   2.257526e-03 -1.697710e-02 -8.404093e-03
    endloop
  endfacet
  facet normal 0.000000e+00 1.000000e+00 -0.000000e+00
    outer loop
      vertex   2.257526e-03 -1.697710e-02 -8.404093e-03
      vertex   -8.002591e-03 -1.697710e-02 2.664535e-17
      vertex   2.580243e-03 -1.697710e-02 -7.138510e-03
    endloop
  endfacet
  facet normal 0.000000e+00 1.000000e+00 -0.000000e+00
    outer loop
      vertex   2.580243e-03 -1.697710e-02 -7.138510e-03
      vertex   -8.002591e-03 -1.697710e-02 2.664535e-17
      vertex   3.027534e-03 -1.697710e-02 -5.911408e-03
    endloop
  endfacet
  facet normal 0.000000e+00 1.000000e+00 -0.000000e+00
    outer loop
      vertex   3.027534e-03 -1.697710e-02 -5.911408e-03
      vertex   -8.002591e-03 -1.697710e-02 2.664535e-17
      vertex   3.594943e-03 -1.697710e-02 -4.735018e-03
    endloop
  endfacet
  facet normal 0.000000e+00 1.000000e+00 -0.000000e+00
    outer loop
      vertex   3.594943e-03 -1.697710e-02 -4.735018e-03
      vertex   -8.002591e-03 -1.697710e-02 2.664535e-17
      vertex   4.276814e-03 -1.697710e-02 -3.621061e-03
    endloop
  endfacet
  facet normal 0.000000e+00 1.000000e+00 -0.000000e+00
    outer loop
      vertex   4.276814e-03 -1.697710e-02 -3.621061e-03
      vertex   -8.002591e-03 -1.697710e-02 2.664535e-17
      vertex   5.066353e-03 -1.697710e-02 -2.580641e-03
    endloop
  endfacet
  facet normal 0.000000e+00 1.000000e+00 -0.000000e+00
    outer loop
      vertex   5.066353e-03 -1.697710e-02 -2.580641e-03
      vertex   -8.002591e-03 -1.697710e-02 2.664535e-17
      vertex   5.955692e-03 -1.697710e-02 -1.624124e-03
    endloop
  endfacet
  facet normal 0.000000e+00 1.000000e+00 -0.000000e+00
    outer loop
      vertex   5.955692e-03 -1.697710e-02 -1.624124e-03
      vertex   -8.002591e-03 -1.697710e-02 2.664535e-17
      vertex   6.935967e-03 -1.697710e-02 -7.610432e-04
    endloop
  endfacet
  facet normal 0.000000e+00 1.000000e+00 -0.000000e+00
    outer loop
      vertex   6.935967e-03 -1.697710e-02 -7.610432e-04
      vertex   -8.002591e-03 -1.697710e-02 2.664535e-17
      vertex   7.997410e-03 -1.697710e-02 2.664535e-17
    endloop
  endfacet
  facet normal -1.000000e+00 0.000000e+00 0.000000e+00
    outer loop
      vertex   1.997410e-03 -1.697710e-02 -2.481433e-02
      vertex   1.997410e-03 -1.697710e-02 -1.100000e-02
      vertex   1.997410e-03 9.483857e-03 -2.481433e-02
    endloop
  endfacet
  facet normal -1.000000e+00 0.000000e+00 0.000000e+00
    outer loop
      vertex   1.997410e-03 9.483857e-03 -2.481433e-02
      vertex   1.997410e-03 -1.697710e-02 -1.100000e-02
      vertex   1.997410e-03 9.483857e-03 -1.100000e-02
    endloop
  endfacet
endsolid
