solid ASCII
  facet normal 0.000000e+00 -0.000000e+00 -1.000000e+00
    outer loop
      vertex   3.430446e-02 3.085942e-02 -2.481433e-02
      vertex   3.430446e-02 -4.714058e-02 -2.481433e-02
      vertex   1.997410e-03 -1.697710e-02 -2.481433e-02
    endloop
  endfacet
  facet normal 0.000000e+00 -0.000000e+00 -1.000000e+00
    outer loop
      vertex   1.997410e-03 -1.697710e-02 -2.481433e-02
      vertex   3.430446e-02 -4.714058e-02 -2.481433e-02
      vertex   -3.269554e-02 -4.714058e-02 -2.481433e-02
    endloop
  endfacet
  facet normal -0.000000e+00 0.000000e+00 -1.000000e+00
    outer loop
      vertex   1.997410e-03 -1.697710e-02 -2.481433e-02
      vertex   -3.269554e-02 -4.714058e-02 -2.481433e-02
      vertex   -8.002591e-03 -1.697710e-02 -2.481433e-02
    endloop
  endfacet
  facet normal -0.000000e+00 0.000000e+00 -1.000000e+00
    outer loop
      vertex   -8.002591e-03 -1.697710e-02 -2.481433e-02
      vertex   -3.269554e-02 -4.714058e-02 -2.481433e-02
      vertex   -8.002591e-03 5.395852e-04 -2.481433e-02
    endloop
  endfacet
  facet normal -0.000000e+00 0.000000e+00 -1.000000e+00
    outer loop
      vertex   -8.002591e-03 5.395852e-04 -2.481433e-02
      vertex   -3.269554e-02 -4.714058e-02 -2.481433e-02
      vertex   -3.269554e-02 3.085942e-02 -2.481433e-02
    endloop
  endfacet
  facet normal 0.000000e+00 0.000000e+00 -1.000000e+00
    outer loop
      vertex   -8.002591e-03 5.395852e-04 -2.481433e-02
      vertex   -3.269554e-02 3.085942e-02 -2.481433e-02
      vertex   -7.958568e-03 1.428676e-03 -2.481433e-02
    endloop
  endfacet
  facet normal 0.000000e+00 0.000000e+00 -1.000000e+00
    outer loop
      vertex   -7.958568e-03 1.428676e-03 -2.481433e-02
      vertex   -3.269554e-02 3.085942e-02 -2.481433e-02
      vertex   -7.826928e-03 2.309069e-03 -2.481433e-02
    endloop
  endfacet
  facet normal 0.000000e+00 0.000000e+00 -1.000000e+00
    outer loop
      vertex   -7.826928e-03 2.309069e-03 -2.481433e-02
      vertex   -3.269554e-02 3.085942e-02 -2.481433e-02
      vertex   -7.608961e-03 3.172151e-03 -2.481433e-02
    endloop
  endfacet
  facet normal 0.000000e+00 0.000000e+00 -1.000000e+00
    outer loop
      vertex   -7.608961e-03 3.172151e-03 -2.481433e-02
      vertex   -3.269554e-02 3.085942e-02 -2.481433e-02
      vertex   -7.306797e-03 4.009479e-03 -2.481433e-02
    endloop
  endfacet
  facet normal 0.000000e+00 0.000000e+00 -1.000000e+00
    outer loop
      vertex   -7.306797e-03 4.009479e-03 -2.481433e-02
      vertex   -3.269554e-02 3.085942e-02 -2.481433e-02
      vertex   -6.923394e-03 4.812861e-03 -2.481433e-02
    endloop
  endfacet
  facet normal 0.000000e+00 0.000000e+00 -1.000000e+00
    outer loop
      vertex   -6.923394e-03 4.812861e-03 -2.481433e-02
      vertex   -3.269554e-02 3.085942e-02 -2.481433e-02
      vertex   -6.462502e-03 5.574437e-03 -2.481433e-02
    endloop
  endfacet
  facet normal 0.000000e+00 0.000000e+00 -1.000000e+00
    outer loop
      vertex   -6.462502e-03 5.574437e-03 -2.481433e-02
      vertex   -3.269554e-02 3.085942e-02 -2.481433e-02
      vertex   -5.928629e-03 6.286758e-03 -2.481433e-02
    endloop
  endfacet
  facet normal 0.000000e+00 0.000000e+00 -1.000000e+00
    outer loop
      vertex   -5.928629e-03 6.286758e-03 -2.481433e-02
      vertex   -3.269554e-02 3.085942e-02 -2.481433e-02
      vertex   -5.326999e-03 6.942855e-03 -2.481433e-02
    endloop
  endfacet
  facet normal 0.000000e+00 0.000000e+00 -1.000000e+00
    outer loop
      vertex   -5.326999e-03 6.942855e-03 -2.481433e-02
      vertex   -3.269554e-02 3.085942e-02 -2.481433e-02
      vertex   -4.663499e-03 7.536308e-03 -2.481433e-02
    endloop
  endfacet
  facet normal 0.000000e+00 0.000000e+00 -1.000000e+00
    outer loop
      vertex   -4.663499e-03 7.536308e-03 -2.481433e-02
      vertex   -3.269554e-02 3.085942e-02 -2.481433e-02
      vertex   -3.944617e-03 8.061312e-03 -2.481433e-02
    endloop
  endfacet
  facet normal 0.000000e+00 0.000000e+00 -1.000000e+00
    outer loop
      vertex   -3.944617e-03 8.061312e-03 -2.481433e-02
      vertex   -3.269554e-02 3.085942e-02 -2.481433e-02
      vertex   -3.177388e-03 8.512732e-03 -2.481433e-02
    endloop
  endfacet
  facet normal 0.000000e+00 0.000000e+00 -1.000000e+00
    outer loop
      vertex   -3.177388e-03 8.512732e-03 -2.481433e-02
      vertex   -3.269554e-02 3.085942e-02 -2.481433e-02
      vertex   -2.369317e-03 8.886151e-03 -2.481433e-02
    endloop
  endfacet
  facet normal 0.000000e+00 0.000000e+00 -1.000000e+00
    outer loop
      vertex   -2.369317e-03 8.886151e-03 -2.481433e-02
      vertex   -3.269554e-02 3.085942e-02 -2.481433e-02
      vertex   -1.528309e-03 9.177915e-03 -2.481433e-02
    endloop
  endfacet
  facet normal 0.000000e+00 0.000000e+00 -1.000000e+00
    outer loop
      vertex   -1.528309e-03 9.177915e-03 -2.481433e-02
      vertex   -3.269554e-02 3.085942e-02 -2.481433e-02
      vertex   -6.625921e-04 9.385172e-03 -2.481433e-02
    endloop
  endfacet
  facet normal 0.000000e+00 0.000000e+00 -1.000000e+00
    outer loop
      vertex   -6.625921e-04 9.385172e-03 -2.481433e-02
      vertex   -3.269554e-02 3.085942e-02 -2.481433e-02
      vertex   2.193644e-04 9.505891e-03 -2.481433e-02
    endloop
  endfacet
  facet normal 0.000000e+00 0.000000e+00 -1.000000e+00
    outer loop
      vertex   2.193644e-04 9.505891e-03 -2.481433e-02
      vertex   -3.269554e-02 3.085942e-02 -2.481433e-02
      vertex   1.108932e-03 9.538894e-03 -2.481433e-02
    endloop
  endfacet
  facet normal 0.000000e+00 0.000000e+00 -1.000000e+00
    outer loop
      vertex   1.108932e-03 9.538894e-03 -2.481433e-02
      vertex   -3.269554e-02 3.085942e-02 -2.481433e-02
      vertex   3.430446e-02 3.085942e-02 -2.481433e-02
    endloop
  endfacet
  facet normal 0.000000e+00 0.000000e+00 -1.000000e+00
    outer loop
      vertex   1.108932e-03 9.538894e-03 -2.481433e-02
      vertex   3.430446e-02 3.085942e-02 -2.481433e-02
      vertex   1.997410e-03 9.483857e-03 -2.481433e-02
    endloop
  endfacet
  facet normal 0.000000e+00 0.000000e+00 -1.000000e+00
    outer loop
      vertex   1.997410e-03 9.483857e-03 -2.481433e-02
      vertex   3.430446e-02 3.085942e-02 -2.481433e-02
      vertex   1.997410e-03 -1.697710e-02 -2.481433e-02
    endloop
  endfacet
endsolid
